<?xml version="1.0" encoding="UTF-8" standalone="no"?>
<svg
   xmlns:dc="http://purl.org/dc/elements/1.1/"
   xmlns:cc="http://creativecommons.org/ns#"
   xmlns:rdf="http://www.w3.org/1999/02/22-rdf-syntax-ns#"
   xmlns:svg="http://www.w3.org/2000/svg"
   xmlns="http://www.w3.org/2000/svg"
   xmlns:sodipodi="http://sodipodi.sourceforge.net/DTD/sodipodi-0.dtd"
   xmlns:inkscape="http://www.inkscape.org/namespaces/inkscape"
   version="1.1"
   id="a"
   x="0px"
   y="0px"
   viewBox="0 0 64 64"
   style="enable-background:new 0 0 64 64;"
   xml:space="preserve"
   sodipodi:docname="deb.svg"
   inkscape:version="1.0.2 (e86c870879, 2021-01-15)"><metadata
   id="metadata23"><rdf:RDF><cc:Work
       rdf:about=""><dc:format>image/svg+xml</dc:format><dc:type
         rdf:resource="http://purl.org/dc/dcmitype/StillImage" /></cc:Work></rdf:RDF></metadata><defs
   id="defs21">
	
	
</defs><sodipodi:namedview
   pagecolor="#ffffff"
   bordercolor="#666666"
   borderopacity="1"
   objecttolerance="10"
   gridtolerance="10"
   guidetolerance="10"
   inkscape:pageopacity="0"
   inkscape:pageshadow="2"
   inkscape:window-width="1918"
   inkscape:window-height="1179"
   id="namedview19"
   showgrid="false"
   inkscape:zoom="8.1206796"
   inkscape:cx="58.243389"
   inkscape:cy="35.112561"
   inkscape:window-x="0"
   inkscape:window-y="19"
   inkscape:window-maximized="0"
   inkscape:current-layer="a"
   inkscape:document-rotation="0" />
<style
   type="text/css"
   id="style2">
	.st0{fill:#F4F4F4;}
	.st1{fill:#7F7F7F;}
</style>
<path
   class="st0"
   d="M 24.1,57.799999 C 17.5,57.799999 12.200001,52.5 12.200001,45.900002 V 18.200001 C 12.200001,11.6 17.5,6.3000012 24.1,6.3000012 H 40 c 6.599998,0 11.900002,5.2999998 11.900002,11.8999998 V 46 c 0,6.5 -5.3,11.799999 -11.900002,11.799999 z"
   id="path4"
   style="fill:#82635a;fill-opacity:1" /><path
   class="st1"
   d="m 40,7.1999998 c 6.099998,0 11.099998,5.0000002 11.099998,11.0000012 V 46 c 0,6 -5,10.900002 -11.099998,10.900002 H 24.1 c -6.1,0 -11.1,-5 -11.1,-11 V 18.200001 C 13,12.1 18,7.2000008 24.1,7.2000008 H 40 M 40,5.4000006 H 24.1 C 17,5.4000006 11.3,11.1 11.3,18.200001 V 45.900002 C 11.3,53 17,58.700001 24.1,58.700001 H 40 C 47.099998,58.700001 52.799999,53 52.799999,46 V 18.200001 C 52.799999,11.1 47.099998,5.4000006 40,5.4000006 Z"
   id="path6"
   style="fill:#72544e;fill-opacity:1" />
<g
   id="g16"
   transform="matrix(1.2153507,0,0,1.2153507,-6.9019867,-10.573941)"
   style="fill:#ff901d;fill-opacity:1">
	<path
   class="st1"
   d="m 28.42915,50.230469 c -0.132813,0.04004 -0.286133,0.07813 -0.459473,0.115234 -0.17334,0.03613 -0.354981,0.06836 -0.544922,0.09473 -0.189941,0.02637 -0.383301,0.04785 -0.580078,0.06543 -0.196777,0.01563 -0.384766,0.02441 -0.564942,0.02441 -0.433593,0 -0.819824,-0.06348 -1.160156,-0.189454 -0.339844,-0.126953 -0.626465,-0.308593 -0.859863,-0.545898 -0.233398,-0.236328 -0.411621,-0.522461 -0.535156,-0.859375 -0.123047,-0.336914 -0.184571,-0.714844 -0.184571,-1.134766 0,-0.426757 0.05322,-0.811523 0.159668,-1.155273 0.106934,-0.34375 0.260254,-0.634766 0.459961,-0.875 0.200196,-0.240234 0.445313,-0.423828 0.735352,-0.549805 0.290039,-0.126953 0.621582,-0.190429 0.994629,-0.190429 0.206543,0 0.391601,0.02051 0.555176,0.06055 0.163086,0.04004 0.328125,0.09668 0.495117,0.169921 V 42.88086 l 1.489258,-0.240235 z m -3.369141,-2.5 c 0,0.459961 0.103027,0.830078 0.30957,1.110351 0.206543,0.279297 0.513672,0.419922 0.92041,0.419922 0.133301,0 0.256348,-0.0049 0.369629,-0.01563 0.113282,-0.0098 0.206543,-0.02148 0.280274,-0.03516 V 46.5 c -0.09375,-0.05957 -0.215332,-0.109375 -0.365235,-0.149414 -0.149902,-0.04004 -0.301757,-0.06055 -0.455078,-0.06055 -0.706543,0 -1.05957,0.480469 -1.05957,1.44043 z"
   id="path10"
   style="fill:#ff901d;fill-opacity:1" />
	<path
   class="st1"
   d="m 29.57954,47.810547 c 0,-0.466797 0.07129,-0.875 0.214844,-1.225586 0.143555,-0.349609 0.331055,-0.641602 0.56543,-0.875 0.232422,-0.232422 0.500976,-0.40918 0.804687,-0.529297 C 31.467236,45.060547 31.779736,45 32.099071,45 c 0.747071,0 1.336915,0.228516 1.770508,0.685547 0.432617,0.457031 0.649414,1.12793 0.649414,2.014648 0,0.08691 -0.0029,0.181641 -0.0098,0.285156 -0.0068,0.103516 -0.01367,0.195313 -0.01953,0.275391 H 31.10978 c 0.0332,0.306641 0.175781,0.549805 0.429687,0.729492 0.25293,0.179688 0.592774,0.270508 1.019531,0.270508 0.273438,0 0.541993,-0.02539 0.805665,-0.0752 0.262695,-0.0498 0.477539,-0.111328 0.644531,-0.185547 l 0.200195,1.209961 c -0.08008,0.04004 -0.186523,0.08008 -0.320312,0.120117 -0.132813,0.04004 -0.28125,0.0752 -0.444336,0.105469 -0.164063,0.03027 -0.338868,0.05469 -0.525391,0.0752 -0.186523,0.01953 -0.373047,0.0293 -0.55957,0.0293 -0.473633,0 -0.885742,-0.06934 -1.235352,-0.209961 -0.350586,-0.139648 -0.639648,-0.331055 -0.870117,-0.574219 -0.230469,-0.24414 -0.400391,-0.532226 -0.509766,-0.865234 -0.110351,-0.333984 -0.165039,-0.693359 -0.165039,-1.080078 z m 3.5,-0.570313 c -0.0068,-0.125976 -0.02832,-0.25 -0.06543,-0.370117 -0.03613,-0.120117 -0.09277,-0.226562 -0.169922,-0.319336 -0.07617,-0.09375 -0.172852,-0.169922 -0.290039,-0.230469 -0.116211,-0.05957 -0.261719,-0.08984 -0.434571,-0.08984 -0.166992,0 -0.310547,0.02832 -0.430664,0.08496 -0.11914,0.05664 -0.219726,0.131835 -0.299805,0.224609 -0.08008,0.09375 -0.141601,0.202148 -0.18457,0.325195 -0.04395,0.124024 -0.0752,0.249024 -0.09473,0.375 h 1.969726 z"
   id="path12"
   style="fill:#ff901d;fill-opacity:1" />
	<path
   class="st1"
   d="m 40.560009,47.770508 c 0,0.419922 -0.06152,0.799804 -0.18457,1.139648 -0.124024,0.339844 -0.301758,0.629883 -0.535157,0.870117 -0.233398,0.240235 -0.520507,0.424805 -0.860351,0.554688 -0.339844,0.130859 -0.726563,0.195312 -1.160156,0.195312 -0.179688,0 -0.368164,-0.0088 -0.564453,-0.02441 -0.197266,-0.01758 -0.390625,-0.03906 -0.580079,-0.06543 -0.190429,-0.02637 -0.37207,-0.05859 -0.544921,-0.09473 -0.173829,-0.03711 -0.327149,-0.0752 -0.459961,-0.115234 v -7.34961 l 1.490234,-0.240234 v 2.620117 c 0.166016,-0.07324 0.339844,-0.129883 0.519531,-0.169922 0.179688,-0.04004 0.373047,-0.06055 0.580078,-0.06055 0.373047,0 0.703125,0.06543 0.990235,0.195313 0.286133,0.129882 0.526367,0.314453 0.719726,0.554687 0.19336,0.240235 0.339844,0.52832 0.44043,0.865235 0.09961,0.336914 0.149414,0.711914 0.149414,1.125 z m -1.519531,-0.04004 c 0,-0.959961 -0.353516,-1.44043 -1.060547,-1.44043 -0.15332,0 -0.304688,0.02051 -0.455078,0.06055 -0.149414,0.04004 -0.271485,0.08984 -0.364258,0.149414 v 2.709961 c 0.07324,0.01367 0.166015,0.02539 0.279297,0.03516 0.113281,0.01074 0.237304,0.01563 0.370117,0.01563 0.40625,0 0.713867,-0.140625 0.919922,-0.419922 0.207031,-0.280273 0.310547,-0.65039 0.310547,-1.110351 z"
   id="path14"
   style="fill:#ff901d;fill-opacity:1" />
</g>
</svg>
