<?xml version="1.0" encoding="UTF-8" standalone="no"?>
<svg
   xmlns:ns2="http://ns.adobe.com/AdobeIllustrator/10.0/"
   xmlns:dc="http://purl.org/dc/elements/1.1/"
   xmlns:cc="http://creativecommons.org/ns#"
   xmlns:rdf="http://www.w3.org/1999/02/22-rdf-syntax-ns#"
   xmlns:svg="http://www.w3.org/2000/svg"
   xmlns="http://www.w3.org/2000/svg"
   xmlns:sodipodi="http://sodipodi.sourceforge.net/DTD/sodipodi-0.dtd"
   xmlns:inkscape="http://www.inkscape.org/namespaces/inkscape"
   version="1.1"
   id="a"
   x="0px"
   y="0px"
   viewBox="0 0 64 64"
   style="enable-background:new 0 0 64 64;"
   xml:space="preserve"
   sodipodi:docname="deb.svg"
   inkscape:version="1.0.2 (e86c870879, 2021-01-15)"><metadata
   id="metadata23"><rdf:RDF><cc:Work
       rdf:about=""><dc:format>image/svg+xml</dc:format><dc:type
         rdf:resource="http://purl.org/dc/dcmitype/StillImage" /></cc:Work></rdf:RDF></metadata><defs
   id="defs21" /><sodipodi:namedview
   pagecolor="#ffffff"
   bordercolor="#666666"
   borderopacity="1"
   objecttolerance="10"
   gridtolerance="10"
   guidetolerance="10"
   inkscape:pageopacity="0"
   inkscape:pageshadow="2"
   inkscape:window-width="1574"
   inkscape:window-height="1115"
   id="namedview19"
   showgrid="false"
   inkscape:zoom="1.4355469"
   inkscape:cx="-140.46733"
   inkscape:cy="40.370877"
   inkscape:window-x="273"
   inkscape:window-y="19"
   inkscape:window-maximized="0"
   inkscape:current-layer="a" />
<style
   type="text/css"
   id="style2">
	.st0{fill:#F4F4F4;}
	.st1{fill:#7F7F7F;}
</style>
<g
   id="g8">
	<path
   class="st0"
   d="M24.1000004,57.7999992C17.5,57.7999992,12.2000008,52.5,12.2000008,45.9000015V18.2000008   c0-6.6000004,5.2999992-11.8999996,11.8999996-11.8999996H40c6.5999985,0,11.9000015,5.3000002,11.9000015,11.8999996V46   c0,6.5-5.2999992,11.7999992-11.9000015,11.7999992H24.1000004z"
   id="path4" />
	<path
   class="st1"
   d="M40,7.1999998c6.0999985,0,11.0999985,5,11.0999985,11.000001V46c0,6-5,10.9000015-11.0999985,10.9000015   H24.1000004c-6.1000004,0-11.1000004-5-11.1000004-11V18.2000008c0-6.1000004,5-11,11.1000004-11H40 M40,5.4000006H24.1000004   c-7.1000004,0-12.8000002,5.6999998-12.8000002,12.8000002v27.7000008C11.3000002,53,17,58.7000008,24.1000004,58.7000008H40   C47.0999985,58.7000008,52.7999992,53,52.7999992,46V18.2000008C52.7999992,11.1000004,47.0999985,5.4000006,40,5.4000006   L40,5.4000006z"
   id="path6" />
</g>

<g
   id="Layer_1"
   ns2:layer="yes"
   ns2:dimmedPercent="50"
   ns2:rgbTrio="#4F008000FFFF"
   transform="matrix(0.24992955,0,0,0.24992955,21.194754,13.108687)"><g
     id="g28"><path
       ns2:knockout="Off"
       fill="#a80030"
       d="m 51.986,57.297 c -1.797,0.025 0.34,0.926 2.686,1.287 0.648,-0.506 1.236,-1.018 1.76,-1.516 -1.461,0.358 -2.948,0.366 -4.446,0.229"
       id="path4-3" /><path
       ns2:knockout="Off"
       fill="#a80030"
       d="m 61.631,54.893 c 1.07,-1.477 1.85,-3.094 2.125,-4.766 -0.24,1.192 -0.887,2.221 -1.496,3.307 -3.359,2.115 -0.316,-1.256 -0.002,-2.537 -3.612,4.546 -0.496,2.726 -0.627,3.996"
       id="path6-6" /><path
       ns2:knockout="Off"
       fill="#a80030"
       d="m 65.191,45.629 c 0.217,-3.236 -0.637,-2.213 -0.924,-0.978 0.335,0.174 0.6,2.281 0.924,0.978"
       id="path8" /><path
       ns2:knockout="Off"
       fill="#a80030"
       d="m 45.172,1.399 c 0.959,0.172 2.072,0.304 1.916,0.533 1.049,-0.23 1.287,-0.442 -1.916,-0.533"
       id="path10-7" /><path
       ns2:knockout="Off"
       fill="#a80030"
       d="M 47.088,1.932 46.41,2.072 47.041,2.016 47.088,1.932"
       id="path12-5" /><path
       ns2:knockout="Off"
       fill="#a80030"
       d="m 76.992,46.856 c 0.107,2.906 -0.85,4.316 -1.713,6.812 l -1.553,0.776 c -1.271,2.468 0.123,1.567 -0.787,3.53 -1.984,1.764 -6.021,5.52 -7.313,5.863 -0.943,-0.021 0.639,-1.113 0.846,-1.541 -2.656,1.824 -2.131,2.738 -6.193,3.846 L 60.16,65.878 C 50.142,70.591 36.226,61.251 36.409,48.507 c -0.107,0.809 -0.304,0.607 -0.526,0.934 -0.517,-6.557 3.028,-13.143 9.007,-15.832 5.848,-2.895 12.704,-1.707 16.893,2.197 -2.301,-3.014 -6.881,-6.209 -12.309,-5.91 -5.317,0.084 -10.291,3.463 -11.951,7.131 -2.724,1.715 -3.04,6.611 -4.227,7.507 -1.597,11.737 3.004,16.808 10.787,22.773 1.225,0.826 0.345,0.951 0.511,1.58 -2.586,-1.211 -4.954,-3.039 -6.901,-5.277 1.033,1.512 2.148,2.982 3.589,4.137 -2.438,-0.826 -5.695,-5.908 -6.646,-6.115 4.203,7.525 17.052,13.197 23.78,10.383 -3.113,0.115 -7.068,0.064 -10.566,-1.229 -1.469,-0.756 -3.467,-2.322 -3.11,-2.615 9.182,3.43 18.667,2.598 26.612,-3.771 2.021,-1.574 4.229,-4.252 4.867,-4.289 -0.961,1.445 0.164,0.695 -0.574,1.971 2.014,-3.248 -0.875,-1.322 2.082,-5.609 l 1.092,1.504 c -0.406,-2.696 3.348,-5.97 2.967,-10.234 0.861,-1.304 0.961,1.403 0.047,4.403 1.268,-3.328 0.334,-3.863 0.66,-6.609 0.352,0.923 0.814,1.904 1.051,2.878 -0.826,-3.216 0.848,-5.416 1.262,-7.285 -0.408,-0.181 -1.275,1.422 -1.473,-2.377 0.029,-1.65 0.459,-0.865 0.625,-1.271 -0.324,-0.186 -1.174,-1.451 -1.691,-3.877 0.375,-0.57 1.002,1.478 1.512,1.562 -0.328,-1.929 -0.893,-3.4 -0.916,-4.88 -1.49,-3.114 -0.527,0.415 -1.736,-1.337 -1.586,-4.947 1.316,-1.148 1.512,-3.396 2.404,3.483 3.775,8.881 4.404,11.117 -0.48,-2.726 -1.256,-5.367 -2.203,-7.922 0.73,0.307 -1.176,-5.609 0.949,-1.691 C 83.519,18.706 76.074,10.902 69.225,7.24 70.063,8.007 71.121,8.97 70.741,9.121 67.335,7.093 67.934,6.935 67.446,6.078 64.671,4.949 64.489,6.169 62.651,6.08 57.421,3.306 56.413,3.601 51.6,1.863 l 0.219,1.023 c -3.465,-1.154 -4.037,0.438 -7.782,0.004 -0.228,-0.178 1.2,-0.644 2.375,-0.815 -3.35,0.442 -3.193,-0.66 -6.471,0.122 0.808,-0.567 1.662,-0.942 2.524,-1.424 -2.732,0.166 -6.522,1.59 -5.352,0.295 -4.456,1.988 -12.37,4.779 -16.811,8.943 l -0.14,-0.933 c -2.035,2.443 -8.874,7.296 -9.419,10.46 l -0.544,0.127 c -1.059,1.793 -1.744,3.825 -2.584,5.67 -1.385,2.36 -2.03,0.908 -1.833,1.278 -2.724,5.523 -4.077,10.164 -5.246,13.97 0.833,1.245 0.02,7.495 0.335,12.497 -1.368,24.704 17.338,48.69 37.785,54.228 2.997,1.072 7.454,1.031 11.245,1.141 -4.473,-1.279 -5.051,-0.678 -9.408,-2.197 -3.143,-1.48 -3.832,-3.17 -6.058,-5.102 l 0.881,1.557 c -4.366,-1.545 -2.539,-1.912 -6.091,-3.037 l 0.941,-1.229 C 28.751,98.334 26.418,96.056 25.78,94.795 l -1.548,0.061 c -1.86,-2.295 -2.851,-3.949 -2.779,-5.23 l -0.5,0.891 c -0.567,-0.973 -6.843,-8.607 -3.587,-6.83 -0.605,-0.553 -1.409,-0.9 -2.281,-2.484 l 0.663,-0.758 c -1.567,-2.016 -2.884,-4.6 -2.784,-5.461 0.836,1.129 1.416,1.34 1.99,1.533 -3.957,-9.818 -4.179,-0.541 -7.176,-9.994 L 8.412,66.472 C 7.926,65.74 7.631,64.945 7.24,64.165 l 0.276,-2.75 C 4.667,58.121 6.719,47.409 7.13,41.534 7.415,39.145 9.508,36.602 11.1,32.614 l -0.97,-0.167 c 1.854,-3.234 10.586,-12.988 14.63,-12.486 1.959,-2.461 -0.389,-0.009 -0.772,-0.629 4.303,-4.453 5.656,-3.146 8.56,-3.947 3.132,-1.859 -2.688,0.725 -1.203,-0.709 5.414,-1.383 3.837,-3.144 10.9,-3.846 0.745,0.424 -1.729,0.655 -2.35,1.205 4.511,-2.207 14.275,-1.705 20.617,1.225 7.359,3.439 15.627,13.605 15.953,23.17 l 0.371,0.1 c -0.188,3.802 0.582,8.199 -0.752,12.238 l 0.908,-1.912"
       id="path14-3" /><path
       ns2:knockout="Off"
       fill="#a80030"
       d="m 32.372,59.764 -0.252,1.26 c 1.181,1.604 2.118,3.342 3.626,4.596 -1.085,-2.118 -1.891,-2.993 -3.374,-5.856"
       id="path16" /><path
       ns2:knockout="Off"
       fill="#a80030"
       d="m 35.164,59.654 c -0.625,-0.691 -0.995,-1.523 -1.409,-2.352 0.396,1.457 1.207,2.709 1.962,3.982 l -0.553,-1.63"
       id="path18" /><path
       ns2:knockout="Off"
       fill="#a80030"
       d="m 84.568,48.916 -0.264,0.662 c -0.484,3.438 -1.529,6.84 -3.131,9.994 1.77,-3.328 2.915,-6.968 3.395,-10.656"
       id="path20" /><path
       ns2:knockout="Off"
       fill="#a80030"
       d="M 45.527,0.537 C 46.742,0.092 48.514,0.293 49.803,0 48.123,0.141 46.451,0.225 44.8,0.438 l 0.727,0.099"
       id="path22" /><path
       ns2:knockout="Off"
       fill="#a80030"
       d="m 2.872,23.219 c 0.28,2.592 -1.95,3.598 0.494,1.889 1.31,-2.951 -0.512,-0.815 -0.494,-1.889"
       id="path24" /><path
       ns2:knockout="Off"
       fill="#a80030"
       d="M 0,35.215 C 0.563,33.487 0.665,32.449 0.88,31.449 -0.676,33.438 0.164,33.862 0,35.215"
       id="path26" /></g></g><g
   id="g16">
	<path
   class="st1"
   d="M28.4291496,50.2304688c-0.1328125,0.0400391-0.2861328,0.078125-0.4594727,0.1152344   c-0.1733398,0.0361328-0.3549805,0.0683594-0.5449219,0.0947266s-0.3833008,0.0478516-0.5800781,0.0654297   c-0.1967773,0.015625-0.3847656,0.0244141-0.5649414,0.0244141c-0.4335938,0-0.8198242-0.0634766-1.1601562-0.1894531   c-0.3398438-0.1269531-0.6264648-0.3085938-0.8598633-0.5458984c-0.2333984-0.2363281-0.4116211-0.5224609-0.5351562-0.859375   c-0.1230469-0.3369141-0.1845703-0.7148438-0.1845703-1.1347656c0-0.4267578,0.0532227-0.8115234,0.159668-1.1552734   c0.1069336-0.34375,0.2602539-0.6347656,0.4599609-0.875c0.2001953-0.2402344,0.4453125-0.4238281,0.7353516-0.5498047   c0.2900391-0.1269531,0.621582-0.1904297,0.9946289-0.1904297c0.206543,0,0.3916016,0.0205078,0.5551758,0.0605469   c0.1630859,0.0400391,0.328125,0.0966797,0.4951172,0.1699219v-2.3798828l1.4892578-0.2402344V50.2304688z M25.060009,47.7304688   c0,0.4599609,0.1030273,0.8300781,0.3095703,1.1103516c0.206543,0.2792969,0.5136719,0.4199219,0.9204102,0.4199219   c0.1333008,0,0.2563477-0.0048828,0.3696289-0.015625c0.1132812-0.0097656,0.206543-0.0214844,0.2802734-0.0351562V46.5   c-0.09375-0.0595703-0.215332-0.109375-0.3652344-0.1494141s-0.3017578-0.0605469-0.4550781-0.0605469   C25.4130363,46.2900391,25.060009,46.7705078,25.060009,47.7304688z"
   id="path10" />
	<path
   class="st1"
   d="M29.5795403,47.8105469c0-0.4667969,0.0712891-0.875,0.2148438-1.2255859   c0.1435547-0.3496094,0.3310547-0.6416016,0.5654297-0.875c0.2324219-0.2324219,0.5009766-0.4091797,0.8046875-0.5292969   C31.4672356,45.0605469,31.7797356,45,32.0990715,45c0.7470703,0,1.3369141,0.2285156,1.7705078,0.6855469   c0.4326172,0.4570312,0.6494141,1.1279297,0.6494141,2.0146484c0,0.0869141-0.0029297,0.1816406-0.0097656,0.2851562   s-0.0136719,0.1953125-0.0195312,0.2753906h-3.3798828c0.0332031,0.3066406,0.1757812,0.5498047,0.4296875,0.7294922   c0.2529297,0.1796875,0.5927734,0.2705078,1.0195312,0.2705078c0.2734375,0,0.5419922-0.0253906,0.8056641-0.0751953   C33.6273918,49.1357422,33.8422356,49.0742188,34.0092278,49l0.2001953,1.2099609   c-0.0800781,0.0400391-0.1865234,0.0800781-0.3203125,0.1201172c-0.1328125,0.0400391-0.28125,0.0751953-0.4443359,0.1054688   c-0.1640625,0.0302734-0.3388672,0.0546875-0.5253906,0.0751953c-0.1865234,0.0195312-0.3730469,0.0292969-0.5595703,0.0292969   c-0.4736328,0-0.8857422-0.0693359-1.2353516-0.2099609c-0.3505859-0.1396484-0.6396484-0.3310547-0.8701172-0.5742188   c-0.2304688-0.2441406-0.4003906-0.5322266-0.5097656-0.8652344   C29.6342278,48.5566406,29.5795403,48.1972656,29.5795403,47.8105469z M33.0795403,47.2402344   c-0.0068359-0.1259766-0.0283203-0.25-0.0654297-0.3701172c-0.0361328-0.1201172-0.0927734-0.2265625-0.1699219-0.3193359   c-0.0761719-0.09375-0.1728516-0.1699219-0.2900391-0.2304688c-0.1162109-0.0595703-0.2617188-0.0898438-0.4345703-0.0898438   c-0.1669922,0-0.3105469,0.0283203-0.4306641,0.0849609c-0.1191406,0.0566406-0.2197266,0.1318359-0.2998047,0.2246094   c-0.0800781,0.09375-0.1416016,0.2021484-0.1845703,0.3251953c-0.0439453,0.1240234-0.0751953,0.2490234-0.0947266,0.375   H33.0795403z"
   id="path12" />
	<path
   class="st1"
   d="M40.560009,47.7705078c0,0.4199219-0.0615234,0.7998047-0.1845703,1.1396484   c-0.1240234,0.3398438-0.3017578,0.6298828-0.5351562,0.8701172s-0.5205078,0.4248047-0.8603516,0.5546875   c-0.3398438,0.1308594-0.7265625,0.1953125-1.1601562,0.1953125c-0.1796875,0-0.3681641-0.0087891-0.5644531-0.0244141   c-0.1972656-0.0175781-0.390625-0.0390625-0.5800781-0.0654297c-0.1904297-0.0263672-0.3720703-0.0585938-0.5449219-0.0947266   c-0.1738281-0.0371094-0.3271484-0.0751953-0.4599609-0.1152344v-7.3496094l1.4902344-0.2402344v2.6201172   c0.1660156-0.0732422,0.3398438-0.1298828,0.5195312-0.1699219s0.3730469-0.0605469,0.5800781-0.0605469   c0.3730469,0,0.703125,0.0654297,0.9902344,0.1953125c0.2861328,0.1298828,0.5263672,0.3144531,0.7197266,0.5546875   s0.3398438,0.5283203,0.4404297,0.8652344C40.5102043,46.9824219,40.560009,47.3574219,40.560009,47.7705078z    M39.0404778,47.7304688c0-0.9599609-0.3535156-1.4404297-1.0605469-1.4404297   c-0.1533203,0-0.3046875,0.0205078-0.4550781,0.0605469C37.3754387,46.390625,37.2533684,46.4404297,37.1605949,46.5v2.7099609   c0.0732422,0.0136719,0.1660156,0.0253906,0.2792969,0.0351562c0.1132812,0.0107422,0.2373047,0.015625,0.3701172,0.015625   c0.40625,0,0.7138672-0.140625,0.9199219-0.4199219C38.9369621,48.5605469,39.0404778,48.1904297,39.0404778,47.7304688z"
   id="path14" />
</g></svg>
