<?xml version="1.0" encoding="utf-8"?>
<!-- Generator: Adobe Illustrator 25.1.0, SVG Export Plug-In . SVG Version: 6.00 Build 0)  -->
<svg version="1.1" id="Layer_1" xmlns="http://www.w3.org/2000/svg" xmlns:xlink="http://www.w3.org/1999/xlink" x="0px" y="0px"
	 viewBox="0 0 64 64" style="enable-background:new 0 0 64 64;" xml:space="preserve">
<style type="text/css">
	.st0{fill:url(#SVGID_1_);}
	.st1{fill:url(#SVGID_2_);}
	.st2{fill:url(#SVGID_3_);}
	.st3{fill:url(#SVGID_4_);}
	.st4{fill:url(#SVGID_5_);}
</style>
<g>
	<linearGradient id="SVGID_1_" gradientUnits="userSpaceOnUse" x1="28.7063" y1="46.876" x2="28.6058" y2="54.8907">
		<stop  offset="0" style="stop-color:#454554"/>
		<stop  offset="0.1243" style="stop-color:#3D3D47"/>
		<stop  offset="0.3313" style="stop-color:#353539"/>
		<stop  offset="0.5829" style="stop-color:#303031"/>
		<stop  offset="1" style="stop-color:#2E2E2E"/>
	</linearGradient>
	<path class="st0" d="M33.2,46.8c-0.1-0.1-0.3-0.2-0.4-0.3c-0.2-0.1-0.3-0.1-0.5-0.1h-7.1c-0.7,0-1.3,0.6-1.3,1.3v5.7h4.9h4.9v-5.7
		C33.6,47.4,33.4,47,33.2,46.8z"/>
	<linearGradient id="SVGID_2_" gradientUnits="userSpaceOnUse" x1="28.3964" y1="43.1765" x2="29.116" y2="17.5403">
		<stop  offset="0" style="stop-color:#98F9FF"/>
		<stop  offset="1" style="stop-color:#D7FFFF"/>
	</linearGradient>
	<path class="st1" d="M47.3,20.1L47.3,20.1l-6.2,0.4H28.7H13.6c-2,0-3.6,1.6-3.6,3.6v19.7l18.6,2.7h0l0,0l18.6-2.7L47.3,20.1
		L47.3,20.1z"/>
	<linearGradient id="SVGID_3_" gradientUnits="userSpaceOnUse" x1="28.5214" y1="57.723" x2="28.7912" y2="32.0868">
		<stop  offset="0" style="stop-color:#2E2E2E"/>
		<stop  offset="1" style="stop-color:#454554"/>
	</linearGradient>
	<path class="st2" d="M37.2,53.5c0,0.7-0.6,1.3-1.3,1.3h-7.2h-7.2c-0.7,0-1.3-0.6-1.3-1.3c0-0.7,0.6-1.3,1.3-1.3h7.2h7.2h0
		c0.2,0,0.4,0,0.5,0.1C36.8,52.4,37.2,52.9,37.2,53.5z M28.7,43.7H10v1.9c0,2,1.6,3.6,3.6,3.6h15.1h15.1c2,0,3.6-1.6,3.6-3.6v-1.9
		H28.7z"/>
	<linearGradient id="SVGID_4_" gradientUnits="userSpaceOnUse" x1="26.1681" y1="36.6877" x2="45.5977" y2="18.3375">
		<stop  offset="0" style="stop-color:#FFD845"/>
		<stop  offset="1" style="stop-color:#FF9D21"/>
	</linearGradient>
	<path class="st3" d="M43,20l-5.6-0.5l-2.6,2.1c-1.1,0.9-1.7,2.1-1.8,3.5c0,0.5,0,1,0.2,1.4c-0.5-0.2-1-0.3-1.5-0.3
		c-1.1,0-2.2,0.3-3.1,1c-0.2,0.2-0.4,0.4-0.7,0.6c-1,1-1.5,2.5-1.4,4.4c0.1,3.2-1.1,4.5-1.1,4.5c-0.3,0.3-0.3,0.7,0,0.9
		c0.1,0.1,0.3,0.2,0.5,0.2c0.2,0,0.3-0.1,0.5-0.2c0,0,0.7-0.6,2.2-0.9c0.6-0.1,1.4-0.2,2.4-0.2c1.9,0.1,3.4-0.4,4.4-1.4
		c1.4-1.4,1.8-3.4,1.3-5.2c0.4,0.1,0.8,0.2,1.2,0.2c0.1,0,0.2,0,0.2,0c1.4-0.1,2.6-0.7,3.5-1.8l2.1-2.6L43,20z"/>
	<linearGradient id="SVGID_5_" gradientUnits="userSpaceOnUse" x1="40.505" y1="22.7901" x2="50.6696" y2="10.107">
		<stop  offset="0" style="stop-color:#454554"/>
		<stop  offset="0.1243" style="stop-color:#3D3D47"/>
		<stop  offset="0.3313" style="stop-color:#353539"/>
		<stop  offset="0.5829" style="stop-color:#303031"/>
		<stop  offset="1" style="stop-color:#2E2E2E"/>
	</linearGradient>
	<path class="st4" d="M53.3,14l-9.6,11.7l-6.3-6.3l11.7-9.6c1.2-1,2.9-0.9,4,0.2C54.2,11.1,54.3,12.8,53.3,14L53.3,14z"/>
</g>
</svg>
