<?xml version="1.0" encoding="utf-8"?>
<!-- Generator: Adobe Illustrator 25.1.0, SVG Export Plug-In . SVG Version: 6.00 Build 0)  -->
<svg version="1.1" id="Layer_1" xmlns="http://www.w3.org/2000/svg" xmlns:xlink="http://www.w3.org/1999/xlink" x="0px" y="0px"
	 viewBox="0 0 64 64" style="enable-background:new 0 0 64 64;" xml:space="preserve">
<style type="text/css">
	.st0{fill:url(#SVGID_1_);}
	.st1{fill:url(#SVGID_2_);}
</style>
<g>
	<linearGradient id="SVGID_1_" gradientUnits="userSpaceOnUse" x1="20.4557" y1="23.9515" x2="20.4183" y2="33.3425">
		<stop  offset="0" style="stop-color:#2ADE7A"/>
		<stop  offset="1" style="stop-color:#20B48D"/>
	</linearGradient>
	<rect x="14.3" y="22.9" class="st0" width="12.2" height="12.2"/>
	<g>
		<linearGradient id="SVGID_2_" gradientUnits="userSpaceOnUse" x1="32.3411" y1="42.6702" x2="30.6461" y2="19.618">
			<stop  offset="0" style="stop-color:#2E2E2E"/>
			<stop  offset="1" style="stop-color:#454554"/>
		</linearGradient>
		<path class="st1" d="M52.5,21.3C45.9,10.4,36,18,36,18c-0.6,0.5-1.8,0.9-2.6,0.9l-2.7,0c-0.8,0-2-0.4-2.6-0.9c0,0-10-7.6-16.6,3.3
			C4.8,32.1,7.5,44,7.5,44c0.5,2.9,2,4.8,4.9,4.6c2.9-0.2,9.2-7.8,9.2-7.8c0.5-0.6,1.6-1.1,2.4-1.1l16,0c0.8,0,1.9,0.5,2.4,1.1
			c0,0,6.3,7.6,9.2,7.8c2.9,0.2,4.4-1.7,4.9-4.6C56.5,44,59.2,32.1,52.5,21.3z M26,30.1h-3.4v3.3c0,0-0.7,0.6-1.8,0.5
			c-1.1,0-1.6-0.6-1.6-0.6v-3.2h-3.2c0,0-0.4-0.4-0.5-1.5c-0.1-1.1,0.4-2,0.4-2h3.4v-3.4c0,0,0.7-0.4,1.7-0.3c1,0,1.8,0.4,1.8,0.4
			l0,3.4h3.2c0,0,0.6,0.7,0.6,1.6C26.6,29.1,26,30.1,26,30.1z M41.7,33.9c-1.5,0-2.7-1.2-2.7-2.7c0-1.5,1.2-2.7,2.7-2.7
			c1.5,0,2.7,1.2,2.7,2.7C44.4,32.7,43.2,33.9,41.7,33.9z M41.7,26.4c-1.5,0-2.7-1.2-2.7-2.7c0-1.5,1.2-2.7,2.7-2.7
			c1.5,0,2.7,1.2,2.7,2.7C44.4,25.2,43.2,26.4,41.7,26.4z M48.5,30.4c-1.5,0-2.7-1.2-2.7-2.7c0-1.5,1.2-2.7,2.7-2.7
			c1.5,0,2.7,1.2,2.7,2.7C51.2,29.2,50,30.4,48.5,30.4z"/>
	</g>
</g>
</svg>
