<?xml version="1.0" encoding="utf-8"?>
<!-- Generator: Adobe Illustrator 25.1.0, SVG Export Plug-In . SVG Version: 6.00 Build 0)  -->
<svg version="1.1" id="Layer_1" xmlns="http://www.w3.org/2000/svg" xmlns:xlink="http://www.w3.org/1999/xlink" x="0px" y="0px"
	 viewBox="0 0 64 64" style="enable-background:new 0 0 64 64;" xml:space="preserve">
<style type="text/css">
	.st0{fill:url(#SVGID_1_);}
	.st1{fill:url(#SVGID_2_);}
	.st2{fill:url(#SVGID_3_);}
	.st3{fill:url(#SVGID_4_);}
	.st4{fill:url(#SVGID_5_);}
	.st5{fill:url(#SVGID_6_);}
	.st6{fill:url(#SVGID_7_);}
</style>
<g>
	<linearGradient id="SVGID_1_" gradientUnits="userSpaceOnUse" x1="31.8593" y1="20.9987" x2="32.0746" y2="38.0101">
		<stop  offset="0" style="stop-color:#FFD845"/>
		<stop  offset="1" style="stop-color:#FF9D21"/>
	</linearGradient>
	<circle class="st0" cx="32" cy="32" r="6.3"/>
	<linearGradient id="SVGID_2_" gradientUnits="userSpaceOnUse" x1="9.1935" y1="32" x2="54.8064" y2="32">
		<stop  offset="0" style="stop-color:#2E2E2E"/>
		<stop  offset="1" style="stop-color:#454554"/>
	</linearGradient>
	<path class="st1" d="M48.1,15.9C40.2,8,28.2,7.2,19.4,13c-0.1,0.1-4.4,3.8-4.5,3.9c-7,7.9-7.7,19.8-1.3,28.5c0.1,0.1,4,4.2,4.1,4.3
		c8.8,7.1,21.9,6.8,30.4-1.7C57,39.2,57,24.8,48.1,15.9z M32,52.1c-4.6,0-8.9-1.5-12.5-4.4l-3.8-4c-5.6-7.7-4.9-18.1,1.2-25l4.1-3.6
		c3.3-2.2,7.1-3.3,11-3.3c11.1,0,20.1,9,20.1,20.1S43.1,52.1,32,52.1z"/>
	<linearGradient id="SVGID_3_" gradientUnits="userSpaceOnUse" x1="16.3496" y1="32.0015" x2="47.6506" y2="32.0015">
		<stop  offset="0" style="stop-color:#2E2E2E"/>
		<stop  offset="1" style="stop-color:#454554"/>
	</linearGradient>
	<path class="st2" d="M46.1,25.3c-0.1-0.2,0.1,0.2-3.6-4.8c-0.1-0.1-0.1-0.1-0.2-0.2c-2.9-2.6-6.6-4-10.4-4c-8.6,0-15.6,7-15.6,15.6
		s7,15.6,15.6,15.6c0.1,0,0.2,0,0.4,0c6.1-1.3,5.7-1.2,5.9-1.3C46.4,42.8,49.9,33.2,46.1,25.3L46.1,25.3z M37.3,43.9
		C37.2,43.9,32,45,32,45c-7.1,0-12.9-5.8-12.9-13c0-7.1,5.8-13,13-13c3.1,0,6.2,1.1,8.5,3.2l3.3,4.3C46.8,33,43.9,40.9,37.3,43.9z"
		/>
	<linearGradient id="SVGID_4_" gradientUnits="userSpaceOnUse" x1="39.2418" y1="23.4169" x2="47.6475" y2="23.4169">
		<stop  offset="0" style="stop-color:#1379E6"/>
		<stop  offset="1" style="stop-color:#115CCC"/>
	</linearGradient>
	<circle class="st3" cx="43.4" cy="23.4" r="4.2"/>
	<linearGradient id="SVGID_5_" gradientUnits="userSpaceOnUse" x1="13.4881" y1="15.5477" x2="21.8938" y2="15.5477">
		<stop  offset="0" style="stop-color:#2ADE7A"/>
		<stop  offset="1" style="stop-color:#20B48D"/>
	</linearGradient>
	<circle class="st4" cx="17.7" cy="15.5" r="4.2"/>
	<linearGradient id="SVGID_6_" gradientUnits="userSpaceOnUse" x1="12.0574" y1="47.0245" x2="20.4631" y2="47.0245">
		<stop  offset="0" style="stop-color:#98F9FF"/>
		<stop  offset="1" style="stop-color:#D7FFFF"/>
	</linearGradient>
	<circle class="st5" cx="16.3" cy="47" r="4.2"/>
	<linearGradient id="SVGID_7_" gradientUnits="userSpaceOnUse" x1="30.6572" y1="45.5937" x2="39.0629" y2="45.5937">
		<stop  offset="0" style="stop-color:#E53030"/>
		<stop  offset="0.835" style="stop-color:#FF4C4C"/>
	</linearGradient>
	<circle class="st6" cx="34.9" cy="45.6" r="4.2"/>
</g>
</svg>
