<?xml version="1.0" encoding="UTF-8" standalone="no"?>
<!-- Generator: Adobe Illustrator 25.2.1, SVG Export Plug-In . SVG Version: 6.00 Build 0)  -->

<svg
   xmlns:dc="http://purl.org/dc/elements/1.1/"
   xmlns:cc="http://creativecommons.org/ns#"
   xmlns:rdf="http://www.w3.org/1999/02/22-rdf-syntax-ns#"
   xmlns:svg="http://www.w3.org/2000/svg"
   xmlns="http://www.w3.org/2000/svg"
   xmlns:sodipodi="http://sodipodi.sourceforge.net/DTD/sodipodi-0.dtd"
   xmlns:inkscape="http://www.inkscape.org/namespaces/inkscape"
   version="1.1"
   id="Layer_1"
   x="0px"
   y="0px"
   viewBox="0 0 64 64"
   style="enable-background:new 0 0 64 64;"
   xml:space="preserve"
   sodipodi:docname="applications-utilities.svg"
   inkscape:version="0.92.4 (5da689c313, 2019-01-14)"><metadata
   id="metadata46"><rdf:RDF><cc:Work
       rdf:about=""><dc:format>image/svg+xml</dc:format><dc:type
         rdf:resource="http://purl.org/dc/dcmitype/StillImage" /></cc:Work></rdf:RDF></metadata><defs
   id="defs44" /><sodipodi:namedview
   pagecolor="#ffffff"
   bordercolor="#666666"
   borderopacity="1"
   objecttolerance="10"
   gridtolerance="10"
   guidetolerance="10"
   inkscape:pageopacity="0"
   inkscape:pageshadow="2"
   inkscape:window-width="1920"
   inkscape:window-height="1014"
   id="namedview42"
   showgrid="false"
   inkscape:zoom="3.6875"
   inkscape:cx="32"
   inkscape:cy="32"
   inkscape:window-x="0"
   inkscape:window-y="0"
   inkscape:window-maximized="1"
   inkscape:current-layer="Layer_1" />
<style
   type="text/css"
   id="style2">
	.st0{fill:url(#SVGID_1_);}
	.st1{fill:url(#SVGID_2_);}
	.st2{fill:url(#SVGID_3_);}
	.st3{fill:url(#SVGID_4_);}
	.st4{fill:url(#SVGID_5_);}
</style>
<g
   id="g18"
   transform="matrix(0.8440367,0,0,0.8440367,4.9830275,4.9830275)">
	<linearGradient
   id="SVGID_1_"
   gradientUnits="userSpaceOnUse"
   x1="32.457901"
   y1="-6.2936001"
   x2="31.812401"
   y2="40.6647">
		<stop
   offset="0"
   style="stop-color:#EAE7EA"
   id="stop4" />
		<stop
   offset="1"
   style="stop-color:#D6D3E3"
   id="stop6" />
	</linearGradient>
	<path
   class="st0"
   d="m 32,7.9 c -10.7,0 -19.3,8.6 -19.3,19.3 v 0 c 0,10.7 8.7,19.3 19.3,19.3 v 0 c 10.7,0 19.3,-8.7 19.3,-19.3 v 0 C 51.3,16.6 42.7,7.9 32,7.9 Z m 0,8.8 c 7.2,0 12.7,7.2 9.7,14.7 -1.5,3.9 -5.4,6.4 -9.5,6.4 H 32 c -5.8,0 -10.6,-4.7 -10.6,-10.5 v 0 c 0,-5.9 4.8,-10.6 10.6,-10.6 z"
   id="path9"
   style="fill:url(#SVGID_1_)"
   inkscape:connector-curvature="0" />
	<linearGradient
   id="SVGID_2_"
   gradientUnits="userSpaceOnUse"
   x1="32.460999"
   y1="-6.2936001"
   x2="31.8155"
   y2="40.6647">
		<stop
   offset="0"
   style="stop-color:#EAE7EA"
   id="stop11" />
		<stop
   offset="1"
   style="stop-color:#D6D3E3"
   id="stop13" />
	</linearGradient>
	<path
   class="st1"
   d="m 31.6,0 h 0.9 c 1.7,0 3.1,1.4 3.1,3.1 v 9.2 h -7 V 3.1 C 28.5,1.4 29.9,0 31.6,0 Z m -3.1,42.2 h 7 v 9.2 c 0,1.7 -1.4,3.1 -3.1,3.1 h -0.9 c -1.7,0 -3.1,-1.4 -3.1,-3.1 z M 59.2,26.8 v 0.9 c 0,1.7 -1.4,3.1 -3.1,3.1 H 47 v -7 h 9.2 c 1.7,-0.1 3,1.3 3,3 z M 17.1,23.7 v 7 H 7.8 c -1.7,0 -3.1,-1.4 -3.1,-3.1 v -0.9 c 0,-1.7 1.4,-3.1 3.1,-3.1 h 9.3 z M 51.6,46.2 51,46.8 c -1.2,1.2 -3.2,1.2 -4.4,0 l -6.5,-6.5 5,-5 6.5,6.5 c 1.2,1.2 1.2,3.2 0,4.4 z m -27.7,-32 -5,5 -6.5,-6.5 c -1.2,-1.2 -1.2,-3.2 0,-4.4 L 13,7.7 c 1.2,-1.2 3.2,-1.2 4.4,0 z M 13,46.8 12.4,46.2 C 11.2,45 11.2,43 12.4,41.8 l 6.5,-6.5 5,5 -6.5,6.5 C 16.2,48 14.2,48 13,46.8 Z m 32.1,-27.6 -5,-5 6.5,-6.5 c 1.2,-1.2 3.2,-1.2 4.4,0 l 0.6,0.6 c 1.2,1.2 1.2,3.2 0,4.4 z"
   id="path16"
   style="fill:url(#SVGID_2_)"
   inkscape:connector-curvature="0" />
</g>
<linearGradient
   id="SVGID_3_"
   gradientUnits="userSpaceOnUse"
   x1="32.1982"
   y1="26.4442"
   x2="31.8518"
   y2="62.1244"
   gradientTransform="matrix(0.8440367,0,0,0.8440367,4.9830275,4.9830275)">
	<stop
   offset="0"
   style="stop-color:#2D5872"
   id="stop20" />
	<stop
   offset="1"
   style="stop-color:#234C60"
   id="stop22" />
</linearGradient>
<path
   class="st2"
   d="m 31.992202,30.726146 v 0 c 4.895413,0 8.946789,3.122936 8.946789,7.005505 v 14.179817 c 0,3.882569 -3.966973,7.005504 -8.946789,7.005504 v 0 c -4.895413,0 -8.946789,-3.122935 -8.946789,-7.005504 V 37.731651 c 0,-3.882569 4.051376,-7.005505 8.946789,-7.005505 z"
   id="path25"
   style="fill:url(#SVGID_3_);stroke-width:0.8440367"
   inkscape:connector-curvature="0" />
<linearGradient
   id="SVGID_4_"
   gradientUnits="userSpaceOnUse"
   x1="33.1365"
   y1="1.0985"
   x2="31.058"
   y2="41.4553"
   gradientTransform="matrix(0.8440367,0,0,0.8440367,4.9830275,4.9830275)">
	<stop
   offset="0"
   style="stop-color:#2D5872"
   id="stop27" />
	<stop
   offset="1"
   style="stop-color:#234C60"
   id="stop29" />
</linearGradient>
<path
   class="st3"
   d="m 19.07844,10.300459 c -9.2844033,8.355963 -9.2844033,24.645871 5.233028,32.66422 1.097247,0.590825 2.278899,0.92844 3.46055,1.097248 C 46.340826,46.087615 55.962844,28.869266 49.126147,15.786698 48.028899,13.676606 46.594037,11.819725 44.82156,10.300459 43.302293,8.95 40.854587,10.047248 40.854587,12.072935 v 8.609175 c 0,0.590825 -0.253211,1.266055 -0.675229,1.688074 l -6.499082,6.583486 c -0.928441,0.92844 -2.447707,0.92844 -3.376147,0 L 23.720642,22.454587 C 23.298624,22.032568 23.045413,21.35734 23.045413,20.766514 v -8.693579 c 0,-2.025687 -2.447706,-3.122935 -3.966973,-1.772476 z"
   id="path32"
   style="fill:url(#SVGID_4_);stroke-width:0.8440367"
   inkscape:connector-curvature="0" />
<linearGradient
   id="SVGID_5_"
   gradientUnits="userSpaceOnUse"
   x1="23.1862"
   y1="39.3176"
   x2="23.1862"
   y2="39.3176"
   gradientTransform="matrix(0.8440367,0,0,0.8440367,4.9830275,4.9830275)">
	<stop
   offset="0"
   style="stop-color:#2D5872"
   id="stop34" />
	<stop
   offset="1"
   style="stop-color:#234C60"
   id="stop36" />
</linearGradient>
<path
   class="st4"
   d="M 24.564679,38.15367"
   id="path39"
   style="fill:url(#SVGID_5_);stroke-width:0.8440367"
   inkscape:connector-curvature="0" />
</svg>