<?xml version="1.0" encoding="utf-8"?>
<!-- Generator: Adobe Illustrator 25.1.0, SVG Export Plug-In . SVG Version: 6.00 Build 0)  -->
<svg version="1.1" id="Layer_1" xmlns="http://www.w3.org/2000/svg" xmlns:xlink="http://www.w3.org/1999/xlink" x="0px" y="0px"
	 viewBox="0 0 64 64" style="enable-background:new 0 0 64 64;" xml:space="preserve">
<style type="text/css">
	.st0{fill:url(#SVGID_1_);}
	.st1{fill:url(#SVGID_2_);}
	.st2{fill:url(#SVGID_3_);}
	.st3{fill:url(#SVGID_4_);}
</style>
<g>
	<linearGradient id="SVGID_1_" gradientUnits="userSpaceOnUse" x1="26.119" y1="36.6735" x2="40.3282" y2="21.8465">
		<stop  offset="0" style="stop-color:#BFBEBE"/>
		<stop  offset="0.835" style="stop-color:#CCC8CA"/>
	</linearGradient>
	<polygon class="st0" points="41.5,24.7 39.7,22.9 39.7,22.9 37.9,21 20.6,38.4 24.2,42 24.2,42 24.2,42 	"/>
	<linearGradient id="SVGID_2_" gradientUnits="userSpaceOnUse" x1="24.2039" y1="38.0617" x2="10.8441" y2="52.0393">
		<stop  offset="0" style="stop-color:#2D5872"/>
		<stop  offset="1" style="stop-color:#234C60"/>
	</linearGradient>
	<path class="st1" d="M26.6,39.1L23.5,36l0,0c-0.7-0.7-1.8-0.7-2.5,0L8.3,48.7c-0.7,0.7-0.7,1.8,0,2.5l0,0l3.1,3.1
		c0.1,0.1,0.2,0.2,0.3,0.2c0.3,0.2,0.6,0.3,1,0.3c0.4,0,0.9-0.2,1.2-0.5l12.7-12.7C27.3,40.9,27.3,39.8,26.6,39.1z"/>
	<linearGradient id="SVGID_3_" gradientUnits="userSpaceOnUse" x1="47.9523" y1="24.0382" x2="29.4185" y2="10.2923">
		<stop  offset="0" style="stop-color:#E53030"/>
		<stop  offset="0.835" style="stop-color:#FF4C4C"/>
	</linearGradient>
	<path class="st2" d="M54.2,23.3c-0.7-0.7-1.9-0.9-2.8-0.4l-1.2-1.2c-0.5-0.5-0.6-1.3-0.3-1.8c0.2-0.3,0.1-0.8-0.2-1
		c-0.8-0.8-2.3-2.3-3.7-3.7c-2.3-2.3-5.3-3.9-8.6-4.5l-7-1.3c-0.4-0.1-0.7,0.5-0.3,0.7l6.3,4.1c1.8,1.2,2.2,3.7,0.8,5.4l-1.1,1.2
		c-0.3,0.4-0.3,0.9,0.1,1.2l4.4,4.4c0.3,0.3,0.9,0.4,1.2,0l1.2-1.1c1.3-1.1,3.3-1,4.5,0.2l0.6,0.6l0,0c-0.5,1-0.4,2.1,0.4,2.8
		l1.8,1.8c0.3,0.3,0.9,0.3,1.2,0l4.4-4.4c0.3-0.3,0.3-0.9,0-1.2L54.2,23.3z"/>
	<linearGradient id="SVGID_4_" gradientUnits="userSpaceOnUse" x1="49.2493" y1="28.5973" x2="54.3461" y2="24.4272">
		<stop  offset="0" style="stop-color:#E53030"/>
		<stop  offset="0.835" style="stop-color:#FF4C4C"/>
	</linearGradient>
	<path class="st3" d="M56,25.1l-1.8-1.8c-0.7-0.7-1.9-0.9-2.8-0.4l0,0l-1.6,1.6l0,0l-1.6,1.6l0,0l0,0l0,0c-0.4,0.7-0.4,1.5-0.1,2.2
		c0.1,0.2,0.3,0.4,0.4,0.6l1.8,1.8c0.3,0.3,0.9,0.3,1.2,0l4.4-4.4C56.3,25.9,56.3,25.4,56,25.1z"/>
</g>
</svg>
