<svg id="Layer_1" data-name="Layer 1" xmlns="http://www.w3.org/2000/svg" viewBox="0 0 64 64"><defs><style>.cls-1{opacity:0.5;}.cls-2{fill:#b5b5b5;}</style></defs><g class="cls-1"><path class="cls-2" d="M40.5,21.4h-20v9.1a9.3,9.3,0,0,0,9.2,9.2h1.6a9.2,9.2,0,0,0,9.2-9.2Z"/><path class="cls-2" d="M39.3,40.2h2.9V36.7A12.1,12.1,0,0,1,39.3,40.2Z"/><path class="cls-2" d="M18.5,36.1v4.1h3.2A14.2,14.2,0,0,1,18.5,36.1Z"/></g><path d="M42.9,14.1H38.2V7.3a2,2,0,0,0-1.9-1.9,2,2,0,0,0-2,1.9v6.8H27.1V7.3a2,2,0,0,0-4,0v6.8h-5A4.9,4.9,0,0,0,13.2,19V30.5A16.5,16.5,0,0,0,28.6,46.9v9.9a1.9,1.9,0,0,0,1.9,2,2,2,0,0,0,2-2V46.9A16.5,16.5,0,0,0,47.8,30.5V19A4.9,4.9,0,0,0,42.9,14.1Zm1,16.4A12.6,12.6,0,0,1,31.3,43.1H29.7A12.7,12.7,0,0,1,17.1,30.5V19a1,1,0,0,1,1-.9H42.9a.9.9,0,0,1,1,.9Z"/></svg>