<svg id="Layer_1" data-name="Layer 1" xmlns="http://www.w3.org/2000/svg" viewBox="0 0 64 64"><path d="M50.5,51.8H7.5A7.6,7.6,0,0,1,0,44.2V19.8a7.6,7.6,0,0,1,7.5-7.6h43A7.6,7.6,0,0,1,58,19.8v.5h2.5a3.3,3.3,0,0,1,3.3,3.3V40.4a3.3,3.3,0,0,1-3.3,3.3H58v.5A7.6,7.6,0,0,1,50.5,51.8ZM7.5,16.2a3.6,3.6,0,0,0-3.6,3.6V44.2a3.6,3.6,0,0,0,3.6,3.6h43a3.6,3.6,0,0,0,3.6-3.6V42.9a3.1,3.1,0,0,1,3.1-3.1h2.7V24.2H57.2a3.1,3.1,0,0,1-3.1-3.1V19.8a3.6,3.6,0,0,0-3.6-3.6Z"/><path d="M29,36.1a2,2,0,0,1-2-2V24a2,2,0,0,1,4,0V34.1A2,2,0,0,1,29,36.1Z"/><circle cx="29" cy="40" r="1.9"/></svg>