<svg id="Layer_1" data-name="Layer 1" xmlns="http://www.w3.org/2000/svg" viewBox="0 0 64 64"><defs><style>.cls-1{fill:#b5b5b5;opacity:0.5;}</style></defs><path class="cls-1" d="M45.2,19.7H9.2a1.7,1.7,0,0,0-1.7,1.7V43.3A1.7,1.7,0,0,0,9.2,45h36a.8.8,0,0,0,.7-.8V20.5A.8.8,0,0,0,45.2,19.7Z"/><path d="M50.6,52.1H7.6A7.5,7.5,0,0,1,0,44.6V20.1a7.5,7.5,0,0,1,7.6-7.5h43a7.5,7.5,0,0,1,7.6,7.5v.5h2.4A3.4,3.4,0,0,1,64,24V40.7a3.4,3.4,0,0,1-3.4,3.4H58.2v.5A7.5,7.5,0,0,1,50.6,52.1ZM7.6,16.5A3.6,3.6,0,0,0,4,20.1V44.6a3.6,3.6,0,0,0,3.6,3.6h43a3.6,3.6,0,0,0,3.6-3.6V43.3a3.2,3.2,0,0,1,3.2-3.2H60V24.6H57.4a3.2,3.2,0,0,1-3.2-3.2V20.1a3.6,3.6,0,0,0-3.6-3.6Z"/><path d="M22.4,33.8a.5.5,0,0,0,.4.2l4.6.5a.8.8,0,0,1,.7,1.1l-1.4,6a.5.5,0,0,0,.3.6l.5-.2,8-11.2a.5.5,0,0,0-.1-.6h-.2l-4.5-.4a1,1,0,0,1-.8-1.1l1.3-6.1c0-.3-.1-.5-.4-.5s-.3,0-.4.1L22.5,33.3a.7.7,0,0,0-.1.5Z"/></svg>