<?xml version="1.0" encoding="UTF-8" standalone="no"?>
<svg
   xmlns:dc="http://purl.org/dc/elements/1.1/"
   xmlns:cc="http://creativecommons.org/ns#"
   xmlns:rdf="http://www.w3.org/1999/02/22-rdf-syntax-ns#"
   xmlns:svg="http://www.w3.org/2000/svg"
   xmlns="http://www.w3.org/2000/svg"
   xmlns:sodipodi="http://sodipodi.sourceforge.net/DTD/sodipodi-0.dtd"
   xmlns:inkscape="http://www.inkscape.org/namespaces/inkscape"
   id="Layer_1"
   data-name="Layer 1"
   viewBox="0 0 64 64"
   version="1.1"
   sodipodi:docname="battery-level-100-charged-symbolic.svg"
   inkscape:version="1.0.2 (e86c870879, 2021-01-15)">
  <metadata
     id="metadata13">
    <rdf:RDF>
      <cc:Work
         rdf:about="">
        <dc:format>image/svg+xml</dc:format>
        <dc:type
           rdf:resource="http://purl.org/dc/dcmitype/StillImage" />
      </cc:Work>
    </rdf:RDF>
  </metadata>
  <defs
     id="defs11" />
  <sodipodi:namedview
     pagecolor="#ffffff"
     bordercolor="#666666"
     borderopacity="1"
     objecttolerance="10"
     gridtolerance="10"
     guidetolerance="10"
     inkscape:pageopacity="0"
     inkscape:pageshadow="2"
     inkscape:window-width="1600"
     inkscape:window-height="843"
     id="namedview9"
     showgrid="false"
     inkscape:zoom="7.4688154"
     inkscape:cx="9.0320095"
     inkscape:cy="32.697608"
     inkscape:window-x="0"
     inkscape:window-y="0"
     inkscape:window-maximized="1"
     inkscape:current-layer="Layer_1" />
  <path
     d="M50.5,51.7h-17a.7.7,0,0,1-.6-1.2l1.7-2.4a.7.7,0,0,1,.6-.4H50.5A3.6,3.6,0,0,0,54,44.1V42.8a3.1,3.1,0,0,1,3.2-3.1h2.6V24.2H57.2A3.1,3.1,0,0,1,54,21.1V19.7a3.6,3.6,0,0,0-3.5-3.6H36.4a.7.7,0,0,1-.7-.8l.5-2.5a.9.9,0,0,1,.7-.6H50.5A7.6,7.6,0,0,1,58,19.7v.6h2.4a3.3,3.3,0,0,1,3.3,3.3V40.3a3.3,3.3,0,0,1-3.3,3.3H58v.5A7.6,7.6,0,0,1,50.5,51.7Z"
     id="path2" />
  <path
     d="M20.4,51.7H7.6A7.5,7.5,0,0,1,.1,44.1V19.7a7.5,7.5,0,0,1,7.5-7.5H24.5a.8.8,0,0,1,.6,1.4l-1.7,2.2a.9.9,0,0,1-.7.3H7.6A3.6,3.6,0,0,0,4,19.7V44.1a3.6,3.6,0,0,0,3.6,3.6H21.1a.8.8,0,0,1,.8,1.1l-.7,2.3A.9.9,0,0,1,20.4,51.7Z"
     id="path4" />
  <path
     class="cls-1"
     d="m 50.591492,21.248263 v -1.1 a 0.7,0.7 0 0 0 -0.7,-0.6 H 8.8914918 a 1.6,1.6 0 0 0 -1.6,1.7 v 21.4 a 1.7,1.7 0 0 0 1.6,1.7 H 49.891492 a 0.7,0.7 0 0 0 0.7,-0.7 v -1 a 6.3,6.3 0 0 1 5.7,-6.4 v -8.7 a 6.3,6.3 0 0 1 -5.7,-6.3 z"
     id="path6-3"
     style="opacity:0.5;fill:#b5b5b5" />
  <path
     d="M12.8,36.2c.1.3.5.5.8.6L24.9,38a2.1,2.1,0,0,1,1.9,2.6l-3.6,15a1.1,1.1,0,0,0,.9,1.2.9.9,0,0,0,1-.4L44.9,28.9a1.1,1.1,0,0,0-.2-1.4l-.6-.3L33,26.1a2.2,2.2,0,0,1-1.9-2.7l3.2-15a1,1,0,0,0-.9-1.2,1,1,0,0,0-1,.4L12.9,35.1a1.1,1.1,0,0,0-.1,1.1Z"
     id="path6" />
</svg>
