<svg id="Layer_1" data-name="Layer 1" xmlns="http://www.w3.org/2000/svg" viewBox="0 0 64 64"><defs><style>.cls-1{opacity:0.5;}.cls-2{fill:#b5b5b5;}</style></defs><path d="M50.6,52.5H7.6A7.6,7.6,0,0,1,0,44.9V20.4a7.5,7.5,0,0,1,7.6-7.5h43a7.5,7.5,0,0,1,7.6,7.5V21h2.4A3.3,3.3,0,0,1,64,24.3V41a3.4,3.4,0,0,1-3.4,3.4H58.2v.5A7.6,7.6,0,0,1,50.6,52.5ZM7.6,16.8A3.6,3.6,0,0,0,4,20.4V44.9a3.6,3.6,0,0,0,3.6,3.6h43a3.6,3.6,0,0,0,3.6-3.6V43.6a3.2,3.2,0,0,1,3.2-3.2H60V24.9H57.4a3.1,3.1,0,0,1-3.2-3.1V20.4a3.6,3.6,0,0,0-3.6-3.6Z"/><g class="cls-1"><path class="cls-2" d="M48.8,20H9a1.8,1.8,0,0,0-1.7,1.7V43.6A1.8,1.8,0,0,0,9,45.3H48.8a1.9,1.9,0,0,0,1.9-2V22A1.9,1.9,0,0,0,48.8,20Z"/></g><path d="M22.7,27.9a3.8,3.8,0,0,1,.8-2.4,5.4,5.4,0,0,1,2.2-2,7.4,7.4,0,0,1,3.4-.8,6.6,6.6,0,0,1,3.2.7,4.4,4.4,0,0,1,2.2,1.8,4.6,4.6,0,0,1,.8,2.5,4.1,4.1,0,0,1-.5,1.9,7.1,7.1,0,0,1-1,1.4l-2.2,1.9-.6.7-.4.5a1.7,1.7,0,0,0-.2.5,6.4,6.4,0,0,0-.2.9,1.4,1.4,0,0,1-1.5,1.3,1.4,1.4,0,0,1-1.1-.4,1.7,1.7,0,0,1-.5-1.3,3.4,3.4,0,0,1,.4-1.8,6.4,6.4,0,0,1,.8-1.4l1.5-1.4,1.2-1,.6-.8a3,3,0,0,0,.2-1,2.8,2.8,0,0,0-.7-1.7,3.2,3.2,0,0,0-2-.7,2.8,2.8,0,0,0-2,.7A6.8,6.8,0,0,0,26,28.1c-.3.9-.8,1.4-1.6,1.4a1.7,1.7,0,0,1-1.2-.5A1.6,1.6,0,0,1,22.7,27.9Z"/><circle cx="28.6" cy="40.7" r="1.9"/></svg>