<svg id="Layer_1" data-name="Layer 1" xmlns="http://www.w3.org/2000/svg" viewBox="0 0 64 64"><defs><style>.cls-1{fill:#b5b5b5;opacity:0.5;}</style></defs><path class="cls-1" d="M26,19.4H9.2a1.6,1.6,0,0,0-1.7,1.7V42.9a1.6,1.6,0,0,0,1.7,1.7H26a.7.7,0,0,0,.7-.7V20.1A.7.7,0,0,0,26,19.4Z"/><path d="M50.6,51.8H7.6A7.6,7.6,0,0,1,0,44.3V19.7a7.6,7.6,0,0,1,7.6-7.5h43a7.6,7.6,0,0,1,7.6,7.5v.6h2.4A3.4,3.4,0,0,1,64,23.6V40.4a3.4,3.4,0,0,1-3.4,3.3H58.2v.6A7.6,7.6,0,0,1,50.6,51.8ZM7.6,16.1A3.6,3.6,0,0,0,4,19.7V44.3a3.6,3.6,0,0,0,3.6,3.6h43a3.6,3.6,0,0,0,3.6-3.6V42.9a3.1,3.1,0,0,1,3.2-3.1H60V24.2H57.4a3.1,3.1,0,0,1-3.2-3.1V19.7a3.6,3.6,0,0,0-3.6-3.6Z"/><path d="M22.4,33.8a.5.5,0,0,0,.4.2l4.5.5a.9.9,0,0,1,.8,1.1l-1.4,6a.5.5,0,0,0,.3.6.5.5,0,0,0,.4-.2l8.1-11.2a.5.5,0,0,0-.1-.6h-.2l-4.6-.4a.9.9,0,0,1-.7-1.1l1.3-6.1a.5.5,0,0,0-.4-.5c-.2-.1-.3,0-.4.1L22.5,33.3a.7.7,0,0,0-.1.5Z"/></svg>