<svg id="Layer_1" data-name="Layer 1" xmlns="http://www.w3.org/2000/svg" viewBox="0 0 64 64"><defs><style>.cls-1{opacity:0.5;}.cls-2{fill:#b5b5b5;}</style></defs><g class="cls-1"><path class="cls-2" d="M16.3,19.4H9a1.7,1.7,0,0,0-1.7,1.7V42.9A1.7,1.7,0,0,0,9,44.6h7.3a.7.7,0,0,0,.8-.7V20.1A.7.7,0,0,0,16.3,19.4Z"/></g><path d="M50.6,51.8H7.6A7.6,7.6,0,0,1,0,44.3V19.7a7.6,7.6,0,0,1,7.6-7.5h43a7.6,7.6,0,0,1,7.6,7.5v.6h2.4A3.4,3.4,0,0,1,64,23.6V40.4a3.4,3.4,0,0,1-3.4,3.3H58.2v.6A7.6,7.6,0,0,1,50.6,51.8ZM7.6,16.1A3.6,3.6,0,0,0,4,19.7V44.3a3.6,3.6,0,0,0,3.6,3.6h43a3.6,3.6,0,0,0,3.6-3.6V42.9a3.1,3.1,0,0,1,3.2-3.1H60V24.2H57.4a3.1,3.1,0,0,1-3.2-3.1V19.7a3.6,3.6,0,0,0-3.6-3.6Z"/></svg>