<svg id="Layer_1" data-name="Layer 1" xmlns="http://www.w3.org/2000/svg" viewBox="0 0 64 64"><path d="M50.7,51.8H7.5A7.5,7.5,0,0,1,0,44.3V19.7a7.5,7.5,0,0,1,7.5-7.5H50.7a7.5,7.5,0,0,1,7.5,7.5v.6h2.5A3.3,3.3,0,0,1,64,23.6V40.4a3.3,3.3,0,0,1-3.3,3.3H58.2v.6A7.5,7.5,0,0,1,50.7,51.8ZM7.5,16.1a3.6,3.6,0,0,0-3.6,3.6V44.3a3.6,3.6,0,0,0,3.6,3.6H50.7a3.6,3.6,0,0,0,3.6-3.6V42.9a3.1,3.1,0,0,1,3.1-3.1h2.7V24.2H57.4a3.1,3.1,0,0,1-3.1-3.1V19.7a3.6,3.6,0,0,0-3.6-3.6Z"/><path d="M22.4,33.8a.5.5,0,0,0,.4.2l4.5.5a.9.9,0,0,1,.8,1.1l-1.4,6a.5.5,0,0,0,.3.6.5.5,0,0,0,.4-.2l8.1-11.2a.5.5,0,0,0-.1-.6h-.2l-4.6-.4a.9.9,0,0,1-.7-1.1l1.3-6.1a.5.5,0,0,0-.4-.5c-.2-.1-.3,0-.4.1L22.5,33.3a.7.7,0,0,0-.1.5Z"/></svg>