<svg id="Layer_1" data-name="Layer 1" xmlns="http://www.w3.org/2000/svg" viewBox="0 0 64 64"><defs><style>.cls-1{fill:#b5b5b5;opacity:0.5;}</style></defs><path class="cls-1" d="M35.6,19.4H9.2a1.6,1.6,0,0,0-1.7,1.7V42.9a1.6,1.6,0,0,0,1.7,1.7H35.6a.7.7,0,0,0,.7-.7V20.1A.7.7,0,0,0,35.6,19.4Z"/><path d="M50.6,51.8H7.6A7.6,7.6,0,0,1,0,44.3V19.7a7.6,7.6,0,0,1,7.6-7.5h43a7.6,7.6,0,0,1,7.6,7.5v.6h2.4A3.4,3.4,0,0,1,64,23.6V40.4a3.4,3.4,0,0,1-3.4,3.3H58.2v.6A7.6,7.6,0,0,1,50.6,51.8ZM7.6,16.1A3.6,3.6,0,0,0,4,19.7V44.3a3.6,3.6,0,0,0,3.6,3.6h43a3.6,3.6,0,0,0,3.6-3.6V42.9a3.1,3.1,0,0,1,3.2-3.1H60V24.2H57.4a3.1,3.1,0,0,1-3.2-3.1V19.7a3.6,3.6,0,0,0-3.6-3.6Z"/></svg>