<svg id="Layer_1" data-name="Layer 1" xmlns="http://www.w3.org/2000/svg" viewBox="0 0 7.6 12.4"><defs><style>.cls-1{fill:#fff;}</style></defs><path class="cls-1" d="M9.5,14.2h-3a2.4,2.4,0,0,1-2.3-2.4V4.2A2.4,2.4,0,0,1,6.5,1.8h3a2.4,2.4,0,0,1,2.3,2.4v7.6A2.4,2.4,0,0,1,9.5,14.2ZM6.5,2.9A1.3,1.3,0,0,0,5.3,4.2v7.6a1.3,1.3,0,0,0,1.2,1.3h3a1.3,1.3,0,0,0,1.2-1.3V4.2A1.3,1.3,0,0,0,9.5,2.9Z" transform="translate(-4.2 -1.8)"/><circle class="cls-1" cx="3.8" cy="2.9" r="0.8"/><path class="cls-1" d="M9.4,11.5H6.5a.6.6,0,0,1-.6-.5.6.6,0,0,1,.6-.6H9.4a.6.6,0,0,1,.5.6A.5.5,0,0,1,9.4,11.5Z" transform="translate(-4.2 -1.8)"/><path class="cls-1" d="M8.9,9.6H6.8A.6.6,0,0,1,6.2,9h0a.6.6,0,0,1,.6-.5H8.9a.6.6,0,0,1,.6.5.6.6,0,0,1-.6.6Z" transform="translate(-4.2 -1.8)"/></svg>