<?xml version="1.0" encoding="utf-8"?>
<!-- Generator: Adobe Illustrator 25.4.1, SVG Export Plug-In . SVG Version: 6.00 Build 0)  -->
<svg version="1.1" id="Layer_1" xmlns="http://www.w3.org/2000/svg" xmlns:xlink="http://www.w3.org/1999/xlink" x="0px" y="0px"
	 viewBox="0 0 16 16" style="enable-background:new 0 0 16 16;" xml:space="preserve">
<style type="text/css">
	.st0{fill:#FFFFFF;}
	.st1{fill:#2E3436;}
	.st2{fill:none;stroke:#2E3436;stroke-width:1.1391;stroke-linecap:round;stroke-linejoin:round;stroke-miterlimit:10;}
	.st3{fill:none;stroke:#2E3436;stroke-width:1.2;stroke-miterlimit:10;}
	.st4{fill:none;stroke:#2E3436;stroke-width:1.2;stroke-linecap:round;stroke-linejoin:round;stroke-miterlimit:10;}
	.st5{fill:none;stroke:#2E3436;stroke-width:1.1416;stroke-linecap:round;stroke-linejoin:round;stroke-miterlimit:10;}
	.st6{fill:none;stroke:#2E3436;stroke-width:1.1391;stroke-miterlimit:10;}
	.st7{fill:none;stroke:#2E3436;stroke-width:1.1361;stroke-miterlimit:10;}
</style>
<g>
	<g>
		<path class="st0" d="M10.5,14.7c-0.3,0-0.7-0.2-0.9-0.4L8,12.2l-1.6,2c-0.5,0.5-1.3,0.5-1.8,0.1c-0.2-0.2-0.3-0.5-0.4-0.7l0-9.4
			c0-1,0.8-1.9,1.9-1.9h3.7c1,0,1.9,0.8,1.9,1.9v9.4C11.7,14.2,11.2,14.7,10.5,14.7z M10.6,13.5L10.6,13.5L10.6,13.5z M10.5,13.5
			C10.5,13.5,10.5,13.5,10.5,13.5c0.1,0,0.1,0,0.1-0.1l0-9.3c0-0.4-0.3-0.7-0.7-0.7H6.2c-0.4,0-0.7,0.3-0.7,0.7l0,9.3
			c0-0.1,0,0,0.1,0c0,0,0.1,0,0.1,0l1.8-2.3c0,0,0.1-0.1,0.1-0.1L7.6,11c0.1-0.1,0.2-0.1,0.4-0.1c0.2,0,0.4,0.1,0.6,0.2L10.5,13.5
			C10.5,13.5,10.5,13.5,10.5,13.5z"/>
	</g>
</g>
</svg>
