<?xml version="1.0" encoding="utf-8"?>
<!-- Generator: Adobe Illustrator 25.4.1, SVG Export Plug-In . SVG Version: 6.00 Build 0)  -->
<svg version="1.1" id="Layer_1" xmlns="http://www.w3.org/2000/svg" xmlns:xlink="http://www.w3.org/1999/xlink" x="0px" y="0px"
	 viewBox="0 0 16 16" style="enable-background:new 0 0 16 16;" xml:space="preserve">
<style type="text/css">
	.st0{fill:#FFFFFF;}
	.st1{fill:#2E3436;}
	.st2{fill:none;stroke:#2E3436;stroke-width:1.1391;stroke-linecap:round;stroke-linejoin:round;stroke-miterlimit:10;}
	.st3{fill:none;stroke:#2E3436;stroke-width:1.2;stroke-miterlimit:10;}
	.st4{fill:none;stroke:#2E3436;stroke-width:1.2;stroke-linecap:round;stroke-linejoin:round;stroke-miterlimit:10;}
	.st5{fill:none;stroke:#2E3436;stroke-width:1.1416;stroke-linecap:round;stroke-linejoin:round;stroke-miterlimit:10;}
	.st6{fill:none;stroke:#2E3436;stroke-width:1.1391;stroke-miterlimit:10;}
	.st7{fill:none;stroke:#2E3436;stroke-width:1.1361;stroke-miterlimit:10;}
</style>
<path class="st0" d="M12,5.1l-1.2,0.7V5.7c0-1.2-1-2.2-2.2-2.2H4.3c-1.2,0-2.2,1-2.2,2.2v4.5c0,1.2,1,2.2,2.2,2.2h4.3
	c1.2,0,2.2-1,2.2-2.2v-0.1l1.2,0.7c0.6,0.3,1.3-0.1,1.3-0.8V5.9C13.4,5.2,12.6,4.8,12,5.1z M9.7,10.3c0,0.6-0.5,1.1-1.1,1.1H4.3
	c-0.6,0-1.1-0.5-1.1-1.1V5.7c0-0.6,0.5-1.1,1.1-1.1h4.3c0.6,0,1.1,0.5,1.1,1.1V10.3z"/>
</svg>
