<?xml version="1.0" encoding="utf-8"?>
<!-- Generator: Adobe Illustrator 25.4.1, SVG Export Plug-In . SVG Version: 6.00 Build 0)  -->
<svg version="1.1" id="Layer_1" xmlns="http://www.w3.org/2000/svg" xmlns:xlink="http://www.w3.org/1999/xlink" x="0px" y="0px"
	 viewBox="0 0 16 16" style="enable-background:new 0 0 16 16;" xml:space="preserve">
<style type="text/css">
	.st0{fill:#FFFFFF;}
	.st1{fill:#2E3436;}
	.st2{fill:none;stroke:#2E3436;stroke-width:1.1391;stroke-linecap:round;stroke-linejoin:round;stroke-miterlimit:10;}
	.st3{fill:none;stroke:#2E3436;stroke-width:1.2;stroke-miterlimit:10;}
	.st4{fill:none;stroke:#2E3436;stroke-width:1.2;stroke-linecap:round;stroke-linejoin:round;stroke-miterlimit:10;}
	.st5{fill:none;stroke:#2E3436;stroke-width:1.1416;stroke-linecap:round;stroke-linejoin:round;stroke-miterlimit:10;}
	.st6{fill:none;stroke:#2E3436;stroke-width:1.1391;stroke-miterlimit:10;}
	.st7{fill:none;stroke:#2E3436;stroke-width:1.1361;stroke-miterlimit:10;}
</style>
<g>
	<g>
		<path class="st0" d="M13,2.9l-1.4-0.8c-0.4-0.2-0.8-0.2-1.2,0C10,2.2,9.8,2.6,9.7,3L9.1,8.4C8.5,7.6,7.5,7,6.3,7
			c-1.9,0-3.5,1.6-3.5,3.5c0,1.9,1.6,3.5,3.5,3.5c1.7,0,3.2-1.3,3.5-2.9c0,0,0,0,0-0.1l0.9-7.9c0-0.1,0.1-0.2,0.1-0.2
			c0,0,0.1,0,0.2,0l1.4,0.8c0.2,0.1,0.6,0.1,0.7-0.2C13.3,3.3,13.2,3,13,2.9z M6.3,13.1c-1.4,0-2.6-1.2-2.6-2.6S4.9,8,6.3,8
			s2.6,1.2,2.6,2.6S7.7,13.1,6.3,13.1z"/>
	</g>
	<g>
		<path class="st0" d="M6.3,8.9c-0.9,0-1.6,0.7-1.6,1.6s0.7,1.6,1.6,1.6s1.6-0.7,1.6-1.6S7.2,8.9,6.3,8.9z"/>
	</g>
</g>
</svg>
