<?xml version="1.0" encoding="utf-8"?>
<!-- Generator: Adobe Illustrator 25.4.1, SVG Export Plug-In . SVG Version: 6.00 Build 0)  -->
<svg version="1.1" id="Layer_1" xmlns="http://www.w3.org/2000/svg" xmlns:xlink="http://www.w3.org/1999/xlink" x="0px" y="0px"
	 viewBox="0 0 16 16" style="enable-background:new 0 0 16 16;" xml:space="preserve">
<style type="text/css">
	.st0{fill:#FFFFFF;}
	.st1{fill:#2E3436;}
	.st2{fill:none;stroke:#2E3436;stroke-width:1.1391;stroke-linecap:round;stroke-linejoin:round;stroke-miterlimit:10;}
	.st3{fill:none;stroke:#2E3436;stroke-width:1.2;stroke-miterlimit:10;}
	.st4{fill:none;stroke:#2E3436;stroke-width:1.2;stroke-linecap:round;stroke-linejoin:round;stroke-miterlimit:10;}
	.st5{fill:none;stroke:#2E3436;stroke-width:1.1416;stroke-linecap:round;stroke-linejoin:round;stroke-miterlimit:10;}
	.st6{fill:none;stroke:#2E3436;stroke-width:1.1391;stroke-miterlimit:10;}
	.st7{fill:none;stroke:#2E3436;stroke-width:1.1361;stroke-miterlimit:10;}
</style>
<path class="st0" d="M6.2,1.8c-1.7,0-3,1.4-3,3v6.3c0,1.7,1.4,3,3,3h3.6c1.7,0,3-1.4,3-3V8.5C12.9,4.8,9.9,1.8,6.2,1.8z M11.7,11.2
	c0,1-0.8,1.9-1.9,1.9H6.2c-1,0-1.9-0.8-1.9-1.9V4.8c0-1,0.8-1.9,1.9-1.9c0.4,0,0.7,0,1,0.1v2.1c-0.1,0.7,0.4,1.3,1,1.3h3.1
	c0.3,0.6,0.4,1.3,0.4,2V11.2z"/>
</svg>
