<?xml version="1.0" encoding="utf-8"?>
<!-- Generator: Adobe Illustrator 25.4.1, SVG Export Plug-In . SVG Version: 6.00 Build 0)  -->
<svg version="1.1" id="Layer_1" xmlns="http://www.w3.org/2000/svg" xmlns:xlink="http://www.w3.org/1999/xlink" x="0px" y="0px"
	 viewBox="0 0 16 16" style="enable-background:new 0 0 16 16;" xml:space="preserve">
<style type="text/css">
	.st0{fill:#FFFFFF;}
	.st1{fill:#2E3436;}
	.st2{fill:none;stroke:#2E3436;stroke-width:1.1391;stroke-linecap:round;stroke-linejoin:round;stroke-miterlimit:10;}
	.st3{fill:none;stroke:#2E3436;stroke-width:1.2;stroke-miterlimit:10;}
	.st4{fill:none;stroke:#2E3436;stroke-width:1.2;stroke-linecap:round;stroke-linejoin:round;stroke-miterlimit:10;}
	.st5{fill:none;stroke:#2E3436;stroke-width:1.1416;stroke-linecap:round;stroke-linejoin:round;stroke-miterlimit:10;}
	.st6{fill:none;stroke:#2E3436;stroke-width:1.1391;stroke-miterlimit:10;}
	.st7{fill:none;stroke:#2E3436;stroke-width:1.1361;stroke-miterlimit:10;}
</style>
<g>
	<path class="st0" d="M4.4,11h7.1c1.2,0,2.2-1,2.2-2.2V4.2c0-1.2-1-2.2-2.2-2.2H4.4C3.1,2,2.1,3,2.1,4.2v4.5C2.1,10,3.1,11,4.4,11z
		 M3.3,4.2c0-0.6,0.5-1.1,1.1-1.1h7.1c0.6,0,1.1,0.5,1.1,1.1v4.5c0,0.6-0.5,1.1-1.1,1.1H4.4c-0.6,0-1.1-0.5-1.1-1.1V4.2z"/>
	<path class="st0" d="M13.7,13.1H2.2c-0.3,0-0.6,0.3-0.6,0.6s0.3,0.6,0.6,0.6h11.6c0.3,0,0.6-0.3,0.6-0.6S14.1,13.1,13.7,13.1z"/>
</g>
</svg>
