<?xml version="1.0" encoding="utf-8"?>
<!-- Generator: Adobe Illustrator 25.2.1, SVG Export Plug-In . SVG Version: 6.00 Build 0)  -->
<svg version="1.1" id="Layer_1" xmlns="http://www.w3.org/2000/svg" xmlns:xlink="http://www.w3.org/1999/xlink" x="0px" y="0px"
	 viewBox="0 0 64 64" style="enable-background:new 0 0 64 64;" xml:space="preserve">
<style type="text/css">
	.st0{fill:url(#SVGID_1_);}
	.st1{fill:url(#SVGID_2_);}
</style>
<g>
	<linearGradient id="SVGID_1_" gradientUnits="userSpaceOnUse" x1="31.8526" y1="26.0385" x2="32.1307" y2="7.1268">
		<stop  offset="0" style="stop-color:#E43131"/>
		<stop  offset="0.835" style="stop-color:#E94D50"/>
	</linearGradient>
	<path class="st0" d="M32,26.2c1.2,0,2.1-0.9,2.1-2.1V15v-1.6V7.9c0-1.2-0.9-2.1-2.1-2.1c-1.2,0-2.1,0.9-2.1,2.1v5.5V15v9.1
		C29.9,25.3,30.8,26.2,32,26.2z"/>
	<linearGradient id="SVGID_2_" gradientUnits="userSpaceOnUse" x1="31.6467" y1="57.9063" x2="32.3132" y2="12.5827">
		<stop  offset="0" style="stop-color:#E43131"/>
		<stop  offset="0.835" style="stop-color:#E94D50"/>
	</linearGradient>
	<path class="st1" d="M41.6,9.6H37c-0.3,0-0.5,0.2-0.5,0.5v3.2c0,0.3,0.2,0.5,0.5,0.5h5.1c2.3,0,4.2,1.9,4.2,4.2v31.7
		c0,2.3-1.9,4.2-4.2,4.2h-2.8h-1.7H21.9c-2.3,0-4.2-1.9-4.2-4.2V18c0-2.3,1.9-4.2,4.2-4.2h4.6c0.6,0,1-0.5,1-1v-2.2c0-0.6-0.5-1-1-1
		h-4.6c-4.7,0-8.5,3.8-8.5,8.5v31.6c0,4.7,3.8,8.5,8.5,8.5h15.7h1.7h2.8c4.7,0,8.5-3.8,8.5-8.5V18.6C50.6,13.6,46.6,9.6,41.6,9.6z"
		/>
</g>
</svg>
