<?xml version="1.0" encoding="utf-8"?>
<!-- Generator: Adobe Illustrator 25.2.1, SVG Export Plug-In . SVG Version: 6.00 Build 0)  -->
<svg version="1.1" id="Layer_1" xmlns="http://www.w3.org/2000/svg" xmlns:xlink="http://www.w3.org/1999/xlink" x="0px" y="0px"
	 viewBox="0 0 64 64" style="enable-background:new 0 0 64 64;" xml:space="preserve">
<style type="text/css">
	.st0{fill:url(#SVGID_1_);}
</style>
<linearGradient id="SVGID_1_" gradientUnits="userSpaceOnUse" x1="32.3421" y1="7.8286" x2="31.6542" y2="56.4413">
	<stop  offset="0" style="stop-color:#8D539B"/>
	<stop  offset="1" style="stop-color:#8D4492"/>
</linearGradient>
<path class="st0" d="M25.1,9.6c0-1-0.9-1.9-1.9-1.9l-1.2,0c0,0,0,0,0,0h0c-4.7,0-8.6,3.8-8.6,8.6v31.4c0,4.7,3.8,8.6,8.6,8.6h15.6
	h1.7H42c4.7,0,8.6-3.8,8.6-8.6v-3.1v-2.7v-1.3C27.4,38.6,25.2,16.3,25.1,9.6z M46.3,47.7c0,2.4-1.9,4.3-4.3,4.3h-2.7h-1.7H22
	c-2.4,0-4.3-1.9-4.3-4.3V16.2c0-2.4,1.9-4.3,4.3-4.3h0c0,0,0.1,0,0.1,0.1c0.5,8.7,4,27.9,24.2,32c0,0,0.1,0,0.1,0.1L46.3,47.7z"/>
</svg>
