<?xml version="1.0" encoding="utf-8"?>
<!-- Generator: Adobe Illustrator 25.2.1, SVG Export Plug-In . SVG Version: 6.00 Build 0)  -->
<svg version="1.1" id="Layer_1" xmlns="http://www.w3.org/2000/svg" xmlns:xlink="http://www.w3.org/1999/xlink" x="0px" y="0px"
	 viewBox="0 0 64 64" style="enable-background:new 0 0 64 64;" xml:space="preserve">
<style type="text/css">
	.st0{fill:url(#SVGID_1_);}
</style>
<linearGradient id="SVGID_1_" gradientUnits="userSpaceOnUse" x1="13.4" y1="32" x2="50.6" y2="32">
	<stop  offset="0" style="stop-color:#FFD747"/>
	<stop  offset="1" style="stop-color:#F4992A"/>
</linearGradient>
<path class="st0" d="M41.6,9.2H37c-0.3,0-0.5,0.2-0.5,0.5v3.2c0,0.3,0.2,0.5,0.5,0.5h5.1c2.3,0,4.2,1.9,4.2,4.2v31.7
	c0,2.3-1.9,4.2-4.2,4.2h-2.8h-1.7H21.9c-2.3,0-4.2-1.9-4.2-4.2V17.6c0-2.3,1.9-4.2,4.2-4.2h4.6c0.1,0,0.1,0,0.2,0
	c0.5,0.4,0.8,1,0.8,1.6l-0.1,1.3c0,0.1,0.1,0.2,0.1,0.2c0.1,0,0.2,0,0.3,0l4.8-4.4c0.2-0.2,0.3-0.5,0-0.8l-4.4-4.8
	c0-0.1-0.1-0.1-0.2,0c-0.1,0-0.2,0.1-0.2,0.2l0,1c0,0.5-0.3,1.3-1.3,1.7c0,0,0,0-0.1,0h-4.6c-1.5,0-2.8,0.4-4,1
	c-0.1,0-0.2,0-0.3,0.1l0.1,0.1c-2.5,1.5-4.2,4.2-4.2,7.4v31.6c0,4.7,3.8,8.5,8.5,8.5h15.7h1.7h2.8c4.7,0,8.5-3.8,8.5-8.5V18.2
	C50.6,13.2,46.6,9.2,41.6,9.2z"/>
</svg>
