<?xml version="1.0" encoding="utf-8"?>
<!-- Generator: Adobe Illustrator 25.2.1, SVG Export Plug-In . SVG Version: 6.00 Build 0)  -->
<svg version="1.1" id="Layer_1" xmlns="http://www.w3.org/2000/svg" xmlns:xlink="http://www.w3.org/1999/xlink" x="0px" y="0px"
	 viewBox="0 0 64 64" style="enable-background:new 0 0 64 64;" xml:space="preserve">
<style type="text/css">
	.st0{fill:url(#SVGID_1_);}
</style>
<linearGradient id="SVGID_1_" gradientUnits="userSpaceOnUse" x1="32.5143" y1="-4.7003" x2="31.6672" y2="55.1584" gradientTransform="matrix(1 0 0 -1 0 63.89)">
	<stop  offset="0" style="stop-color:#098993"/>
	<stop  offset="1" style="stop-color:#00BCD4"/>
</linearGradient>
<path class="st0" d="M27.5,53.2v2c0,0.6-0.5,1.1-1.1,1.1h-4.5c-4.7,0-8.5-3.8-8.5-8.5V16.2c0-4.7,3.8-8.5,8.5-8.5h4.6
	c0.5,0,1,0.4,1,1v2.2c0,0.5-0.4,1-1,1h-4.6c-2.3,0-4.2,1.9-4.2,4.2v31.7c0,2.3,1.9,4.2,4.2,4.2h4.5C27.1,52.1,27.5,52.6,27.5,53.2z
	 M37.6,52h4.5c2.3,0,4.2-1.9,4.2-4.2V16.1c0-2.3-1.9-4.2-4.2-4.2H37c-0.3,0-0.5-0.2-0.5-0.5V8.2c0-0.3,0.2-0.5,0.5-0.5h4.6
	c5,0,9,4,9,9v31.1c0,4.7-3.8,8.5-8.5,8.5h-4.5c-0.6,0-1.1-0.5-1.1-1.1v-2C36.5,52.6,36.9,52.1,37.6,52z M40.1,29.9H31h-1.6h-5.5
	c-1.2,0-2.1,0.9-2.1,2.1s0.9,2.1,2.1,2.1h5.5H31h9.1c1.2,0,2.1-0.9,2.1-2.1S41.3,29.9,40.1,29.9z"/>
</svg>
