<?xml version="1.0" encoding="utf-8"?>
<!-- Generator: Adobe Illustrator 25.2.1, SVG Export Plug-In . SVG Version: 6.00 Build 0)  -->
<svg version="1.1" id="Layer_1" xmlns="http://www.w3.org/2000/svg" xmlns:xlink="http://www.w3.org/1999/xlink" x="0px" y="0px"
	 viewBox="0 0 64 64" style="enable-background:new 0 0 64 64;" xml:space="preserve">
<style type="text/css">
	.st0{fill:url(#SVGID_1_);}
	.st1{fill:url(#SVGID_2_);}
</style>
<g>
	<linearGradient id="SVGID_1_" gradientUnits="userSpaceOnUse" x1="22.375" y1="7.8375" x2="23.8467" y2="49.5349">
		<stop  offset="0" style="stop-color:#52BBB7"/>
		<stop  offset="0.835" style="stop-color:#32B4AE"/>
	</linearGradient>
	<path class="st0" d="M26.4,52h-4.5c-2.3,0-4.2-1.9-4.2-4.2V16.1c0-2.3,1.9-4.2,4.2-4.2h4.6c0.1,0,0.1,0,0.2,0
		c0.5,0.4,0.8,1,0.8,1.6l-0.1,1.3c0,0.1,0.1,0.2,0.1,0.2c0.1,0,0.2,0,0.3,0l4.8-4.4c0.2-0.2,0.3-0.5,0-0.8l-4.4-4.8
		c0-0.1-0.1-0.1-0.2,0c-0.1,0-0.2,0.1-0.2,0.2l0,1c0,0.5-0.3,1.3-1.3,1.7c0,0,0,0-0.1,0h-4.6c-1.5,0-2.8,0.4-4,1
		c-0.1,0-0.2,0-0.3,0.1l0.1,0.1c-2.5,1.5-4.2,4.2-4.2,7.4v31.6c0,4.7,3.8,8.5,8.5,8.5h4.5c0.5,0,0.9-0.4,0.9-0.9v-2.6
		C27.3,52.4,26.9,52,26.4,52z"/>
	<linearGradient id="SVGID_2_" gradientUnits="userSpaceOnUse" x1="39.7674" y1="8.2681" x2="41.4353" y2="48.3957">
		<stop  offset="0" style="stop-color:#FCD86D"/>
		<stop  offset="1" style="stop-color:#F8C560"/>
	</linearGradient>
	<path class="st1" d="M42.1,7.7h-4.5c-0.5,0-0.8,0.4-0.8,0.8v2.7c0,0.5,0.4,0.8,0.8,0.8h4.5c2.3,0,4.2,1.9,4.2,4.2v31.7
		c0,2.3-1.9,4.2-4.2,4.2h-4.6c-0.1,0-0.1,0-0.2,0c-0.5-0.4-0.8-1-0.8-1.6l0.1-1.3c0-0.1-0.1-0.2-0.1-0.2c-0.1,0-0.2,0-0.3,0
		l-4.8,4.4c-0.2,0.2-0.3,0.5,0,0.8l4.4,4.8c0,0.1,0.1,0.1,0.2,0c0.1,0,0.2-0.1,0.2-0.2l0-1c0-0.5,0.3-1.3,1.3-1.7c0,0,0,0,0.1,0h4.6
		c1.5,0,2.8-0.4,4-1c0.1,0,0.2,0,0.3-0.1l-0.1-0.1c2.5-1.5,4.2-4.2,4.2-7.4V16.2C50.6,11.5,46.8,7.7,42.1,7.7z"/>
</g>
</svg>
