<svg id="Layer_1" data-name="Layer 1" xmlns="http://www.w3.org/2000/svg" viewBox="0 0 64 64"><defs><style>.cls-1{fill:#f4f4f4;}.cls-2{fill:#c1c6c9;}.cls-3{fill:none;stroke:#c1c6c9;stroke-linecap:round;stroke-miterlimit:10;stroke-width:5px;}</style></defs><path class="cls-1" d="M51.9,27l-.4-1.2A28.9,28.9,0,0,0,32.9,6.7L32,6.5a27.4,27.4,0,0,0-8.1-1.2A12.8,12.8,0,0,0,11.2,18.1V45.9A12.8,12.8,0,0,0,24,58.7H40A12.8,12.8,0,0,0,52.8,45.9V34.1A27.1,27.1,0,0,0,51.9,27Z"/><path class="cls-2" d="M51.5,25.8h-13a5.7,5.7,0,0,1-5.6-5.7V6.7A28.9,28.9,0,0,1,51.5,25.8Z"/><line class="cls-3" x1="22.6" y1="39.2" x2="27.5" y2="39.2"/><line class="cls-3" x1="22.6" y1="47.8" x2="41.4" y2="47.8"/></svg>