<?xml version="1.0" encoding="UTF-8" standalone="no"?>
<svg
   xmlns:dc="http://purl.org/dc/elements/1.1/"
   xmlns:cc="http://creativecommons.org/ns#"
   xmlns:rdf="http://www.w3.org/1999/02/22-rdf-syntax-ns#"
   xmlns:svg="http://www.w3.org/2000/svg"
   xmlns="http://www.w3.org/2000/svg"
   xmlns:sodipodi="http://sodipodi.sourceforge.net/DTD/sodipodi-0.dtd"
   xmlns:inkscape="http://www.inkscape.org/namespaces/inkscape"
   id="a"
   viewBox="0 0 64 64"
   version="1.1"
   sodipodi:docname="x-office-document.svg"
   inkscape:version="1.0.2 (e86c870879, 2021-01-15)">
  <metadata
     id="metadata21">
    <rdf:RDF>
      <cc:Work
         rdf:about="">
        <dc:format>image/svg+xml</dc:format>
        <dc:type
           rdf:resource="http://purl.org/dc/dcmitype/StillImage" />
      </cc:Work>
    </rdf:RDF>
  </metadata>
  <sodipodi:namedview
     pagecolor="#ffffff"
     bordercolor="#666666"
     borderopacity="1"
     objecttolerance="10"
     gridtolerance="10"
     guidetolerance="10"
     inkscape:pageopacity="0"
     inkscape:pageshadow="2"
     inkscape:window-width="1409"
     inkscape:window-height="1032"
     id="namedview19"
     showgrid="false"
     inkscape:zoom="2.8710938"
     inkscape:cx="40.573712"
     inkscape:cy="25.097847"
     inkscape:window-x="339"
     inkscape:window-y="75"
     inkscape:window-maximized="0"
     inkscape:current-layer="a" />
  <defs
     id="defs4">
    <style
       id="style2">.b{fill:#f4f4f4;}.c{fill:#3f9cef;}.d{fill:none;stroke:#3f9cef;stroke-linecap:round;stroke-miterlimit:10;stroke-width:5px;}</style>
  </defs>
  <path
     class="b"
     d="m 24,57.8252 c -6.5752,0 -11.9248,-5.34961 -11.9248,-11.9248 V 18.1001 c -4.9e-4,-6.52441 5.30713,-11.87402 11.83154,-11.92529 2.70508,0 5.31787,0.39062 7.8374,1.16211 l 0.96582,0.21729 c 8.57715,2.83984 15.31934,9.76367 17.95215,18.49805 l 0.4082,1.22461 c 0.57715,2.18896 0.86914,4.50049 0.85449,6.81689 V 45.9004 c 0,6.5752 -5.34961,11.9248 -11.9248,11.9248 z"
     id="path6" />
  <path
     class="c"
     d="m 23.97965,7.04989 c 2.54679,0 5.07288,0.37799 7.50811,1.12347 l 0.06562,0.02009 0.06699,0.01488 0.81266,0.18059 c 8.35127,2.7905 14.84951,9.48219 17.39141,17.91609 l 0.0073,0.02431 0.008,0.02409 0.38225,1.14674 c 0.56352,2.14979 0.84208,4.36633 0.82795,6.59986 v 11.8 c 0,6.09299 -4.95701,11.05 -11.05,11.05 H 24 c -6.09299,0 -11.05,-4.95701 -11.05,-11.05 V 18.09994 C 12.94981,12.0542 17.86809,7.09719 23.90511,7.04999 l 0.07453,-10e-5 m 0,-1.75 L 23.9,5.3 C 16.86983,5.35493 11.19978,11.06962 11.2,18.1 v 27.8 c 0,7.06924 5.73076,12.8 12.8,12.8 h 16 c 7.06924,0 12.8,-5.73076 12.8,-12.8 V 34.1 C 52.81519,31.70395 52.51255,29.31648 51.9,27 L 51.5,25.8 C 48.78237,16.78306 41.8417,9.6558 32.9,6.7 L 32,6.5 C 29.40082,5.70433 26.69758,5.29988 23.97964,5.29988 v 0 z"
     id="path8"
     style="fill:#c1c6c9;fill-opacity:1" />
  <path
     class="c"
     d="M51.5,25.8h-13c-3.1089-.05455-5.60048-2.59062-5.6-5.7V6.7c8.9417,2.9558,15.88237,10.08305,18.6,19.1Z"
     id="path12"
     style="fill:#c1c6c9;fill-opacity:1" />
  <line
     class="d"
     x1="23.52188"
     y1="41.14231"
     x2="28.39701"
     y2="41.14231"
     id="line14"
     style="fill:#c1c6c9;fill-opacity:1;stroke:#c1c6c9;stroke-opacity:1" />
  <line
     class="d"
     x1="23.52188"
     y1="49.52211"
     x2="42.27812"
     y2="49.52211"
     id="line16"
     style="stroke:#c1c6c9;stroke-opacity:1" />
</svg>
