<?xml version="1.0" encoding="utf-8"?>
<!-- Generator: Adobe Illustrator 26.0.1, SVG Export Plug-In . SVG Version: 6.00 Build 0)  -->
<svg version="1.1" id="Layer_1" xmlns="http://www.w3.org/2000/svg" xmlns:xlink="http://www.w3.org/1999/xlink" x="0px" y="0px"
	 viewBox="0 0 64 64" style="enable-background:new 0 0 64 64;" xml:space="preserve">
<style type="text/css">
	.st0{fill:#929495;}
	.st1{fill:#E6E6E6;}
</style>
<g>
	<path class="st0" d="M20.9,14.7H43c1.9,0,3.4,1.5,3.4,3.4v29.7c0,1.9-1.5,3.4-3.4,3.4H20.9c-1.9,0-3.4-1.5-3.4-3.4V18.1
		C17.5,16.2,19,14.7,20.9,14.7z"/>
</g>
<path class="st1" d="M53.7,14.1c-0.1-3.7-3-6.6-6.7-6.7H17c-3.7,0.1-6.6,3-6.7,6.7v37.6c0,3.7,3,6.7,6.7,6.7c0,0,0,0,0,0h30
	c3.7,0,6.7-3,6.7-6.7c0,0,0,0,0,0V14.1z M49.8,51.7c-0.1,1.5-1.3,2.7-2.8,2.8H17c-1.5-0.1-2.7-1.3-2.8-2.8V14.1
	c0.1-1.5,1.3-2.7,2.8-2.7h30c1.5,0,2.7,1.2,2.8,2.7V51.7z"/>
<path class="st1" d="M37,9H27c-1,0-1.9-0.8-1.9-1.9c0,0,0-0.1,0-0.1c-0.1-1,0.7-1.8,1.7-1.9c0.1,0,0.1,0,0.2,0h10
	c1-0.1,1.8,0.7,1.9,1.7c0,0.1,0,0.1,0,0.2c0.1,1-0.7,1.9-1.8,2C37.1,9,37,9,37,9z"/>
<path class="st1" d="M30.3,45.8h-5.4c-1.1,0-2-0.9-2-2s0.9-2,2-2h5.4c1.1,0,2,0.9,2,2S31.4,45.8,30.3,45.8z"/>
<path class="st1" d="M39.2,34.9H24.9c-1.1,0-2-0.9-2-2c0-1,0.8-1.9,1.9-1.9c0,0,0.1,0,0.1,0h14.3c1-0.1,1.9,0.7,2,1.8
	c0,0,0,0.1,0,0.1C41.2,34,40.3,34.9,39.2,34.9z"/>
<path class="st1" d="M39.2,24H24.9c-1.1,0.2-2.1-0.4-2.4-1.5c-0.2-1.1,0.4-2.1,1.5-2.4c0.3-0.1,0.6-0.1,0.9,0h14.3
	c1.1-0.2,2.1,0.4,2.4,1.5c0.2,1.1-0.4,2.1-1.5,2.4C39.8,24.1,39.5,24.1,39.2,24z"/>
</svg>
