<?xml version="1.0" encoding="utf-8"?>
<!-- Generator: Adobe Illustrator 25.4.1, SVG Export Plug-In . SVG Version: 6.00 Build 0)  -->
<svg version="1.1" id="Layer_1" xmlns="http://www.w3.org/2000/svg" xmlns:xlink="http://www.w3.org/1999/xlink" x="0px" y="0px"
	 viewBox="0 0 64 64" style="enable-background:new 0 0 64 64;" xml:space="preserve">
<style type="text/css">
	.st0{fill:#919190;}
	.st1{fill:#E6E6E6;}
	.st2{fill:none;stroke:#000000;stroke-width:3.9361;stroke-linecap:round;stroke-linejoin:round;stroke-miterlimit:10;}
</style>
<g>
	<path class="st0" d="M51.3,48.9v-34c0-1.5-1.2-2.7-2.7-2.7H15.4c-1.5,0-2.7,1.2-2.7,2.7v34c0,1.6,1.3,2.9,3,2.9h32.8
		C50,51.9,51.3,50.5,51.3,48.9z"/>
</g>
<g>
	<path class="st1" d="M51,59.1H13c-4.2,0-7.6-3.4-7.6-7.6v-39c0-4.2,3.4-7.6,7.6-7.6h12.8c1.1,0,2,0.9,2,2s-0.9,2-2,2H13
		c-2,0-3.7,1.7-3.7,3.7v39c0,2,1.7,3.7,3.7,3.7h38c2,0,3.7-1.7,3.7-3.7v-39c0-2-1.7-3.7-3.7-3.7H38.7c-1.1,0-2-0.9-2-2s0.9-2,2-2H51
		c4.2,0,7.6,3.4,7.6,7.6v39C58.6,55.7,55.2,59.1,51,59.1z"/>
</g>
<g>
	<path class="st1" d="M32.9,21.3L37.6,36c1,3.3-1.4,6.7-4.9,6.7H32h0c-3.7,0-6.2-3.7-4.8-7.1L32.9,21.3z"/>
</g>
</svg>
