<?xml version="1.0" encoding="utf-8"?>
<!-- Generator: Adobe Illustrator 25.2.1, SVG Export Plug-In . SVG Version: 6.00 Build 0)  -->
<svg version="1.1" id="Layer_1" xmlns="http://www.w3.org/2000/svg" xmlns:xlink="http://www.w3.org/1999/xlink" x="0px" y="0px"
	 viewBox="0 0 16 16" style="enable-background:new 0 0 16 16;" xml:space="preserve">
<g>
	<g>
		<path d="M4.2,1.2c0.5,0,1,0.2,1.4,0.6l4.9,4.9c0.1,0.1,0.3,0.2,0.4,0.2H13c0.4,0,0.7,0.1,1.1,0.2l0.3,0.1c0.3,0.1,0.5,0.4,0.5,0.8
			c0,0.3-0.2,0.6-0.5,0.8l-0.2,0.1C13.7,9,13.3,9.1,13,9.1h-2.1c-0.2,0-0.3,0.1-0.4,0.2l-4.9,4.9c-0.4,0.4-0.9,0.6-1.4,0.6H3.8
			c-0.1,0-0.2-0.1-0.2-0.1c0-0.1,0-0.2,0-0.3l2.9-4.5c0.2-0.4,0-0.9-0.5-0.9C5.5,8.9,5,8.9,4.5,8.8L3.6,8.7l-1.3,2
			c-0.1,0.1-0.1,0.1-0.2,0.1H1.5c-0.1,0-0.2,0-0.2-0.1c0-0.1-0.1-0.1-0.1-0.2c0,0,0,0,0-0.1l0.5-2.4c0-0.1,0-0.2,0-0.3L1.2,5.5
			c0-0.1,0-0.2,0.1-0.2c0.1-0.1,0.1-0.1,0.2-0.1h0.6c0.1,0,0.2,0,0.2,0.1l1.3,2l0.9-0.1c0.5-0.1,1-0.1,1.4-0.1
			c0.5,0,0.7-0.5,0.5-0.9L3.5,1.7c-0.1-0.1-0.1-0.2,0-0.3c0-0.1,0.1-0.1,0.2-0.1H4.2 M4.2,0H3.8C3.2,0,2.7,0.3,2.4,0.8
			C2.2,1.3,2.2,1.9,2.5,2.3l2.3,3.6c-0.1,0-0.3,0-0.4,0L4.2,6L3.3,4.6C3,4.2,2.6,4,2.1,4H1.5C1,4,0.6,4.2,0.3,4.5
			C0,4.9-0.1,5.3,0,5.8L0.5,8L0,10.2c0,0.1,0,0.2,0,0.3c0,0.3,0.1,0.7,0.3,0.9C0.6,11.8,1,12,1.5,12h0.6c0.5,0,1-0.3,1.3-0.7L4.2,10
			l0.2,0c0.2,0,0.3,0,0.4,0l-2.3,3.6c-0.3,0.5-0.3,1-0.1,1.5C2.7,15.7,3.2,16,3.8,16h0.4c0.9,0,1.7-0.3,2.3-0.9l4.7-4.7H13
			c0.5,0,1.1-0.1,1.6-0.4c0,0,0,0,0.1,0l0.2-0.1C15.6,9.5,16,8.8,16,8c0-0.8-0.5-1.5-1.2-1.9L14.6,6c0,0,0,0-0.1,0
			c-0.5-0.2-1-0.3-1.6-0.3h-1.8L6.5,0.9C5.9,0.3,5,0,4.2,0L4.2,0z"/>
	</g>
</g>
</svg>
