<?xml version="1.0" encoding="utf-8"?>
<!-- Generator: Adobe Illustrator 25.2.1, SVG Export Plug-In . SVG Version: 6.00 Build 0)  -->
<svg version="1.1" id="Layer_1" xmlns="http://www.w3.org/2000/svg" xmlns:xlink="http://www.w3.org/1999/xlink" x="0px" y="0px"
	 viewBox="0 0 16 16" style="enable-background:new 0 0 16 16;" xml:space="preserve">
<style type="text/css">
	.st0{fill-rule:evenodd;clip-rule:evenodd;fill:#DFDFDF;}
	.st1{fill:#DFDFDF;}
</style>
<circle class="st0" cx="21.8" cy="8.7" r="1.3"/>
<g transform="translate(-9.98511)">
	<circle class="st0" cx="13" cy="14.2" r="1.3"/>
</g>
<g transform="translate(0 .456576)">
	<path class="st1" d="M8,1C4.2,1,1,4.2,1,8s3.2,7,7,7s7-3.2,7-7S11.8,1,8,1z M8,1.7c3.4,0,6.3,2.8,6.3,6.3s-2.8,6.3-6.3,6.3
		S1.7,11.4,1.7,8S4.6,1.7,8,1.7z"/>
</g>
<path d="M8.7,1.4V0.7C8.7,0.3,8.4,0,8,0S7.3,0.3,7.3,0.7v0.7c-4,0.4-7,3.9-6.6,7.9c0.1,1.5,0.8,3,1.8,4.1c-0.7,0.4-1.2,1.1-1.1,1.9
	C1.3,15.7,1.6,16,2,16s0.7-0.3,0.7-0.7c0-0.4,0.3-0.8,0.7-0.8c0,0,0.1,0,0.1,0c2.6,2,6.3,2,8.9,0c0,0,0.1,0,0.1,0
	c0.4,0,0.8,0.4,0.7,0.8c0,0.4,0.3,0.7,0.7,0.7s0.7-0.3,0.7-0.7c0-0.8-0.4-1.5-1.1-1.9c2.6-3.1,2.3-7.7-0.7-10.3
	C11.6,2.1,10.2,1.5,8.7,1.4z M2,8.7c0-3.4,2.8-6.1,6.2-6c3.1,0.1,5.7,2.7,5.8,5.8c0.1,3.4-2.6,6.2-6,6.2C4.7,14.7,2,12,2,8.7z"/>
<path d="M12.8,0c-0.4,0-0.7,0.3-0.7,0.7s0.3,0.7,0.7,0.7c1-0.1,1.8,0.6,1.9,1.6c0,0,0,0.1,0,0.1c0,0.4,0.3,0.7,0.7,0.7
	C15.7,3.7,16,3.4,16,3C16,1.3,14.6,0,12.8,0C12.8,0,12.8,0,12.8,0z"/>
<path d="M1.3,3c0-1,0.8-1.7,1.8-1.7c0,0,0.1,0,0.1,0c0.4,0,0.7-0.3,0.7-0.7S3.6,0,3.2,0C1.5-0.1,0.1,1.3,0,2.9C0,3,0,3,0,3
	c0,0.4,0.3,0.7,0.7,0.7S1.3,3.4,1.3,3z"/>
<path d="M8.7,7.7V4.7C8.7,4.3,8.4,4,8,4S7.3,4.3,7.3,4.7V8c0,0.2,0.1,0.3,0.2,0.5l2,2c0.3,0.3,0.7,0.2,0.9,0c0.2-0.3,0.2-0.7,0-0.9
	L8.7,7.7z"/>
</svg>
