<?xml version="1.0" encoding="utf-8"?>
<!-- Generator: Adobe Illustrator 25.2.1, SVG Export Plug-In . SVG Version: 6.00 Build 0)  -->
<svg version="1.1" id="Layer_1" xmlns="http://www.w3.org/2000/svg" xmlns:xlink="http://www.w3.org/1999/xlink" x="0px" y="0px"
	 viewBox="0 0 16 16" style="enable-background:new 0 0 16 16;" xml:space="preserve">
<path d="M8.8,7V3.6c0-0.4-0.3-0.8-0.8-0.8c-0.4,0-0.8,0.3-0.8,0.8v3.6c0,0.2,0.1,0.3,0.2,0.6L9.6,10c0.3,0.3,0.8,0.2,1,0
	c0.2-0.3,0.2-0.8,0-1L8.8,7z"/>
<path d="M8,0C3.6,0,0,3.6,0,8s3.6,8,8,8s8-3.6,8-8C16,3.6,12.4,0,8,0z M8,14.7c-3.7,0-6.7-3-6.7-6.7s3-6.7,6.7-6.7s6.7,3,6.7,6.7
	C14.7,11.7,11.7,14.7,8,14.7z"/>
</svg>
