<?xml version="1.0" encoding="utf-8"?>
<!-- Generator: Adobe Illustrator 25.2.1, SVG Export Plug-In . SVG Version: 6.00 Build 0)  -->
<svg version="1.1" id="Layer_1" xmlns="http://www.w3.org/2000/svg" xmlns:xlink="http://www.w3.org/1999/xlink" x="0px" y="0px"
	 viewBox="0 0 16 16" style="enable-background:new 0 0 16 16;" xml:space="preserve">
<g>
	<g>
		<path d="M8.7,7.8H7.3c-1.8,0-3.3-1.5-3.3-3.3V3.2C4.1,1.4,5.5,0,7.3,0h1.3c1.8,0,3.3,1.5,3.3,3.3v1.3C11.9,6.3,10.5,7.8,8.7,7.8z
			 M7.3,1C6.1,1,5.1,2,5.1,3.2v1.3c0,1.2,1,2.3,2.3,2.3h1.3c1.2,0,2.3-1,2.3-2.3V3.2C10.9,2,9.9,1,8.7,1H7.3z"/>
	</g>
	<g>
		<path d="M2.8,16v-2.3c0-2,1.6-3.6,3.6-3.6h3.3c2,0,3.6,1.6,3.6,3.6V16h1v-2.3c0-2.5-2-4.6-4.6-4.6H6.3c-2.5,0-4.6,2-4.6,4.6V16
			H2.8z"/>
	</g>
</g>
</svg>
