<?xml version="1.0" encoding="utf-8"?>
<!-- Generator: Adobe Illustrator 25.2.3, SVG Export Plug-In . SVG Version: 6.00 Build 0)  -->
<svg version="1.1" id="Layer_1" xmlns="http://www.w3.org/2000/svg" xmlns:xlink="http://www.w3.org/1999/xlink" x="0px" y="0px"
	 viewBox="0 0 16 16" style="enable-background:new 0 0 16 16;" xml:space="preserve">
<path d="M14.4,8.7L7.6,4.2c-0.2-0.1-0.4-0.1-0.5,0C6.9,4.3,6.8,4.4,6.8,4.7L7,6.8L2.8,6.1c-0.2,0-0.5,0.1-0.6,0.3c0,0-0.1,0.2,0,0.5
	C2.3,7,2.3,7,2.4,7.1l6.7,4.6c0.2,0.1,0.4,0.1,0.5,0c0.1-0.1,0.2-0.2,0.3-0.3c0-0.1,0-0.1,0-0.2L9.8,8.8L14,9.6
	c0.2,0,0.5-0.1,0.6-0.3C14.7,9.1,14.6,8.8,14.4,8.7z"/>
<g>
	<path d="M12.3,11c-0.1,0-0.2,0.1-0.2,0.2V14c0,0.6-0.5,1-1,1H8H5c-0.6,0.1-1-0.4-1-1V9.7c0-0.1,0-0.1,0-0.2L3.3,9.1
		C3.1,9,3,9.1,3,9.2V14c0,1.1,0.9,2,2,2h3h3c1.1,0,2-0.9,2-2v-2.7c0-0.1-0.1-0.2-0.1-0.2L12.3,11z"/>
	<path d="M11.1,1.3L11.1,1.3c0-0.7-0.5-1.2-1.1-1.2H8H6.2C5.5,0,5,0.5,5,1.2v0.2c-1.1,0-2,0.9-2,2v0.8v0.5v0c0,0,0,0,0,0
		C3,4.9,3.1,5,3.2,5h0.5C3.9,5,4,4.9,4,4.8V4.6c0,0,0,0,0,0V3.3c0-0.6,0.5-1,1-1h0.3C5.7,2.3,6,2,6,1.6V1.3C6,1.1,6.2,1,6.3,1H8h1.7
		C9.9,1,10,1.2,10,1.3v0.3c0,0.4,0.3,0.7,0.7,0.7H11c0.6,0,1,0.5,1,1v2.3c0,0.1,0,0.1,0.1,0.2l0.7,0.5c0.1,0.1,0.3,0,0.3-0.2V3.3
		C13.1,2.2,12.2,1.3,11.1,1.3z"/>
</g>
</svg>
