<?xml version="1.0" encoding="utf-8"?>
<!-- Generator: Adobe Illustrator 25.2.1, SVG Export Plug-In . SVG Version: 6.00 Build 0)  -->
<svg version="1.1" id="Layer_1" xmlns="http://www.w3.org/2000/svg" xmlns:xlink="http://www.w3.org/1999/xlink" x="0px" y="0px"
	 viewBox="0 0 16 16" style="enable-background:new 0 0 16 16;" xml:space="preserve">
<style type="text/css">
	.st0{fill:#B5B5B5;fill-opacity:0.5;}
</style>
<g>
	<path d="M5.1,1.1v0.2H4.9c-1,0-1.8,0.8-1.8,1.8v11c0,1,0.8,1.8,1.8,1.8h3.2h3.2c1,0,1.8-0.8,1.8-1.8v-11c0-1-0.8-1.8-1.8-1.8h-0.2
		V1.1C11.1,0.5,10.6,0,10,0H8.1H6.3C5.6,0,5.1,0.5,5.1,1.1z M8.1,0.9h1.8c0.1,0,0.2,0.1,0.2,0.2v0.7c0,0.3,0.2,0.5,0.5,0.5h0.7
		c0.5,0,0.8,0.4,0.8,0.8v11c0,0.5-0.4,0.8-0.8,0.8H8.1H4.9c-0.5,0-0.8-0.4-0.8-0.8v-11c0-0.5,0.4-0.8,0.8-0.8h0.7
		c0.3,0,0.5-0.2,0.5-0.5V1.1c0-0.1,0.1-0.2,0.2-0.2H8.1z"/>
	<path class="st0" d="M4.7,11.9V15v-0.9c0,0.2,0.2,0.3,0.6,0.3h5.7c0.3,0,0.6-0.1,0.6-0.3v1V12c0-0.2-0.2-0.3-0.6-0.3H5.2
		C4.9,11.6,4.7,11.7,4.7,11.9z"/>
</g>
</svg>
