<?xml version="1.0" encoding="utf-8"?>
<!-- Generator: Adobe Illustrator 25.2.1, SVG Export Plug-In . SVG Version: 6.00 Build 0)  -->
<svg version="1.1" id="Layer_1" xmlns="http://www.w3.org/2000/svg" xmlns:xlink="http://www.w3.org/1999/xlink" x="0px" y="0px"
	 viewBox="0 0 16 16" style="enable-background:new 0 0 16 16;" xml:space="preserve">
<style type="text/css">
	.st0{fill:#B5B5B5;fill-opacity:0.5;}
</style>
<path class="st0" d="M4.5,4.2v10.9v-0.9c0,0.2,0.2,0.3,0.6,0.3h5.7c0.3,0,0.6-0.1,0.6-0.3v1V4.3c0-0.2-0.2-0.3-0.6-0.3H5
	C4.7,4,4.5,4,4.5,4.2z"/>
<path d="M5,1.1v0.2H4.8C3.8,1.3,3,2.1,3,3.1v11.1c0,1,0.8,1.8,1.8,1.8H8h3.2c1,0,1.8-0.8,1.8-1.8V3.1c0-1-0.8-1.8-1.8-1.8H11V1.1
	C11,0.5,10.5,0,9.9,0H8.1H6.2C5.5,0,5,0.5,5,1.1z M8,0.9h1.8C9.9,0.9,10,1,10,1.1v0.7c0,0.3,0.2,0.5,0.5,0.5h0.7
	c0.5,0,0.8,0.4,0.8,0.8v11.1c0,0.5-0.4,0.8-0.8,0.8H8H4.8C4.4,15.1,4,14.7,4,14.3V3.2c0-0.5,0.4-0.8,0.8-0.8h0.7
	C5.8,2.3,6,2.1,6,1.8V1.1C6,1,6.1,0.9,6.2,0.9H8z"/>
<path d="M10.3,8.9L10.3,8.9L7.7,7.3c-0.1-0.1-0.2-0.1-0.3,0c-0.1,0-0.2,0.1-0.2,0.2v0.7L6,7.9c-0.2,0-0.3,0-0.3,0
	C5.5,8.1,5.5,8.2,5.5,8.3c0,0,0.1,0.1,0.2,0.2l2.4,1.6c0.1,0.1,0.2,0.1,0.3,0C8.5,10,8.5,9.9,8.5,9.9V9.2l1.7,0.2
	c0.1,0,0.1,0,0.2-0.1C10.5,9.2,10.4,9.1,10.3,8.9C10.4,9,10.3,8.9,10.3,8.9z"/>
</svg>
