<?xml version="1.0" encoding="utf-8"?>
<!-- Generator: Adobe Illustrator 25.2.1, SVG Export Plug-In . SVG Version: 6.00 Build 0)  -->
<svg version="1.1" id="Layer_1" xmlns="http://www.w3.org/2000/svg" xmlns:xlink="http://www.w3.org/1999/xlink" x="0px" y="0px"
	 viewBox="0 0 16 16" style="enable-background:new 0 0 16 16;" xml:space="preserve">
<g transform="translate(-5 -2.32258)">
	<path d="M10.5,11.7h2.3c0,0,0.1,0,0.1,0l0.9-0.1c0.3,0,0.5-0.3,0.5-0.6v0c0-0.3-0.2-0.6-0.5-0.6l-0.9-0.1c0,0-0.1,0-0.1,0h-2.3
		c-0.3,0-0.6,0.3-0.6,0.6v0.2C9.8,11.4,10.1,11.7,10.5,11.7z M15.6,11.7h0.2c0.3,0,0.6-0.3,0.6-0.6v-0.2c0-0.3-0.3-0.6-0.6-0.6h-0.2
		c-0.3,0-0.6,0.3-0.6,0.6v0.2C15,11.4,15.3,11.7,15.6,11.7z"/>
</g>
<path d="M5.1,1.1v0.2H5c-1,0-1.8,0.8-1.8,1.8v11C3.1,15.2,4,16,5,16h3.2h3.2c1,0,1.8-0.8,1.8-1.8v-11c0-1-0.8-1.8-1.8-1.8h-0.2V1.1
	C11.2,0.5,10.6,0,10,0H8.2H6.4C5.6,0,5.1,0.5,5.1,1.1z M8.1,0.9H10c0.1,0,0.2,0.1,0.2,0.2v0.7c0,0.3,0.2,0.5,0.5,0.5h0.7
	c0.5,0,0.8,0.4,0.8,0.8v11c0,0.5-0.4,0.8-0.8,0.8H8.1H5c-0.5,0-0.8-0.4-0.8-0.8v-11c0-0.5,0.4-0.8,0.8-0.8h0.7
	c0.3,0,0.5-0.2,0.5-0.5V1.1c0-0.1,0.1-0.2,0.2-0.2H8.1z"/>
</svg>
