<?xml version="1.0" encoding="utf-8"?>
<!-- Generator: Adobe Illustrator 25.2.1, SVG Export Plug-In . SVG Version: 6.00 Build 0)  -->
<svg version="1.1" id="Layer_1" xmlns="http://www.w3.org/2000/svg" xmlns:xlink="http://www.w3.org/1999/xlink" x="0px" y="0px"
	 viewBox="0 0 16 16" style="enable-background:new 0 0 16 16;" xml:space="preserve">
<style type="text/css">
	.st0{fill-rule:evenodd;clip-rule:evenodd;fill:#DADADA;}
</style>
<path class="st0" d="M15.4,12.9l-2.8-1.9c0,0,0,0,0,0L8.5,8l4.2-2.9c0.1-0.1,0.2-0.3,0.2-0.4c0-0.2-0.1-0.3-0.2-0.4l-5-4.2
	C7.6,0,7.5,0,7.4,0C7.1,0,6.8,0.2,6.8,0.5v6.3L4.3,5.1c0,0,0,0,0,0L1.2,2.9C0.9,2.7,0.7,2.7,0.6,3L0.5,3.1C0.3,3.3,0.3,3.6,0.6,3.7
	L6.7,8l-3,2.1c-0.1,0.1-0.2,0.3-0.2,0.4c0,0.4,0.5,0.6,0.8,0.4l2.5-1.8v6.3c0,0.4,0.5,0.7,0.8,0.4l4.7-3.9l2.4,1.7
	c0.2,0.1,0.5,0,0.7-0.2C15.7,13.2,15.7,12.9,15.4,12.9z M7.9,1.6l3.6,3L7.9,7.2V1.6z M7.9,14.4V8.8l3.6,2.5L7.9,14.4z"/>
<image style="overflow:visible;" width="2880" height="1800" xlink:href="../../../Screen Shot 2021-04-14 at 12.29.43.png"  transform="matrix(0.2345 0 0 0.2345 -538.8362 -510.3566)">
</image>
</svg>
