<?xml version="1.0" encoding="utf-8"?>
<!-- Generator: Adobe Illustrator 25.2.1, SVG Export Plug-In . SVG Version: 6.00 Build 0)  -->
<svg version="1.1" id="Layer_1" xmlns="http://www.w3.org/2000/svg" xmlns:xlink="http://www.w3.org/1999/xlink" x="0px" y="0px"
	 viewBox="0 0 16 16" style="enable-background:new 0 0 16 16;" xml:space="preserve">
<style type="text/css">
	.st0{fill-rule:evenodd;clip-rule:evenodd;}
</style>
<path class="st0" d="M7.5,15.9l5-4.2c0.1-0.1,0.2-0.2,0.2-0.4c0-0.2-0.1-0.3-0.2-0.4L8.3,8l4.2-2.9c0.1-0.1,0.2-0.3,0.2-0.4
	c0-0.2-0.1-0.3-0.2-0.4l-5-4.2C7.4,0,7.3,0,7.2,0C6.9,0,6.7,0.2,6.7,0.5v6.3L4.1,5.1c-0.3-0.2-0.8,0-0.8,0.4c0,0.2,0.1,0.3,0.2,0.4
	l3,2.1l-3,2.1c-0.1,0.1-0.2,0.3-0.2,0.4c0,0.4,0.5,0.6,0.8,0.4l2.5-1.8v6.3C6.7,15.9,7.2,16.2,7.5,15.9z M7.7,1.6l3.6,3L7.7,7.2V1.6
	z M7.7,8.8l3.6,2.5l-3.6,3V8.8z"/>
</svg>
