<?xml version="1.0" encoding="utf-8"?>
<!-- Generator: Adobe Illustrator 25.2.1, SVG Export Plug-In . SVG Version: 6.00 Build 0)  -->
<svg version="1.1" id="Layer_1" xmlns="http://www.w3.org/2000/svg" xmlns:xlink="http://www.w3.org/1999/xlink" x="0px" y="0px"
	 viewBox="0 0 16 16" style="enable-background:new 0 0 16 16;" xml:space="preserve">
<path d="M12.1,5l-0.1,0V2.8c0-1.6-1.3-2.8-2.8-2.8H8H6.9C5.4,0,4.1,1.3,4.1,2.8v2.1L3.9,5C2.8,5.4,2,6.4,2,7.7v5.6
	C2,14.8,3.2,16,4.7,16H8h3.3c1.5,0,2.7-1.2,2.7-2.7V7.7C14,6.4,13.2,5.4,12.1,5z M5.2,2.6C5.2,1.8,5.9,1,6.8,1H8h1.2
	c0.9,0,1.6,0.7,1.6,1.6v2.2H8H5.2V2.6z M11.3,15H8H4.7c-0.9,0-1.6-0.7-1.6-1.6l0-5.9c0-0.9,0.7-1.6,1.6-1.6H8h3.2
	c0.9,0,1.6,0.7,1.6,1.6l0,5.9C12.9,14.2,12.2,15,11.3,15z"/>
</svg>
