<?xml version="1.0" encoding="utf-8"?>
<!-- Generator: Adobe Illustrator 25.2.1, SVG Export Plug-In . SVG Version: 6.00 Build 0)  -->
<svg version="1.1" id="Layer_1" xmlns="http://www.w3.org/2000/svg" xmlns:xlink="http://www.w3.org/1999/xlink" x="0px" y="0px"
	 viewBox="0 0 16 16" style="enable-background:new 0 0 16 16;" xml:space="preserve">
<g>
	<g>
		<path d="M13.2,16H2.8C1.3,16,0,14.7,0,13.2V2.8C0,1.3,1.3,0,2.8,0h10.4C14.7,0,16,1.3,16,2.8v10.4C16,14.7,14.7,16,13.2,16z
			 M2.8,1.1c-0.9,0-1.7,0.7-1.7,1.7v10.4c0,0.9,0.7,1.7,1.7,1.7h10.4c0.9,0,1.7-0.7,1.7-1.7V2.8c0-0.9-0.7-1.7-1.7-1.7H2.8z"/>
	</g>
</g>
<g>
	<path d="M4.5,8.5l2.9,2.8c0,0,0,0,0,0c0,0,0,0,0,0l4.1-5.1c0.2-0.2,0.2-0.6-0.1-0.8l-0.7-0.6l0,0.1L7.5,9L7.2,8.8l0,0L7.1,8.7
		c0,0,0,0-0.1-0.1l0,0l0,0c0,0,0,0,0,0L5.1,6.9c0,0,0,0,0,0c0,0,0,0,0,0L4.5,7.6C4.3,7.9,4.3,8.2,4.5,8.5z"/>
</g>
</svg>
