<?xml version="1.0" encoding="utf-8"?>
<!-- Generator: Adobe Illustrator 25.2.1, SVG Export Plug-In . SVG Version: 6.00 Build 0)  -->
<svg version="1.1" id="Layer_1" xmlns="http://www.w3.org/2000/svg" xmlns:xlink="http://www.w3.org/1999/xlink" x="0px" y="0px"
	 viewBox="0 0 16 16" style="enable-background:new 0 0 16 16;" xml:space="preserve">
<g>
	<path d="M1.7,11.6H0v-1.2h1.7c0.1,0,0.2-0.1,0.2-0.2C2.9,8.1,5,5.5,8,5.5c0,0,0,0,0.1,0c2.9,0,5.1,2.6,6,4.8c0,0.1,0.1,0.2,0.2,0.2
		H16v1.2h-1.8c-0.6,0-1.1-0.3-1.3-0.9c-0.9-2-2.7-4-4.9-4.1l0,0c-2.4,0-4.2,2.2-5,4.1C2.7,11.2,2.2,11.6,1.7,11.6z"/>
</g>
<path d="M4.7,13.4l2.2,2.2c0.6,0.6,1.6,0.6,2.2,0l2.2-2.2c0.2-0.2,0.2-0.6,0-0.8c-0.2-0.2-0.6-0.2-0.8,0l-2.2,2.2
	c-0.2,0.1-0.4,0.1-0.5,0l-2.3-2.2c-0.1-0.2-0.2-0.2-0.4-0.2c-0.1,0-0.3,0-0.4,0.2C4.5,12.8,4.5,13,4.7,13.4z"/>
<path d="M3.2,7.4L2.6,8C2.5,8.1,2.4,8.1,2.3,8L1.7,7.4c-0.1-0.1-0.1-0.2,0-0.3l0.5-0.6c0.1-0.1,0.2-0.1,0.3,0l0.6,0.5
	C3.2,7.2,3.2,7.2,3.2,7.4z"/>
<path d="M12.5,7.1L13,7.7c0.1,0.1,0.2,0.1,0.3,0l0.6-0.5c0.1-0.1,0.1-0.2,0-0.3l-0.5-0.6c-0.1-0.1-0.2-0.1-0.3,0l-0.6,0.5
	C12.4,6.9,12.4,6.9,12.5,7.1z"/>
<path d="M8.4,4.9H7.6c-0.1,0-0.2-0.1-0.2-0.3V3.9c0-0.1,0.1-0.2,0.2-0.2h0.8c0.1,0,0.2,0.1,0.2,0.2v0.8C8.6,4.9,8.5,4.9,8.4,4.9z"/>
</svg>
