<?xml version="1.0" encoding="utf-8"?>
<!-- Generator: Adobe Illustrator 25.2.3, SVG Export Plug-In . SVG Version: 6.00 Build 0)  -->
<svg version="1.1" id="Layer_1" xmlns="http://www.w3.org/2000/svg" xmlns:xlink="http://www.w3.org/1999/xlink" x="0px" y="0px"
	 viewBox="0 0 16 16" style="enable-background:new 0 0 16 16;" xml:space="preserve">
<g>
	<path d="M1.7,16H0v-1.2h1.7c0.1,0,0.2-0.1,0.2-0.2C2.9,12.4,5,9.8,8,9.8c0,0,0,0,0.1,0c2.9,0,5.1,2.6,6,4.8c0,0.1,0.1,0.2,0.2,0.2
		H16V16h-1.8c-0.6,0-1.1-0.3-1.3-0.9c-0.9-2-2.7-4-4.9-4.1l0,0c-2.4,0-4.2,2.2-5,4.1C2.7,15.7,2.2,16,1.7,16z"/>
</g>
<path d="M11.3,6.3L9.1,4.1c-0.6-0.6-1.6-0.6-2.2,0L4.7,6.3c-0.2,0.2-0.2,0.6,0,0.8c0.2,0.2,0.6,0.2,0.8,0l2.2-2.2
	c0.2-0.1,0.4-0.1,0.5,0l2.2,2.2c0.1,0.1,0.3,0.2,0.4,0.2c0.2,0,0.3-0.1,0.4-0.2C11.5,6.9,11.5,6.6,11.3,6.3z"/>
<path d="M12.5,11.5L13,12c0.1,0.1,0.2,0.1,0.3,0l0.6-0.5c0.1-0.1,0.1-0.2,0-0.3l-0.5-0.6c-0.1-0.1-0.2-0.1-0.3,0l-0.6,0.5
	C12.4,11.2,12.4,11.4,12.5,11.5z"/>
<path d="M8.4,9.3H7.6c-0.1,0-0.2-0.1-0.2-0.2V8.3C7.4,8.1,7.5,8,7.6,8h0.8c0.1,0,0.2,0.1,0.2,0.2V9C8.6,9.2,8.5,9.3,8.4,9.3z"/>
<path d="M3.2,11.7l-0.5,0.6c-0.1,0.1-0.2,0.1-0.3,0l-0.6-0.5c-0.2-0.1-0.2-0.3-0.1-0.3l0.5-0.6c0.1-0.1,0.2-0.1,0.3,0l0.6,0.5
	C3.3,11.5,3.3,11.6,3.2,11.7z"/>
</svg>
