<?xml version="1.0" encoding="utf-8"?>
<!-- Generator: Adobe Illustrator 25.2.1, SVG Export Plug-In . SVG Version: 6.00 Build 0)  -->
<svg version="1.1" id="Layer_1" xmlns="http://www.w3.org/2000/svg" xmlns:xlink="http://www.w3.org/1999/xlink" x="0px" y="0px"
	 viewBox="0 0 16 16" style="enable-background:new 0 0 16 16;" xml:space="preserve">
<g>
	<g>
		<path d="M13.2,13H2.8C1.3,13,0,11.7,0,10.2V5.8C0,4.3,1.3,3,2.8,3h10.4C14.7,3,16,4.3,16,5.8v4.4C16,11.7,14.7,13,13.2,13z
			 M2.8,4.1c-0.9,0-1.7,0.7-1.7,1.7v4.4c0,0.9,0.7,1.7,1.7,1.7h10.4c0.9,0,1.7-0.7,1.7-1.7V5.8c0-0.9-0.7-1.7-1.7-1.7
			C13.2,4.1,2.8,4.1,2.8,4.1z"/>
	</g>
</g>
<g>
	<path d="M6.8,7.2c0.3,0,0.5-0.2,0.5-0.5c0,0,0-0.1,0-0.1c0-0.3,0.3-0.6,0.7-0.6c0.4,0,0.7,0.3,0.7,0.6c0,0.2-0.1,0.4-0.2,0.5
		C8.4,7.4,8.2,7.4,8,7.4c-0.3,0-0.5,0.2-0.5,0.5v0.9c0,0.3,0.2,0.5,0.5,0.5c0.3,0,0.5-0.2,0.5-0.5V8.4C8.8,8.3,9,8.1,9.2,7.9
		c0.3-0.3,0.5-0.8,0.5-1.3c0-0.9-0.8-1.6-1.7-1.6c0,0,0,0,0,0c-0.8,0-1.6,0.6-1.7,1.5c0,0.1,0,0.2,0,0.2C6.3,7,6.5,7.2,6.8,7.2
		L6.8,7.2z"/>
	<path d="M8.5,10.3C8.4,10,8.1,9.9,7.8,10c-0.3,0.1-0.4,0.4-0.3,0.7c0.1,0.3,0.4,0.4,0.7,0.3C8.5,10.8,8.6,10.5,8.5,10.3z"/>
</g>
</svg>
