<?xml version="1.0" encoding="utf-8"?>
<!-- Generator: Adobe Illustrator 25.2.1, SVG Export Plug-In . SVG Version: 6.00 Build 0)  -->
<svg version="1.1" id="Layer_1" xmlns="http://www.w3.org/2000/svg" xmlns:xlink="http://www.w3.org/1999/xlink" x="0px" y="0px"
	 viewBox="0 0 16 16" style="enable-background:new 0 0 16 16;" xml:space="preserve">
<path d="M13.2,3.1H2.8C1.3,3.1,0,4.4,0,5.9v4.4c0,1.5,1.3,2.8,2.8,2.8h10.4c1.5,0,2.8-1.3,2.8-2.8V5.9C16,4.4,14.7,3.1,13.2,3.1z
	 M14.9,10.3c0,0.9-0.7,1.7-1.7,1.7H2.8c-0.9,0-1.7-0.7-1.7-1.7V5.9c0-0.9,0.7-1.7,1.7-1.7h10.4c0.9,0,1.7,0.7,1.7,1.7V10.3z"/>
<g transform="translate(-5 -2.32258)">
	<path d="M12.3,8v2.2v0.1l0.1,0.8c0,0.3,0.3,0.5,0.6,0.5l0,0c0.3,0,0.6-0.2,0.6-0.5l0.1-0.8v-0.1V8c0-0.3-0.3-0.6-0.6-0.6h-0.2
		C12.6,7.4,12.3,7.6,12.3,8z M12.3,12.8v0.2c0,0.3,0.3,0.6,0.6,0.6h0.2c0.3,0,0.6-0.3,0.6-0.6v-0.2c0-0.3-0.3-0.6-0.6-0.6h-0.2
		C12.6,12.2,12.3,12.5,12.3,12.8z"/>
</g>
</svg>
