<?xml version="1.0" encoding="utf-8"?>
<!-- Generator: Adobe Illustrator 25.2.1, SVG Export Plug-In . SVG Version: 6.00 Build 0)  -->
<svg version="1.1" id="Layer_1" xmlns="http://www.w3.org/2000/svg" xmlns:xlink="http://www.w3.org/1999/xlink" x="0px" y="0px"
	 viewBox="0 0 16 16" style="enable-background:new 0 0 16 16;" xml:space="preserve">
<path d="M5.2,7.2C5,7,4.7,6.9,4.5,7L4.4,7.1V7c0-0.3-0.2-0.5-0.5-0.5S3.3,6.7,3.3,7v0.1L3.2,7C2.9,6.9,2.6,7,2.5,7.2
	C2.3,7.5,2.4,7.8,2.7,7.9L2.8,8L2.7,8.1C2.4,8.2,2.3,8.5,2.5,8.8C2.6,8.9,2.7,9,2.9,9C3,9,3.1,9,3.2,9l0.1-0.1V9
	c0,0.3,0.2,0.5,0.5,0.5S4.4,9.3,4.4,9V8.9L4.5,9C4.6,9,4.6,9,4.7,9c0.2,0,0.4-0.1,0.5-0.3C5.3,8.5,5.2,8.2,5,8.1L4.9,8L5,7.9
	C5.2,7.8,5.3,7.5,5.2,7.2z"/>
<path d="M9.4,7.2C9.2,7,8.9,6.9,8.6,7L8.5,7.1V7c0-0.3-0.2-0.5-0.5-0.5C7.7,6.4,7.5,6.7,7.5,7v0.1L7.4,7C7.1,6.9,6.8,7,6.6,7.2
	C6.5,7.5,6.6,7.8,6.8,7.9L7,8L6.8,8.1C6.6,8.2,6.5,8.5,6.6,8.8C6.7,8.9,6.9,9,7.1,9C7.2,9,7.3,9,7.4,9l0.1-0.1V9
	c0,0.3,0.2,0.5,0.5,0.5c0.3,0,0.5-0.2,0.5-0.5V8.9L8.6,9C8.7,9,8.8,9,8.9,9c0.2,0,0.4-0.1,0.5-0.3c0.1-0.2,0.1-0.6-0.2-0.7L9,8
	l0.1-0.1C9.4,7.8,9.5,7.5,9.4,7.2z"/>
<path d="M13.5,7.2C13.4,7,13.1,6.9,12.8,7l-0.1,0.1V7c0-0.3-0.2-0.5-0.5-0.5S11.6,6.7,11.6,7v0.1L11.5,7C11.3,6.9,11,7,10.8,7.2
	c-0.1,0.2-0.1,0.6,0.2,0.7L11.1,8L11,8.1c-0.2,0.1-0.3,0.5-0.2,0.7C10.9,8.9,11.1,9,11.3,9c0.1,0,0.2,0,0.3-0.1l0.1-0.1V9
	c0,0.3,0.2,0.5,0.5,0.5s0.5-0.2,0.5-0.5V8.9L12.8,9C12.9,9,13,9,13.1,9c0.2,0,0.4-0.1,0.5-0.3c0.1-0.2,0.1-0.6-0.2-0.7L13.2,8
	l0.1-0.1C13.6,7.8,13.7,7.5,13.5,7.2z"/>
<g>
	<g>
		<path d="M13.2,13H2.8C1.3,13,0,11.7,0,10.2V5.8C0,4.3,1.3,3,2.8,3h10.4C14.7,3,16,4.3,16,5.8v4.4C16,11.7,14.7,13,13.2,13z
			 M2.8,4.1c-0.9,0-1.7,0.7-1.7,1.7v4.4c0,0.9,0.7,1.7,1.7,1.7h10.4c0.9,0,1.7-0.7,1.7-1.7V5.8c0-0.9-0.7-1.7-1.7-1.7H2.8z"/>
	</g>
</g>
</svg>
