<?xml version="1.0" encoding="utf-8"?>
<!-- Generator: Adobe Illustrator 25.2.1, SVG Export Plug-In . SVG Version: 6.00 Build 0)  -->
<svg version="1.1" id="Layer_1" xmlns="http://www.w3.org/2000/svg" xmlns:xlink="http://www.w3.org/1999/xlink" x="0px" y="0px"
	 viewBox="0 0 16 16" style="enable-background:new 0 0 16 16;" xml:space="preserve">
<style type="text/css">
	.st0{fill-rule:evenodd;clip-rule:evenodd;fill:#DFDFDF;}
</style>
<g>
	<path class="st0" d="M6.7,5.3C5.7,5.8,5,6.8,5,8s0.7,2.2,1.7,2.7V5.3z"/>
	<path d="M4.1,3.3l-1-1C3,2.2,2.9,2.2,2.7,2.2c-0.1,0-0.3,0.1-0.4,0.2C2.2,2.4,2.2,2.6,2.2,2.7c0,0.1,0.1,0.3,0.2,0.4l1,1
		c0.2,0.2,0.6,0.2,0.8,0C4.2,4,4.2,3.8,4.2,3.7C4.2,3.5,4.2,3.4,4.1,3.3z"/>
	<path d="M1.9,7.4H0.6C0.2,7.4,0,7.7,0,8c0,0.3,0.2,0.6,0.6,0.6h1.4c0.3,0,0.6-0.2,0.6-0.6C2.5,7.7,2.2,7.4,1.9,7.4z"/>
	<path d="M2.2,13.3c0,0.1,0.1,0.3,0.2,0.4c0.2,0.2,0.6,0.2,0.8,0l1-1c0.1-0.1,0.2-0.2,0.2-0.4c0-0.1-0.1-0.3-0.2-0.4v0
		c-0.1-0.1-0.2-0.2-0.4-0.2c-0.1,0-0.3,0.1-0.4,0.2l-1,1C2.2,13,2.2,13.1,2.2,13.3z"/>
	<path d="M8.6,14.1c0-0.3-0.2-0.6-0.6-0.6c-0.3,0-0.6,0.2-0.6,0.6v1.4C7.4,15.8,7.7,16,8,16c0.3,0,0.6-0.2,0.6-0.6V14.1z"/>
	<path d="M13.8,13.3c0-0.1-0.1-0.3-0.2-0.4l-1-1c-0.1-0.1-0.2-0.2-0.4-0.2c-0.1,0-0.3,0.1-0.4,0.2c-0.1,0.1-0.2,0.2-0.2,0.4
		c0,0.1,0.1,0.3,0.2,0.4l1,1c0.2,0.2,0.6,0.2,0.8,0C13.8,13.6,13.8,13.4,13.8,13.3z"/>
	<path d="M14.1,8.6h1.4C15.8,8.6,16,8.3,16,8c0-0.3-0.2-0.6-0.6-0.6h-1.4c-0.3,0-0.6,0.2-0.6,0.6C13.5,8.3,13.8,8.6,14.1,8.6z"/>
	<path d="M13.8,2.7c0-0.1-0.1-0.3-0.2-0.4h0c-0.1-0.1-0.2-0.2-0.4-0.2c-0.1,0-0.3,0.1-0.4,0.2l-1,1c-0.1,0.1-0.2,0.2-0.2,0.4
		c0,0.1,0.1,0.3,0.2,0.4c0.2,0.2,0.6,0.2,0.8,0l1-1C13.8,3,13.8,2.9,13.8,2.7z"/>
	<path d="M8.6,0.6C8.6,0.2,8.3,0,8,0C7.7,0,7.4,0.2,7.4,0.6v1.4c0,0.3,0.2,0.6,0.6,0.6c0.3,0,0.6-0.2,0.6-0.6V0.6z"/>
	<path d="M8,3.4C5.5,3.4,3.4,5.5,3.4,8c0,2.5,2.1,4.6,4.6,4.6c2.5,0,4.6-2.1,4.6-4.6C12.6,5.5,10.5,3.4,8,3.4z M8,11.4
		c-1.9,0-3.4-1.5-3.4-3.4c0-1.9,1.5-3.4,3.4-3.4c1.9,0,3.4,1.5,3.4,3.4C11.4,9.9,9.9,11.4,8,11.4z"/>
</g>
</svg>
