<?xml version="1.0" encoding="utf-8"?>
<!-- Generator: Adobe Illustrator 25.2.1, SVG Export Plug-In . SVG Version: 6.00 Build 0)  -->
<svg version="1.1" id="Layer_1" xmlns="http://www.w3.org/2000/svg" xmlns:xlink="http://www.w3.org/1999/xlink" x="0px" y="0px"
	 viewBox="0 0 16 16" style="enable-background:new 0 0 16 16;" xml:space="preserve">
<path d="M14.7,6V4.3c0-1.1-0.9-2.1-2.1-2.1H3.3c-1.1,0-2,0.8-2,1.9C1,4.2,0.7,4.3,0.5,4.5C0.2,4.8,0,5.1,0,5.5
	c0,0.9,0.1,1.8,0.4,2.7l1.2,4.1c0.3,0.9,1.1,1.5,2,1.5h8.8c0.9,0,1.6-0.5,1.9-1.3l1.3-3.6c0.2-0.5,0.3-1,0.3-1.5
	C16,6.7,15.4,6.1,14.7,6z M3.3,3.2h9.3c0.6,0,1.1,0.5,1.1,1.1v1.7H6.4L6.1,5.1c-0.2-0.6-0.7-1-1.4-1H2.3C2.4,3.6,2.8,3.2,3.3,3.2z
	 M14.8,8.5l-1.3,3.6c-0.2,0.4-0.5,0.7-1,0.7H3.6c-0.5,0-0.9-0.3-1-0.8L1.4,7.9C1.2,7.1,1,6.3,1,5.5c0-0.1,0-0.2,0.1-0.3
	c0.1-0.1,0.2-0.1,0.3-0.1c0,0,0,0,0,0h3.3c0.2,0,0.4,0.1,0.4,0.3l0.3,1c0.1,0.3,0.4,0.5,0.8,0.5h8.3c0.2,0,0.4,0.2,0.4,0.4
	C15,7.8,14.9,8.1,14.8,8.5z"/>
</svg>
