<?xml version="1.0" encoding="utf-8"?>
<!-- Generator: Adobe Illustrator 25.2.1, SVG Export Plug-In . SVG Version: 6.00 Build 0)  -->
<svg version="1.1" id="Layer_1" xmlns:serif="http://www.serif.com/"
	 xmlns="http://www.w3.org/2000/svg" xmlns:xlink="http://www.w3.org/1999/xlink" x="0px" y="0px" viewBox="0 0 16 16"
	 style="enable-background:new 0 0 16 16;" xml:space="preserve">
<g>
	<path d="M15,14.8c-0.4,0-0.7-0.2-0.9-0.5c-1.3-2.4-3.8-3.8-6.5-3.8H7.3v2.1c0,0.4-0.2,0.8-0.6,0.9c-0.4,0.2-0.8,0.1-1.1-0.2
		L0.3,8.1C0.1,7.9,0,7.7,0,7.4s0.1-0.5,0.3-0.7l5.3-5.1c0.3-0.3,0.7-0.4,1.1-0.2c0.4,0.2,0.6,0.5,0.6,0.9v2.1
		c4.8,0.4,8.7,4.5,8.7,9.4c0,0.5-0.3,0.9-0.8,1C15.1,14.7,15.1,14.8,15,14.8z M6.2,9.3h1.4c3,0,5.7,1.6,7.3,4.1
		c-0.2-4.3-3.8-7.9-8.1-8l-0.5,0v-3L1.1,7.4l5.1,4.9V9.3z M6.4,2.3L6.4,2.3C6.4,2.3,6.4,2.3,6.4,2.3z"/>
</g>
</svg>
