<?xml version="1.0" encoding="utf-8"?>
<!-- Generator: Adobe Illustrator 25.2.1, SVG Export Plug-In . SVG Version: 6.00 Build 0)  -->
<svg version="1.1" id="Layer_1" xmlns:serif="http://www.serif.com/"
	 xmlns="http://www.w3.org/2000/svg" xmlns:xlink="http://www.w3.org/1999/xlink" x="0px" y="0px" viewBox="0 0 16 16"
	 style="enable-background:new 0 0 16 16;" xml:space="preserve">
<path d="M4.7,13.8c0.7,1.1,1.8,1.8,3.1,2.1c1.3,0.3,2.6,0,3.7-0.7l0.1-0.1c1.1-0.7,1.8-1.8,2.1-3.1c0.3-1.3,0-2.6-0.7-3.7L9,2.3
	C7.6,0,4.5-0.7,2.3,0.8L2.2,0.9C0.4,2-0.4,4.1,0.1,6.1c0.1,0.4,0.2,0.6,0.4,0.7c0.1,0,0.2,0.1,0.4,0c0.4-0.1,0.6-0.4,0.4-0.9
	C1.1,4.6,1.6,2.8,2.9,2L3,1.9c0.8-0.5,1.7-0.7,2.7-0.5C6.6,1.6,7.4,2.2,7.9,3l4,6.2c0.5,0.8,0.7,1.7,0.5,2.7
	c-0.2,0.9-0.8,1.7-1.5,2.2l-0.1,0.1c-1.7,1.1-3.9,0.6-4.9-1.1l-1.7-2.7C3.9,10,3.7,9.6,3.8,9.2c0.1-0.4,0.3-0.8,0.7-1.1
	c0.7-0.5,1.6-0.2,2.2,0.6l1,1.6c0,0.1,0.2,0.3,0.4,0.3c0.1,0,0.3,0,0.5-0.1c0.5-0.4,0.3-0.9,0.2-1l-1-1.6C7.3,7.4,6.6,6.9,5.9,6.7
	C5.7,6.6,5.5,6.6,5.2,6.6c-0.5,0-1,0.2-1.5,0.4C3.1,7.5,2.7,8.1,2.5,8.9c-0.1,0.8,0,1.6,0.5,2.2L4.7,13.8z"/>
</svg>
