<?xml version="1.0" encoding="utf-8"?>
<!-- Generator: Adobe Illustrator 25.2.1, SVG Export Plug-In . SVG Version: 6.00 Build 0)  -->
<svg version="1.1" id="Layer_1" xmlns="http://www.w3.org/2000/svg" xmlns:xlink="http://www.w3.org/1999/xlink" x="0px" y="0px"
	 viewBox="0 0 16 16" style="enable-background:new 0 0 16 16;" xml:space="preserve">
<g>
	<path d="M16,6.8L16,6.8C16,6.8,16,6.8,16,6.8L16,6.8z"/>
	<path d="M0,4.8c0-1.4,1.2-2.6,2.6-2.6h9.9c0.9,0,1.8,0.5,2.2,1.3l0,0l0,0C15,4,15.1,4.4,15.1,4.8l0,1.5c0.1,0.3,0.4,0.5,0.6,0.5H16
		l-1.5,1.3c0,0,0,0-0.1,0c0,0,0,0-0.1,0l-1.3-1.5l0.4,0c0,0,0,0,0,0c0.2,0,0.4-0.1,0.6-0.3l0-0.1V4.8c0-0.8-0.6-1.4-1.4-1.4H2.7
		c-0.8,0-1.4,0.6-1.4,1.4v6.3c0,0.8,0.6,1.4,1.4,1.4h9.9c0.8,0,1.4-0.6,1.4-1.4V9.6c0,0,0-0.1,0.1-0.1h1c0,0,0.1,0,0.1,0.1V11
		c0,1.5-1.2,2.7-2.7,2.7H2.6c-1.4,0-2.6-1.2-2.6-2.6L0,4.8z"/>
</g>
</svg>
