<?xml version="1.0" encoding="utf-8"?>
<!-- Generator: Adobe Illustrator 25.2.1, SVG Export Plug-In . SVG Version: 6.00 Build 0)  -->
<svg version="1.1" id="Layer_1" xmlns:serif="http://www.serif.com/"
	 xmlns="http://www.w3.org/2000/svg" xmlns:xlink="http://www.w3.org/1999/xlink" x="0px" y="0px" viewBox="0 0 16 16"
	 style="enable-background:new 0 0 16 16;" xml:space="preserve">
<path d="M14.5,0.3c-0.4-0.3-0.8-0.4-1.3-0.3L5.8,1.9C5.1,2.1,4.6,2.7,4.6,3.4v7.8c-0.1,0-0.2,0-0.4,0c-1.9,0-3.4,1-3.4,2.4
	S2.3,16,4.3,16c1.9,0,3.3-1,3.4-2.4v-9L12,3.5v5.8c-0.1,0-0.2,0-0.4,0c-1.9,0-3.4,1-3.4,2.4c0,1.4,1.4,2.4,3.4,2.4s3.4-1,3.4-2.4
	V1.5C15,1,14.8,0.6,14.5,0.3z M9.5,11.7c0-0.7,0.9-1.3,2.2-1.3c0.3,0,0.6,0,0.8,0.1l0.7,0.1V2L6.5,3.6l-0.1,0v9.9
	c0,0.7-0.9,1.3-2.2,1.3S2,14.3,2,13.5c0-0.7,0.9-1.3,2.2-1.3c0.3,0,0.5,0,0.8,0.1l0.7,0.1V3.4C5.7,3.2,5.8,3.1,6,3l7.4-1.8
	c0.1,0,0.2,0,0.3,0.1c0.1,0.1,0.1,0.2,0.1,0.3v10.2c0,0.7-0.9,1.3-2.2,1.3S9.5,12.4,9.5,11.7z"/>
</svg>
