<?xml version="1.0" encoding="utf-8"?>
<!-- Generator: Adobe Illustrator 25.2.1, SVG Export Plug-In . SVG Version: 6.00 Build 0)  -->
<svg version="1.1" id="Layer_1" xmlns="http://www.w3.org/2000/svg" xmlns:xlink="http://www.w3.org/1999/xlink" x="0px" y="0px"
	 viewBox="0 0 16 16" style="enable-background:new 0 0 16 16;" xml:space="preserve">
<g>
	<path d="M7.6,6.4C7.3,6.8,7.1,7.3,7.1,8c0,0.7,0.2,1.2,0.5,1.6C8,10,8.5,10.2,9.1,10.2c0.4,0,0.7-0.1,1-0.2
		c0.2-0.1,0.3-0.1,0.4-0.1c0.2,0,0.3,0.1,0.4,0.2c0.1,0.1,0.1,0.3,0.1,0.6c0,0.4-0.2,0.6-0.6,0.9c-0.4,0.2-0.9,0.3-1.6,0.3
		c-0.6,0-1.1-0.1-1.5-0.2c-0.5-0.2-0.9-0.4-1.2-0.7C5.3,10.2,5,9.3,5,8c0-1.2,0.4-2.1,1.1-2.9c0.3-0.3,0.7-0.6,1.2-0.7
		s0.9-0.3,1.5-0.3c0.7,0,1.3,0.1,1.7,0.3S11,5,11,5.4C11,5.6,11,5.8,10.9,6c-0.1,0.2-0.2,0.2-0.4,0.2c-0.1,0-0.2,0-0.4-0.1
		C9.8,5.9,9.4,5.8,9,5.8C8.4,5.8,7.9,6,7.6,6.4z"/>
</g>
</svg>
