<?xml version="1.0" encoding="utf-8"?>
<!-- Generator: Adobe Illustrator 25.2.1, SVG Export Plug-In . SVG Version: 6.00 Build 0)  -->
<svg version="1.1" id="Layer_1" xmlns="http://www.w3.org/2000/svg" xmlns:xlink="http://www.w3.org/1999/xlink" x="0px" y="0px"
	 viewBox="0 0 16 16" style="enable-background:new 0 0 16 16;" xml:space="preserve">
<style type="text/css">
	.st0{fill:#B5B5B5;fill-opacity:0.5;}
</style>
<g>
	<path d="M11.6,6.4c0.5,0,0.7-0.6,0.3-0.9L8,2.4v1.8c0,0.3-0.2,0.5-0.5,0.5h-2C5.2,4.7,5,4.9,5,5.2v0.7c0,0.3,0.2,0.5,0.5,0.5H11.6z
		"/>
	<path class="st0" d="M4.4,7C3.9,7,3.7,7.6,4.1,7.9L8,11V9.2c0-0.3,0.2-0.5,0.5-0.5h2c0.3,0,0.5-0.2,0.5-0.5V7.5
		C11,7.2,10.8,7,10.5,7H4.4z"/>
</g>
</svg>
