<?xml version="1.0" encoding="utf-8"?>
<!-- Generator: Adobe Illustrator 25.2.1, SVG Export Plug-In . SVG Version: 6.00 Build 0)  -->
<svg version="1.1" id="Layer_1" xmlns="http://www.w3.org/2000/svg" xmlns:xlink="http://www.w3.org/1999/xlink" x="0px" y="0px"
	 viewBox="0 0 16 16" style="enable-background:new 0 0 16 16;" xml:space="preserve">
<g>
	<path d="M16,12.3c-0.1-0.7-0.7-1.1-1.4-1.1c-0.6,0-1.2,0.4-1.4,0.9H9.4c-0.2-0.4-0.5-0.7-0.8-0.8V10h3.5c0.3,0,0.5-0.2,0.5-0.5V8
		h1.2c0.3,0,0.5-0.2,0.5-0.5v-5c0-0.3-0.2-0.5-0.5-0.5H2.3C2,1.9,1.7,2.2,1.7,2.5v5C1.7,7.8,2,8,2.3,8h1.2v1.5C3.4,9.8,3.7,10,4,10
		h3.5v1.2c-0.4,0.2-0.7,0.5-0.8,0.8H2.8c-0.1-0.3-0.3-0.5-0.6-0.7S1.5,11,1.1,11.1c-0.8,0.2-1.3,1-1.1,1.8s1,1.3,1.8,1.1
		c0.5-0.1,0.9-0.5,1-0.9h3.8C6.8,13.7,7.4,14,7.9,14c0.1,0,0.2,0,0.3,0c0.5-0.1,0.9-0.5,1-0.9H13c0.1,0.3,0.3,0.5,0.6,0.7
		s0.7,0.3,1.1,0.2C15.7,13.9,16.1,13.1,16,12.3z M15,12.6c0,0.2-0.2,0.4-0.4,0.4s-0.4-0.2-0.4-0.4s0.2-0.4,0.4-0.4
		C14.8,12.2,15,12.4,15,12.6z M13.2,3v4H2.8V3H13.2z M11.5,8v1h-7V8H11.5z M8.4,12.6C8.4,12.8,8.2,13,8,13s-0.4-0.2-0.4-0.4
		s0.2-0.4,0.4-0.4C8.2,12.2,8.4,12.4,8.4,12.6z M1,12.6c0-0.2,0.2-0.4,0.4-0.4s0.4,0.2,0.4,0.4S1.6,13,1.4,13S1,12.8,1,12.6z"/>
</g>
<g>
	<g>
		<g>
			<path d="M6.2,6H5C4.8,6,4.5,5.8,4.5,5.4v-1C4.5,4.2,4.7,4,5,4h1.1c0.3,0,0.5,0.2,0.5,0.4l0,1.2C6.6,5.8,6.4,6,6.2,6z M5,5.5h1.1
				v-1c0,0,0,0,0,0H5L5,5.5C5,5.5,5,5.5,5,5.5z"/>
		</g>
	</g>
	<g>
		<g>
			<path d="M8.6,6H7.5C7.3,6,7,5.8,7,5.4v-1C7,4.2,7.2,4,7.5,4h1.1C8.8,4,9,4.2,9,4.4v1.1C9,5.8,8.8,6,8.6,6z M7.5,5.5h1v-1h-1
				L7.5,5.5C7.5,5.5,7.5,5.5,7.5,5.5z"/>
		</g>
	</g>
	<g>
		<g>
			<path d="M11.1,6H9.9C9.7,6,9.4,5.8,9.4,5.4v-1C9.4,4.2,9.6,4,9.9,4H11c0.2,0,0.4,0.2,0.4,0.4v1.1C11.4,5.9,11.3,6,11.1,6L11.1,6z
				 M9.9,5.5h1l0-1h-1L9.9,5.5C9.9,5.5,9.9,5.5,9.9,5.5z"/>
		</g>
	</g>
</g>
</svg>
