<?xml version="1.0" encoding="utf-8"?>
<!-- Generator: Adobe Illustrator 25.2.1, SVG Export Plug-In . SVG Version: 6.00 Build 0)  -->
<svg version="1.1" id="Layer_1" xmlns="http://www.w3.org/2000/svg" xmlns:xlink="http://www.w3.org/1999/xlink" x="0px" y="0px"
	 viewBox="0 0 16 16" style="enable-background:new 0 0 16 16;" xml:space="preserve">
<g>
	<path d="M2.5,14.7h-1c-0.2,0-0.3-0.1-0.3-0.3v-1c0-0.2,0.1-0.3,0.3-0.3h1c0.2,0,0.3,0.1,0.3,0.3v1C2.8,14.6,2.7,14.7,2.5,14.7z"/>
	<path d="M5.4,14.7h-1c-0.2,0-0.3-0.1-0.3-0.3V10c0-0.2,0.1-0.3,0.3-0.3h1c0.2,0,0.3,0.1,0.3,0.3v4.3C5.7,14.6,5.6,14.7,5.4,14.7z"
		/>
	<path d="M8.4,14.7h-1c-0.2,0-0.3-0.1-0.3-0.3V6.2c0-0.2,0.1-0.3,0.3-0.3h1c0.2,0,0.3,0.1,0.3,0.3v8.2C8.7,14.6,8.5,14.7,8.4,14.7z"
		/>
	<path d="M11.6,14.7h-1c-0.2,0-0.3-0.1-0.3-0.3V3.7c0-0.2,0.1-0.3,0.3-0.3h1c0.2,0,0.3,0.1,0.3,0.3v10.7
		C12,14.6,11.8,14.7,11.6,14.7z"/>
	<path d="M14.5,14.7h-1c-0.2,0-0.3-0.1-0.3-0.3V1.3c0-0.2,0.1-0.3,0.3-0.3h1c0.2,0,0.3,0.1,0.3,0.3v13.1
		C14.8,14.6,14.7,14.7,14.5,14.7z"/>
</g>
<g transform="translate(-5 -2.32258)">
	<path d="M6.2,4v2.7v0.1l0.1,1.1c0,0.4,0.4,0.6,0.7,0.6l0,0c0.4,0,0.7-0.2,0.7-0.6l0.1-1.1V6.7V4c0-0.4-0.4-0.7-0.7-0.7H6.9
		C6.5,3.3,6.2,3.5,6.2,4z M6.2,10v0.2c0,0.4,0.4,0.7,0.7,0.7h0.2c0.4,0,0.7-0.4,0.7-0.7V10c0-0.4-0.4-0.7-0.7-0.7H6.9
		C6.5,9.3,6.2,9.7,6.2,10z"/>
</g>
</svg>
