<?xml version="1.0" encoding="utf-8"?>
<!-- Generator: Adobe Illustrator 25.2.3, SVG Export Plug-In . SVG Version: 6.00 Build 0)  -->
<svg version="1.1" id="Layer_1" xmlns="http://www.w3.org/2000/svg" xmlns:xlink="http://www.w3.org/1999/xlink" x="0px" y="0px"
	 viewBox="0 0 16 16" style="enable-background:new 0 0 16 16;" xml:space="preserve">
<path d="M12,6.6c-1.8,0-3.3-1.5-3.3-3.3S10.2,0,12,0s3.3,1.5,3.3,3.3S13.8,6.6,12,6.6z"/>
<path d="M13.6,11.9C13.6,11.9,13.5,11.9,13.6,11.9C12.5,11,12,9.8,12,8.5V7.8c0-0.3-0.2-0.5-0.5-0.5c-0.3,0-0.5,0.2-0.5,0.5v0.7
	c0,1.6,0.7,3.1,1.9,4.2c0,0,0,0,0,0c0,0,0,0.1,0,0.1c0,0.1-0.1,0.2-0.2,0.2h-11c-0.1,0-0.2-0.1-0.2-0.2c0,0,0-0.1,0-0.1c0,0,0,0,0,0
	c1.2-1,1.9-2.6,1.9-4.2V6.6c0-2,1.6-3.7,3.7-3.7c0.1,0,0.1,0,0.2,0C7.8,3,8,2.9,8.1,2.6c0-0.3-0.1-0.5-0.4-0.6C7.6,2,7.4,2,7.3,2
	C4.8,2,2.7,4.1,2.7,6.6v1.9c0,1.3-0.6,2.5-1.5,3.4c0,0,0,0-0.1,0c-0.3,0.2-0.4,0.5-0.4,0.9c0,0.6,0.5,1.2,1.2,1.2h3
	c0.2,1.2,1.2,2,2.4,2c1.2,0,2.2-0.9,2.4-2h3c0.6,0,1.2-0.5,1.2-1.2C14,12.4,13.8,12.1,13.6,11.9z M7.3,15c-0.7,0-1.2-0.4-1.4-1.1
	h2.8C8.6,14.6,8,15,7.3,15z"/>
</svg>
