<?xml version="1.0" encoding="utf-8"?>
<!-- Generator: Adobe Illustrator 25.2.3, SVG Export Plug-In . SVG Version: 6.00 Build 0)  -->
<svg version="1.1" id="Layer_1" xmlns="http://www.w3.org/2000/svg" xmlns:xlink="http://www.w3.org/1999/xlink" x="0px" y="0px"
	 viewBox="0 0 16 16" style="enable-background:new 0 0 16 16;" xml:space="preserve">
<style type="text/css">
	.st0{fill:#020202;}
</style>
<path class="st0" d="M13.6,5.3c0-0.7-0.5-1.2-1.2-1.2c-0.4,0-0.7,0-1.1,0c0-0.1,0-0.1,0-0.2c0-0.3,0-1.3,0-1.6
	c0-0.7-0.5-1.2-1.2-1.2c-1.5,0-3,0-4.5,0c-0.7,0-1.2,0.5-1.2,1.2c0,0.6,0,1.1,0,1.7c0,0,0,0.1,0,0.1c-0.3,0-0.6,0-0.9,0
	c-0.6,0-1.1,0.5-1.1,1.1c0,1.1,0,2.2,0,3.4c0,0.5,0.4,1,0.9,1.1c0.3,0,0.6,0,1,0c0,0,0.1,0,0.1,0c0,0.4,0,0.9,0,1.3
	c0,0.6,0.5,1.1,1.1,1.1c1.6,0,3.2,0,4.8,0c0.6,0,1.1-0.5,1.1-1.1c0-0.4,0-0.8,0-1.1c0,0,0-0.1,0-0.1c0.3,0,0.6,0,0.9,0
	c0.7,0,1.2-0.5,1.2-1.2C13.6,7.4,13.6,6.4,13.6,5.3z M5.2,2.3c0-0.3,0.1-0.4,0.4-0.4c1.5,0,3,0,4.6,0c0.3,0,0.4,0.1,0.4,0.4
	c0,0.3,0,1.3,0,1.6c0,0.1,0,0.1,0,0.2c-1.8,0-3.5,0-5.3,0c0,0-0.1,0-0.2,0C5.2,3.5,5.2,2.9,5.2,2.3z M10.8,10.9
	c0,0.3-0.2,0.4-0.4,0.4c-0.8,0-1.6,0-2.4,0c0,0,0,0,0,0c-0.8,0-1.6,0-2.4,0c-0.3,0-0.4-0.1-0.4-0.4c0-0.7,0-1.3,0-2
	c0-0.3,0.1-0.4,0.4-0.4c1.6,0,3.2,0,4.7,0c0.3,0,0.4,0.1,0.4,0.4C10.8,9.6,10.8,10.3,10.8,10.9z"/>
<g transform="translate(-5 -2.32258)">
	<path d="M18.8,12.8v1.8v0.1l0.1,0.7c0,0.2,0.2,0.4,0.5,0.4l0,0c0.2,0,0.5-0.2,0.5-0.4l0.1-0.7v-0.1v-1.8c0-0.2-0.2-0.5-0.5-0.5
		h-0.2C19,12.3,18.8,12.5,18.8,12.8z M18.8,16.8V17c0,0.2,0.2,0.5,0.5,0.5h0.2c0.2,0,0.5-0.2,0.5-0.5v-0.2c0-0.2-0.2-0.5-0.5-0.5
		h-0.2C19,16.3,18.8,16.5,18.8,16.8z"/>
</g>
</svg>
