<?xml version="1.0" encoding="utf-8"?>
<!-- Generator: Adobe Illustrator 25.2.3, SVG Export Plug-In . SVG Version: 6.00 Build 0)  -->
<svg version="1.1" id="Layer_1" xmlns="http://www.w3.org/2000/svg" xmlns:xlink="http://www.w3.org/1999/xlink" x="0px" y="0px"
	 viewBox="0 0 16 16" style="enable-background:new 0 0 16 16;" xml:space="preserve">
<path d="M8,2.3C4.9,2.3,2.3,4.9,2.3,8s2.5,5.7,5.7,5.7s5.7-2.5,5.7-5.7S11.1,2.3,8,2.3z M10.6,7.2L7.8,9.9c0,0,0,0,0,0
	c-0.3,0.3-0.8,0.3-1.1,0L5.4,8.6c-0.3-0.3-0.3-0.8,0-1.1c0.3-0.3,0.8-0.3,1.1,0l0.7,0.7l2.2-2.2c0.3-0.3,0.8-0.3,1.1,0
	C10.9,6.4,10.9,6.8,10.6,7.2z"/>
</svg>
