<?xml version="1.0" encoding="utf-8"?>
<!-- Generator: Adobe Illustrator 25.2.3, SVG Export Plug-In . SVG Version: 6.00 Build 0)  -->
<svg version="1.1" id="Layer_1" xmlns="http://www.w3.org/2000/svg" xmlns:xlink="http://www.w3.org/1999/xlink" x="0px" y="0px"
	 viewBox="0 0 16 16" style="enable-background:new 0 0 16 16;" xml:space="preserve">
<g>
	<g>
		<g>
			<path d="M8,15c-3.8,0-7-3.2-7-7s3.2-7,7-7s7,3.2,7,7S11.8,15,8,15z M8,2C4.7,2,2,4.7,2,8s2.7,5.9,5.9,5.9s5.9-2.7,5.9-5.9
				S11.3,2,8,2z"/>
		</g>
	</g>
	<path d="M11.3,8.5H4.7c-0.2,0-0.3-0.1-0.3-0.3V7.7c0-0.2,0.1-0.3,0.3-0.3h6.6c0.2,0,0.3,0.1,0.3,0.3v0.5
		C11.6,8.4,11.5,8.5,11.3,8.5z"/>
</g>
</svg>
