<?xml version="1.0" encoding="utf-8"?>
<!-- Generator: Adobe Illustrator 25.2.3, SVG Export Plug-In . SVG Version: 6.00 Build 0)  -->
<svg version="1.1" id="Layer_1" xmlns="http://www.w3.org/2000/svg" xmlns:xlink="http://www.w3.org/1999/xlink" x="0px" y="0px"
	 viewBox="0 0 16 16" style="enable-background:new 0 0 16 16;" xml:space="preserve">
<g>
	<g>
		<path d="M5,2.8c-1,1-1.6,2.4-1.6,3.9L2.2,5.6c-0.2-0.2-0.4-0.2-0.6,0C1.5,5.7,1.5,6,1.6,6.2L3.4,8c0.1,0.1,0.3,0.2,0.5,0.1
			l2.4-1.2c0.2-0.1,0.3-0.4,0.2-0.6C6.5,6.1,6.2,6,6,6.1L4.2,7C4.1,4.4,6.1,2.2,8.7,2.1s4.8,1.9,4.9,4.5s-1.9,4.8-4.5,4.9
			c-1.6,0.1-3.1-0.7-4-2C4.9,9.3,4.7,9.3,4.5,9.4S4.2,9.8,4.4,10c0,0,0,0,0,0c0.2,0.3,0.4,0.5,0.6,0.7c2.2,2.2,5.7,2.2,7.9,0
			c2.2-2.2,2.2-5.7,0-7.9C10.7,0.6,7.2,0.6,5,2.8z"/>
	</g>
</g>
</svg>
