<?xml version="1.0" encoding="utf-8"?>
<!-- Generator: Adobe Illustrator 25.2.3, SVG Export Plug-In . SVG Version: 6.00 Build 0)  -->
<svg version="1.1" id="Layer_1" xmlns="http://www.w3.org/2000/svg" xmlns:xlink="http://www.w3.org/1999/xlink" x="0px" y="0px"
	 viewBox="0 0 16 16" style="enable-background:new 0 0 16 16;" xml:space="preserve">
<style type="text/css">
	.st0{fill:#B5B5B5;fill-opacity:0.5;}
</style>
<g>
	<path class="st0" d="M4.1,10.2l-1.2,5c-0.1,0.5,0.4,0.9,0.8,0.6l4-2.9c0.1,0,0.2-0.1,0.3-0.1s0.2,0,0.3,0.1l4,2.9
		c0.4,0.2,0.9-0.1,0.8-0.6l-1.2-5c0-0.2,0-0.4,0.2-0.5l3.7-3c0.4-0.3,0.2-0.9-0.3-0.9l-4.8-0.3c-0.2,0-0.4-0.1-0.5-0.3L8.5,0.3
		C8.4,0.1,8.2,0,8,0S7.6,0.1,7.5,0.3L5.8,5.2C5.7,5.4,5.5,5.5,5.3,5.5L0.5,5.8C0,5.8-0.2,6.4,0.2,6.7l3.7,3C4.1,9.8,4.1,10,4.1,10.2
		z"/>
	<path d="M8,0v12.8c0.1,0,0.2,0,0.3,0.1l4,2.9c0.4,0.2,0.9-0.1,0.8-0.6l-1.2-5c0-0.2,0-0.4,0.2-0.5l3.7-3c0.4-0.3,0.2-0.9-0.3-0.9
		l-4.8-0.3c-0.2,0-0.4-0.1-0.5-0.3L8.5,0.3C8.4,0.1,8.2,0,8,0z"/>
</g>
</svg>
