<?xml version="1.0" encoding="utf-8"?>
<!-- Generator: Adobe Illustrator 25.2.3, SVG Export Plug-In . SVG Version: 6.00 Build 0)  -->
<svg version="1.1" id="Layer_1" xmlns="http://www.w3.org/2000/svg" xmlns:xlink="http://www.w3.org/1999/xlink" x="0px" y="0px"
	 viewBox="0 0 16 16" style="enable-background:new 0 0 16 16;" xml:space="preserve">
<style type="text/css">
	.st0{fill:#B5B5B5;fill-opacity:0.5;}
</style>
<g>
	<path class="st0" d="M11.9,10.2l1.2,5c0.1,0.5-0.4,0.9-0.8,0.6l-4-2.9c-0.1,0-0.2-0.1-0.3-0.1s-0.2,0-0.3,0.1l-4,2.9
		c-0.4,0.2-0.9-0.1-0.8-0.6l1.2-5c0-0.2,0-0.4-0.2-0.5l-3.7-3C-0.2,6.4,0,5.8,0.5,5.8l4.8-0.3c0.2,0,0.4-0.1,0.5-0.3l1.7-4.9
		C7.6,0.1,7.8,0,8,0s0.4,0.1,0.5,0.3l1.7,4.9c0.1,0.2,0.3,0.3,0.5,0.3l4.8,0.3c0.5,0,0.7,0.6,0.3,0.9l-3.7,3
		C11.9,9.8,11.9,10,11.9,10.2z"/>
	<path d="M8,0v12.8c-0.1,0-0.2,0-0.3,0.1l-4,2.9c-0.4,0.2-0.9-0.1-0.8-0.6l1.2-5c0-0.2,0-0.4-0.2-0.5l-3.7-3C-0.2,6.4,0,5.8,0.5,5.8
		l4.8-0.3c0.2,0,0.4-0.1,0.5-0.3l1.7-4.9C7.6,0.1,7.8,0,8,0z"/>
</g>
</svg>
