<?xml version="1.0" encoding="utf-8"?>
<!-- Generator: Adobe Illustrator 25.2.3, SVG Export Plug-In . SVG Version: 6.00 Build 0)  -->
<svg version="1.1" id="Layer_1" xmlns="http://www.w3.org/2000/svg" xmlns:xlink="http://www.w3.org/1999/xlink" x="0px" y="0px"
	 viewBox="0 0 16 16" style="enable-background:new 0 0 16 16;" xml:space="preserve">
<g>
	<path d="M10.2,9.9V2.2C10.2,1,9.2,0,8,0S5.8,1,5.8,2.2v7.7c-0.8,0.7-1.2,1.6-1.2,2.7C4.6,14.5,6.1,16,8,16s3.4-1.5,3.4-3.4
		C11.4,11.5,11,10.6,10.2,9.9z M8,15.4c-1.6,0-2.8-1.3-2.8-2.8c0-0.9,0.4-1.7,1.1-2.3c0.1-0.1,0.1-0.2,0.1-0.2V2.2
		c0-0.9,0.7-1.6,1.6-1.6s1.6,0.7,1.6,1.6v7.9c0,0.1,0,0.2,0.1,0.2c0.7,0.5,1.1,1.4,1.1,2.3C10.8,14.1,9.6,15.4,8,15.4z"/>
	<path d="M8.3,11V2.2C8.3,2,8.2,1.9,8,1.9C7.8,1.9,7.7,2,7.7,2.2V11c-0.7,0.1-1.2,0.8-1.2,1.5c0,0.9,0.7,1.6,1.6,1.6
		s1.6-0.7,1.6-1.6C9.6,11.8,9,11.2,8.3,11z"/>
</g>
</svg>
