<?xml version="1.0" encoding="utf-8"?>
<!-- Generator: Adobe Illustrator 25.2.3, SVG Export Plug-In . SVG Version: 6.00 Build 0)  -->
<svg version="1.1" id="Layer_1" xmlns="http://www.w3.org/2000/svg" xmlns:xlink="http://www.w3.org/1999/xlink" x="0px" y="0px"
	 viewBox="0 0 16 16" style="enable-background:new 0 0 16 16;" xml:space="preserve">
<g>
	<path d="M6.1,8.2C5.8,7.5,5.6,6.8,5.3,6.1C5.2,5.7,5,5.3,4.9,4.9C4.8,4.1,5.1,3.4,5.7,2.8c0.9-0.8,1.9-1.1,3.1-1
		c0.7,0.1,1.3,0.3,1.9,0.7c0.7,0.6,0.9,1.4,0.4,2.2c-0.2,0.4-0.5,0.8-0.8,1.2C10,6.3,9.7,6.8,9.6,7.3c0.6,0.1,1.2,0.2,1.8,0.3
		c0.4,0.1,0.9,0.1,1.3,0.2c1,0.2,1.7,1,1.9,2c0.3,1.7-0.8,3.5-2.1,4.1c-0.9,0.4-1.8,0.2-2.3-0.7c-0.2-0.4-0.4-0.8-0.6-1.2
		c-0.3-0.5-0.6-1-0.9-1.3c-0.2,0.3-0.5,0.5-0.7,0.8c-0.4,0.5-0.8,0.9-1.1,1.4c-0.8,1-1.9,1.2-3,0.8c-1-0.4-1.6-1.1-2-2.1
		c-0.3-0.6-0.4-1.3-0.3-2c0.2-0.9,0.8-1.4,1.7-1.4c0.5,0,0.9,0.1,1.4,0.1c0.5,0,1,0,1.5-0.1C6,8.2,6,8.2,6.1,8.2z M6.1,8.9
		C5.5,9,4.9,9.1,4.3,9C3.9,9,3.5,8.9,3.1,8.9c-0.6,0-0.9,0.3-1.1,0.9c-0.1,0.5,0,1,0.2,1.4c0.4,1,1,1.7,2,2c0.8,0.2,1.4,0.1,1.9-0.6
		c0.1-0.2,0.2-0.3,0.4-0.4c0.4-0.5,0.8-0.9,1.2-1.4C6.8,10.5,6.2,9.9,6.1,8.9z M6.6,7.5C7.3,6.8,8.1,6.6,9,7
		c0.2-0.9,0.8-1.5,1.3-2.3c0.1-0.1,0.2-0.3,0.3-0.5c0.2-0.4,0.1-0.8-0.2-1.1C10.1,3,9.9,2.8,9.6,2.7c-0.5-0.2-1-0.3-1.6-0.3
		c-0.9,0-1.6,0.4-2.1,1.1C5.6,3.9,5.5,4.3,5.6,4.7c0.1,0.4,0.2,0.7,0.3,1.1C6.1,6.4,6.3,6.9,6.6,7.5z M10,8.1c0.3,1,0,1.8-0.8,2.4
		c0.5,0.5,0.8,1.1,1.1,1.7c0.1,0.3,0.3,0.6,0.5,0.9c0.3,0.5,0.8,0.6,1.3,0.4c1.1-0.5,2.1-2,1.8-3.5c-0.2-0.8-0.6-1.3-1.5-1.5
		c-0.5-0.1-1.1-0.2-1.6-0.3C10.6,8.2,10.3,8.1,10,8.1z M9.4,8.8c0-0.7-0.6-1.3-1.3-1.3C7.4,7.4,6.8,8,6.8,8.8c0,0.7,0.6,1.3,1.3,1.4
		C8.8,10.1,9.4,9.5,9.4,8.8z"/>
</g>
</svg>
