<?xml version="1.0" encoding="utf-8"?>
<!-- Generator: Adobe Illustrator 25.2.3, SVG Export Plug-In . SVG Version: 6.00 Build 0)  -->
<svg version="1.1" id="Layer_1" xmlns="http://www.w3.org/2000/svg" xmlns:xlink="http://www.w3.org/1999/xlink" x="0px" y="0px"
	 viewBox="0 0 16 16" style="enable-background:new 0 0 16 16;" xml:space="preserve">
<path d="M7.2,14.5L12,7.2c0.1-0.2,0.1-0.4,0-0.6c-0.1-0.2-0.3-0.3-0.5-0.3L9.2,6.5l0.7-4.5c0-0.2-0.1-0.5-0.3-0.6c0,0-0.2-0.1-0.5,0
	C9,1.4,9,1.5,8.9,1.5L4,8.8C3.9,9,3.9,9.2,4,9.4C4,9.5,4.1,9.6,4.3,9.6c0.1,0,0.1,0,0.2,0L7,9.5L6.2,14c0,0.2,0.1,0.5,0.3,0.6
	C6.8,14.8,7,14.7,7.2,14.5z"/>
</svg>
