<?xml version="1.0" encoding="utf-8"?>
<!-- Generator: Adobe Illustrator 25.2.3, SVG Export Plug-In . SVG Version: 6.00 Build 0)  -->
<svg version="1.1" id="Layer_1" xmlns="http://www.w3.org/2000/svg" xmlns:xlink="http://www.w3.org/1999/xlink" x="0px" y="0px"
	 viewBox="0 0 16 16" style="enable-background:new 0 0 16 16;" xml:space="preserve">
<g>
	<g>
		<path d="M4.6,12.3c-0.2-0.1-0.5-0.1-0.6-0.3c-0.3-0.3-0.4-0.6-0.4-1c0-1.4,0-2.8,0-4.2c0-1,0-2.1,0-3.1c0-0.6,0.4-1.1,1-1.2
			c0.2,0,0.5,0,0.7,0c0.2,0,0.4,0.2,0.3,0.4c0,0.2-0.2,0.4-0.4,0.4c-0.1,0-0.2,0-0.4,0c-0.3,0-0.5,0.2-0.5,0.5c0,0.9,0,1.8,0,2.8
			c0,1.5,0,3,0,4.5c0,0.1,0,0.2,0.1,0.3c0.1,0.1,0.2,0.2,0.4,0.2c0.9,0,1.8,0,2.7,0c1.2,0,2.5,0,3.7,0c0.3,0,0.5-0.1,0.5-0.5
			c0-2.4,0-4.8,0-7.2c0-0.3-0.2-0.5-0.5-0.5c-0.1,0-0.2,0-0.3,0c-0.2,0-0.4-0.2-0.4-0.4c0-0.2,0.2-0.4,0.4-0.4c0.2,0,0.5,0,0.7,0
			c0.5,0.1,0.9,0.6,0.9,1.1c0,0.8,0,1.7,0,2.5c0,1.6,0,3.2,0,4.7c0,0.7-0.3,1.2-1.1,1.3c0,0,0,0,0,0C9.1,12.3,6.9,12.3,4.6,12.3z"/>
	</g>
	<g>
		<path d="M8,9.1c0.8,0,1.6,0,2.4,0c0.3,0,0.5-0.3,0.4-0.5c-0.1-0.2-0.2-0.3-0.4-0.3c-0.4,0-0.8,0-1.2,0c-1.2,0-2.5,0-3.7,0
			c-0.2,0-0.3,0.1-0.4,0.2C5,8.8,5.2,9.1,5.6,9.1C6.4,9.1,7.2,9.1,8,9.1C8,9.1,8,9.1,8,9.1z"/>
	</g>
	<g>
		<path d="M7,7c0.5,0,0.9,0,1.4,0c0.2,0,0.4-0.1,0.4-0.3c0-0.2-0.1-0.4-0.2-0.5c-0.1,0-0.1,0-0.2,0c-0.9,0-1.9,0-2.8,0
			c-0.3,0-0.4,0.2-0.4,0.4C5.1,6.8,5.3,7,5.6,7C6.1,7,6.5,7,7,7C7,7,7,7,7,7z"/>
	</g>
	<g>
		<path d="M8.6,3.9H7.4c-0.6,0-1-0.5-1-1V2.2c0-0.6,0.5-1,1-1h1.2c0.6,0,1,0.5,1,1v0.7C9.7,3.5,9.2,3.9,8.6,3.9z M7.4,1.8
			C7.2,1.8,7,2,7,2.2v0.7c0,0.2,0.2,0.4,0.4,0.4h1.2C8.8,3.3,9,3.1,9,2.9V2.2C9,2,8.8,1.8,8.6,1.8H7.4z"/>
	</g>
</g>
<path d="M15.3,12.7c-0.1-0.1-0.3-0.1-0.5,0L14,13.6l-0.8-0.8c-0.1-0.1-0.3-0.1-0.5,0s-0.1,0.3,0,0.5l0.8,0.8l-0.8,0.8
	c-0.1,0.1-0.1,0.3,0,0.5s0.3,0.1,0.5,0l0,0l0.8-0.8l0.8,0.8c0.1,0.1,0.3,0.1,0.5,0s0.1-0.3,0-0.5L14.4,14l0.8-0.8
	C15.4,13,15.4,12.8,15.3,12.7z"/>
</svg>
