<?xml version="1.0" encoding="utf-8"?>
<!-- Generator: Adobe Illustrator 25.2.3, SVG Export Plug-In . SVG Version: 6.00 Build 0)  -->
<svg version="1.1" id="Layer_1" xmlns="http://www.w3.org/2000/svg" xmlns:xlink="http://www.w3.org/1999/xlink" x="0px" y="0px"
	 viewBox="0 0 16 16" style="enable-background:new 0 0 16 16;" xml:space="preserve">
<g>
	<g>
		<path d="M4.6,12.5c-0.2-0.1-0.5-0.1-0.6-0.3c-0.3-0.3-0.4-0.6-0.4-1c0-1.4,0-2.8,0-4.2c0-1,0-2.1,0-3.1c0-0.6,0.4-1.1,1-1.2
			c0.2,0,0.5,0,0.7,0c0.2,0,0.4,0.2,0.3,0.4c0,0.2-0.2,0.4-0.4,0.4c-0.1,0-0.2,0-0.4,0c-0.3,0-0.5,0.2-0.5,0.5c0,0.9,0,1.8,0,2.8
			c0,1.5,0,3,0,4.5c0,0.1,0,0.2,0.1,0.3c0.1,0.1,0.2,0.2,0.4,0.2c0.9,0,1.8,0,2.7,0c1.2,0,2.5,0,3.7,0c0.3,0,0.5-0.1,0.5-0.5
			c0-2.4,0-4.8,0-7.2c0-0.3-0.2-0.5-0.5-0.5c-0.1,0-0.2,0-0.3,0c-0.2,0-0.4-0.2-0.4-0.4c0-0.2,0.2-0.4,0.4-0.4c0.2,0,0.5,0,0.7,0
			c0.5,0.1,0.9,0.6,0.9,1.1c0,0.8,0,1.7,0,2.5c0,1.6,0,3.2,0,4.7c0,0.7-0.3,1.2-1.1,1.3c0,0,0,0,0,0C9.1,12.5,6.9,12.5,4.6,12.5z"/>
	</g>
	<g>
		<path d="M8,9.2c0.8,0,1.6,0,2.4,0c0.3,0,0.5-0.3,0.4-0.5c-0.1-0.2-0.2-0.3-0.4-0.3c-0.4,0-0.8,0-1.2,0c-1.2,0-2.5,0-3.7,0
			c-0.2,0-0.3,0.1-0.4,0.2C5,8.9,5.2,9.2,5.6,9.2C6.4,9.2,7.2,9.2,8,9.2C8,9.2,8,9.2,8,9.2z"/>
	</g>
	<g>
		<path d="M7,7.1c0.5,0,0.9,0,1.4,0c0.2,0,0.4-0.1,0.4-0.3c0-0.2-0.1-0.4-0.2-0.5c-0.1,0-0.1,0-0.2,0c-0.9,0-1.9,0-2.8,0
			c-0.3,0-0.4,0.2-0.4,0.4c0,0.2,0.2,0.4,0.4,0.4C6.1,7.1,6.5,7.1,7,7.1C7,7.1,7,7.1,7,7.1z"/>
	</g>
	<g>
		<path d="M8.6,4H7.4c-0.6,0-1-0.5-1-1V2.3c0-0.6,0.5-1,1-1h1.2c0.6,0,1,0.5,1,1V3C9.7,3.6,9.2,4,8.6,4z M7.4,1.9
			C7.2,1.9,7,2.1,7,2.3V3c0,0.2,0.2,0.4,0.4,0.4h1.2C8.8,3.4,9,3.2,9,3V2.3c0-0.2-0.2-0.4-0.4-0.4H7.4z"/>
	</g>
</g>
<path d="M14.5,14.4c-0.2,0-0.4,0.2-0.4,0.4V15c0,0.1,0.2,0.4,0.4,0.4h0.2c0.1,0,0.4-0.2,0.4-0.4v-0.2c0-0.1-0.2-0.4-0.4-0.4H14.5z"
	/>
<path d="M14.5,10.4c-0.2,0-0.4,0.2-0.4,0.4v1.9l0.1,0.7c0,0.2,0.2,0.3,0.4,0.3c0.2,0,0.4-0.2,0.4-0.3l0.1-0.7l0-0.1v-1.8
	c0-0.1-0.2-0.4-0.4-0.4H14.5z"/>
</svg>
