<?xml version="1.0" encoding="utf-8"?>
<!-- Generator: Adobe Illustrator 25.2.3, SVG Export Plug-In . SVG Version: 6.00 Build 0)  -->
<svg version="1.1" id="Layer_1" xmlns="http://www.w3.org/2000/svg" xmlns:xlink="http://www.w3.org/1999/xlink" x="0px" y="0px"
	 viewBox="0 0 16 16" style="enable-background:new 0 0 16 16;" xml:space="preserve">
<g>
	<path d="M8.7,7.8H7.3C5.5,7.8,4,6.3,4,4.5V3.2C4.1,1.4,5.5,0,7.3,0h1.3c1.8,0,3.3,1.5,3.3,3.3v1.3C11.9,6.3,10.5,7.8,8.7,7.8z
		 M7.3,1C6.1,1,5.1,2,5.1,3.2v1.3c0,1.2,1,2.3,2.3,2.3h1.3c1.2,0,2.3-1,2.3-2.3V3.2C10.9,2,9.9,1,8.7,1H7.3z"/>
</g>
<path d="M12.4,15.4c-0.2,0-0.4,0-0.5,0c-0.7-0.1-1.3-0.4-1.8-0.9c-0.5-0.5-0.8-1.1-0.9-1.8l0-0.3l0-0.5l0-0.3c0-0.1,0-0.3,0.1-0.4
	c0.4-1.3,1.3-2.1,2.6-2.4c0.1,0,0.2,0,0.3,0l0.5,0l0.3,0c0.8,0.1,1.5,0.5,2,1.1c0.6,0.7,0.9,1.6,0.7,2.6c-0.1,0.8-0.4,1.4-1,1.9
	C13.9,15.1,13.2,15.4,12.4,15.4z M12.3,9.6c-1.4,0-2.5,1.1-2.5,2.5c0,0.7,0.3,1.3,0.7,1.8c0.5,0.5,1.1,0.7,1.8,0.8
	c1.4,0,2.5-1.1,2.5-2.5C14.9,10.8,13.8,9.6,12.3,9.6L12.3,9.6L12.3,9.6z"/>
<g>
	<path d="M10.4,9.2c-0.2,0-0.5-0.1-0.7-0.1H6.3c-2.5,0-4.6,2-4.6,4.6V16h1.1v-2.3c0-2,1.6-3.6,3.6-3.6h3.1C9.7,9.7,10,9.4,10.4,9.2z
		"/>
	<path d="M13.3,15.6V16h1v-0.9C14,15.3,13.7,15.5,13.3,15.6z"/>
</g>
<path d="M12.6,11.4c0,0.2,0,0.4,0,0.5c0,0,0,0.1,0,0.1c0.3,0.2,0.6,0.3,0.8,0.5c0.2,0.1,0.2,0.3,0,0.4C13.5,13,13.4,13,13.3,13
	c0,0-0.1,0-0.1,0c-0.3-0.2-0.6-0.4-0.9-0.6c-0.1-0.1-0.2-0.2-0.2-0.3c0-0.4,0-0.8,0-1.2c0-0.1,0-0.1,0.1-0.2
	c0.1-0.1,0.2-0.1,0.3-0.1c0.1,0,0.2,0.1,0.2,0.2C12.6,11,12.6,11.2,12.6,11.4C12.6,11.4,12.6,11.4,12.6,11.4z"/>
</svg>
