<?xml version="1.0" encoding="utf-8"?>
<!-- Generator: Adobe Illustrator 25.2.3, SVG Export Plug-In . SVG Version: 6.00 Build 0)  -->
<svg version="1.1" id="Layer_1" xmlns="http://www.w3.org/2000/svg" xmlns:xlink="http://www.w3.org/1999/xlink" x="0px" y="0px"
	 viewBox="0 0 16 16" style="enable-background:new 0 0 16 16;" xml:space="preserve">
<g>
	<path d="M8,7.8H6.6c-1.8,0-3.3-1.5-3.3-3.3V3.2C3.4,1.4,4.8,0,6.6,0h1.3c1.8,0,3.3,1.5,3.3,3.3v1.3C11.2,6.3,9.8,7.8,8,7.8z M6.6,1
		C5.4,1,4.4,2,4.4,3.2v1.3c0,1.2,1,2.3,2.3,2.3H8c1.2,0,2.3-1,2.3-2.3V3.2C10.2,2,9.2,1,8,1H6.6z"/>
</g>
<g>
	<path d="M9.8,9.2C9.5,9.1,9.3,9.1,9,9.1H5.6c-2.5,0-4.6,2-4.6,4.6V16h1.1v-2.3c0-2,1.6-3.6,3.6-3.6h3.1C9.1,9.7,9.4,9.4,9.8,9.2z"
		/>
	<path d="M12.6,15.6V16h1v-0.9C13.3,15.3,13,15.5,12.6,15.6z"/>
</g>
<path d="M11.6,8.9c-1.8,0-3.3,1.5-3.3,3.3s1.5,3.3,3.3,3.3s3.3-1.5,3.3-3.3S13.4,8.9,11.6,8.9z M13.2,12.3c0,0.1-0.1,0.2-0.2,0.2
	h-2.7c-0.1,0-0.2-0.1-0.2-0.2V12c0-0.1,0.1-0.2,0.2-0.2h2.7c0.1,0,0.2,0.1,0.2,0.2V12.3z"/>
</svg>
