<?xml version="1.0" encoding="UTF-8" standalone="no"?>
<svg
   xmlns:dc="http://purl.org/dc/elements/1.1/"
   xmlns:cc="http://creativecommons.org/ns#"
   xmlns:rdf="http://www.w3.org/1999/02/22-rdf-syntax-ns#"
   xmlns:svg="http://www.w3.org/2000/svg"
   xmlns="http://www.w3.org/2000/svg"
   xmlns:sodipodi="http://sodipodi.sourceforge.net/DTD/sodipodi-0.dtd"
   xmlns:inkscape="http://www.inkscape.org/namespaces/inkscape"
   id="Layer_1"
   data-name="Layer 1"
   viewBox="0 0 64 64"
   version="1.1"
   sodipodi:docname="nm-device-wired.svg"
   inkscape:version="1.0.2 (e86c870879, 2021-01-15)">
  <metadata
     id="metadata17">
    <rdf:RDF>
      <cc:Work
         rdf:about="">
        <dc:format>image/svg+xml</dc:format>
        <dc:type
           rdf:resource="http://purl.org/dc/dcmitype/StillImage" />
      </cc:Work>
    </rdf:RDF>
  </metadata>
  <sodipodi:namedview
     pagecolor="#ffffff"
     bordercolor="#666666"
     borderopacity="1"
     objecttolerance="10"
     gridtolerance="10"
     guidetolerance="10"
     inkscape:pageopacity="0"
     inkscape:pageshadow="2"
     inkscape:window-width="1600"
     inkscape:window-height="841"
     id="namedview15"
     showgrid="false"
     inkscape:zoom="3.6902135"
     inkscape:cx="46.334502"
     inkscape:cy="44.948867"
     inkscape:window-x="0"
     inkscape:window-y="0"
     inkscape:window-maximized="1"
     inkscape:current-layer="Layer_1" />
  <defs
     id="defs4">
    <style
       id="style2">.cls-1{fill:#929495;}.cls-2{fill:#2e3436;}</style>
  </defs>
  <rect
     class="cls-1"
     x="12.4"
     y="24.5"
     width="30.6"
     height="21.47"
     rx="1.4"
     id="rect6"
     style="fill:#919190;fill-opacity:1" />
  <path
     class="cls-1"
     d="M53.1,13.8V32.4a1.5,1.5,0,0,1-1.5,1.4H46.7V22.4a1.3,1.3,0,0,0-1.3-1.3h-23V13.8a1.5,1.5,0,0,1,1.5-1.5H51.6A1.5,1.5,0,0,1,53.1,13.8Z"
     id="path8"
     style="fill:#919190;fill-opacity:1" />
  <path
     class="cls-2"
     d="M55.6,5H20.3A5.1,5.1,0,0,0,16,7.3a5,5,0,0,0-.9,2.9v6.9h-5a5.2,5.2,0,0,0-5.2,5.3V48.1a5.2,5.2,0,0,0,5.2,5.2H45.4a5.2,5.2,0,0,0,5.2-5.2V41.2h5a5.4,5.4,0,0,0,5.2-5.3V10.2A5.2,5.2,0,0,0,55.6,5ZM46.7,48.1a1.3,1.3,0,0,1-1.3,1.3H10.1a1.3,1.3,0,0,1-1.3-1.3V22.4a1.3,1.3,0,0,1,1.3-1.3H45.4a1.3,1.3,0,0,1,1.3,1.3ZM56.9,35.9a1.1,1.1,0,0,1-.3.8,1.2,1.2,0,0,1-1,.5h-5V22.4a5.2,5.2,0,0,0-5.2-5.3H19V10.2a1.1,1.1,0,0,1,.3-.7,1.1,1.1,0,0,1,1-.6H55.6a1.3,1.3,0,0,1,1.3,1.3Z"
     id="path10"
     style="fill:#e6e6e6;fill-opacity:1" />
  <path
     class="cls-2"
     d="M37.4,54.8H18.1a2,2,0,0,0-2,2,1.9,1.9,0,0,0,2,1.9H37.4a1.8,1.8,0,0,0,1.9-1.9A1.9,1.9,0,0,0,37.4,54.8Z"
     id="path12"
     style="fill:#e6e6e6;fill-opacity:1" />
</svg>
