<?xml version="1.0" encoding="UTF-8" standalone="no"?>
<svg
   xmlns:dc="http://purl.org/dc/elements/1.1/"
   xmlns:cc="http://creativecommons.org/ns#"
   xmlns:rdf="http://www.w3.org/1999/02/22-rdf-syntax-ns#"
   xmlns:svg="http://www.w3.org/2000/svg"
   xmlns="http://www.w3.org/2000/svg"
   xmlns:sodipodi="http://sodipodi.sourceforge.net/DTD/sodipodi-0.dtd"
   xmlns:inkscape="http://www.inkscape.org/namespaces/inkscape"
   version="1.1"
   id="Layer_1"
   x="0px"
   y="0px"
   viewBox="0 0 16 16"
   style="enable-background:new 0 0 16 16;"
   xml:space="preserve"
   sodipodi:docname="nm-secure-lock.svg"
   inkscape:version="1.0.2 (e86c870879, 2021-01-15)"><metadata
   id="metadata9"><rdf:RDF><cc:Work
       rdf:about=""><dc:format>image/svg+xml</dc:format><dc:type
         rdf:resource="http://purl.org/dc/dcmitype/StillImage" /></cc:Work></rdf:RDF></metadata><defs
   id="defs7" /><sodipodi:namedview
   pagecolor="#ffffff"
   bordercolor="#666666"
   borderopacity="1"
   objecttolerance="10"
   gridtolerance="10"
   guidetolerance="10"
   inkscape:pageopacity="0"
   inkscape:pageshadow="2"
   inkscape:window-width="1600"
   inkscape:window-height="841"
   id="namedview5"
   showgrid="false"
   inkscape:zoom="33.500001"
   inkscape:cx="2.6501498"
   inkscape:cy="6.1320459"
   inkscape:window-x="0"
   inkscape:window-y="0"
   inkscape:window-maximized="1"
   inkscape:current-layer="Layer_1"
   inkscape:document-rotation="0" />
<path
   d="M 4.8990608,2.746058 H 4.8584069 V 1.8516215 c 0,-0.6504988 -0.5285304,-1.13837313 -1.138373,-1.13837313 H 3.232157 2.784939 c -0.6098428,0 -1.1383731,0.52853043 -1.1383731,1.13837313 v 0.8537804 l -0.081312,0.040654 C 1.1180355,2.9086824 0.79278596,3.3152445 0.79278596,3.8437749 v 2.2767467 c 0,0.6098426 0.48787424,1.0977174 1.09771704,1.0977174 h 1.341654 1.3416538 c 0.6098427,0 1.0977172,-0.4878748 1.0977172,-1.0977174 V 3.8437749 c 0,-0.5285304 -0.3252489,-0.9350925 -0.7724672,-1.0977169 z M 2.0937839,1.7703093 c 0,-0.3252488 0.2845933,-0.6504988 0.6504989,-0.6504988 H 3.232157 3.7200316 c 0.3659049,0 0.6504987,0.2845927 0.6504987,0.6504988 V 2.6647458 H 3.232157 2.0937839 Z M 4.5738108,6.8116764 H 3.232157 1.890503 c -0.3659057,0 -0.650499,-0.2845927 -0.650499,-0.6504987 v -2.398715 c 0,-0.365906 0.2845933,-0.6504987 0.650499,-0.6504987 h 1.341654 1.3009977 c 0.3659061,0 0.6504988,0.2845927 0.6504988,0.6504987 v 2.398715 C 5.2243073,6.4864276 4.9397169,6.8116764 4.5738108,6.8116764 Z"
   id="path2"
   style="stroke:#0d0d0d;stroke-width:0.707;stroke-opacity:1;stroke-miterlimit:4;stroke-dasharray:none" />
<rect
   style="fill:#ffff00;stroke:#0d0d0d;stroke-width:0.707;stroke-miterlimit:4;stroke-dasharray:none;stroke-opacity:1"
   id="rect830"
   width="3.7949409"
   height="3.6417098"
   x="1.3507726"
   y="3.2141175"
   rx="6.6500001" /></svg>
