<?xml version="1.0" encoding="UTF-8" standalone="no"?>
<svg
   xmlns:dc="http://purl.org/dc/elements/1.1/"
   xmlns:cc="http://creativecommons.org/ns#"
   xmlns:rdf="http://www.w3.org/1999/02/22-rdf-syntax-ns#"
   xmlns:svg="http://www.w3.org/2000/svg"
   xmlns="http://www.w3.org/2000/svg"
   xmlns:sodipodi="http://sodipodi.sourceforge.net/DTD/sodipodi-0.dtd"
   xmlns:inkscape="http://www.inkscape.org/namespaces/inkscape"
   version="1.1"
   id="Layer_1"
   x="0px"
   y="0px"
   viewBox="0 0 64 64"
   style="enable-background:new 0 0 64 64;"
   xml:space="preserve"
   sodipodi:docname="nm-stage01-connecting04.svg"
   inkscape:version="1.0.2 (e86c870879, 2021-01-15)"><metadata
   id="metadata17"><rdf:RDF><cc:Work
       rdf:about=""><dc:format>image/svg+xml</dc:format><dc:type
         rdf:resource="http://purl.org/dc/dcmitype/StillImage" /></cc:Work></rdf:RDF></metadata><defs
   id="defs15" /><sodipodi:namedview
   pagecolor="#ffffff"
   bordercolor="#666666"
   borderopacity="1"
   objecttolerance="10"
   gridtolerance="10"
   guidetolerance="10"
   inkscape:pageopacity="0"
   inkscape:pageshadow="2"
   inkscape:window-width="1600"
   inkscape:window-height="841"
   id="namedview13"
   showgrid="false"
   inkscape:zoom="2.609375"
   inkscape:cx="75.526539"
   inkscape:cy="69.44383"
   inkscape:window-x="0"
   inkscape:window-y="0"
   inkscape:window-maximized="1"
   inkscape:current-layer="Layer_1" />
<style
   type="text/css"
   id="style2">
	.st0{fill:#929495;}
	.st1{fill:#2E3436;}
</style>
<path
   class="st0"
   d="M53.6,24.9c0.7,2.2,1.1,4.6,1.1,7.1c0,1.9-0.2,3.8-0.7,5.5l3.7,1.9c0.7-2.4,1.1-4.9,1.1-7.4  c0-2.9-0.5-5.7-1.3-8.3L53.6,24.9z"
   id="path4"
   style="fill:#919190;fill-opacity:1" />
<path
   class="st0"
   d="M50.7,44.9c-3.4,4.9-8.6,8.4-14.6,9.4v4.1c7.6-1.2,14.2-5.5,18.3-11.7L50.7,44.9z"
   id="path6"
   style="fill:#919190;fill-opacity:1" />
<path
   class="st1"
   d="M9.2,32c0-11.2,8.1-20.5,18.7-22.4V5.5C15.1,7.4,5.2,18.6,5.2,32S15.1,56.6,28,58.5v-4.1  C17.3,52.5,9.2,43.2,9.2,32z"
   id="path8"
   style="fill:#e6e6e6;fill-opacity:1" />
<path
   class="st0"
   d="M36.1,5.5v4.1c5.5,1,10.2,3.9,13.6,8.1l4.1-1.3C49.6,10.6,43.3,6.6,36.1,5.5z"
   id="path10"
   style="fill:#919190;fill-opacity:1" />
</svg>
