<?xml version="1.0" encoding="UTF-8" standalone="no"?>
<svg
   xmlns:dc="http://purl.org/dc/elements/1.1/"
   xmlns:cc="http://creativecommons.org/ns#"
   xmlns:rdf="http://www.w3.org/1999/02/22-rdf-syntax-ns#"
   xmlns:svg="http://www.w3.org/2000/svg"
   xmlns="http://www.w3.org/2000/svg"
   xmlns:sodipodi="http://sodipodi.sourceforge.net/DTD/sodipodi-0.dtd"
   xmlns:inkscape="http://www.inkscape.org/namespaces/inkscape"
   id="Layer_1"
   data-name="Layer 1"
   viewBox="0 0 64 64"
   version="1.1"
   sodipodi:docname="nm-signal-75.svg"
   inkscape:version="1.0.2 (e86c870879, 2021-01-15)">
  <metadata
     id="metadata13">
    <rdf:RDF>
      <cc:Work
         rdf:about="">
        <dc:format>image/svg+xml</dc:format>
        <dc:type
           rdf:resource="http://purl.org/dc/dcmitype/StillImage" />
      </cc:Work>
    </rdf:RDF>
  </metadata>
  <sodipodi:namedview
     pagecolor="#ffffff"
     bordercolor="#666666"
     borderopacity="1"
     objecttolerance="10"
     gridtolerance="10"
     guidetolerance="10"
     inkscape:pageopacity="0"
     inkscape:pageshadow="2"
     inkscape:window-width="1600"
     inkscape:window-height="841"
     id="namedview11"
     showgrid="false"
     inkscape:zoom="5.21875"
     inkscape:cx="-4.0552715"
     inkscape:cy="29.887868"
     inkscape:window-x="0"
     inkscape:window-y="0"
     inkscape:window-maximized="1"
     inkscape:current-layer="Layer_1"
     inkscape:document-rotation="0" />
  <defs
     id="defs4">
    <style
       id="style2">.cls-1{fill:#929495;}.cls-2{fill:#2e3436;}</style>
  </defs>
  <path
     class="cls-1"
     d="M48.6,25.9l-.4-.2A29.9,29.9,0,0,0,32,21.1a29.9,29.9,0,0,0-16.2,4.6l-.4.2L32,47.8Z"
     id="path6"
     style="fill:#919190;fill-opacity:1" />
  <path
     class="cls-2"
     d="M63.6,18.5A2,2,0,0,0,64,17a2.2,2.2,0,0,0-.8-1.3,51.6,51.6,0,0,0-62.4,0A2.2,2.2,0,0,0,0,17a2,2,0,0,0,.4,1.5L30.4,58a2.1,2.1,0,0,0,1.6.8,2.4,2.4,0,0,0,1.6-.7ZM32,53.6h-.1L4.8,17.7l.8-.5a47.1,47.1,0,0,1,52.8,0l.8.5h-.1Z"
     id="path8"
     style="fill:#e6e6e6;fill-opacity:1" />
</svg>
