<?xml version="1.0" encoding="UTF-8" standalone="no"?>
<svg
   xmlns:dc="http://purl.org/dc/elements/1.1/"
   xmlns:cc="http://creativecommons.org/ns#"
   xmlns:rdf="http://www.w3.org/1999/02/22-rdf-syntax-ns#"
   xmlns:svg="http://www.w3.org/2000/svg"
   xmlns="http://www.w3.org/2000/svg"
   xmlns:sodipodi="http://sodipodi.sourceforge.net/DTD/sodipodi-0.dtd"
   xmlns:inkscape="http://www.inkscape.org/namespaces/inkscape"
   version="1.1"
   id="Layer_1"
   x="0px"
   y="0px"
   viewBox="0 0 64 64"
   style="enable-background:new 0 0 64 64;"
   xml:space="preserve"
   sodipodi:docname="nm-stage01-connecting09.svg"
   inkscape:version="1.0.2 (e86c870879, 2021-01-15)"><metadata
   id="metadata17"><rdf:RDF><cc:Work
       rdf:about=""><dc:format>image/svg+xml</dc:format><dc:type
         rdf:resource="http://purl.org/dc/dcmitype/StillImage" /></cc:Work></rdf:RDF></metadata><defs
   id="defs15" /><sodipodi:namedview
   pagecolor="#ffffff"
   bordercolor="#666666"
   borderopacity="1"
   objecttolerance="10"
   gridtolerance="10"
   guidetolerance="10"
   inkscape:pageopacity="0"
   inkscape:pageshadow="2"
   inkscape:window-width="1600"
   inkscape:window-height="841"
   id="namedview13"
   showgrid="false"
   inkscape:zoom="3.6902135"
   inkscape:cx="98.00009"
   inkscape:cy="38.534575"
   inkscape:window-x="0"
   inkscape:window-y="0"
   inkscape:window-maximized="1"
   inkscape:current-layer="Layer_1"
   inkscape:document-rotation="0" />
<style
   type="text/css"
   id="style2">
	.st0{fill:#2E3436;}
	.st1{fill:#929495;}
</style>
<path
   class="st0"
   d="M10.4,24.9c-0.7,2.2-1.1,4.6-1.1,7.1c0,1.9,0.2,3.8,0.7,5.5l-3.7,1.9C5.6,37,5.2,34.5,5.2,32  c0-2.9,0.5-5.7,1.3-8.3L10.4,24.9z"
   id="path4"
   style="fill:#919190;fill-opacity:1" />
<path
   class="st0"
   d="M13.3,44.9c3.4,4.9,8.6,8.4,14.6,9.4v4.1C20.3,57.3,13.7,53,9.6,46.8L13.3,44.9z"
   id="path6"
   style="fill:#919190;fill-opacity:1" />
<path
   class="st1"
   d="M54.8,32c0-11.2-8.1-20.5-18.7-22.4V5.5C49,7.5,58.9,18.6,58.9,32S49,56.6,36.1,58.5v-4.1  C46.7,52.5,54.8,43.2,54.8,32z"
   id="path8"
   style="fill:#e6e6e6;fill-opacity:1" />
<path
   class="st0"
   d="M27.9,5.5v4.1c-5.5,1-10.2,3.9-13.6,8.1l-4.1-1.3C14.4,10.6,20.7,6.6,27.9,5.5z"
   id="path10"
   style="fill:#919190;fill-opacity:1" />
</svg>
