<?xml version="1.0" encoding="utf-8"?>
<!-- Generator: Adobe Illustrator 25.2.3, SVG Export Plug-In . SVG Version: 6.00 Build 0)  -->
<svg version="1.1"
	 id="svg46" inkscape:version="0.92.5 (6c0c36ef5a, 2020-05-15, custom)" sodipodi:docname="folder-bookmark.svg" xmlns:cc="http://creativecommons.org/ns#" xmlns:dc="http://purl.org/dc/elements/1.1/" xmlns:inkscape="http://www.inkscape.org/namespaces/inkscape" xmlns:rdf="http://www.w3.org/1999/02/22-rdf-syntax-ns#" xmlns:sodipodi="http://sodipodi.sourceforge.net/DTD/sodipodi-0.dtd" xmlns:svg="http://www.w3.org/2000/svg"
	 xmlns="http://www.w3.org/2000/svg" xmlns:xlink="http://www.w3.org/1999/xlink" x="0px" y="0px" viewBox="0 0 200 200"
	 style="enable-background:new 0 0 200 200;" xml:space="preserve">
<style type="text/css">
	.st0{fill:url(#SVGID_1_);}
	.st1{fill:url(#SVGID_2_);}
	.st2{opacity:0.4;}
	.st3{fill:#283142;}
</style>
<linearGradient id="SVGID_1_" gradientUnits="userSpaceOnUse" x1="162.1542" y1="-80.8911" x2="62.039" y2="148.2883">
	<stop  offset="0" style="stop-color:#56CCF2"/>
	<stop  offset="1" style="stop-color:#2F80ED"/>
</linearGradient>
<path class="st0" d="M165.4,33.1h-135c-11.6,0-21,9.3-21.1,20.9c0,1,0.1,1.9,0.2,2.9c0.3,2.3,2.4,3.9,4.7,3.6
	c0.6-0.1,1.1-0.3,1.6-0.5c1.9-1.1,4-1.6,6.1-1.6h21.6c5.4,0,10.2,3.5,12,8.6l0.7,2.3c2.9,8.6,11,14.4,20,14.4h97.6
	c2.2,0,4.4,0.6,6.3,1.7c2,1.2,4.6,0.5,5.8-1.5c0.4-0.6,0.6-1.4,0.6-2.1V54.2C186.5,42.5,177.1,33.1,165.4,33.1z"/>
<linearGradient id="SVGID_2_" gradientUnits="userSpaceOnUse" x1="94.3406" y1="-33.3556" x2="104.9736" y2="252.8495">
	<stop  offset="0" style="stop-color:#56CCF2"/>
	<stop  offset="1" style="stop-color:#2F80ED"/>
</linearGradient>
<path class="st1" d="M186.5,57.2c-3.2-1.9-6.9-2.9-10.6-2.9H78.4c-5.4,0-10.2-3.5-12-8.6l-0.7-2.3c-2.9-8.6-11-14.4-20-14.4H24
	c-3.6,0-7.2,0.9-10.3,2.7c-1.7,0.9-3.2,2.1-4.5,3.4C5.2,39,2.9,44.4,2.9,50v107.9c0,8,6.5,14.4,14.4,14.4h42.8h88h34.4
	c8,0,14.4-6.5,14.4-14.4V75.5C197.1,68,193.1,61,186.5,57.2z"/>
<sodipodi:namedview  bordercolor="#666666" borderopacity="1" gridtolerance="10" guidetolerance="10" id="namedview48" inkscape:current-layer="svg46" inkscape:cx="41.047977" inkscape:cy="71.787761" inkscape:pageopacity="0" inkscape:pageshadow="2" inkscape:window-height="949" inkscape:window-maximized="1" inkscape:window-width="1920" inkscape:window-x="0" inkscape:window-y="36" inkscape:zoom="1.18" objecttolerance="10" pagecolor="#ffffff" showgrid="false">
	</sodipodi:namedview>
<g class="st2">
	<path class="st3" d="M79.3,147.6c-0.5,0-1-0.1-1.4-0.2c-1.3-0.4-2.3-1.2-2.9-2.4s-0.8-2.5-0.4-3.8l6.6-21.3l-18.3-13.3
		c-1.2-0.9-2-2.4-2-3.9c0-1.3,0.5-2.6,1.4-3.5s2.2-1.5,3.5-1.5h22.6L95.5,76c0.5-1.2,1.4-2.1,2.6-2.6s2.6-0.6,3.9-0.1
		s2.3,1.4,2.8,2.7l0.1,0.2l7,21.5h22.6l0,0c2.2,0,4,1.4,4.7,3.4l0,0c0.6,2-0.1,4.2-1.8,5.5L119,120l6.5,21.1c0.4,1.4,0.3,2.8-0.3,4
		c-0.7,1.2-1.9,2.1-3.3,2.4c-1.4,0.3-2.8,0-4-0.8l-17.8-13l-17.7,13C81.4,147.2,80.3,147.6,79.3,147.6z M65.7,101.6
		c-0.3,0-0.5,0.2-0.6,0.3c-0.1,0.1-0.3,0.3-0.3,0.7c0,0.3,0.1,0.6,0.4,0.8l19.4,14.1c0.7,0.5,1.1,1.5,0.8,2.4l-7,22.6
		c-0.1,0.3,0,0.6,0.1,0.7c0.1,0.1,0.2,0.4,0.6,0.5c0.3,0.1,0.6,0,0.8-0.1l18.8-13.8c0.7-0.6,1.8-0.6,2.5,0l18.9,13.8
		c0.3,0.2,0.6,0.2,0.8,0.2c0.2,0,0.4-0.1,0.6-0.5c0.1-0.2,0.1-0.6,0-0.9l-6.9-22.4c-0.3-0.9,0-1.8,0.8-2.3l19.4-14.1
		c0.3-0.2,0.5-0.7,0.3-1.1c-0.1-0.4-0.5-0.7-0.9-0.7l0,0h-24c-0.9,0-1.7-0.6-2-1.5l-7.4-22.7c-0.1-0.2-0.3-0.4-0.6-0.5
		c-0.3-0.1-0.6-0.1-0.8,0c-0.2,0.1-0.4,0.3-0.5,0.5l-7.4,22.7c-0.3,0.9-1.1,1.5-2,1.5H65.7V101.6z M98.8,132.8
		C98.8,132.8,98.9,132.8,98.8,132.8L98.8,132.8z M101.1,132.8L101.1,132.8C101,132.8,101.1,132.8,101.1,132.8z M118.5,118.6
		L118.5,118.6L118.5,118.6z M81.5,118.6L81.5,118.6L81.5,118.6z"/>
</g>
</svg>
