<?xml version="1.0" encoding="utf-8"?>
<!-- Generator: Adobe Illustrator 25.2.3, SVG Export Plug-In . SVG Version: 6.00 Build 0)  -->
<svg version="1.1"
	 id="svg52" inkscape:version="0.92.5 (6c0c36ef5a, 2020-05-15, custom)" sodipodi:docname="folder-publicshare.svg" xmlns:cc="http://creativecommons.org/ns#" xmlns:dc="http://purl.org/dc/elements/1.1/" xmlns:inkscape="http://www.inkscape.org/namespaces/inkscape" xmlns:rdf="http://www.w3.org/1999/02/22-rdf-syntax-ns#" xmlns:sodipodi="http://sodipodi.sourceforge.net/DTD/sodipodi-0.dtd" xmlns:svg="http://www.w3.org/2000/svg"
	 xmlns="http://www.w3.org/2000/svg" xmlns:xlink="http://www.w3.org/1999/xlink" x="0px" y="0px" viewBox="0 0 200 200"
	 style="enable-background:new 0 0 200 200;" xml:space="preserve">
<style type="text/css">
	.st0{fill:url(#SVGID_1_);}
	.st1{fill:url(#SVGID_2_);}
	.st2{fill:#5E4AA6;}
	.st3{opacity:0.4;fill:#283142;enable-background:new    ;}
</style>
<g>
	<linearGradient id="SVGID_1_" gradientUnits="userSpaceOnUse" x1="162.2507" y1="-81.5411" x2="62.1355" y2="147.6383">
		<stop  offset="0" style="stop-color:#56CCF2"/>
		<stop  offset="1" style="stop-color:#2F80ED"/>
	</linearGradient>
	<path class="st0" d="M165.5,32.5h-135c-11.6,0-21,9.3-21.1,20.9c0,1,0.1,1.9,0.2,2.9c0.3,2.3,2.4,3.9,4.7,3.6
		c0.6-0.1,1.1-0.3,1.6-0.5c1.9-1.1,4-1.6,6.1-1.6h21.6c5.4,0,10.2,3.5,12,8.6l0.7,2.3c2.9,8.6,11,14.4,20,14.4h97.6
		c2.2,0,4.4,0.6,6.3,1.7c2,1.2,4.6,0.5,5.8-1.5c0.4-0.6,0.6-1.4,0.6-2.1V53.6C186.6,41.9,177.2,32.5,165.5,32.5z"/>
	<linearGradient id="SVGID_2_" gradientUnits="userSpaceOnUse" x1="94.437" y1="-34.0056" x2="105.07" y2="252.1995">
		<stop  offset="0" style="stop-color:#56CCF2"/>
		<stop  offset="1" style="stop-color:#2F80ED"/>
	</linearGradient>
	<path class="st1" d="M186.6,56.6c-3.2-1.9-6.9-2.9-10.6-2.9H78.5c-5.4,0-10.2-3.5-12-8.6l-0.7-2.3c-2.9-8.6-11-14.4-20-14.4H24.1
		c-3.6,0-7.2,0.9-10.3,2.7c-1.7,0.9-3.2,2.1-4.5,3.4C5.3,38.4,3,43.8,3,49.4v107.9c0,8,6.5,14.4,14.4,14.4h42.8h88h34.4
		c8,0,14.4-6.5,14.4-14.4V74.9C197.2,67.4,193.2,60.4,186.6,56.6z"/>
</g>
<sodipodi:namedview  bordercolor="#666666" borderopacity="1" gridtolerance="10" guidetolerance="10" id="namedview54" inkscape:current-layer="svg52" inkscape:cx="43.140484" inkscape:cy="88.585675" inkscape:pageopacity="0" inkscape:pageshadow="2" inkscape:window-height="949" inkscape:window-maximized="1" inkscape:window-width="1920" inkscape:window-x="0" inkscape:window-y="36" inkscape:zoom="0.59" objecttolerance="10" pagecolor="#ffffff" showgrid="false">
	</sodipodi:namedview>
<g id="g928">
	<path id="circle922" class="st2" d="M-3391.3-3881.7L-3391.3-3881.7L-3391.3-3881.7z"/>
	<path id="circle924" class="st2" d="M-3391.3-3881.7L-3391.3-3881.7L-3391.3-3881.7z"/>
	<path id="circle926" class="st2" d="M-3790.4-3896.3L-3790.4-3896.3L-3790.4-3896.3z"/>
</g>
<path class="st3" d="M120.1,147.8c-3.2,0-6.2-1.2-8.5-3.3c-2.8-2.4-4.2-5.9-4.2-9.5c0-0.8,0.1-1.6,0.3-2.4l-19.5-11.2
	c-2.2,2-5.3,3-8.3,3c-7.1,0-12.7-5.8-12.7-12.7c0-7.1,5.8-12.7,12.7-12.7c3,0,5.9,1.1,8.3,3l19.5-11.2c-0.1-0.8-0.3-1.6-0.3-2.2
	c0-3.7,1.6-7.1,4.2-9.5c2.8-2.4,6.3-3.5,10-3.2l0,0c5.9,0.7,10.6,5.4,11.3,11.3c0.4,3.7-0.8,7.2-3.2,10c-2.4,2.8-5.9,4.2-9.5,4.2
	c-3,0-5.9-1.1-8.3-3l-19.5,11.2c0.1,0.8,0.3,1.6,0.3,2.2c0,0.8-0.1,1.6-0.3,2.4l19.3,10.9c2.2-2,5.3-3,8.3-3c3.7,0,7.1,1.6,9.5,4.2
	c2.4,2.8,3.5,6.3,3.2,10c-0.7,5.9-5.4,10.6-11.3,11.3C121,147.7,120.6,147.8,120.1,147.8z M87.4,116.4l24.8,14.3l-0.4,1.6
	c-0.3,0.9-0.4,1.7-0.4,2.6c0,2.5,1.1,4.9,2.9,6.6c1.8,1.7,4.3,2.5,6.8,2.2c4.1-0.4,7.2-3.7,7.8-7.8c0.3-2.5-0.5-5-2.2-6.8
	s-4.1-2.9-6.6-2.9s-4.9,1.1-6.4,2.9l-1.1,1.2L87.8,116l0.5-1.6c0.3-0.9,0.4-1.7,0.4-2.6s-0.1-1.8-0.4-2.6l-0.5-1.6l24.8-14.3
	l1.1,1.2c1.7,1.8,4.1,2.9,6.4,2.9c2.5,0,4.9-1.1,6.6-2.9c1.7-1.8,2.5-4.3,2.2-6.8c-0.4-4.1-3.7-7.2-7.8-7.8c-2.5-0.3-5,0.5-6.8,2.2
	s-2.9,4.1-2.9,6.6c0,0.9,0.1,1.8,0.4,2.6l0.5,1.6l-25,14.2l-1.1-1.2c-1.7-1.8-4.1-2.9-6.4-2.9c-4.9,0-8.8,3.9-8.8,8.8
	s3.9,8.8,8.8,8.8c2.5,0,4.9-1.1,6.4-2.9L87.4,116.4z"/>
</svg>
