<?xml version="1.0" encoding="utf-8"?>
<!-- Generator: Adobe Illustrator 25.2.3, SVG Export Plug-In . SVG Version: 6.00 Build 0)  -->
<svg version="1.1"
	 id="svg68" inkscape:version="0.92.5 (6c0c36ef5a, 2020-05-15, custom)" sodipodi:docname="folder-open.svg" xmlns:cc="http://creativecommons.org/ns#" xmlns:dc="http://purl.org/dc/elements/1.1/" xmlns:inkscape="http://www.inkscape.org/namespaces/inkscape" xmlns:rdf="http://www.w3.org/1999/02/22-rdf-syntax-ns#" xmlns:sodipodi="http://sodipodi.sourceforge.net/DTD/sodipodi-0.dtd" xmlns:svg="http://www.w3.org/2000/svg"
	 xmlns="http://www.w3.org/2000/svg" xmlns:xlink="http://www.w3.org/1999/xlink" x="0px" y="0px" viewBox="0 0 200 200"
	 style="enable-background:new 0 0 200 200;" xml:space="preserve">
<style type="text/css">
	.st0{fill:url(#SVGID_1_);}
	.st1{fill:url(#SVGID_2_);}
</style>
<linearGradient id="SVGID_1_" gradientUnits="userSpaceOnUse" x1="105.6243" y1="-116.1673" x2="96.6243" y2="-42.1673" gradientTransform="matrix(1 0 0 1 0 135.8898)">
	<stop  offset="0" style="stop-color:#56CCF2"/>
	<stop  offset="1" style="stop-color:#2F80ED"/>
</linearGradient>
<path class="st0" d="M19,51.5v8.1c0,2.2,1.8,4,4,4h34.6c1.7,0,3.2,1.1,3.8,2.7l4.5,13.4c1.7,4.9,6.3,8.2,11.5,8.2h99.3
	c2.2,0,4-1.8,4-4V51.5c0-11.2-9.1-20.2-20.2-20.2H39.2C28.1,31.3,19,40.3,19,51.5z"/>
<linearGradient id="SVGID_2_" gradientUnits="userSpaceOnUse" x1="101.2434" y1="-153.2867" x2="96.2434" y2="208.7133" gradientTransform="matrix(1 0 0 1 0 135.8898)">
	<stop  offset="0" style="stop-color:#56CCF2"/>
	<stop  offset="1" style="stop-color:#2F80ED"/>
</linearGradient>
<path class="st1" d="M2.8,67.6c0,11.1,1.6,22.2,4.8,32.9l16.2,53.8c2.6,8.6,10.5,14.4,19.4,14.4h114.2c8.5,0,16-5.2,19-13.1
	l17.5-46.6c2-5.5,3.1-11.3,3.1-17.1c0-6.7-5.4-12.1-12.1-12.1H77.4c-1.7,0-3.2-1.1-3.8-2.7l-4.4-13.3c-1.7-4.9-6.3-8.2-11.5-8.2H15
	C8.3,55.5,2.8,60.9,2.8,67.6z"/>
<sodipodi:namedview  bordercolor="#666666" borderopacity="1" gridtolerance="10" guidetolerance="10" id="namedview70" inkscape:current-layer="svg68" inkscape:cx="-14.457408" inkscape:cy="15.824773" inkscape:pageopacity="0" inkscape:pageshadow="2" inkscape:window-height="949" inkscape:window-maximized="1" inkscape:window-width="1920" inkscape:window-x="0" inkscape:window-y="36" inkscape:zoom="0.59" objecttolerance="10" pagecolor="#ffffff" showgrid="false">
	</sodipodi:namedview>
</svg>
