<?xml version="1.0" encoding="utf-8"?>
<!-- Generator: Adobe Illustrator 25.2.0, SVG Export Plug-In . SVG Version: 6.00 Build 0)  -->
<svg version="1.1"
	 id="Layer_1" xmlns:cc="http://creativecommons.org/ns#" xmlns:dc="http://purl.org/dc/elements/1.1/" xmlns:rdf="http://www.w3.org/1999/02/22-rdf-syntax-ns#"
	 xmlns="http://www.w3.org/2000/svg" xmlns:xlink="http://www.w3.org/1999/xlink" x="0px" y="0px" viewBox="0 0 64 64"
	 style="enable-background:new 0 0 64 64;" xml:space="preserve">
<style type="text/css">
	.st0{opacity:0.915;fill:url(#SVGID_1_);enable-background:new    ;}
	.st1{opacity:0.542;fill:url(#SVGID_2_);enable-background:new    ;}
</style>
<g>
	<linearGradient id="SVGID_1_" gradientUnits="userSpaceOnUse" x1="8.111" y1="34.3622" x2="55.889" y2="34.3622">
		<stop  offset="0" style="stop-color:#D9DADD"/>
		<stop  offset="0.1608" style="stop-color:#D8D9E3"/>
		<stop  offset="0.2542" style="stop-color:#D6D8EA"/>
		<stop  offset="0.7436" style="stop-color:#D6D3E3"/>
		<stop  offset="1" style="stop-color:#F7F7F8"/>
	</linearGradient>
	<path class="st0" d="M32.1,15.3c-12.7,0-23.1-2.6-23.8-5.9c0,0,0,0,0,0l0-0.2c-0.2,0.8-0.3,1.7-0.2,2.7l4.7,40.7
		c0.4,3.9,3.8,6.8,7.7,6.8h22.9c3.9,0,7.2-2.9,7.7-6.8l4.7-40.7c0.1-0.8,0-1.6-0.2-2.3C54.6,12.8,44.5,15.3,32.1,15.3z"/>
	
		<linearGradient id="SVGID_2_" gradientUnits="userSpaceOnUse" x1="845.2242" y1="-1246.9679" x2="973.3537" y2="-1246.9679" gradientTransform="matrix(0.3706 0 0 -0.3706 -304.9361 -451.1877)">
		<stop  offset="0" style="stop-color:#DCDDE0"/>
		<stop  offset="0.2542" style="stop-color:#E3E4E6"/>
		<stop  offset="0.7436" style="stop-color:#D8DBDE"/>
		<stop  offset="1" style="stop-color:#E1E1E5"/>
	</linearGradient>
	<path class="st1" d="M30.2,6.3C17.1,6.3,8.3,5.8,8.3,9.2l0,0.4c0,0,0,0,0,0c0.7,3.3,11,5.9,23.7,5.9c12.7,0,23-2.6,23.7-5.9l0-0.4
		C55.7,5.8,43.3,6.3,30.2,6.3L30.2,6.3z"/>
</g>
</svg>
