<svg id="Layer_1" data-name="Layer 1" xmlns="http://www.w3.org/2000/svg" viewBox="0 0 64 64"><defs><style>.cls-1{opacity:0.5;}.cls-2{fill:#b5b5b5;}</style></defs><path d="M32,26.1A5.9,5.9,0,1,0,37.9,32,5.8,5.8,0,0,0,32,26.1Z"/><path d="M32,5.2A26.8,26.8,0,1,0,58.8,32,26.8,26.8,0,0,0,32,5.2Zm0,49.6A22.8,22.8,0,1,1,54.8,32,22.8,22.8,0,0,1,32,54.8Z"/><g class="cls-1"><path class="cls-2" d="M32,20.1A11.9,11.9,0,1,0,43.9,32,11.9,11.9,0,0,0,32,20.1Zm0,21.1A9.3,9.3,0,1,1,41.3,32,9.3,9.3,0,0,1,32,41.2Z"/></g></svg>