<?xml version="1.0" encoding="utf-8"?>
<!-- Generator: Adobe Illustrator 25.4.1, SVG Export Plug-In . SVG Version: 6.00 Build 0)  -->
<svg version="1.1" id="Layer_1" xmlns="http://www.w3.org/2000/svg" xmlns:xlink="http://www.w3.org/1999/xlink" x="0px" y="0px"
	 viewBox="0 0 64 64" style="enable-background:new 0 0 64 64;" xml:space="preserve">
<style type="text/css">
	.st0{fill:#FFFFFF;}
	.st1{clip-path:url(#SVGID_00000078723183960586419300000000443750667986328208_);}
	.st2{opacity:0.5;}
	.st3{fill:#B5B5B5;}
	.st4{fill:#B5B5B5;fill-opacity:0.5;}
	.st5{fill:none;stroke:#000000;stroke-width:3.9361;stroke-linecap:round;stroke-linejoin:round;stroke-miterlimit:10;}
	.st6{fill:none;stroke:#000000;stroke-width:4.046;stroke-linecap:round;stroke-linejoin:round;stroke-miterlimit:10;}
	.st7{stroke:#000000;stroke-width:0.8;stroke-miterlimit:10;}
	.st8{fill:#2E3436;}
	.st9{stroke:#000000;stroke-width:1.4;stroke-miterlimit:10;}
	.st10{fill:#929495;}
	.st11{opacity:0.915;fill:url(#SVGID_00000015347385855791078460000003258564366028765088_);enable-background:new    ;}
	.st12{opacity:0.542;fill:#A5A0A0;enable-background:new    ;}
	.st13{opacity:0.915;fill:url(#SVGID_00000145021575098835279090000001785412768574494873_);enable-background:new    ;}
	.st14{opacity:0.915;fill:url(#SVGID_00000160192377220029967340000013282381321498304142_);enable-background:new    ;}
	.st15{fill:none;stroke:#000000;stroke-width:2.1848;stroke-linecap:round;stroke-miterlimit:10;}
	.st16{fill:#593E3E;}
	.st17{fill:none;stroke:#000000;stroke-width:4.1037;stroke-linecap:round;stroke-linejoin:round;stroke-miterlimit:10;}
	.st18{fill:none;stroke:#FFFFFF;stroke-width:3.9361;stroke-linecap:round;stroke-linejoin:round;stroke-miterlimit:10;}
	.st19{fill:none;stroke:#B5B5B5;stroke-width:3.9361;stroke-linecap:round;stroke-linejoin:round;stroke-miterlimit:10;}
	.st20{fill:none;stroke:#B5B5B5;stroke-width:3.3687;stroke-linecap:round;stroke-linejoin:round;stroke-miterlimit:10;}
	.st21{fill:none;stroke:#B5B5B5;stroke-width:4.046;stroke-linecap:round;stroke-linejoin:round;stroke-miterlimit:10;}
	.st22{fill:none;}
	.st23{fill:none;stroke:#000000;stroke-width:3.0507;stroke-linecap:round;stroke-linejoin:round;stroke-miterlimit:10;}
	.st24{fill:none;stroke:#FFFFFF;stroke-width:1.798;stroke-linecap:round;stroke-linejoin:round;stroke-miterlimit:10;}
	.st25{fill:none;stroke:#000000;stroke-width:2.8832;stroke-linecap:round;stroke-linejoin:round;stroke-miterlimit:10;}
	.st26{fill:none;stroke:#000000;stroke-linecap:round;stroke-linejoin:round;stroke-miterlimit:10;}
	.st27{fill:none;stroke:#000000;stroke-width:3.2879;stroke-linecap:round;stroke-linejoin:round;stroke-miterlimit:10;}
	.st28{fill:none;stroke:#000000;stroke-width:2.7451;stroke-miterlimit:10;}
	.st29{fill:none;stroke:#000000;stroke-width:3.7534;stroke-linecap:round;stroke-linejoin:round;stroke-miterlimit:10;}
	.st30{fill:none;stroke:#FFFFFF;stroke-width:0.9655;stroke-linecap:round;stroke-linejoin:round;stroke-miterlimit:10;}
	.st31{fill:none;stroke:#B5B5B5;stroke-width:3.6647;stroke-linecap:round;stroke-linejoin:round;stroke-miterlimit:10;}
	.st32{fill:none;stroke:#000000;stroke-width:3.6664;stroke-linecap:round;stroke-linejoin:round;stroke-miterlimit:10;}
	.st33{fill:#45F2FF;}
	.st34{opacity:0.5;fill:#B5B5B5;}
</style>
<g>
	<g class="st2">
		<path class="st3" d="M32,26.1c-3.3,0-5.9,2.6-5.9,5.9s2.6,5.9,5.9,5.9s5.9-2.6,5.9-5.9S35.3,26.1,32,26.1z"/>
	</g>
	<g class="st2">
		<g>
			<path class="st3" d="M32,5.2C17.2,5.2,5.2,17.2,5.2,32c0,14.8,12,26.8,26.8,26.8c14.8,0,26.8-12,26.8-26.8
				C58.8,17.2,46.8,5.2,32,5.2z M32,54.8C19.4,54.8,9.2,44.6,9.2,32C9.2,19.4,19.4,9.2,32,9.2c12.6,0,22.8,10.2,22.8,22.8
				C54.8,44.6,44.6,54.8,32,54.8z"/>
		</g>
	</g>
	<g>
		<path d="M55.5,56.7c-0.5,0-1-0.2-1.4-0.6l-47-45.5c-0.8-0.8-0.8-2,0-2.8c0.8-0.8,2-0.8,2.8,0l47,45.5c0.8,0.8,0.8,2,0,2.8
			C56.5,56.5,56,56.7,55.5,56.7z"/>
	</g>
</g>
</svg>
