<?xml version="1.0" encoding="utf-8"?>
<!-- Generator: Adobe Illustrator 25.4.1, SVG Export Plug-In . SVG Version: 6.00 Build 0)  -->
<svg version="1.1" id="Layer_1" xmlns="http://www.w3.org/2000/svg" xmlns:xlink="http://www.w3.org/1999/xlink" x="0px" y="0px"
	 viewBox="0 0 64 64" style="enable-background:new 0 0 64 64;" xml:space="preserve">
<style type="text/css">
	.st0{fill:#FFFFFF;}
	.st1{clip-path:url(#SVGID_00000118363374639050548360000017256238034569847183_);}
	.st2{opacity:0.5;}
	.st3{fill:#B5B5B5;}
	.st4{fill:#B5B5B5;fill-opacity:0.5;}
	.st5{fill:none;stroke:#000000;stroke-width:3.9361;stroke-linecap:round;stroke-linejoin:round;stroke-miterlimit:10;}
	.st6{fill:none;stroke:#000000;stroke-width:4.046;stroke-linecap:round;stroke-linejoin:round;stroke-miterlimit:10;}
	.st7{stroke:#000000;stroke-width:0.8;stroke-miterlimit:10;}
	.st8{fill:#2E3436;}
	.st9{stroke:#000000;stroke-width:1.4;stroke-miterlimit:10;}
	.st10{fill:#929495;}
	.st11{opacity:0.915;fill:url(#SVGID_00000151544142670118648250000011781552584135364263_);enable-background:new    ;}
	.st12{opacity:0.542;fill:#A5A0A0;enable-background:new    ;}
	.st13{opacity:0.915;fill:url(#SVGID_00000104673217470222726690000017011171110495975318_);enable-background:new    ;}
	.st14{opacity:0.915;fill:url(#SVGID_00000069362860765540358240000016478947791559374776_);enable-background:new    ;}
	.st15{fill:none;stroke:#000000;stroke-width:2.1848;stroke-linecap:round;stroke-miterlimit:10;}
	.st16{fill:#593E3E;}
	.st17{fill:none;stroke:#000000;stroke-width:4.1037;stroke-linecap:round;stroke-linejoin:round;stroke-miterlimit:10;}
	.st18{fill:none;stroke:#FFFFFF;stroke-width:3.9361;stroke-linecap:round;stroke-linejoin:round;stroke-miterlimit:10;}
	.st19{fill:none;stroke:#B5B5B5;stroke-width:3.9361;stroke-linecap:round;stroke-linejoin:round;stroke-miterlimit:10;}
	.st20{fill:none;stroke:#B5B5B5;stroke-width:3.3687;stroke-linecap:round;stroke-linejoin:round;stroke-miterlimit:10;}
	.st21{fill:none;stroke:#B5B5B5;stroke-width:4.046;stroke-linecap:round;stroke-linejoin:round;stroke-miterlimit:10;}
	.st22{fill:none;}
	.st23{fill:none;stroke:#000000;stroke-width:3.0507;stroke-linecap:round;stroke-linejoin:round;stroke-miterlimit:10;}
	.st24{fill:none;stroke:#FFFFFF;stroke-width:1.798;stroke-linecap:round;stroke-linejoin:round;stroke-miterlimit:10;}
	.st25{fill:none;stroke:#000000;stroke-width:2.8832;stroke-linecap:round;stroke-linejoin:round;stroke-miterlimit:10;}
	.st26{fill:none;stroke:#000000;stroke-linecap:round;stroke-linejoin:round;stroke-miterlimit:10;}
	.st27{fill:none;stroke:#000000;stroke-width:3.2879;stroke-linecap:round;stroke-linejoin:round;stroke-miterlimit:10;}
	.st28{fill:none;stroke:#000000;stroke-width:2.7451;stroke-miterlimit:10;}
	.st29{fill:none;stroke:#000000;stroke-width:3.7534;stroke-linecap:round;stroke-linejoin:round;stroke-miterlimit:10;}
	.st30{fill:none;stroke:#FFFFFF;stroke-width:0.9655;stroke-linecap:round;stroke-linejoin:round;stroke-miterlimit:10;}
	.st31{fill:none;stroke:#B5B5B5;stroke-width:3.6647;stroke-linecap:round;stroke-linejoin:round;stroke-miterlimit:10;}
	.st32{fill:none;stroke:#000000;stroke-width:3.6664;stroke-linecap:round;stroke-linejoin:round;stroke-miterlimit:10;}
</style>
<g class="st2">
	<g>
		<path class="st3" d="M28.2,56.2c-0.3,0-0.6-0.1-0.8-0.2c-0.6-0.3-1-0.9-1-1.6V35.7l-14.6,9.4c-0.9,0.5-2,0.3-2.5-0.6
			c-0.5-0.9-0.3-2,0.6-2.5l16.6-10.6V9.3c0-0.7,0.4-1.3,1-1.6c0.6-0.3,1.3-0.3,1.9,0.1l17.4,12c0.5,0.3,0.8,0.9,0.8,1.5
			c0,0.6-0.3,1.2-0.8,1.5L30,33.4v17.5l12.3-8.6c0.8-0.6,2-0.4,2.6,0.5c0.6,0.8,0.4,2-0.5,2.6L29.3,55.9
			C28.9,56.1,28.6,56.2,28.2,56.2z M30,12.7V29l12.3-7.9L30,12.7z"/>
	</g>
</g>
<g>
	<g>
		<path d="M55.3,56.7c-0.5,0-1-0.2-1.4-0.6l-47-45.5c-0.8-0.8-0.8-2,0-2.8s2-0.8,2.8,0l47,45.5c0.8,0.8,0.8,2,0,2.8
			C56.3,56.5,55.8,56.7,55.3,56.7z"/>
	</g>
</g>
</svg>
