<svg id="Layer_1" data-name="Layer 1" xmlns="http://www.w3.org/2000/svg" viewBox="0 0 64 64"><path d="M31.9,56.4l-.9-.2a1.9,1.9,0,0,1-.9-1.6V35.9L15.4,45.3a1.9,1.9,0,0,1-2.5-.5,1.9,1.9,0,0,1,.6-2.6L30.1,31.6v-.2L13.4,19.3a1.9,1.9,0,0,1-.4-2.6,1.8,1.8,0,0,1,2.5-.4L30.1,26.9V9.4A1.8,1.8,0,0,1,31,7.8a1.8,1.8,0,0,1,1.9.1l17.5,12a1.8,1.8,0,0,1,.8,1.5,1.6,1.6,0,0,1-.9,1.5L36.7,31.7,50.6,41.8a1.9,1.9,0,0,1,.8,1.5,1.7,1.7,0,0,1-.9,1.5L32.9,56.1A1.9,1.9,0,0,1,31.9,56.4Zm1.8-22.3V51.2l12.6-8Zm0-21.2V29.2L46,21.4Z"/><path d="M12.6,35.7A1.6,1.6,0,0,0,15,37l3.2-2,5.7-3.7-6.3-4.7-2.5-1.8A1.6,1.6,0,0,0,12.6,26Z"/></svg>