<?xml version="1.0" encoding="utf-8"?>
<!-- Generator: Adobe Illustrator 25.4.1, SVG Export Plug-In . SVG Version: 6.00 Build 0)  -->
<svg version="1.1" id="Layer_1" xmlns="http://www.w3.org/2000/svg" xmlns:xlink="http://www.w3.org/1999/xlink" x="0px" y="0px"
	 viewBox="0 0 64 64" style="enable-background:new 0 0 64 64;" xml:space="preserve">
<style type="text/css">
	.st0{fill:#FFFFFF;}
	.st1{clip-path:url(#SVGID_00000172435316489031858660000014334575019333403780_);}
	.st2{opacity:0.5;}
	.st3{fill:#B5B5B5;}
	.st4{fill:#B5B5B5;fill-opacity:0.5;}
	.st5{fill:none;stroke:#000000;stroke-width:3.9361;stroke-linecap:round;stroke-linejoin:round;stroke-miterlimit:10;}
	.st6{fill:none;stroke:#000000;stroke-width:4.046;stroke-linecap:round;stroke-linejoin:round;stroke-miterlimit:10;}
	.st7{stroke:#000000;stroke-width:0.8;stroke-miterlimit:10;}
	.st8{fill:#2E3436;}
	.st9{stroke:#000000;stroke-width:1.4;stroke-miterlimit:10;}
	.st10{fill:#929495;}
	.st11{opacity:0.915;fill:url(#SVGID_00000094583849224846422320000004894653858942312371_);enable-background:new    ;}
	.st12{opacity:0.542;fill:#A5A0A0;enable-background:new    ;}
	.st13{opacity:0.915;fill:url(#SVGID_00000027593262325137780320000006890616225763072165_);enable-background:new    ;}
	.st14{opacity:0.915;fill:url(#SVGID_00000150814353083487593770000010727314524173043077_);enable-background:new    ;}
	.st15{fill:none;stroke:#000000;stroke-width:2.1848;stroke-linecap:round;stroke-miterlimit:10;}
	.st16{fill:#593E3E;}
	.st17{fill:none;stroke:#000000;stroke-width:4.1037;stroke-linecap:round;stroke-linejoin:round;stroke-miterlimit:10;}
	.st18{fill:none;stroke:#FFFFFF;stroke-width:3.9361;stroke-linecap:round;stroke-linejoin:round;stroke-miterlimit:10;}
	.st19{fill:none;stroke:#B5B5B5;stroke-width:3.9361;stroke-linecap:round;stroke-linejoin:round;stroke-miterlimit:10;}
	.st20{fill:none;stroke:#B5B5B5;stroke-width:3.3687;stroke-linecap:round;stroke-linejoin:round;stroke-miterlimit:10;}
	.st21{fill:none;stroke:#B5B5B5;stroke-width:4.046;stroke-linecap:round;stroke-linejoin:round;stroke-miterlimit:10;}
	.st22{fill:none;}
	.st23{fill:none;stroke:#000000;stroke-width:3.0507;stroke-linecap:round;stroke-linejoin:round;stroke-miterlimit:10;}
	.st24{fill:none;stroke:#FFFFFF;stroke-width:1.798;stroke-linecap:round;stroke-linejoin:round;stroke-miterlimit:10;}
	.st25{fill:none;stroke:#000000;stroke-width:2.8832;stroke-linecap:round;stroke-linejoin:round;stroke-miterlimit:10;}
	.st26{fill:none;stroke:#000000;stroke-linecap:round;stroke-linejoin:round;stroke-miterlimit:10;}
	.st27{fill:none;stroke:#000000;stroke-width:3.2879;stroke-linecap:round;stroke-linejoin:round;stroke-miterlimit:10;}
	.st28{fill:none;stroke:#000000;stroke-width:2.7451;stroke-miterlimit:10;}
	.st29{fill:none;stroke:#000000;stroke-width:3.7534;stroke-linecap:round;stroke-linejoin:round;stroke-miterlimit:10;}
	.st30{fill:none;stroke:#FFFFFF;stroke-width:0.9655;stroke-linecap:round;stroke-linejoin:round;stroke-miterlimit:10;}
	.st31{fill:none;stroke:#B5B5B5;stroke-width:3.6647;stroke-linecap:round;stroke-linejoin:round;stroke-miterlimit:10;}
	.st32{fill:none;stroke:#000000;stroke-width:3.6664;stroke-linecap:round;stroke-linejoin:round;stroke-miterlimit:10;}
</style>
<g>
	<g>
		<path d="M31.9,56.4c-0.3,0-0.6-0.1-0.9-0.2c-0.6-0.3-1-0.9-1-1.6V35.9l-14.6,9.4c-0.9,0.5-2,0.3-2.5-0.6c-0.5-0.9-0.3-2,0.6-2.5
			l16.6-10.6v-0.2L13.4,19.3c-0.8-0.6-1-1.7-0.4-2.6c0.6-0.8,1.7-1,2.6-0.4l14.5,10.6V9.4c0-0.7,0.4-1.3,1-1.6
			c0.6-0.3,1.3-0.3,1.9,0.1l17.4,12c0.5,0.3,0.8,0.9,0.8,1.5c0,0.6-0.3,1.2-0.8,1.5l-13.6,8.7l13.9,10.1c0.5,0.4,0.8,0.9,0.8,1.5
			c0,0.6-0.3,1.2-0.8,1.5L32.9,56.1C32.6,56.3,32.2,56.4,31.9,56.4z M33.7,34.1v17.1l12.6-8L33.7,34.1z M33.7,12.9v16.3L46,21.4
			L33.7,12.9z"/>
	</g>
</g>
</svg>
