<svg id="Layer_1" data-name="Layer 1" xmlns="http://www.w3.org/2000/svg" viewBox="0 0 64 64"><defs><style>.cls-1{opacity:0.5;}.cls-2{fill:#b5b5b5;}</style></defs><g class="cls-1"><rect class="cls-2" x="17.5" y="14.7" width="28.9" height="36.5" rx="3.4"/></g><path d="M53.7,14.1A6.8,6.8,0,0,0,47,7.4H17a6.8,6.8,0,0,0-6.7,6.7V51.7A6.7,6.7,0,0,0,17,58.4H47a6.7,6.7,0,0,0,6.7-6.7ZM49.8,51.7A2.9,2.9,0,0,1,47,54.5H17a2.9,2.9,0,0,1-2.8-2.8V14.1A2.8,2.8,0,0,1,17,11.4H47a2.8,2.8,0,0,1,2.8,2.7Z"/><path d="M37,9H27a1.9,1.9,0,0,1-1.9-2A1.8,1.8,0,0,1,27,5.1H37A1.8,1.8,0,0,1,38.9,7,1.9,1.9,0,0,1,37,9Z"/><path d="M30.3,45.8H24.9a2,2,0,1,1,0-4h5.4a2,2,0,0,1,0,4Z"/><path d="M39.2,34.9H24.9a2,2,0,0,1-2-2,1.9,1.9,0,0,1,2-1.9H39.2a1.9,1.9,0,0,1,2,1.9A2,2,0,0,1,39.2,34.9Z"/><path d="M39.2,24H24.9a2,2,0,1,1,0-3.9H39.2a2,2,0,1,1,0,3.9Z"/></svg>