<?xml version="1.0" encoding="utf-8"?>
<!-- Generator: Adobe Illustrator 25.4.1, SVG Export Plug-In . SVG Version: 6.00 Build 0)  -->
<svg version="1.1" id="Layer_1" xmlns="http://www.w3.org/2000/svg" xmlns:xlink="http://www.w3.org/1999/xlink" x="0px" y="0px"
	 viewBox="0 0 64 64" style="enable-background:new 0 0 64 64;" xml:space="preserve">
<style type="text/css">
	.st0{fill:#FFFFFF;}
	.st1{clip-path:url(#SVGID_00000028309669302831593520000014050310466746930818_);}
	.st2{opacity:0.5;}
	.st3{fill:#B5B5B5;}
	.st4{fill:#B5B5B5;fill-opacity:0.5;}
	.st5{fill:none;stroke:#000000;stroke-width:3.9361;stroke-linecap:round;stroke-linejoin:round;stroke-miterlimit:10;}
	.st6{fill:none;stroke:#000000;stroke-width:4.046;stroke-linecap:round;stroke-linejoin:round;stroke-miterlimit:10;}
	.st7{stroke:#000000;stroke-width:0.8;stroke-miterlimit:10;}
	.st8{fill:#2E3436;}
	.st9{stroke:#000000;stroke-width:1.4;stroke-miterlimit:10;}
	.st10{fill:#929495;}
	.st11{opacity:0.915;fill:url(#SVGID_00000085248889012276244600000011928356091727969413_);enable-background:new    ;}
	.st12{opacity:0.542;fill:#A5A0A0;enable-background:new    ;}
	.st13{opacity:0.915;fill:url(#SVGID_00000101082015478475681230000013613378220320809642_);enable-background:new    ;}
	.st14{opacity:0.915;fill:url(#SVGID_00000085956092472805731630000013697076662287300997_);enable-background:new    ;}
	.st15{fill:none;stroke:#000000;stroke-width:2.1848;stroke-linecap:round;stroke-miterlimit:10;}
	.st16{fill:#593E3E;}
	.st17{fill:none;stroke:#000000;stroke-width:4.1037;stroke-linecap:round;stroke-linejoin:round;stroke-miterlimit:10;}
	.st18{fill:none;stroke:#FFFFFF;stroke-width:3.9361;stroke-linecap:round;stroke-linejoin:round;stroke-miterlimit:10;}
	.st19{fill:none;stroke:#B5B5B5;stroke-width:3.9361;stroke-linecap:round;stroke-linejoin:round;stroke-miterlimit:10;}
	.st20{fill:none;stroke:#B5B5B5;stroke-width:3.3687;stroke-linecap:round;stroke-linejoin:round;stroke-miterlimit:10;}
	.st21{fill:none;stroke:#B5B5B5;stroke-width:4.046;stroke-linecap:round;stroke-linejoin:round;stroke-miterlimit:10;}
	.st22{fill:none;}
	.st23{fill:none;stroke:#000000;stroke-width:3.0507;stroke-linecap:round;stroke-linejoin:round;stroke-miterlimit:10;}
	.st24{fill:none;stroke:#FFFFFF;stroke-width:1.798;stroke-linecap:round;stroke-linejoin:round;stroke-miterlimit:10;}
	.st25{fill:none;stroke:#000000;stroke-width:2.8832;stroke-linecap:round;stroke-linejoin:round;stroke-miterlimit:10;}
	.st26{fill:none;stroke:#000000;stroke-linecap:round;stroke-linejoin:round;stroke-miterlimit:10;}
	.st27{fill:none;stroke:#000000;stroke-width:3.2879;stroke-linecap:round;stroke-linejoin:round;stroke-miterlimit:10;}
	.st28{fill:none;stroke:#000000;stroke-width:2.7451;stroke-miterlimit:10;}
	.st29{fill:none;stroke:#000000;stroke-width:3.7534;stroke-linecap:round;stroke-linejoin:round;stroke-miterlimit:10;}
	.st30{fill:none;stroke:#FFFFFF;stroke-width:0.9655;stroke-linecap:round;stroke-linejoin:round;stroke-miterlimit:10;}
	.st31{fill:none;stroke:#B5B5B5;stroke-width:3.6647;stroke-linecap:round;stroke-linejoin:round;stroke-miterlimit:10;}
	.st32{fill:none;stroke:#000000;stroke-width:3.6664;stroke-linecap:round;stroke-linejoin:round;stroke-miterlimit:10;}
	.st33{fill:#45F2FF;}
	.st34{opacity:0.5;fill:#B5B5B5;}
</style>
<g class="st2">
	<g>
		<path class="st3" d="M32,41.6c-7,0-12.7-5.7-12.7-12.7v-11c0-7,5.7-12.7,12.7-12.7s12.7,5.7,12.7,12.7v11
			C44.7,35.9,39,41.6,32,41.6z M32,9.1c-4.8,0-8.8,3.9-8.8,8.8v11c0,4.8,3.9,8.8,8.8,8.8s8.8-3.9,8.8-8.8v-11
			C40.8,13,36.8,9.1,32,9.1z"/>
	</g>
</g>
<path class="st34" d="M52.8,31.2c-1-0.3-2.1,0.3-2.4,1.3c-2.4,8-9.9,13.7-18.3,13.7s-15.9-5.6-18.3-13.7c-0.3-1-1.4-1.6-2.4-1.3
	c-1,0.3-1.6,1.4-1.3,2.4C12.6,42.7,20.7,49.2,30,50v4.8h-4.4c-1.1,0-2,0.9-2,2s0.9,2,2,2h12.7c1.1,0,2-0.9,2-2s-0.9-2-2-2H34V50
	c9.3-0.8,17.4-7.3,20.1-16.4C54.4,32.6,53.8,31.5,52.8,31.2z"/>
<path class="st34" d="M37.3,28.9v-11c0-2.9-2.4-5.3-5.3-5.3s-5.3,2.4-5.3,5.3v11c0,2.9,2.4,5.3,5.3,5.3S37.3,31.8,37.3,28.9z"/>
<g>
	<g>
		<path d="M55.5,56.7c-0.5,0-1-0.2-1.4-0.6l-47-45.5c-0.8-0.8-0.8-2,0-2.8c0.8-0.8,2-0.8,2.8,0l47,45.5c0.8,0.8,0.8,2,0,2.8
			C56.5,56.5,56,56.7,55.5,56.7z"/>
	</g>
</g>
</svg>
