<svg id="Layer_1" data-name="Layer 1" xmlns="http://www.w3.org/2000/svg" viewBox="0 0 64 64"><defs><style>.cls-1{opacity:0.5;}.cls-2{fill:#b5b5b5;}</style></defs><g class="cls-1"><path class="cls-2" d="M32.1,54.8h0A8,8,0,0,0,38.6,51H25.4A7.9,7.9,0,0,0,32.1,54.8Z"/></g><g class="cls-1"><path class="cls-2" d="M43.8,29.2V27.5a30.9,30.9,0,0,0-.1-4.3,11.5,11.5,0,0,0-5-8.5A12.3,12.3,0,0,0,32,12.6a10.6,10.6,0,0,0-3.1.5,11.9,11.9,0,0,0-8.8,11.4v1.8c0,3.6,0,7.3.1,11a11.4,11.4,0,0,1-2,6.5H45.8a11.3,11.3,0,0,1-2-6.4Z"/></g><path d="M8.7,44.9A5.4,5.4,0,0,0,8.2,46a3.9,3.9,0,0,0,.5,3.5,4,4,0,0,0,3.2,1.6H22.5l.2.6a9.6,9.6,0,0,0,8.9,7H32a9.9,9.9,0,0,0,9.3-7v-.6H52.1a3.9,3.9,0,0,0,3.2-6.2l-3.4-4.8a4.7,4.7,0,0,1-.8-2.6V24.7a20,20,0,0,0-.5-4.5A18.8,18.8,0,0,0,40.5,7.3a19.3,19.3,0,0,0-8.5-2,17.8,17.8,0,0,0-7.5,1.6C17,10.2,13.1,16.1,12.9,24.4c-.1,3.2-.1,6.3,0,9.4v3.8a4.1,4.1,0,0,1-.8,2.4Zm28,7.3A6.3,6.3,0,0,1,32,54.8a5.6,5.6,0,0,1-4.7-2.6L26.5,51h11ZM13,45.7l2.3-3.3a8,8,0,0,0,1.5-5V24.5A15.2,15.2,0,0,1,28,9.8a13.3,13.3,0,0,1,4-.5,15.5,15.5,0,0,1,8.6,2.6A15.2,15.2,0,0,1,47,22.8a37,37,0,0,1,.2,4.7h-.1v1.7c.1,3.2.1,5.9,0,8.3a8.1,8.1,0,0,0,1.5,4.8L50.5,45,52,47.2H12Z"/></svg>