<svg id="Layer_1" data-name="Layer 1" xmlns="http://www.w3.org/2000/svg" viewBox="0 0 64 64"><defs><style>.cls-1,.cls-3{fill:#b5b5b5;}.cls-1{fill-opacity:0.5;}.cls-2{opacity:0.5;}</style></defs><path d="M46.2,5.2a7.6,7.6,0,0,0-7.3,4.9,6.2,6.2,0,0,0-.7,3.1,8.1,8.1,0,0,0,8,8.1,9,9,0,0,0,5.9-2.4,7.8,7.8,0,0,0,2.2-5.7A8.1,8.1,0,0,0,46.2,5.2Z"/><path class="cls-1" d="M32.1,54.8h0A8,8,0,0,0,38.6,51H25.4A7.9,7.9,0,0,0,32.1,54.8Z"/><g class="cls-2"><path class="cls-3" d="M36.8,13.7A11.3,11.3,0,0,0,32,12.6a10.6,10.6,0,0,0-3.1.5,11.9,11.9,0,0,0-8.8,11.4v1.8c0,3.6,0,7.3.1,11a11.4,11.4,0,0,1-2,6.5H45.8a11.3,11.3,0,0,1-2-6.4V27.5a30.9,30.9,0,0,0-.1-4.3c0-.3-.1-.7-.1-1A9.4,9.4,0,0,1,36.8,13.7Z"/></g><path d="M55.3,44.9l-3.4-4.8a4.7,4.7,0,0,1-.8-2.6V24.7a17.9,17.9,0,0,0-.3-3.4A10.5,10.5,0,0,1,47,22.5v.3a37,37,0,0,1,.2,4.7h-.1v1.7c.1,3.2.1,5.9,0,8.3a8.1,8.1,0,0,0,1.5,4.8L50.5,45,52,47.2H12l1-1.5,2.3-3.3a8,8,0,0,0,1.5-5V24.5A15.2,15.2,0,0,1,28,9.8a13.3,13.3,0,0,1,4-.5,14,14,0,0,1,5.4,1l.3-.7a8.8,8.8,0,0,1,1.7-2.8A18.8,18.8,0,0,0,32,5.3a17.8,17.8,0,0,0-7.5,1.6C17,10.2,13.1,16.1,12.9,24.4c-.1,3.2-.1,6.3,0,9.4v3.8a4.1,4.1,0,0,1-.8,2.4L8.7,44.9A5.4,5.4,0,0,0,8.2,46a3.9,3.9,0,0,0,.5,3.5,4,4,0,0,0,3.2,1.6H22.5l.2.6a9.6,9.6,0,0,0,8.9,7H32a9.9,9.9,0,0,0,9.3-7v-.6H52.1a3.9,3.9,0,0,0,3.2-6.2ZM36.7,52.2A6.3,6.3,0,0,1,32,54.8a5.6,5.6,0,0,1-4.7-2.6L26.5,51h11Z"/></svg>