<svg id="Layer_1" data-name="Layer 1" xmlns="http://www.w3.org/2000/svg" viewBox="0 0 64 64"><defs><style>.cls-1{opacity:0.5;}.cls-2{fill:#b5b5b5;}</style></defs><g class="cls-1"><path class="cls-2" d="M10.3,44.8A3.4,3.4,0,0,0,9.7,46a3.9,3.9,0,0,0,.5,3.5,4,4,0,0,0,3.2,1.6H24.1v.6a9.9,9.9,0,0,0,8.9,7h.4a9.9,9.9,0,0,0,9.3-7l.2-.6H53.6a3.7,3.7,0,0,0,3.5-2.2,3.6,3.6,0,0,0-.3-4l-3.4-4.8a4.7,4.7,0,0,1-.8-2.6V35.6c0-3.6.1-7.3,0-11a21.4,21.4,0,0,0-.5-4.5,19,19,0,0,0-10-12.8,19.7,19.7,0,0,0-8.6-2A17.8,17.8,0,0,0,26,6.9c-7.5,3.3-11.3,9.2-11.6,17.5-.1,3.1,0,6.3,0,9.4v3.8a4,4,0,0,1-.7,2.4Zm27.9,7.4a5.7,5.7,0,0,1-4.7,2.5,5.9,5.9,0,0,1-4.7-2.5L28,51H39ZM14.5,45.6c.8-1.1,1.5-2.2,2.3-3.2a8.1,8.1,0,0,0,1.6-5c-.1-3.5-.1-6.8,0-10.8V24.4A14.9,14.9,0,0,1,29.5,9.8a13.9,13.9,0,0,1,4-.6,15.6,15.6,0,0,1,8.6,2.7,14.7,14.7,0,0,1,6.4,10.9,35.4,35.4,0,0,1,.2,4.6h0v10a7.7,7.7,0,0,0,1.4,4.8L52,44.9l1.5,2.2h-40Z"/></g><path d="M55.5,56.7a2.4,2.4,0,0,1-1.4-.5L7.1,10.7A2,2,0,0,1,9.9,7.8l47,45.5a2,2,0,0,1,0,2.8A2,2,0,0,1,55.5,56.7Z"/></svg>