<svg id="Layer_1" data-name="Layer 1" xmlns="http://www.w3.org/2000/svg" viewBox="0 0 64 64"><defs><style>.cls-1{opacity:0.5;}.cls-2{fill:#b5b5b5;}</style></defs><path d="M59.7,58.7H4.3a2,2,0,1,1,0-4H59.7a2,2,0,0,1,0,4Z"/><path d="M52.1,46H11.9a5.6,5.6,0,0,1-5.7-5.7V11a5.6,5.6,0,0,1,5.7-5.7H52.1A5.6,5.6,0,0,1,57.8,11V40.3A5.6,5.6,0,0,1,52.1,46ZM11.9,9.3A1.8,1.8,0,0,0,10.2,11V40.3A1.8,1.8,0,0,0,11.9,42H52.1a1.8,1.8,0,0,0,1.7-1.7V11a1.8,1.8,0,0,0-1.7-1.7Z"/><g class="cls-1"><path class="cls-2" d="M49.3,12.6H14.5a1,1,0,0,0-1,1v24a1,1,0,0,0,1,1H49.3a1.2,1.2,0,0,0,1.2-1.2V13.8A1.2,1.2,0,0,0,49.3,12.6Z"/></g><path class="cls-2" d="M13.5,35.4v2.3a1.1,1.1,0,0,0,1,1H49.3a1.2,1.2,0,0,0,1.2-1.3v-2Z"/><rect class="cls-2" x="14.9" y="16.6" width="4.1" height="4.03" rx="0.3"/><rect class="cls-2" x="14.9" y="21.8" width="4.1" height="4.03" rx="0.3"/><rect class="cls-2" x="14.9" y="27.4" width="4.1" height="4.03" rx="0.3"/></svg>