<svg id="Layer_1" data-name="Layer 1" xmlns="http://www.w3.org/2000/svg" viewBox="0 0 64 64"><defs><style>.cls-1{fill:#2e3436;}.cls-2{fill:#929495;}</style></defs><path class="cls-1" d="M54.7,50.6H9.3a6.1,6.1,0,0,1-6.1-6.2v-33A6.1,6.1,0,0,1,9.3,5.2H24.8a1.9,1.9,0,0,1,1.9,1.9,1.9,1.9,0,0,1-1.9,2H9.3a2.2,2.2,0,0,0-2.2,2.3v33a2.2,2.2,0,0,0,2.2,2.2H54.7a2.2,2.2,0,0,0,2.2-2.2V34.9a2,2,0,0,1,2-2,1.9,1.9,0,0,1,1.9,2v9.5A6.1,6.1,0,0,1,54.7,50.6Z"/><path class="cls-1" d="M45.3,58.7H18.7a1.9,1.9,0,0,1-1.9-2,1.9,1.9,0,0,1,1.9-1.9H45.3a1.9,1.9,0,0,1,1.9,1.9A1.9,1.9,0,0,1,45.3,58.7Z"/><rect class="cls-2" x="10.5" y="12.8" width="43.3" height="30.35" rx="2"/><path class="cls-1" d="M43.8,41.5a2,2,0,0,1-2-2V8a2,2,0,0,1,4,0V39.5A2,2,0,0,1,43.8,41.5Z"/><path class="cls-1" d="M58.9,24.2a2,2,0,0,1-1.4-.6L43.8,9.9,30.1,23.6a1.9,1.9,0,0,1-2.8,0,2.1,2.1,0,0,1,0-2.8l15.1-15a2,2,0,0,1,1.4-.6h0a2,2,0,0,1,1.4.6l15.1,15a2.1,2.1,0,0,1,0,2.8A2,2,0,0,1,58.9,24.2Z"/></svg>