<?xml version="1.0" encoding="UTF-8" standalone="no"?>
<svg
   xmlns:dc="http://purl.org/dc/elements/1.1/"
   xmlns:cc="http://creativecommons.org/ns#"
   xmlns:rdf="http://www.w3.org/1999/02/22-rdf-syntax-ns#"
   xmlns:svg="http://www.w3.org/2000/svg"
   xmlns="http://www.w3.org/2000/svg"
   xmlns:sodipodi="http://sodipodi.sourceforge.net/DTD/sodipodi-0.dtd"
   xmlns:inkscape="http://www.inkscape.org/namespaces/inkscape"
   width="64"
   height="64"
   version="1.1"
   id="svg4"
   sodipodi:docname="starred-symbolic.svg"
   inkscape:version="1.0.2 (e86c870879, 2021-01-15)">
  <metadata
     id="metadata10">
    <rdf:RDF>
      <cc:Work
         rdf:about="">
        <dc:format>image/svg+xml</dc:format>
        <dc:type
           rdf:resource="http://purl.org/dc/dcmitype/StillImage" />
        <dc:title></dc:title>
      </cc:Work>
    </rdf:RDF>
  </metadata>
  <defs
     id="defs8" />
  <sodipodi:namedview
     pagecolor="#ffffff"
     bordercolor="#666666"
     borderopacity="1"
     objecttolerance="10"
     gridtolerance="10"
     guidetolerance="10"
     inkscape:pageopacity="0"
     inkscape:pageshadow="2"
     inkscape:window-width="1920"
     inkscape:window-height="1004"
     id="namedview6"
     showgrid="false"
     inkscape:zoom="9.4023105"
     inkscape:cx="24.150482"
     inkscape:cy="27.659998"
     inkscape:window-x="0"
     inkscape:window-y="0"
     inkscape:window-maximized="1"
     inkscape:current-layer="svg4"
     inkscape:document-rotation="0" />
  <path
     d="m 32.064301,5.0813686 c -4,-0.016 -6.252,14.1599994 -9.5,16.4999994 -3.248,2.336 -17.3759988,-0.052 -18.6239988,3.748 -1.252,3.8 11.5279988,10.312001 12.7479988,14.124001 1.22,3.812 -5.351999,16.512 -2.124,18.876 3.228,2.364 13.372,-7.768 17.376,-7.752 4.000001,0.02 14.000001,10.34 17.248001,8 3.248,-2.336 -3.252,-15.2 -2,-19 1.252,-3.8 14.096,-10.188001 12.876,-14.000001 -1.22,-3.808 -15.4,-1.508 -18.624,-3.872 -3.228,-2.364 -5.376,-16.6159994 -9.376001,-16.6279994 z m 4.000001,25.2479994 -16.000001,8.000001 16.000001,-8.000001 h 8 -8 v 8.000001 0 l -8.000001,8 8.000001,-8 -8.000001,-8.000001 h -8 l 16.000001,8.000001 z"
     style="stroke-width:4;marker:none"
     color="#000000"
     overflow="visible"
     fill="#474747"
     id="path2"
     sodipodi:nodetypes="cccssccsccccccccccccccccc" />
</svg>
