<?xml version="1.0" encoding="utf-8"?>
<!-- Generator: Adobe Illustrator 25.2.1, SVG Export Plug-In . SVG Version: 6.00 Build 0)  -->
<svg version="1.1" id="Layer_1" xmlns="http://www.w3.org/2000/svg" xmlns:xlink="http://www.w3.org/1999/xlink" x="0px" y="0px"
	 viewBox="0 0 64 64" style="enable-background:new 0 0 64 64;" xml:space="preserve">
<style type="text/css">
	.st0{fill:url(#SVGID_1_);}
	.st1{fill:url(#SVGID_2_);}
	.st2{fill:url(#SVGID_3_);}
	.st3{fill:url(#SVGID_4_);}
</style>
<g>
	
		<linearGradient id="SVGID_1_" gradientUnits="userSpaceOnUse" x1="32.4472" y1="47.8999" x2="32.2749" y2="61.6441" gradientTransform="matrix(1 0 0 1 0 -0.11)">
		<stop  offset="0" style="stop-color:#454655"/>
		<stop  offset="0.1243" style="stop-color:#3D3E48"/>
		<stop  offset="0.3313" style="stop-color:#353539"/>
		<stop  offset="0.5829" style="stop-color:#313132"/>
		<stop  offset="1" style="stop-color:#2E2F2F"/>
	</linearGradient>
	<path class="st0" d="M39.8,47.6c-0.1-0.1-0.5-0.4-0.7-0.5C38.7,47,38.6,47,38.3,47H26.1c-1.2,0-2.2,1-2.2,2.2V59h8.5h8.5v-9.8
		C40.5,48.7,40.2,48,39.8,47.6z"/>
	<linearGradient id="SVGID_2_" gradientUnits="userSpaceOnUse" x1="31.5567" y1="41.4331" x2="32.7974" y2="-2.7663">
		<stop  offset="0" style="stop-color:#A9DBE9"/>
		<stop  offset="1" style="stop-color:#DBEFF5"/>
	</linearGradient>
	<path class="st1" d="M57.9,2.6H50H33.6H6.1C2.7,2.6,0,5.3,0,8.8v33.8l0.1,0h33.5H50h13.9l0.1,0V8.8C64,5.3,61.3,2.6,57.9,2.6z"/>
	<g>
		<linearGradient id="SVGID_3_" gradientUnits="userSpaceOnUse" x1="32.0857" y1="62.6625" x2="32.1961" y2="52.1704">
			<stop  offset="0" style="stop-color:#2E2F2F"/>
			<stop  offset="1" style="stop-color:#454655"/>
		</linearGradient>
		<path class="st2" d="M45.4,57.1C45.2,57,44.9,57,44.5,57H32.1H19.7c-1.2,0-2.2,1-2.2,2.2c0,1.2,1,2.2,2.2,2.2h12.4h12.4
			c1.2,0,2.2-1,2.2-2.2C46.7,58.2,46,57.3,45.4,57.1z"/>
		<linearGradient id="SVGID_4_" gradientUnits="userSpaceOnUse" x1="31.8795" y1="54.7603" x2="32.1451" y2="29.5216">
			<stop  offset="0" style="stop-color:#2E2F2F"/>
			<stop  offset="1" style="stop-color:#454655"/>
		</linearGradient>
		<path class="st3" d="M0,41v1.1v1.9v1.5c0,3.4,2.7,6.1,6.1,6.1H32h25.9c3.4,0,6.1-2.7,6.1-6.1v-1.5v-1.8V41H0z"/>
	</g>
</g>
</svg>
