<?xml version="1.0" encoding="utf-8"?>
<!-- Generator: Adobe Illustrator 25.2.1, SVG Export Plug-In . SVG Version: 6.00 Build 0)  -->
<svg version="1.1" id="Layer_1" xmlns="http://www.w3.org/2000/svg" xmlns:xlink="http://www.w3.org/1999/xlink" x="0px" y="0px"
	 viewBox="0 0 16 16" style="enable-background:new 0 0 16 16;" xml:space="preserve">
<path d="M8.8,6.9V3.6c0-0.4-0.3-0.8-0.8-0.8c-0.4,0-0.8,0.3-0.8,0.8v3.6c0,0.2,0.1,0.3,0.2,0.6L9.6,10c0.3,0.3,0.8,0.2,1,0
	c0.2-0.3,0.2-0.8,0-1L8.8,6.9z"/>
<path d="M15.8,11c-0.2-0.2-0.6-0.2-0.8,0l-1.6,1.6L11.8,11c-0.2-0.2-0.6-0.2-0.8,0c-0.2,0.2-0.2,0.6,0,0.8l1.6,1.6L11,15
	c-0.2,0.2-0.2,0.6,0,0.8c0.2,0.2,0.6,0.2,0.8,0c0,0,0,0,0,0l1.6-1.6l1.6,1.6c0.2,0.2,0.6,0.2,0.8,0c0.2-0.2,0.2-0.6,0-0.8l-1.6-1.6
	l1.6-1.6C16.1,11.6,16.1,11.2,15.8,11z"/>
<path d="M8,14.6c-3.7,0-6.7-3-6.7-6.7s3-6.7,6.7-6.7s6.7,3,6.7,6.7c0,0.4,0.3,0.7,0.7,0.7c0.4,0,0.7-0.3,0.7-0.7c0-4.4-3.6-8-8-8
	s-8,3.6-8,8s3.6,8,8,8c0.4,0,0.7-0.3,0.7-0.7C8.7,14.9,8.4,14.6,8,14.6z"/>
</svg>
