<?xml version="1.0" encoding="utf-8"?>
<!-- Generator: Adobe Illustrator 25.2.1, SVG Export Plug-In . SVG Version: 6.00 Build 0)  -->
<svg version="1.1" id="Layer_1" xmlns="http://www.w3.org/2000/svg" xmlns:xlink="http://www.w3.org/1999/xlink" x="0px" y="0px"
	 viewBox="0 0 16 16" style="enable-background:new 0 0 16 16;" xml:space="preserve">
<style type="text/css">
	.st0{fill:#B5B5B5;fill-opacity:0.5;}
</style>
<path d="M13.2,8.6c0-0.3-0.2-0.5-0.5-0.5s-0.5,0.2-0.5,0.5c0,2.3-1.9,4.2-4.2,4.2s-4.2-1.9-4.2-4.2c0-0.3-0.2-0.5-0.5-0.5
	S2.8,8.3,2.8,8.6c0,2.7,2.1,4.9,4.7,5.2V15H5.8c-0.3,0-0.5,0.2-0.5,0.5S5.5,16,5.8,16h4.5c0.3,0,0.5-0.2,0.5-0.5S10.5,15,10.2,15
	H8.5v-1.3C11.1,13.5,13.2,11.3,13.2,8.6z"/>
<path d="M8,11.7c1.7,0,3.1-1.4,3.1-3.1V3.1C11.1,1.4,9.7,0,8,0S4.9,1.4,4.9,3.1v5.5C4.9,10.3,6.3,11.7,8,11.7z M5.9,3.1
	C5.9,1.9,6.8,1,8,1s2.1,0.9,2.1,2.1v5.5c0,1.2-0.9,2.1-2.1,2.1S5.9,9.8,5.9,8.6V3.1z"/>
<path class="st0" d="M6.1,3.2c0-1.1,0.9-2,1.9-2s1.9,0.9,1.9,2v5.3c0,1.1-0.9,2-1.9,2s-1.9-0.9-1.9-2V3.2z"/>
</svg>
