<?xml version="1.0" encoding="utf-8"?>
<!-- Generator: Adobe Illustrator 25.2.1, SVG Export Plug-In . SVG Version: 6.00 Build 0)  -->
<svg version="1.1" id="Layer_1" xmlns="http://www.w3.org/2000/svg" xmlns:xlink="http://www.w3.org/1999/xlink" x="0px" y="0px"
	 viewBox="0 0 16 16" style="enable-background:new 0 0 16 16;" xml:space="preserve">
<style type="text/css">
	.st0{fill:#B5B5B5;fill-opacity:0.5;}
	.st1{fill-rule:evenodd;clip-rule:evenodd;}
</style>
<path d="M13.4,8.6c0-0.3-0.2-0.5-0.5-0.5s-0.5,0.2-0.5,0.5c0,2.3-1.9,4.2-4.2,4.2S4,10.9,4,8.6c0-0.3-0.2-0.5-0.5-0.5S3,8.3,3,8.6
	c0,2.7,2.1,4.9,4.7,5.2V15H5.9c-0.3,0-0.5,0.2-0.5,0.5S5.7,16,5.9,16h4.5c0.3,0,0.5-0.2,0.5-0.5S10.7,15,10.4,15H8.6v-1.3
	C11.3,13.5,13.4,11.3,13.4,8.6z"/>
<path d="M8.2,11.7c1.7,0,3.1-1.4,3.1-3.1V3.1C11.2,1.4,9.8,0,8.2,0C6.5,0,5.1,1.4,5.1,3.1v5.5C5.1,10.3,6.5,11.7,8.2,11.7z M6.1,3.1
	C6.1,1.9,7,1,8.2,1s2.1,0.9,2.1,2.1v5.5c0,1.2-0.9,2.1-2.1,2.1S6.1,9.8,6.1,8.6V3.1z"/>
<path class="st0" d="M6.3,3.2c0-1.1,0.9-2,1.9-2s1.9,0.9,1.9,2v5.3c0,1.1-0.9,2-1.9,2s-1.9-0.9-1.9-2V3.2z"/>
<path class="st1" d="M15,14.8L15,14.8c-0.2,0.2-0.5,0.2-0.7,0.1l-13-13c-0.2-0.2-0.2-0.4,0-0.6l0.1-0.1C1.6,1,1.8,1,2,1.2l13,13
	C15.2,14.3,15.2,14.6,15,14.8z"/>
</svg>
