<?xml version="1.0" encoding="utf-8"?>
<!-- Generator: Adobe Illustrator 25.2.1, SVG Export Plug-In . SVG Version: 6.00 Build 0)  -->
<svg version="1.1" id="Layer_1" xmlns="http://www.w3.org/2000/svg" xmlns:xlink="http://www.w3.org/1999/xlink" x="0px" y="0px"
	 viewBox="0 0 16 16" style="enable-background:new 0 0 16 16;" xml:space="preserve">
<style type="text/css">
	.st0{fill:#B5B5B5;fill-opacity:0.5;}
</style>
<g>
	<path class="st0" d="M4.5,9.9V15v-0.9c0,0.2,0.2,0.3,0.6,0.3h5.7c0.3,0,0.6-0.1,0.6-0.3v1V10c0-0.2-0.2-0.3-0.6-0.3H5
		C4.7,9.7,4.5,9.7,4.5,9.9z"/>
	<path d="M5,1.1v0.2H4.8C3.8,1.3,3,2.1,3,3.1v11c0,1,0.8,1.8,1.8,1.8H8h3.2c1,0,1.8-0.8,1.8-1.8v-11c0-1-0.8-1.8-1.8-1.8H11V1.1
		C11,0.5,10.5,0,9.9,0H8.1H6.2C5.5,0,5,0.5,5,1.1z M8,0.9h1.8C9.9,0.9,10,1,10,1.1v0.7c0,0.3,0.2,0.5,0.5,0.5h0.7
		c0.5,0,0.8,0.4,0.8,0.8v11c0,0.5-0.4,0.8-0.8,0.8H8H4.8C4.4,15,4,14.6,4,14.2v-11c0-0.5,0.4-0.8,0.8-0.8h0.7C5.8,2.3,6,2.1,6,1.8
		V1.1C6,1,6.1,0.9,6.2,0.9H8z"/>
	<path d="M7.3,7.2c-0.1,0-0.1,0.1-0.1,0.2v0.7L5.7,7.9C5.6,7.9,5.5,8,5.4,8.1c-0.1,0.1,0,0.2,0.1,0.3L8,10.1c0.1,0.1,0.2,0.1,0.3,0
		C8.4,10,8.4,9.9,8.4,9.8V9.2l1.7,0.2c0.1,0,0.2-0.1,0.3-0.1V9.2c0-0.1-0.1-0.1-0.1-0.1l-0.1-0.1L7.5,7.2C7.5,7.2,7.4,7.2,7.3,7.2z"
		/>
</g>
</svg>
