<?xml version="1.0" encoding="utf-8"?>
<!-- Generator: Adobe Illustrator 25.2.1, SVG Export Plug-In . SVG Version: 6.00 Build 0)  -->
<svg version="1.1" id="Layer_1" xmlns="http://www.w3.org/2000/svg" xmlns:xlink="http://www.w3.org/1999/xlink" x="0px" y="0px"
	 viewBox="0 0 16 16" style="enable-background:new 0 0 16 16;" xml:space="preserve">
<style type="text/css">
	.st0{fill:#B5B5B5;fill-opacity:0.5;}
</style>
<g>
	<path class="st0" d="M4.8,3.2v11.9v-0.9c0,0.2,0.2,0.3,0.6,0.3h5.7c0.3,0,0.6-0.1,0.6-0.3v1V3.3c0-0.2-0.2-0.3-0.6-0.3H5.3
		C5,3,4.8,3,4.8,3.2z"/>
	<path d="M5.3,1.1v0.2H5.1c-1,0-1.8,0.8-1.8,1.8v11.1c0,1,0.8,1.8,1.8,1.8h3.2h3.2c1,0,1.8-0.8,1.8-1.8V3.1c0-1-0.8-1.8-1.8-1.8
		h-0.2V1.1c0-0.6-0.5-1.1-1.1-1.1H8.4H6.5C5.8,0,5.3,0.5,5.3,1.1z M8.3,0.9h1.8c0.1,0,0.2,0.1,0.2,0.2v0.7c0,0.3,0.2,0.5,0.5,0.5
		h0.7c0.5,0,0.8,0.4,0.8,0.8v11.1c0,0.5-0.4,0.8-0.8,0.8H8.3H5.1c-0.4,0.1-0.8-0.3-0.8-0.7V3.2c0-0.5,0.4-0.8,0.8-0.8h0.7
		c0.3-0.1,0.5-0.3,0.5-0.6V1.1c0-0.1,0.1-0.2,0.2-0.2H8.3z"/>
</g>
</svg>
