<?xml version="1.0" encoding="utf-8"?>
<!-- Generator: Adobe Illustrator 25.2.3, SVG Export Plug-In . SVG Version: 6.00 Build 0)  -->
<svg version="1.1" id="Layer_1" xmlns="http://www.w3.org/2000/svg" xmlns:xlink="http://www.w3.org/1999/xlink" x="0px" y="0px"
	 viewBox="0 0 16 16" style="enable-background:new 0 0 16 16;" xml:space="preserve">
<path d="M5,1.1v0.2H4.8C3.8,1.3,3,2.1,3,3.1v11c0,1,0.8,1.8,1.8,1.8H8h3.2c1,0,1.8-0.8,1.8-1.8v-11c0-1-0.8-1.8-1.8-1.8H11V1.1
	C11,0.5,10.5,0,9.9,0H8.1H6.2C5.5,0,5,0.5,5,1.1z M8,0.9h1.8C9.9,0.9,10,1,10,1.1v0.7c0,0.3,0.2,0.5,0.5,0.5h0.7
	c0.5,0,0.8,0.4,0.8,0.8v11c0,0.5-0.4,0.8-0.8,0.8H8H4.8C4.4,15,4,14.6,4,14.2v-11c0-0.5,0.4-0.8,0.8-0.8h0.7C5.8,2.3,6,2.1,6,1.8
	V1.1C6,1,6.1,0.9,6.2,0.9H8z"/>
<path d="M11.3,8.9L7.6,6.5c-0.1-0.1-0.2,0-0.3,0C7.2,6.5,7.2,6.6,7.2,6.7l0.1,1.2L4.9,7.5c-0.1,0-0.3,0-0.3,0.2c0,0-0.1,0.1,0,0.3
	c0,0,0,0.1,0.1,0.1l3.7,2.5c0.1,0.1,0.2,0,0.3,0c0.1,0,0.1-0.1,0.1-0.2c0,0,0-0.1,0-0.1L8.8,9l2.3,0.4c0.1,0,0.3,0,0.3-0.2
	C11.4,9.1,11.4,9,11.3,8.9z"/>
</svg>
