<?xml version="1.0" encoding="utf-8"?>
<!-- Generator: Adobe Illustrator 25.2.1, SVG Export Plug-In . SVG Version: 6.00 Build 0)  -->
<svg version="1.1" id="Layer_1" xmlns="http://www.w3.org/2000/svg" xmlns:xlink="http://www.w3.org/1999/xlink" x="0px" y="0px"
	 viewBox="0 0 16 16" style="enable-background:new 0 0 16 16;" xml:space="preserve">
<style type="text/css">
	.st0{fill:#B5B5B5;fill-opacity:0.5;}
</style>
<path class="st0" d="M4.5,3.2v11.9v-0.9c0,0.2,0.2,0.3,0.6,0.3h5.7c0.3,0,0.6-0.1,0.6-0.3v1V3.3c0-0.2-0.2-0.3-0.6-0.3H5
	C4.7,3,4.5,3,4.5,3.2z"/>
<path d="M5,1.1v0.2H4.8C3.8,1.3,3,2.1,3,3.1v11.1c0,1,0.8,1.8,1.8,1.8H8h3.2c1,0,1.8-0.8,1.8-1.8V3.1c0-1-0.8-1.8-1.8-1.8H11V1.1
	C11,0.5,10.5,0,9.9,0H8.1H6.2C5.5,0,5,0.5,5,1.1z M8,0.9h1.8C9.9,0.9,10,1,10,1.1v0.7c0,0.3,0.2,0.5,0.5,0.5h0.7
	c0.5,0,0.8,0.4,0.8,0.8v11.1c0,0.5-0.4,0.8-0.8,0.8H8H4.8C4.4,15.1,4,14.7,4,14.3V3.2c0-0.5,0.4-0.8,0.8-0.8h0.7
	C5.8,2.3,6,2.1,6,1.8V1.1C6,1,6.1,0.9,6.2,0.9H8z"/>
<g>
	<path d="M8.2,6.3C7.4,6.1,6.5,6.7,6.4,7.6c0,0.1,0,0.2,0,0.3c0,0.2,0.2,0.4,0.4,0.4c0.2,0,0.4-0.2,0.4-0.4c0-0.4,0.4-0.8,0.8-0.8
		c0.1,0,0.1,0,0.2,0c0.3,0.1,0.6,0.3,0.6,0.6c0.1,0.3-0.1,0.7-0.4,0.9C7.8,8.9,7.5,9.4,7.5,10v0.3c0,0.2,0.2,0.4,0.4,0.4
		c0.2,0,0.4-0.2,0.4-0.4V10c0-0.3,0.1-0.6,0.4-0.7c0.8-0.4,1.1-1.4,0.6-2.2C9.1,6.7,8.7,6.4,8.2,6.3z"/>
	<path d="M7.9,11.1L7.9,11.1c0.2,0,0.4,0.2,0.4,0.4l0,0c0,0.2-0.2,0.4-0.4,0.4l0,0c-0.2,0-0.4-0.2-0.4-0.4l0,0
		C7.5,11.3,7.7,11.1,7.9,11.1z"/>
</g>
</svg>
