<?xml version="1.0" encoding="utf-8"?>
<!-- Generator: Adobe Illustrator 25.2.1, SVG Export Plug-In . SVG Version: 6.00 Build 0)  -->
<svg version="1.1" id="Layer_1" xmlns="http://www.w3.org/2000/svg" xmlns:xlink="http://www.w3.org/1999/xlink" x="0px" y="0px"
	 viewBox="0 0 16 16" style="enable-background:new 0 0 16 16;" xml:space="preserve">
<style type="text/css">
	.st0{fill:#DFDFDF;}
</style>
<g>
	<path class="st0" d="M12.2,15.8H3.8c-2,0-3.6-1.6-3.6-3.6l0.6-8.4c0-2,1.6-3.6,3.6-3.6h7.1c2,0,3.6,1.6,3.6,3.6l0.6,8.3
		C15.8,14.2,14.2,15.8,12.2,15.8z M4.5,1.2C3,1.2,1.9,2.4,1.9,3.8l-0.6,8.4c0,1.4,1.2,2.6,2.6,2.6h8.3c1.4,0,2.6-1.2,2.6-2.6
		l-0.6-8.3c0-1.5-1.2-2.7-2.6-2.7H4.5z"/>
</g>
<g>
	<path class="st0" d="M8,4.6C7.8,4.6,7.6,4.8,7.5,5l-2.9,5.6c-0.2,0.4,0,0.6,0.3,0.8c0.2,0,0.6,0.1,0.7-0.3l0.5-1h3.8l0.5,0.9
		c0.1,0.2,0.3,0.3,0.4,0.3c0.2,0,0.4-0.1,0.5-0.3c0.1-0.1,0.1-0.3,0-0.5L8.5,5C8.4,4.8,8.3,4.6,8,4.6z M6.6,9.1L8,6.2l1.3,2.9H6.6z"
		/>
</g>
</svg>
