<?xml version="1.0" encoding="utf-8"?>
<!-- Generator: Adobe Illustrator 25.2.1, SVG Export Plug-In . SVG Version: 6.00 Build 0)  -->
<svg version="1.1" id="Layer_1" xmlns="http://www.w3.org/2000/svg" xmlns:xlink="http://www.w3.org/1999/xlink" x="0px" y="0px"
	 viewBox="0 0 16 16" style="enable-background:new 0 0 16 16;" xml:space="preserve">
<g transform="translate(-5 -2.32258)">
	<path d="M12.1,10.1v2.3v0.1l0.1,0.9c0,0.3,0.3,0.5,0.6,0.5l0,0c0.3,0,0.6-0.2,0.6-0.5l0.1-0.9v-0.1v-2.3c0-0.3-0.3-0.6-0.6-0.6
		h-0.2C12.4,9.5,12.1,9.7,12.1,10.1z M12.1,15.2v0.2c0,0.3,0.3,0.6,0.6,0.6h0.2c0.3,0,0.6-0.3,0.6-0.6v-0.2c0-0.3-0.3-0.6-0.6-0.6
		h-0.2C12.4,14.6,12.1,14.9,12.1,15.2z"/>
</g>
<path d="M11.8,5l-0.1,0V2.8c0-1.6-1.3-2.8-2.8-2.8H7.8H6.7C5.2,0,3.9,1.3,3.9,2.8v2.1L3.7,5C2.6,5.4,1.8,6.4,1.8,7.7v5.6
	C1.8,14.8,3,16,4.5,16h3.3h3.3c1.5,0,2.7-1.2,2.7-2.7V7.7C13.7,6.4,13,5.4,11.8,5z M5,2.6C5,1.8,5.7,1,6.6,1h1.2H9
	c0.9,0,1.6,0.7,1.6,1.6v2.2H7.8H5V2.6z M11.1,15H7.8H4.5c-0.9,0-1.6-0.7-1.6-1.6l0-5.9c0-0.9,0.7-1.6,1.6-1.6h3.2H11
	c0.9,0,1.6,0.7,1.6,1.6l0,5.9C12.7,14.2,12,15,11.1,15z"/>
</svg>
