<?xml version="1.0" encoding="utf-8"?>
<!-- Generator: Adobe Illustrator 25.2.1, SVG Export Plug-In . SVG Version: 6.00 Build 0)  -->
<svg version="1.1" id="Layer_1" xmlns="http://www.w3.org/2000/svg" xmlns:xlink="http://www.w3.org/1999/xlink" x="0px" y="0px"
	 viewBox="0 0 16 16" style="enable-background:new 0 0 16 16;" xml:space="preserve">
<path d="M12.3,5l-0.1,0V2.8c0-1.6-1.3-2.8-2.8-2.8H6.8c-1,0-1.9,0.6-2.4,1.5c0,0.1-0.1,0.2,0,0.3c0.2,0.1,0.3,0.1,0.4,0.1l0,0
	c0,0,0,0,0,0c0.1,0,0.2,0,0.2,0c0.1,0,0.3-0.1,0.3-0.1c0,0,0,0,0,0c0,0,0,0,0,0c0,0,0,0,0,0c0.1-0.1,0.3-0.3,0.4-0.4
	C6.1,1.2,6.4,1,6.7,1h2.7c0.9,0,1.6,0.7,1.6,1.6v2.2h-6C4.2,4.8,3.7,5,3.6,5.1C2.7,5.5,2.1,6.4,2.1,7.5v5.8c0,1.5,1.2,2.7,2.7,2.7
	h6.8c1.5,0,2.7-1.2,2.7-2.7V7.7C14.2,6.4,13.4,5.4,12.3,5z M11.5,15H4.7c-0.9,0-1.6-0.7-1.6-1.6V7.5c0-0.9,0.7-1.6,1.6-1.6h6.8
	c0.9,0,1.6,0.7,1.6,1.6l0,5.9C13.1,14.2,12.4,15,11.5,15z"/>
</svg>
