<?xml version="1.0" encoding="utf-8"?>
<!-- Generator: Adobe Illustrator 25.2.1, SVG Export Plug-In . SVG Version: 6.00 Build 0)  -->
<svg version="1.1" id="Layer_1" xmlns="http://www.w3.org/2000/svg" xmlns:xlink="http://www.w3.org/1999/xlink" x="0px" y="0px"
	 viewBox="0 0 16 16" style="enable-background:new 0 0 16 16;" xml:space="preserve">
<style type="text/css">
	.st0{fill:none;stroke:#000000;stroke-width:1.2;stroke-miterlimit:10;}
</style>
<g>
	<path d="M16,11.8H0l0-9.7C0,0.9,0.9,0,2,0H14c1.1,0,2,0.9,2,2L16,11.8z M1.2,10.6h13.6l0-8.5c0-0.5-0.4-0.8-0.8-0.8H2
		c-0.5,0-0.8,0.4-0.8,0.8L1.2,10.6z"/>
</g>
<g>
	<path d="M14,14.2H2c-1.1,0-2-0.9-2-2v-1.6h16v1.6C16,13.3,15.1,14.2,14,14.2z M1.2,11.8v0.4C1.2,12.7,1.5,13,2,13h12
		c0.5,0,0.8-0.4,0.8-0.8v-0.4H1.2z"/>
</g>
<path class="st0" d="M11.1,14.5"/>
<rect x="5.7" y="0" width="2.1" height="1.2"/>
<g>
	<path d="M11,16H5c-0.3,0-0.6-0.3-0.6-0.6s0.3-0.6,0.6-0.6h6c0.3,0,0.6,0.3,0.6,0.6S11.3,16,11,16z"/>
</g>
<g>
	<g>
		<g>
			<path d="M10.6,7.6L8.9,5.9l1.7-1.7c0.2-0.2,0.2-0.6,0-0.9C10.4,3,10,3,9.7,3.3L8,5L6.3,3.3C6,3,5.6,3,5.4,3.3
				c-0.2,0.2-0.2,0.6,0,0.9l1.7,1.7L5.4,7.6c-0.2,0.2-0.2,0.6,0,0.9c0.1,0.1,0.3,0.2,0.4,0.2s0.3-0.1,0.4-0.2L8,6.8l1.7,1.7
				c0.1,0.1,0.3,0.2,0.4,0.2s0.3-0.1,0.4-0.2C10.9,8.3,10.9,7.9,10.6,7.6z"/>
		</g>
	</g>
</g>
</svg>
