<?xml version="1.0" encoding="utf-8"?>
<!-- Generator: Adobe Illustrator 25.2.1, SVG Export Plug-In . SVG Version: 6.00 Build 0)  -->
<svg version="1.1" id="Layer_1" xmlns="http://www.w3.org/2000/svg" xmlns:xlink="http://www.w3.org/1999/xlink" x="0px" y="0px"
	 viewBox="0 0 16 16" style="enable-background:new 0 0 16 16;" xml:space="preserve">
<g>
	<g>
		<path d="M8,16L8,16c-4.4,0-8-3.6-8-8v0c0-4.4,3.6-8,8-8h0c4.4,0,8,3.6,8,8v0C16,12.4,12.4,16,8,16z M8,1.1C4.2,1.1,1.1,4.2,1.1,8
			v0c0,3.8,3.1,6.9,6.9,6.9h0c3.8,0,6.9-3.1,6.9-6.9v0C14.9,4.2,11.8,1.1,8,1.1L8,1.1z"/>
	</g>
</g>
<g transform="translate(-5 -2.32258)">
	<path d="M12.2,7.2v2.7V10l0.1,1.1c0,0.4,0.4,0.6,0.7,0.6l0,0c0.4,0,0.7-0.2,0.7-0.6l0.1-1.1V9.9V7.2c0-0.4-0.4-0.7-0.7-0.7h-0.2
		C12.5,6.5,12.2,6.7,12.2,7.2z M12.2,13.2v0.2c0,0.4,0.4,0.7,0.7,0.7h0.2c0.4,0,0.7-0.4,0.7-0.7v-0.2c0-0.4-0.4-0.7-0.7-0.7h-0.2
		C12.5,12.5,12.2,12.9,12.2,13.2z"/>
</g>
</svg>
