<?xml version="1.0" encoding="utf-8"?>
<!-- Generator: Adobe Illustrator 25.2.1, SVG Export Plug-In . SVG Version: 6.00 Build 0)  -->
<svg version="1.1" id="Layer_1" xmlns="http://www.w3.org/2000/svg" xmlns:xlink="http://www.w3.org/1999/xlink" x="0px" y="0px"
	 viewBox="0 0 16 16" style="enable-background:new 0 0 16 16;" xml:space="preserve">
<g>
	<g>
		<path d="M13.2,16.1H2.8c-1.5,0-2.8-1.3-2.8-2.8V2.9c0-1.5,1.3-2.8,2.8-2.8h10.4c1.5,0,2.8,1.3,2.8,2.8v10.4
			C16,14.8,14.8,16.1,13.2,16.1z M2.8,1.2C1.9,1.2,1.2,2,1.2,2.9v10.4c0,0.9,0.7,1.7,1.7,1.7h10.4c0.9,0,1.7-0.7,1.7-1.7V2.9
			c0-0.9-0.7-1.7-1.7-1.7H2.8z"/>
	</g>
</g>
<g transform="translate(-5 -2.32258)">
	<path d="M12.2,7.2v2.7V10l0.1,1.1c0,0.4,0.4,0.6,0.7,0.6l0,0c0.4,0,0.7-0.2,0.7-0.6l0.1-1.1V9.9V7.2c0-0.4-0.4-0.7-0.7-0.7h-0.2
		C12.5,6.5,12.2,6.7,12.2,7.2z M12.2,13.2v0.2c0,0.4,0.4,0.7,0.7,0.7h0.2c0.4,0,0.7-0.4,0.7-0.7v-0.2c0-0.4-0.4-0.7-0.7-0.7h-0.2
		C12.5,12.5,12.2,12.9,12.2,13.2z"/>
</g>
</svg>
