<?xml version="1.0" encoding="utf-8"?>
<!-- Generator: Adobe Illustrator 25.2.1, SVG Export Plug-In . SVG Version: 6.00 Build 0)  -->
<svg version="1.1" id="Layer_1" xmlns="http://www.w3.org/2000/svg" xmlns:xlink="http://www.w3.org/1999/xlink" x="0px" y="0px"
	 viewBox="0 0 16 16" style="enable-background:new 0 0 16 16;" xml:space="preserve">
<style type="text/css">
	.st0{fill-rule:evenodd;clip-rule:evenodd;fill:#DFDFDF;fill-opacity:0.3;}
	.st1{fill:#DFDFDF;}
</style>
<g transform="matrix(.444444 0 0 .444444 9.99201e-16 1.21152)">
	<path class="st0" d="M9.9,2c1,0,1.4,0.5,2.1,1.4c0.7,0.9,1,1.5,2.3,1.6h19.5C35.1,5,36,5.9,36,7.1v21.8c0,1.2-0.9,2.1-2.1,2.1H2.1
		C0.9,31,0,30.1,0,28.9V4.1C0,2.9,0.9,2,2.1,2C2.1,2,9.9,2,9.9,2z"/>
</g>
<g>
	<g>
		<polygon class="st1" points="4,3.9 2.5,3.9 14.4,10.8 14.4,9.9 		"/>
		<polygon class="st1" points="12.9,5.9 11.4,5.9 14.4,7.7 14.4,6.8 		"/>
		<polygon class="st1" points="1.5,5.4 1.5,6.3 13.4,13.2 14.4,13.2 14.4,12.9 		"/>
		<polygon class="st1" points="1.5,11.5 1.5,12.4 2.9,13.2 4.5,13.2 		"/>
		<polygon class="st1" points="1.5,8.5 1.5,9.4 8.1,13.2 9.6,13.2 		"/>
	</g>
</g>
<g>
	<path d="M15.2,4.9c0-1.2-1-2.1-2.2-2.1H4.9C4.6,2.6,4.2,2.5,3.8,2.5H2.2c-0.4,0-0.7,0.1-1,0.3C1,2.9,0.8,3,0.7,3.1
		C0.2,3.5,0,4.1,0,4.7v8.3c0,0.9,0.7,1.7,1.7,1.7h12.7c0.9,0,1.7-0.7,1.7-1.7V6.6C16,6,15.7,5.4,15.2,4.9z M13,3.9
		c0.4,0,0.7,0.2,0.9,0.5c0,0-0.1,0-0.1,0H6.3C6.2,4.4,6,4.3,6,4.2L5.9,4c0,0,0,0,0-0.1H13z M14.9,12.9c0,0.3-0.2,0.6-0.6,0.6H1.7
		c-0.3,0-0.6-0.2-0.6-0.6V4.7c0-0.3,0.1-0.6,0.3-0.8c0.1-0.1,0.1-0.1,0.2-0.2C1.8,3.6,2,3.6,2.2,3.6h1.7c0.2,0,0.4,0.1,0.6,0.2l0,0
		l0,0c0.2,0.1,0.3,0.3,0.4,0.5l0.1,0.2c0.2,0.6,0.8,1,1.4,1h7.5c0.2,0,0.4,0.1,0.5,0.1l0,0c0.3,0.2,0.5,0.5,0.5,0.9V12.9z"/>
</g>
</svg>
