<?xml version="1.0" encoding="utf-8"?>
<!-- Generator: Adobe Illustrator 25.2.1, SVG Export Plug-In . SVG Version: 6.00 Build 0)  -->
<svg version="1.1" id="Layer_1" xmlns="http://www.w3.org/2000/svg" xmlns:xlink="http://www.w3.org/1999/xlink" x="0px" y="0px"
	 viewBox="0 0 16 16" style="enable-background:new 0 0 16 16;" xml:space="preserve">
<g>
	<g>
		<path d="M13.2,14.4H2.8c-1.5,0-2.8-1.3-2.8-2.8V4.4c0-1.5,1.3-2.8,2.8-2.8h10.4c1.5,0,2.8,1.3,2.8,2.8v7.2
			C16,13.1,14.8,14.4,13.2,14.4z M2.8,2.7c-0.9,0-1.6,0.8-1.6,1.7v7.2c0,0.9,0.7,1.7,1.7,1.7h10.4c0.9,0,1.7-0.7,1.7-1.7V4.4
			c0-0.9-0.7-1.7-1.7-1.7H2.8z"/>
	</g>
</g>
<g>
	<g>
		<path d="M6.5,10.7H2.7c-0.5,0-0.8-0.3-0.8-0.8V6.2c0-0.5,0.3-0.8,0.8-0.8h3.8c0.5,0,0.8,0.3,0.8,0.8V10C7.3,10.3,7,10.7,6.5,10.7z
			"/>
	</g>
	<g>
		<path d="M13.6,7H8.8C8.5,7,8.3,6.7,8.3,6.5V6.4c0-0.3,0.2-0.5,0.5-0.5h4.9c0.3,0,0.5,0.2,0.5,0.5v0.1C14.1,6.7,13.9,7,13.6,7z"/>
		<path d="M13.6,8.5H8.8C8.5,8.5,8.3,8.3,8.3,8V8c0-0.3,0.2-0.5,0.5-0.5h4.9c0.3,0,0.5,0.2,0.5,0.5V8C14.1,8.3,13.9,8.5,13.6,8.5z"
			/>
		<path d="M13.6,10.1H8.8c-0.3,0-0.5-0.2-0.5-0.5V9.5C8.3,9.3,8.5,9,8.8,9h4.9c0.3,0,0.5,0.2,0.5,0.5v0.1
			C14.1,9.9,13.9,10.1,13.6,10.1z"/>
	</g>
</g>
</svg>
