<?xml version="1.0" encoding="utf-8"?>
<!-- Generator: Adobe Illustrator 25.2.1, SVG Export Plug-In . SVG Version: 6.00 Build 0)  -->
<svg version="1.1" id="Layer_1" xmlns="http://www.w3.org/2000/svg" xmlns:xlink="http://www.w3.org/1999/xlink" x="0px" y="0px"
	 viewBox="0 0 16 16" style="enable-background:new 0 0 16 16;" xml:space="preserve">
<path d="M4.1,9.6l-1-1C3,8.5,2.9,8.5,2.7,8.5c-0.1,0-0.3,0.1-0.4,0.2C2.2,8.7,2.2,8.9,2.2,9c0,0.1,0.1,0.3,0.2,0.4l1,1
	c0.2,0.2,0.6,0.2,0.8,0c0-0.1,0-0.3,0-0.4C4.2,9.8,4.2,9.7,4.1,9.6z"/>
<path d="M1.9,13.7H0.6C0.2,13.7,0,14,0,14.3s0.2,0.6,0.6,0.6H2c0.3,0,0.6-0.2,0.6-0.6C2.5,14,2.2,13.7,1.9,13.7z"/>
<path d="M11.6,13.3h-1.3v0H4.4c-0.4,0-0.7,1.8-0.7,2.1C3.8,15.7,4,16,4.4,16h4.4h1.5h1.3c0.4,0,0.6-0.3,0.6-0.6S12,13.3,11.6,13.3z"
	/>
<path d="M14.1,14.9h1.4c0.3,0,0.5-0.3,0.5-0.6s-0.2-0.6-0.6-0.6H14c-0.3,0-0.6,0.2-0.6,0.6C13.5,14.6,13.8,14.9,14.1,14.9z"/>
<path d="M13.8,9c0-0.1-0.1-0.3-0.2-0.4l0,0c-0.1-0.1-0.2-0.2-0.4-0.2c-0.1,0-0.3,0.1-0.4,0.2l-1,1c-0.1,0.1-0.2,0.2-0.2,0.4
	c0,0.1,0.1,0.3,0.2,0.4c0.2,0.2,0.6,0.2,0.8,0l1-1C13.8,9.3,13.8,9.2,13.8,9z"/>
<path d="M8.6,6.9c0-0.4-0.3-0.6-0.6-0.6S7.4,6.5,7.4,6.9v1.4c0,0.3,0.2,0.6,0.6,0.6c0.3,0,0.6-0.2,0.6-0.6V6.9z"/>
</svg>
