<?xml version="1.0" encoding="utf-8"?>
<!-- Generator: Adobe Illustrator 25.2.1, SVG Export Plug-In . SVG Version: 6.00 Build 0)  -->
<svg version="1.1" id="Layer_1" xmlns="http://www.w3.org/2000/svg" xmlns:xlink="http://www.w3.org/1999/xlink" x="0px" y="0px"
	 viewBox="0 0 16 16" style="enable-background:new 0 0 16 16;" xml:space="preserve">
<path d="M12.7,1.6H3.3C1.5,1.6,0,3,0,4.8v6.3c0,1.8,1.5,3.3,3.3,3.3h9.5c1.8,0,3.3-1.5,3.3-3.3V4.8C16,3,14.5,1.6,12.7,1.6z M1.3,4
	c0.3-0.8,1.1-1.3,2-1.3h9.5c0.9,0,1.7,0.5,2,1.3l0,0.1L9.5,9.3C9.1,9.7,8.5,10,8,10c-0.5,0-1.1-0.2-1.5-0.6L1.3,4L1.3,4z M14.9,11.2
	c0,1.2-1,2.1-2.1,2.1H3.3c-1.2,0-2.1-1-2.1-2.1V5.6l4.6,4.6c1.3,1.3,3.3,1.3,4.6,0l4.6-4.6V11.2z"/>
</svg>
