<?xml version="1.0" encoding="utf-8"?>
<!-- Generator: Adobe Illustrator 25.2.1, SVG Export Plug-In . SVG Version: 6.00 Build 0)  -->
<svg version="1.1" id="Layer_1" xmlns="http://www.w3.org/2000/svg" xmlns:xlink="http://www.w3.org/1999/xlink" x="0px" y="0px"
	 viewBox="0 0 16 16" style="enable-background:new 0 0 16 16;" xml:space="preserve">
<g>
	<path d="M8.5,9.6L8.5,9.6L8.5,9.6c0.1-0.1,0.3-0.2,0.4-0.2c0.2,0,0.3,0,0.4,0.2c1.2,1.2,2.9,2,4.7,2c0,0,0,0,0,0h0.2l-1.8-1.8
		c0,0,0,0,0,0c-0.2-0.2-0.2-0.6,0-0.8c0.1-0.1,0.3-0.2,0.4-0.2c0.2,0,0.3,0.1,0.4,0.2l2.3,2.3c0.5,0.5,0.5,1.3,0,1.8l-2.3,2.3
		c0,0,0,0.1-0.1,0.1c-0.2,0.2-0.6,0.2-0.8-0.1c-0.1-0.1-0.2-0.3-0.1-0.4c0-0.2,0.1-0.3,0.2-0.4l1.8-1.8l-0.3,0c0,0,0,0-0.1,0
		c-2,0-4-0.8-5.4-2.3C8.3,10.2,8.3,9.9,8.5,9.6z"/>
	<path d="M0,11.6c0,0,0.1,0,0.1,0l0.3,0c2.7-0.2,4.3-1.7,5.8-3.5L6.3,8L6.2,7.9C4.7,6.2,3.1,4.7,0.4,4.5c0,0-0.2,0-0.2,0
		c-0.1,0-0.1,0-0.2,0l0-1.1c0.1,0,0.1,0,0.2,0l0.3,0c3.1,0.2,5,2,6.5,3.7L7,7.1L7.1,7c1.7-2,3.6-3.7,6.9-3.7l0.2,0l-1.8-1.8
		c0,0,0,0,0,0c-0.2-0.2-0.2-0.6,0-0.8c0.1-0.1,0.3-0.2,0.4-0.2c0.2,0,0.3,0.1,0.4,0.2l2.3,2.3c0.1,0.1,0.2,0.3,0.3,0.5
		c0.2,0.5,0.1,1-0.3,1.3L13.3,7c-0.2,0.2-0.5,0.2-0.8,0c-0.1-0.1-0.2-0.2-0.2-0.4c0-0.2,0-0.3,0.1-0.4c0,0,0,0,0-0.1l1.8-1.7l-0.3,0
		c-3.1,0-4.8,1.9-6.5,3.9L7.5,8.4c-1.7,1.9-3.5,4.1-6.9,4.3c-0.1,0-0.2,0-0.3,0l-0.1,0c0,0,0,0,0,0c-0.1,0-0.1,0-0.2,0L0,11.6z"/>
</g>
</svg>
