<?xml version="1.0" encoding="utf-8"?>
<!-- Generator: Adobe Illustrator 25.2.1, SVG Export Plug-In . SVG Version: 6.00 Build 0)  -->
<svg version="1.1" id="Layer_1" xmlns="http://www.w3.org/2000/svg" xmlns:xlink="http://www.w3.org/1999/xlink" x="0px" y="0px"
	 viewBox="0 0 16 16" style="enable-background:new 0 0 16 16;" xml:space="preserve">
<path d="M16,8c0-0.3-0.3-0.6-0.6-0.6h-14L4,4.9c0.1-0.1,0.2-0.3,0.2-0.4C4.2,4.3,4.1,4.1,4,4C3.8,3.8,3.4,3.8,3.2,4L0.6,6.6
	c-0.8,0.8-0.8,2,0,2.7L3.2,12c0.2,0.2,0.6,0.2,0.8,0c0.2-0.2,0.2-0.6,0-0.8L1.5,8.6h13.9C15.7,8.6,16,8.3,16,8z"/>
</svg>
