<?xml version="1.0" encoding="utf-8"?>
<!-- Generator: Adobe Illustrator 25.2.1, SVG Export Plug-In . SVG Version: 6.00 Build 0)  -->
<svg version="1.1" id="Layer_1" xmlns="http://www.w3.org/2000/svg" xmlns:xlink="http://www.w3.org/1999/xlink" x="0px" y="0px"
	 viewBox="0 0 16 16" style="enable-background:new 0 0 16 16;" xml:space="preserve">
<g>
	<path d="M7.5,9.6L7.5,9.6L7.5,9.6C7.4,9.5,7.2,9.4,7.1,9.4c-0.2,0-0.3,0-0.4,0.2c-1.2,1.2-2.9,2-4.7,2c0,0,0,0,0,0H1.7l1.8-1.8
		c0,0,0,0,0,0c0.2-0.2,0.2-0.6,0-0.8C3.4,8.8,3.2,8.8,3.1,8.8C2.9,8.8,2.8,8.8,2.7,9l-2.3,2.3c-0.5,0.5-0.5,1.3,0,1.8l2.3,2.3
		c0,0,0,0.1,0.1,0.1c0.2,0.2,0.6,0.2,0.8-0.1c0.1-0.1,0.2-0.3,0.1-0.4c0-0.2-0.1-0.3-0.2-0.4l-1.8-1.8l0.3,0c0,0,0,0,0.1,0
		c2,0,4-0.8,5.4-2.3C7.7,10.2,7.7,9.9,7.5,9.6z"/>
	<path d="M16,11.6c0,0-0.1,0-0.1,0l-0.3,0c-2.7-0.2-4.3-1.7-5.8-3.5L9.7,8l0.1-0.1c1.5-1.7,3.1-3.3,5.8-3.5c0,0,0.2,0,0.2,0
		c0.1,0,0.1,0,0.2,0V3.3c-0.1,0-0.1,0-0.2,0l-0.3,0c-3.1,0.2-5,2-6.5,3.7L9,7.1L8.9,7C7.2,5,5.3,3.3,2,3.3l-0.2,0l1.8-1.8
		c0,0,0,0,0,0c0.2-0.2,0.2-0.6,0-0.8C3.4,0.5,3.2,0.5,3.1,0.5c-0.2,0-0.3,0.1-0.4,0.2L0.4,2.9C0.2,3.1,0.1,3.2,0.1,3.4
		c-0.2,0.5-0.1,1,0.3,1.3L2.7,7c0.2,0.2,0.5,0.2,0.8,0C3.6,7,3.6,6.8,3.6,6.7c0-0.2,0-0.3-0.1-0.4c0,0,0,0,0-0.1L1.7,4.4l0.3,0
		c3.1,0,4.8,1.9,6.5,3.9l0.1,0.1c1.7,1.9,3.5,4.1,6.9,4.3c0.1,0,0.2,0,0.3,0l0.1,0c0,0,0,0,0,0c0.1,0,0.1,0,0.2,0V11.6z"/>
</g>
</svg>
