<?xml version="1.0" encoding="utf-8"?>
<!-- Generator: Adobe Illustrator 25.2.1, SVG Export Plug-In . SVG Version: 6.00 Build 0)  -->
<svg version="1.1" id="Layer_1" xmlns="http://www.w3.org/2000/svg" xmlns:xlink="http://www.w3.org/1999/xlink" x="0px" y="0px"
	 viewBox="0 0 16 16" style="enable-background:new 0 0 16 16;" xml:space="preserve">
<g>
	<g>
		<path d="M15.7,5.4c-0.2,0-0.5-0.1-0.6-0.5l0-1.5c0-0.4-0.1-0.8-0.3-1.2l0,0l0,0c-0.5-0.8-1.3-1.3-2.2-1.3H2.6C1.2,0.9,0,2,0,3.4
			v6.3c0,1.4,1.2,2.6,2.6,2.6h1.6v-1.2H2.7c-0.8,0-1.4-0.6-1.4-1.4V3.4C1.3,2.7,1.9,2,2.7,2h9.9C13.4,2,14,2.7,14,3.4v1.5L14,5
			c-0.1,0.2-0.4,0.3-0.6,0.3c0,0,0,0,0,0l-0.4,0l1.3,1.5c0,0,0,0,0.1,0c0,0,0,0,0.1,0L16,5.4H15.7z"/>
		<path d="M15.1,8.1h-1c0,0-0.1,0-0.1,0.1v1.6c0,0.8-0.6,1.4-1.4,1.4h-0.8v1.2h0.6c1.5,0,2.7-1.2,2.7-2.7L15.1,8.1
			C15.2,8.1,15.1,8.1,15.1,8.1z"/>
	</g>
	<g>
		<g>
			<path d="M9.4,15.1H6.7c-1.1,0-2-0.9-2-2v-2.7c0-1.1,0.9-2,2-2h2.7c1.1,0,2,0.9,2,2v2.7C11.4,14.2,10.5,15.1,9.4,15.1z M6.7,9.4
				c-0.6,0-1,0.4-1,1v2.7c0,0.6,0.4,1,1,1h2.7c0.6,0,1-0.4,1-1v-2.7c0-0.6-0.4-1-1-1H6.7z"/>
		</g>
		<g>
			<path d="M7.8,13.2c0,0,0.1,0.1,0.3,0.1h0.1c0.1,0,0.1,0,0.1,0c0,0,0-0.1,0-0.1v-2.4c0-0.1,0-0.2-0.1-0.3
				c-0.1-0.1-0.2-0.1-0.3-0.1H8c-0.1,0-0.1,0-0.2,0l-0.4,0.1C7,10.5,7,10.7,7,10.8c0,0.1,0,0.1,0.1,0.2c0,0.1,0.1,0.1,0.1,0.1
				c0,0,0,0,0.1,0l0.3-0.1c0,0,0,0,0,0c0,0,0,0,0.1,0c0,0,0,0.1,0,0.1V13C7.8,13.1,7.8,13.2,7.8,13.2z"/>
		</g>
	</g>
</g>
</svg>
