<?xml version="1.0" encoding="utf-8"?>
<!-- Generator: Adobe Illustrator 25.2.1, SVG Export Plug-In . SVG Version: 6.00 Build 0)  -->
<svg version="1.1" id="Layer_1" xmlns="http://www.w3.org/2000/svg" xmlns:xlink="http://www.w3.org/1999/xlink" x="0px" y="0px"
	 viewBox="0 0 16 16" style="enable-background:new 0 0 16 16;" xml:space="preserve">
<g>
	<path d="M11.3,11.1c0,0.4-0.2,0.6-0.5,0.6l-0.5,0c-0.4,0-0.7-0.1-0.9-0.2s-0.3-0.4-0.3-0.8V8.9H6.8v2.2c0,0.4-0.2,0.6-0.5,0.6
		l-0.5,0c-0.4,0-0.7-0.1-0.9-0.2s-0.3-0.4-0.3-0.8V4.9c0-0.3,0.1-0.5,0.2-0.5c0.1-0.1,0.3-0.1,0.5-0.1l0.3,0c0.4,0,0.7,0.1,0.9,0.2
		c0.2,0.1,0.3,0.4,0.3,0.8v1.9h2.3V4.9c0-0.3,0.1-0.5,0.2-0.5c0.1-0.1,0.3-0.1,0.5-0.1l0.3,0c0.4,0,0.7,0.1,0.9,0.2
		c0.2,0.1,0.3,0.4,0.3,0.8V11.1z"/>
</g>
</svg>
