<?xml version="1.0" encoding="utf-8"?>
<!-- Generator: Adobe Illustrator 25.2.1, SVG Export Plug-In . SVG Version: 6.00 Build 0)  -->
<svg version="1.1" id="Layer_1" xmlns="http://www.w3.org/2000/svg" xmlns:xlink="http://www.w3.org/1999/xlink" x="0px" y="0px"
	 viewBox="0 0 16 16" style="enable-background:new 0 0 16 16;" xml:space="preserve">
<g>
	<path d="M16,12.3c-0.1-0.7-0.7-1.1-1.4-1.1c-0.6,0-1.2,0.4-1.4,0.9H9.4c-0.2-0.4-0.5-0.7-0.8-0.8V10h3.5c0.3,0,0.5-0.2,0.5-0.5V8
		h1.2c0.3,0,0.5-0.2,0.5-0.5V2.5c0-0.3-0.2-0.5-0.5-0.5H2.3C2,1.9,1.7,2.2,1.7,2.5v5C1.7,7.8,2,8,2.3,8h1.2v1.5C3.4,9.8,3.7,10,4,10
		h3.5v1.2c-0.4,0.2-0.7,0.5-0.8,0.8H2.8c-0.1-0.3-0.3-0.5-0.6-0.7c-0.3-0.2-0.7-0.3-1.1-0.2c-0.8,0.2-1.3,1-1.1,1.8
		c0.2,0.8,1,1.3,1.8,1.1c0.5-0.1,0.9-0.5,1-0.9h3.8c0.2,0.6,0.8,0.9,1.3,0.9c0.1,0,0.2,0,0.3,0c0.5-0.1,0.9-0.5,1-0.9h3.8
		c0.1,0.3,0.3,0.5,0.6,0.7c0.3,0.2,0.7,0.3,1.1,0.2C15.7,13.9,16.1,13.1,16,12.3z M15,12.6c0,0.2-0.2,0.4-0.4,0.4
		c-0.2,0-0.4-0.2-0.4-0.4c0-0.2,0.2-0.4,0.4-0.4C14.8,12.2,15,12.4,15,12.6z M13.2,3v4H2.8V3H13.2z M11.5,8V9h-7V8H11.5z M8.4,12.6
		C8.4,12.8,8.2,13,8,13c-0.2,0-0.4-0.2-0.4-0.4c0-0.2,0.2-0.4,0.4-0.4C8.2,12.2,8.4,12.4,8.4,12.6z M1,12.6c0-0.2,0.2-0.4,0.4-0.4
		c0.2,0,0.4,0.2,0.4,0.4c0,0.2-0.2,0.4-0.4,0.4C1.2,13,1,12.8,1,12.6z"/>
</g>
<path d="M9.3,3.7c-0.1-0.1-0.3-0.1-0.4,0L8,4.5L7.2,3.7c-0.1-0.1-0.3-0.1-0.4,0S6.6,4,6.8,4.2L7.6,5L6.8,5.8c-0.1,0.1-0.1,0.3,0,0.4
	c0.1,0.1,0.3,0.1,0.4,0l0,0L8,5.4l0.8,0.8c0.1,0.1,0.3,0.1,0.4,0c0.1-0.1,0.1-0.3,0-0.4L8.5,5l0.8-0.8C9.4,4,9.4,3.9,9.3,3.7z"/>
</svg>
