<?xml version="1.0" encoding="utf-8"?>
<!-- Generator: Adobe Illustrator 25.2.1, SVG Export Plug-In . SVG Version: 6.00 Build 0)  -->
<svg version="1.1" id="Layer_1" xmlns="http://www.w3.org/2000/svg" xmlns:xlink="http://www.w3.org/1999/xlink" x="0px" y="0px"
	 viewBox="0 0 16 16" style="enable-background:new 0 0 16 16;" xml:space="preserve">
<style type="text/css">
	.st0{fill:#DFDFDF;}
	.st1{opacity:0.5;fill:#DFDFDF;}
</style>
<g>
	<path d="M2.5,14.9h-1c-0.2,0-0.3-0.1-0.3-0.3v-1c0-0.2,0.1-0.3,0.3-0.3h1c0.2,0,0.3,0.1,0.3,0.3v1C2.8,14.7,2.7,14.9,2.5,14.9z"/>
	<path d="M5.4,14.9h-1c-0.2,0-0.3-0.1-0.3-0.3v-4.3c0-0.2,0.1-0.3,0.3-0.3h1c0.2,0,0.3,0.1,0.3,0.3v4.3C5.7,14.7,5.6,14.9,5.4,14.9z
		"/>
	<path class="st0" d="M8.4,14.9h-1c-0.2,0-0.3-0.1-0.3-0.3V6.4c0-0.2,0.1-0.3,0.3-0.3h1c0.2,0,0.3,0.1,0.3,0.3v8.2
		C8.7,14.7,8.5,14.9,8.4,14.9z"/>
	<path class="st0" d="M11.6,14.9h-1c-0.2,0-0.3-0.1-0.3-0.3V3.9c0-0.2,0.1-0.3,0.3-0.3h1c0.2,0,0.3,0.1,0.3,0.3v10.7
		C12,14.7,11.8,14.9,11.6,14.9z"/>
	<g>
		<path class="st1" d="M14.5,14.9h-1c-0.2,0-0.3-0.1-0.3-0.3V1.5c0-0.2,0.1-0.3,0.3-0.3h1c0.2,0,0.3,0.1,0.3,0.3v13.1
			C14.8,14.7,14.7,14.9,14.5,14.9z"/>
	</g>
</g>
</svg>
