<?xml version="1.0" encoding="utf-8"?>
<!-- Generator: Adobe Illustrator 25.2.1, SVG Export Plug-In . SVG Version: 6.00 Build 0)  -->
<svg version="1.1" id="Layer_1" xmlns="http://www.w3.org/2000/svg" xmlns:xlink="http://www.w3.org/1999/xlink" x="0px" y="0px"
	 viewBox="0 0 16 16" style="enable-background:new 0 0 16 16;" xml:space="preserve">
<style type="text/css">
	.st0{fill-rule:evenodd;clip-rule:evenodd;fill:#DFDFDF;fill-opacity:0.3;}
	.st1{fill:none;stroke:#000000;stroke-width:0.5;stroke-miterlimit:10;}
</style>
<path class="st0" d="M15,2c0-0.6-0.4-1-1-1s-1,0.4-1,1v12c0,0.6,0.4,1,1,1s1-0.4,1-1V2z M12.1,4.6c0-0.6-0.4-1-1-1s-1,0.4-1,1V14
	c0,0.6,0.4,1,1,1s1-0.4,1-1V4.6z M9,7.7c0-0.6-0.4-1-1-1s-1,0.4-1,1V14c0,0.6,0.4,1,1,1s1-0.4,1-1V7.7z M5.9,10.9c0-0.6-0.4-1-1-1
	s-1,0.4-1,1V14c0,0.6,0.4,1,1,1s1-0.4,1-1V10.9z M3,14c0-0.6-0.5-1-1-1c-0.6,0-1,0.4-1,1s0.4,1,1,1S3,14.6,3,14z"/>
<g>
	<g>
		<path class="st1" d="M2.8,3H1.6C1.5,3,1.4,2.9,1.4,2.7v-1c0-0.1,0.1-0.2,0.2-0.2h1.1C2.9,1.5,3,1.6,3,1.7v1.1C3,2.9,2.9,3,2.8,3z"
			/>
	</g>
	<g>
		<path class="st1" d="M5.2,3H4.1C4,3,3.9,2.9,3.9,2.7v-1c0-0.1,0.1-0.2,0.2-0.2h1.1c0.1,0,0.2,0.1,0.2,0.2v1.1C5.4,2.9,5.3,3,5.2,3
			z"/>
	</g>
	<g>
		<path class="st1" d="M7.7,3H6.5C6.4,3,6.3,2.9,6.3,2.7v-1c0-0.1,0.1-0.2,0.2-0.2h1.1c0.1,0,0.2,0.1,0.2,0.2v1.1
			C7.8,2.9,7.8,3,7.7,3z"/>
	</g>
</g>
<path d="M2.5,14.9h-1c-0.2,0-0.3-0.1-0.3-0.3v-1c0-0.2,0.1-0.3,0.3-0.3h1c0.2,0,0.3,0.1,0.3,0.3v1C2.8,14.7,2.7,14.9,2.5,14.9z"/>
<path d="M5.4,14.9h-1c-0.2,0-0.3-0.1-0.3-0.3v-4.3c0-0.2,0.1-0.3,0.3-0.3h1c0.2,0,0.3,0.1,0.3,0.3v4.3C5.7,14.7,5.6,14.9,5.4,14.9z"
	/>
<path d="M8.3,14.9h-1c-0.2,0-0.3-0.1-0.3-0.3V6.4c0-0.2,0.1-0.3,0.3-0.3h1c0.2,0,0.3,0.1,0.3,0.3v8.2C8.7,14.7,8.5,14.9,8.3,14.9z"
	/>
<path d="M11.6,14.9h-1c-0.2,0-0.3-0.1-0.3-0.3V3.9c0-0.2,0.1-0.3,0.3-0.3h1c0.2,0,0.3,0.1,0.3,0.3v10.7
	C11.9,14.7,11.8,14.9,11.6,14.9z"/>
<path d="M14.5,14.9h-1c-0.2,0-0.3-0.1-0.3-0.3V1.5c0-0.2,0.1-0.3,0.3-0.3h1c0.2,0,0.3,0.1,0.3,0.3v13.1
	C14.8,14.7,14.7,14.9,14.5,14.9z"/>
</svg>
