<?xml version="1.0" encoding="utf-8"?>
<!-- Generator: Adobe Illustrator 25.2.1, SVG Export Plug-In . SVG Version: 6.00 Build 0)  -->
<svg version="1.1" id="Layer_1" xmlns="http://www.w3.org/2000/svg" xmlns:xlink="http://www.w3.org/1999/xlink" x="0px" y="0px"
	 viewBox="0 0 16 16" style="enable-background:new 0 0 16 16;" xml:space="preserve">
<g>
	<g>
		<path d="M16,12.2c-0.1-0.7-0.7-1.1-1.4-1.1c-0.6,0-1.2,0.4-1.4,0.9H9.4c-0.2-0.4-0.5-0.7-0.8-0.8V10h3.5c0.3,0,0.5-0.2,0.5-0.5V8
			h1.2c0.3,0,0.5-0.2,0.5-0.5v-5c0-0.3-0.2-0.5-0.5-0.5H2.3C2,1.9,1.7,2.2,1.7,2.5v5C1.7,7.8,2,8,2.3,8h1.2v1.5C3.4,9.8,3.7,10,4,10
			h3.5v1.2c-0.4,0.2-0.7,0.5-0.8,0.8H2.8c-0.1-0.3-0.3-0.5-0.6-0.7S1.5,11,1.1,11.1c-0.8,0.2-1.3,1-1.1,1.8s1,1.3,1.8,1.1
			c0.5-0.1,0.9-0.5,1-0.9h3.8c0.2,0.6,0.8,0.9,1.3,0.9c0.1,0,0.2,0,0.3,0c0.5-0.1,0.9-0.5,1-0.9H13c0.1,0.3,0.3,0.5,0.6,0.7
			s0.7,0.3,1.1,0.2C15.7,13.8,16.1,13,16,12.2z M15,12.5c0,0.2-0.2,0.4-0.4,0.4s-0.4-0.2-0.4-0.4s0.2-0.4,0.4-0.4
			C14.8,12.1,15,12.3,15,12.5z M13.2,3v4H2.8V3H13.2z M11.5,8v1h-7V8H11.5z M8.4,12.5c0,0.2-0.2,0.4-0.4,0.4c-0.2,0-0.4-0.2-0.4-0.4
			s0.2-0.4,0.4-0.4C8.2,12.1,8.4,12.3,8.4,12.5z M1,12.5c0-0.2,0.2-0.4,0.4-0.4c0.2,0,0.4,0.2,0.4,0.4s-0.2,0.4-0.4,0.4
			S1,12.7,1,12.5z"/>
	</g>
</g>
</svg>
