<?xml version="1.0" encoding="utf-8"?>
<!-- Generator: Adobe Illustrator 25.2.1, SVG Export Plug-In . SVG Version: 6.00 Build 0)  -->
<svg version="1.1" id="Layer_1" xmlns="http://www.w3.org/2000/svg" xmlns:xlink="http://www.w3.org/1999/xlink" x="0px" y="0px"
	 viewBox="0 0 16 16" style="enable-background:new 0 0 16 16;" xml:space="preserve">
<g>
	<path d="M3.9,4.8C4,4.6,4,4.5,4.1,4.5c0.1-0.1,0.2-0.1,0.4-0.1c0.2,0,0.4-0.1,0.7-0.1c0.5,0,0.8,0.1,1.1,0.3S6.6,5,6.6,5.4v3.2h0.6
		c0.4,0,0.6,0.1,0.7,0.4c0,0.2,0.1,0.3,0.1,0.4c0,0.6-0.2,0.8-0.7,0.8H6.6v0.9c0,0.2-0.1,0.4-0.2,0.5s-0.3,0.1-0.5,0.1
		c-0.5,0-0.9,0-1-0.1c-0.1-0.1-0.2-0.2-0.2-0.3s-0.1-0.3-0.1-0.4v-0.7H2c-0.2,0-0.3,0-0.4,0c-0.1,0-0.2-0.1-0.3-0.2
		C1,9.7,0.9,9.5,0.9,9.1c0-0.2,0-0.4,0.1-0.5c0-0.2,0.1-0.3,0.2-0.4L3.9,4.8z M4.7,6.3L4.7,6.3L3.1,8.6h1.6V6.3z"/>
	<path d="M15.1,10.5c0,0.2,0,0.4-0.1,0.5s-0.2,0.2-0.4,0.4c-0.2,0.1-0.6,0.3-1,0.3c-0.4,0.1-0.8,0.1-1.3,0.1c-0.6,0-1.1-0.1-1.6-0.2
		c-0.5-0.2-0.9-0.4-1.3-0.7c-0.4-0.3-0.7-0.7-0.9-1.2c-0.2-0.5-0.3-1-0.3-1.6c0-0.6,0.1-1.2,0.3-1.7c0.2-0.5,0.5-0.9,1-1.3
		c0.4-0.3,0.8-0.5,1.3-0.7c0.5-0.2,1-0.2,1.6-0.2c0.7,0,1.3,0.1,1.8,0.4s0.7,0.6,0.7,1c0,0.2-0.1,0.4-0.2,0.6
		c-0.1,0.1-0.2,0.2-0.4,0.2c-0.1,0-0.2,0-0.4-0.1C13.4,6,13,5.9,12.5,5.9c-0.7,0-1.2,0.2-1.6,0.6c-0.4,0.4-0.6,0.9-0.6,1.6
		c0,0.7,0.2,1.2,0.5,1.6c0.4,0.4,0.8,0.6,1.5,0.6c0.3,0,0.6-0.1,0.8-0.2V8.9h-0.8c-0.4,0-0.6-0.1-0.6-0.4c0-0.2-0.1-0.3-0.1-0.4
		c0-0.5,0.2-0.8,0.7-0.8h2c0.2,0,0.4,0.1,0.6,0.2C15,7.6,15.1,7.8,15.1,8V10.5z"/>
</g>
</svg>
