<?xml version="1.0" encoding="utf-8"?>
<!-- Generator: Adobe Illustrator 25.2.1, SVG Export Plug-In . SVG Version: 6.00 Build 0)  -->
<svg version="1.1" id="Layer_1" xmlns="http://www.w3.org/2000/svg" xmlns:xlink="http://www.w3.org/1999/xlink" x="0px" y="0px"
	 viewBox="0 0 16 16" style="enable-background:new 0 0 16 16;" xml:space="preserve">
<g>
	<path d="M6.1,4.7c0.5,0.4,0.7,0.9,0.7,1.5c0,0.3-0.1,0.7-0.3,0.9C6.3,7.5,6.1,7.7,5.8,7.8C6.6,8.2,7,8.8,7,9.6
		c0,0.3-0.1,0.6-0.2,0.9c-0.1,0.3-0.4,0.5-0.6,0.7c-0.5,0.4-1.2,0.6-2.1,0.6c-0.8,0-1.5-0.1-1.9-0.3c-0.4-0.2-0.6-0.5-0.6-0.9
		c0-0.2,0-0.4,0.2-0.6C1.7,9.9,1.9,9.8,2,9.8c0.1,0,0.3,0,0.4,0.1c0.4,0.2,0.8,0.3,1.3,0.3c0.4,0,0.7-0.1,0.9-0.2s0.3-0.3,0.3-0.6
		S4.8,9,4.7,8.9C4.5,8.8,4.2,8.7,3.9,8.7H3.2c-0.4,0-0.6-0.1-0.6-0.4c0-0.1,0-0.3,0-0.4l0-0.4c0.1-0.3,0.3-0.4,0.7-0.4h0.6
		c0.6,0,0.9-0.2,0.9-0.7c0-0.2-0.1-0.4-0.3-0.5C4.3,5.8,4,5.8,3.6,5.8c-0.4,0-0.7,0.1-1,0.2C2.4,6,2.3,6,2.2,6C2,6,1.9,6,1.8,5.8
		C1.7,5.7,1.7,5.5,1.7,5.3c0-0.4,0.2-0.7,0.6-0.9c0.4-0.2,1-0.3,1.7-0.3C4.9,4.2,5.6,4.4,6.1,4.7z"/>
	<path d="M14.5,10.5c0,0.2,0,0.4-0.1,0.5s-0.2,0.2-0.4,0.4c-0.2,0.1-0.6,0.3-1,0.3c-0.4,0.1-0.8,0.1-1.3,0.1c-0.6,0-1.1-0.1-1.6-0.2
		c-0.5-0.2-0.9-0.4-1.3-0.7c-0.4-0.3-0.7-0.7-0.9-1.2c-0.2-0.5-0.3-1-0.3-1.6c0-0.6,0.1-1.2,0.3-1.7c0.2-0.5,0.5-0.9,1-1.3
		c0.4-0.3,0.8-0.5,1.3-0.7c0.5-0.2,1-0.2,1.6-0.2c0.7,0,1.3,0.1,1.8,0.4s0.7,0.6,0.7,1c0,0.2-0.1,0.4-0.2,0.6
		c-0.1,0.1-0.2,0.2-0.4,0.2c-0.1,0-0.2,0-0.4-0.1c-0.4-0.2-0.8-0.3-1.3-0.3c-0.7,0-1.2,0.2-1.6,0.6C9.9,6.8,9.7,7.4,9.7,8
		c0,0.7,0.2,1.2,0.5,1.6c0.4,0.4,0.8,0.6,1.5,0.6c0.3,0,0.6-0.1,0.8-0.2V8.9h-0.8c-0.4,0-0.6-0.1-0.6-0.4c0-0.2-0.1-0.3-0.1-0.4
		c0-0.5,0.2-0.8,0.7-0.8h2c0.2,0,0.4,0.1,0.6,0.2c0.1,0.1,0.2,0.3,0.2,0.6V10.5z"/>
</g>
</svg>
