<?xml version="1.0" encoding="utf-8"?>
<!-- Generator: Adobe Illustrator 25.2.1, SVG Export Plug-In . SVG Version: 6.00 Build 0)  -->
<svg version="1.1" id="Layer_1" xmlns="http://www.w3.org/2000/svg" xmlns:xlink="http://www.w3.org/1999/xlink" x="0px" y="0px"
	 viewBox="0 0 16 16" style="enable-background:new 0 0 16 16;" xml:space="preserve">
<style type="text/css">
	.st0{fill:none;stroke:#000000;stroke-width:0.5;stroke-miterlimit:10;}
</style>
<path d="M14.4,4.6c0.5,0,0.7-0.6,0.3-0.9l-3.9-3.1v1.8c0,0.3-0.2,0.5-0.5,0.5h-2c-0.3,0-0.5,0.2-0.5,0.5v0.7c0,0.3,0.2,0.5,0.5,0.5
	H14.4z"/>
<path d="M1.5,11.4c-0.5,0-0.7,0.6-0.3,0.9l3.9,3.1v-1.8c0-0.3,0.2-0.5,0.5-0.5h2c0.3,0,0.5-0.2,0.5-0.5v-0.7c0-0.3-0.2-0.5-0.5-0.5
	H1.5z"/>
<g>
	<g>
		<path class="st0" d="M4.1,9.8H1.8c-0.3,0-0.5-0.2-0.5-0.5V7.1c0-0.3,0.2-0.5,0.5-0.5h2.3c0.3,0,0.5,0.2,0.5,0.5v2.3
			C4.6,9.6,4.4,9.8,4.1,9.8z"/>
	</g>
	<g>
		<path class="st0" d="M9.1,9.8H6.9c-0.3,0-0.5-0.2-0.5-0.5V7.1c0-0.3,0.2-0.5,0.5-0.5h2.3c0.3,0,0.5,0.2,0.5,0.5v2.3
			C9.6,9.6,9.4,9.8,9.1,9.8z"/>
	</g>
	<g>
		<path class="st0" d="M14.2,9.8h-2.3c-0.3,0-0.5-0.2-0.5-0.5V7.1c0-0.3,0.2-0.5,0.5-0.5h2.3c0.3,0,0.5,0.2,0.5,0.5v2.3
			C14.7,9.6,14.5,9.8,14.2,9.8z"/>
	</g>
</g>
</svg>
