<?xml version="1.0" encoding="utf-8"?>
<!-- Generator: Adobe Illustrator 25.2.1, SVG Export Plug-In . SVG Version: 6.00 Build 0)  -->
<svg version="1.1" id="Layer_1" xmlns="http://www.w3.org/2000/svg" xmlns:xlink="http://www.w3.org/1999/xlink" x="0px" y="0px"
	 viewBox="0 0 16 16" style="enable-background:new 0 0 16 16;" xml:space="preserve">
<g>
	<path d="M11.2,8.9c0,0.6-0.1,1.1-0.4,1.5c-0.3,0.4-0.6,0.8-1.1,1S8.7,11.8,8,11.8s-1.2-0.1-1.7-0.4c-0.5-0.2-0.9-0.6-1.1-1
		C4.9,10,4.8,9.5,4.8,8.9v-4c0-0.3,0.1-0.5,0.2-0.5c0.1-0.1,0.3-0.1,0.5-0.1l0.3,0c0.4,0,0.7,0.1,0.9,0.2s0.3,0.4,0.3,0.8v3.7
		c0,0.4,0.1,0.7,0.3,0.9C7.4,10,7.7,10.1,8,10.1S8.6,10,8.8,9.8C9,9.6,9.1,9.3,9.1,8.9v-4c0-0.3,0.1-0.5,0.2-0.5
		c0.1-0.1,0.3-0.1,0.5-0.1l0.3,0c0.4,0,0.7,0.1,0.9,0.2s0.3,0.4,0.3,0.8V8.9z"/>
</g>
</svg>
