<?xml version="1.0" encoding="utf-8"?>
<!-- Generator: Adobe Illustrator 25.2.3, SVG Export Plug-In . SVG Version: 6.00 Build 0)  -->
<svg version="1.1" id="Layer_1" xmlns="http://www.w3.org/2000/svg" xmlns:xlink="http://www.w3.org/1999/xlink" x="0px" y="0px"
	 viewBox="0 0 16 16" style="enable-background:new 0 0 16 16;" xml:space="preserve">
<style type="text/css">
	.st0{fill:#B5B5B5;fill-opacity:0.5;}
</style>
<g>
	<g>
		<path class="st0" d="M16,5.6C16,5.6,16,5.6,16,5.6c-2.1-2.1-5-3.3-8-3.3c-3,0-5.8,1.2-7.9,3.3C0,5.6,0,5.7,0,5.7
			c0,0,0,0.1,0.1,0.1L1.2,7c0,0,0.1,0.1,0.1,0.1c0,0,0.1,0,0.1-0.1C3.2,5.3,5.5,4.3,8,4.3c2.5,0,4.8,1,6.5,2.7c0,0,0.1,0.1,0.1,0.1
			c0,0,0.1,0,0.1-0.1l1.2-1.2C16,5.8,16,5.8,16,5.6C16,5.7,16,5.7,16,5.6z"/>
		<path d="M8,5.4c-2.2,0-4.2,0.9-5.8,2.4C2.2,7.9,2.2,8,2.2,8l1.2,1.2c0,0,0.1,0.1,0.1,0.1s0.1,0,0.1-0.1C4.8,8,6.4,7.4,8,7.4
			c1.6,0,3.2,0.6,4.4,1.8c0,0,0.1,0.1,0.1,0.1c0,0,0.1,0,0.1-0.1L13.8,8c0,0,0,0,0-0.1c0-0.1,0-0.1,0-0.2C12.2,6.2,10.2,5.4,8,5.4z"
			/>
		<path d="M8,8.5C6.6,8.5,5.4,9,4.4,10c0,0-0.1,0.1-0.1,0.1c0,0,0,0.1,0.1,0.1l1.2,1.2c0,0,0.1,0.1,0.1,0.1c0,0,0.1,0,0.1-0.1
			c0.6-0.6,1.4-0.9,2.2-0.9s1.6,0.3,2.2,0.9c0,0,0.1,0.1,0.1,0.1c0,0,0.1,0,0.1-0.1l1.2-1.2c0.1-0.1,0.1-0.2,0-0.2
			C10.6,9,9.4,8.5,8,8.5z"/>
		<path d="M8,11.7c-0.5,0-0.9,0.2-1.3,0.5c-0.1,0.1-0.1,0.2,0,0.2l1.1,1.1c0,0,0.1,0.1,0.1,0.1c0,0,0.1,0,0.1-0.1l1.1-1.1
			c0.1-0.1,0.1-0.2,0-0.2C8.9,11.9,8.5,11.7,8,11.7z"/>
	</g>
</g>
</svg>
