<?xml version="1.0" encoding="utf-8"?>
<!-- Generator: Adobe Illustrator 25.2.1, SVG Export Plug-In . SVG Version: 6.00 Build 0)  -->
<svg version="1.1" id="Layer_1" xmlns="http://www.w3.org/2000/svg" xmlns:xlink="http://www.w3.org/1999/xlink" x="0px" y="0px"
	 viewBox="0 0 16 16" style="enable-background:new 0 0 16 16;" xml:space="preserve">
<g>
	<path d="M2.5,14.9h-1c-0.2,0-0.3-0.1-0.3-0.3v-1c0-0.2,0.1-0.3,0.3-0.3h1c0.2,0,0.3,0.1,0.3,0.3v1C2.8,14.7,2.7,14.9,2.5,14.9z"/>
	<path d="M5.4,14.9h-1c-0.2,0-0.3-0.1-0.3-0.3v-4.3c0-0.2,0.1-0.3,0.3-0.3h1c0.2,0,0.3,0.1,0.3,0.3v4.3C5.7,14.7,5.6,14.9,5.4,14.9z
		"/>
	<path d="M8.4,14.9h-1c-0.2,0-0.3-0.1-0.3-0.3V6.4c0-0.2,0.1-0.3,0.3-0.3h1c0.2,0,0.3,0.1,0.3,0.3v8.2C8.7,14.7,8.5,14.9,8.4,14.9z"
		/>
	<path d="M11.6,14.9h-1c-0.2,0-0.3-0.1-0.3-0.3V3.9c0-0.2,0.1-0.3,0.3-0.3h1c0.2,0,0.3,0.1,0.3,0.3v10.7
		C12,14.7,11.8,14.9,11.6,14.9z"/>
	<path d="M14.5,14.9h-1c-0.2,0-0.3-0.1-0.3-0.3V1.5c0-0.2,0.1-0.3,0.3-0.3h1c0.2,0,0.3,0.1,0.3,0.3v13.1
		C14.8,14.7,14.7,14.9,14.5,14.9z"/>
</g>
<g>
	<path d="M1,3.4c0.3,0,0.5-0.2,0.5-0.5c0,0,0-0.1,0-0.1c0-0.3,0.3-0.6,0.7-0.6c0.4,0,0.7,0.3,0.7,0.6c0,0.2-0.1,0.4-0.2,0.5
		C2.6,3.5,2.4,3.6,2.2,3.6C2,3.6,1.7,3.8,1.7,4.1V5c0,0.3,0.2,0.5,0.5,0.5S2.7,5.3,2.7,5V4.5C3,4.4,3.3,4.3,3.5,4.1
		C3.8,3.7,4,3.3,3.9,2.8c0-0.9-0.8-1.6-1.7-1.6c0,0,0,0,0,0c-0.8,0-1.6,0.6-1.7,1.5c0,0.1,0,0.2,0,0.2C0.5,3.2,0.8,3.4,1,3.4L1,3.4z
		"/>
	<path d="M2.7,6.4C2.6,6.1,2.3,6,2,6.1C1.8,6.2,1.7,6.5,1.8,6.8C1.9,7,2.2,7.2,2.4,7.1C2.7,7,2.8,6.7,2.7,6.4z"/>
</g>
</svg>
