<?xml version="1.0" encoding="utf-8"?>
<!-- Generator: Adobe Illustrator 25.2.3, SVG Export Plug-In . SVG Version: 6.00 Build 0)  -->
<svg version="1.1" id="Layer_1" xmlns="http://www.w3.org/2000/svg" xmlns:xlink="http://www.w3.org/1999/xlink" x="0px" y="0px"
	 viewBox="0 0 16 16" style="enable-background:new 0 0 16 16;" xml:space="preserve">
<style type="text/css">
	.st0{fill:#B5B5B5;fill-opacity:0.5;}
</style>
<g>
	<path d="M14.2,10.9C14.2,10.9,14.2,10.9,14.2,10.9c-1-0.9-1.6-2.1-1.6-3.4V5.6C12.7,3.1,10.6,1,8,1c0,0,0,0,0,0s0,0,0,0
		C5.4,1,3.3,3.1,3.3,5.6v1.9c0,1.3-0.6,2.5-1.5,3.4c0,0,0,0-0.1,0c-0.3,0.2-0.4,0.5-0.4,0.9c0,0.6,0.5,1.2,1.2,1.2h3
		c0.2,1.2,1.2,2,2.4,2c0,0,0,0,0,0s0,0,0,0c1.2,0,2.2-0.9,2.4-2h3c0.6,0,1.2-0.5,1.2-1.2C14.6,11.5,14.5,11.1,14.2,10.9z M8,14
		C8,14,8,14,8,14C8,14,8,14,8,14c-0.7,0-1.2-0.4-1.4-1.1H8h1.4C9.2,13.6,8.7,14,8,14z M13.5,12H8H2.5c-0.1,0-0.2-0.1-0.2-0.2
		c0,0,0-0.1,0-0.1c0,0,0,0,0,0c1.2-1,1.9-2.6,1.9-4.2V5.6C4.3,3.6,6,2,8,2c0,0,0,0,0,0s0,0,0,0c2,0,3.7,1.6,3.7,3.7v1.9
		c0,1.6,0.7,3.1,1.9,4.2c0,0,0,0,0,0c0,0,0,0.1,0,0.1C13.7,11.9,13.6,12,13.5,12z"/>
</g>
<path class="st0" d="M8,13.9c0.6,0,1-0.4,1.2-0.9H6.8C7,13.5,7.5,13.9,8,13.9z"/>
<path class="st0" d="M11.4,7.5V5.7c0-1.9-1.6-3.5-3.4-3.5c-1.9,0-3.4,1.6-3.4,3.5v1.8c0,1.6-0.7,3-1.8,4v0.1c0,0.1,0.1,0.2,0.2,0.2
	h5h5c0.1,0,0.2-0.1,0.2-0.2v-0.1C12.1,10.5,11.4,9.1,11.4,7.5z"/>
</svg>
