<?xml version="1.0" encoding="utf-8"?>
<!-- Generator: Adobe Illustrator 25.2.3, SVG Export Plug-In . SVG Version: 6.00 Build 0)  -->
<svg version="1.1" id="Layer_1" xmlns="http://www.w3.org/2000/svg" xmlns:xlink="http://www.w3.org/1999/xlink" x="0px" y="0px"
	 viewBox="0 0 16 16" style="enable-background:new 0 0 16 16;" xml:space="preserve">
<g>
	<g>
		<path d="M12.4,16H3.7C1.7,16,0,14.4,0,12.3l0.6-8.6C0.7,1.6,2.3,0,4.4,0h7.3c2.1,0,3.7,1.6,3.7,3.7l0.6,8.5
			C16,14.4,14.4,16,12.4,16z M4.5,1C2.9,1,1.8,2.3,1.8,3.7l-0.6,8.6c0,1.4,1.2,2.7,2.7,2.7h8.5c1.4,0,2.7-1.2,2.7-2.7l-0.6-8.5
			c0-1.5-1.2-2.8-2.7-2.8C11.7,1,4.5,1,4.5,1z"/>
	</g>
	<g>
		<path d="M7.6,6.3L7,6.5c-0.9,0.3-1.4-1-0.4-1.4l1.6-0.6c0.5-0.2,1,0,1,0.8v6.3c0,0.8-1.5,0.8-1.5,0V6.3z"/>
	</g>
</g>
</svg>
