<?xml version="1.0" encoding="utf-8"?>
<!-- Generator: Adobe Illustrator 25.2.3, SVG Export Plug-In . SVG Version: 6.00 Build 0)  -->
<svg version="1.1" id="Layer_1" xmlns="http://www.w3.org/2000/svg" xmlns:xlink="http://www.w3.org/1999/xlink" x="0px" y="0px"
	 viewBox="0 0 16 16" style="enable-background:new 0 0 16 16;" xml:space="preserve">
<style type="text/css">
	.st0{fill:#020202;}
	.st1{fill-rule:evenodd;clip-rule:evenodd;fill:#020202;}
</style>
<path class="st0" d="M13.6,5.6c0-0.7-0.5-1.2-1.2-1.2c-0.4,0-0.7,0-1.1,0c0-0.1,0-0.1,0-0.2c0-0.3,0-1.3,0-1.6
	c0-0.7-0.5-1.2-1.2-1.2c-1.5,0-3,0-4.5,0C5,1.4,4.5,1.9,4.5,2.6c0,0.6,0,1.1,0,1.7c0,0,0,0.1,0,0.1c-0.3,0-0.6,0-0.9,0
	C3,4.4,2.5,4.9,2.5,5.5c0,1.1,0,2.2,0,3.4c0,0.5,0.4,1,0.9,1.1c0.3,0,0.6,0,1,0c0,0,0.1,0,0.1,0c0,0.4,0,0.9,0,1.3
	c0,0.6,0.5,1.1,1.1,1.1c1.6,0,3.2,0,4.8,0c0.6,0,1.1-0.5,1.1-1.1c0-0.4,0-0.8,0-1.1c0,0,0-0.1,0-0.1c0.3,0,0.6,0,0.9,0
	c0.7,0,1.2-0.5,1.2-1.2C13.6,7.7,13.6,6.7,13.6,5.6z M5.3,2.6c0-0.3,0.1-0.4,0.4-0.4c1.5,0,3,0,4.6,0c0.3,0,0.4,0.1,0.4,0.4
	c0,0.3,0,1.3,0,1.6c0,0.1,0,0.1,0,0.2c-1.8,0-3.5,0-5.3,0c0,0-0.1,0-0.2,0C5.3,3.8,5.3,3.2,5.3,2.6z M10.8,11.2
	c0,0.3-0.2,0.4-0.4,0.4c-0.8,0-1.6,0-2.4,0c0,0,0,0,0,0c-0.8,0-1.6,0-2.4,0c-0.3,0-0.4-0.1-0.4-0.4c0-0.7,0-1.3,0-2
	c0-0.3,0.1-0.4,0.4-0.4c1.6,0,3.2,0,4.7,0c0.3,0,0.4,0.1,0.4,0.4C10.9,9.9,10.9,10.6,10.8,11.2z"/>
<path class="st1" d="M15.6,14c-0.5-0.7-1-1.6-1.5-2.3c-0.2-0.3-0.5-0.4-0.8-0.4s-0.6,0.2-0.8,0.4c-0.5,0.7-1,1.6-1.5,2.3
	c-0.2,0.3-0.2,0.7,0,1c0.2,0.3,0.5,0.5,0.8,0.5h3c0.3,0,0.7-0.2,0.8-0.5C15.8,14.7,15.7,14.3,15.6,14z M13.6,14.4
	c0,0.2-0.2,0.3-0.3,0.3h-0.1c-0.2,0-0.3-0.2-0.3-0.3v-0.1c0-0.2,0.1-0.3,0.3-0.3h0.1c0.2,0,0.3,0.2,0.3,0.3V14.4z M13.6,13.2
	L13.6,13.2l-0.1,0.4c0,0.1-0.2,0.2-0.3,0.2c-0.2,0-0.3-0.1-0.3-0.2L13,13.2v-0.1v-0.9c0-0.2,0.1-0.3,0.3-0.3h0.1
	c0.2,0,0.3,0.2,0.3,0.3V13.2z"/>
</svg>
