<?xml version="1.0" encoding="utf-8"?>
<!-- Generator: Adobe Illustrator 25.2.3, SVG Export Plug-In . SVG Version: 6.00 Build 0)  -->
<svg version="1.1" id="Layer_1" xmlns="http://www.w3.org/2000/svg" xmlns:xlink="http://www.w3.org/1999/xlink" x="0px" y="0px"
	 viewBox="0 0 16 16" style="enable-background:new 0 0 16 16;" xml:space="preserve">
<path d="M13.8,9.9c-0.8,2.4-3.1,4.1-5.7,4c-3.3,0-6-2.7-6-6c0-3.3,2.7-6,6-6c2.6,0,4.9,1.7,5.7,4c0,0.1,0.2,0.2,0.3,0.2h0.5
	c0.2,0,0.4-0.2,0.3-0.4c-0.9-2.9-3.7-5-6.9-5C4.2,0.9,1,4.1,1,8c0,4,3.2,7.2,7.2,7.2c3.2,0,5.9-2.1,6.8-5c0.1-0.2-0.1-0.4-0.3-0.4
	h-0.5C14,9.7,13.9,9.8,13.8,9.9z"/>
</svg>
