<?xml version="1.0" encoding="utf-8"?>
<!-- Generator: Adobe Illustrator 25.2.3, SVG Export Plug-In . SVG Version: 6.00 Build 0)  -->
<svg version="1.1" id="Layer_1" xmlns="http://www.w3.org/2000/svg" xmlns:xlink="http://www.w3.org/1999/xlink" x="0px" y="0px"
	 viewBox="0 0 16 16" style="enable-background:new 0 0 16 16;" xml:space="preserve">
<g>
	<g>
		<path d="M5,3.2c-1,1-1.6,2.4-1.6,3.9L2.2,6C2.1,5.8,1.8,5.8,1.6,6c-0.2,0.2-0.2,0.4,0,0.6l1.8,1.8c0.1,0.1,0.3,0.2,0.5,0.1
			l2.4-1.2c0.2-0.1,0.3-0.4,0.2-0.6C6.5,6.5,6.2,6.4,6,6.5L4.2,7.4C4.1,4.8,6.1,2.6,8.7,2.5s4.8,1.9,4.9,4.5s-1.9,4.8-4.5,4.9
			c-1.6,0.1-3.1-0.7-4-2C4.9,9.7,4.7,9.7,4.5,9.8c-0.2,0.1-0.2,0.4-0.1,0.6c0,0,0,0,0,0c0.2,0.3,0.4,0.5,0.6,0.7
			c2.2,2.2,5.7,2.2,7.9,0c2.2-2.2,2.2-5.7,0-7.9C10.7,1,7.2,1,5,3.2z"/>
	</g>
</g>
<path d="M15.1,13.3L15.1,13.3l0-0.5c0-0.3-0.3-0.6-0.6-0.6h-0.3H14c-0.3,0-0.6,0.3-0.6,0.6v0.5l0,0c-0.2,0.1-0.4,0.3-0.4,0.6v1.2
	c0,0.3,0.3,0.6,0.6,0.6h0.7h0.7c0.3,0,0.6-0.3,0.6-0.6v-1.2C15.5,13.6,15.4,13.4,15.1,13.3z M13.6,12.8c0-0.2,0.2-0.3,0.3-0.3h0.3
	h0.3c0.2,0,0.3,0.2,0.3,0.3v0.5h-0.6h-0.6V12.8z M14.9,15.5h-0.7h-0.7c-0.2,0-0.3-0.2-0.3-0.3v-1.3c0-0.2,0.2-0.3,0.3-0.3h0.7h0.7
	c0.2,0,0.3,0.2,0.3,0.3v1.3C15.3,15.3,15.1,15.5,14.9,15.5z"/>
</svg>
