<?xml version="1.0" encoding="utf-8"?>
<!-- Generator: Adobe Illustrator 25.2.3, SVG Export Plug-In . SVG Version: 6.00 Build 0)  -->
<svg version="1.1" id="Layer_1" xmlns="http://www.w3.org/2000/svg" xmlns:xlink="http://www.w3.org/1999/xlink" x="0px" y="0px"
	 viewBox="0 0 16 16" style="enable-background:new 0 0 16 16;" xml:space="preserve">
<path d="M12.5,3.3L8.6,1.6c-0.4-0.2-0.9-0.2-1.3,0L3.5,3.3c-0.6,0.3-1,0.9-1,1.5v1.8c0,3.3,1.9,6.4,4.9,7.8c0.4,0.2,0.9,0.2,1.3,0
	c3-1.4,4.9-4.4,4.9-7.8V4.8C13.6,4.1,13.1,3.5,12.5,3.3z M12.5,6.6c0,2.8-1.5,5.4-4,6.7c-0.3,0.2-0.7,0.2-1,0c-2.4-1.3-4-3.8-4-6.7
	V5.1c0-0.5,0.3-0.9,0.7-1.1l3.4-1.4c0.3-0.1,0.6-0.1,0.9,0l3.4,1.4c0.4,0.2,0.7,0.6,0.7,1.1V6.6z"/>
<path d="M10,6.1C9.8,6,9.5,6,9.4,6.1L8.1,7.2L8,7.4L6.7,6.1C6.5,6,6.2,6,6.1,6.1c-0.2,0.2-0.3,0.5,0,0.8l1.2,1.2L6.1,9.3
	c-0.2,0.2-0.2,0.5,0,0.6s0.5,0.2,0.6,0L8,8.6l1.2,1.2c0.2,0.2,0.5,0.2,0.6,0c0.1-0.1,0.1-0.2,0.1-0.3c0-0.1,0-0.2-0.1-0.3l0,0L8.7,8
	l0.8-0.8h0L10,6.7C10.1,6.6,10.1,6.3,10,6.1z"/>
</svg>
