<?xml version="1.0" encoding="utf-8"?>
<!-- Generator: Adobe Illustrator 25.2.3, SVG Export Plug-In . SVG Version: 6.00 Build 0)  -->
<svg version="1.1" id="Layer_1" xmlns="http://www.w3.org/2000/svg" xmlns:xlink="http://www.w3.org/1999/xlink" x="0px" y="0px"
	 viewBox="0 0 16 16" style="enable-background:new 0 0 16 16;" xml:space="preserve">
<g>
	<g>
		<g>
			<path d="M8.7,2.1H7.3c-0.2,0-0.4,0.2-0.4,0.4c0,0.2,0.2,0.4,0.4,0.4h1.4c0.2,0,0.4-0.2,0.4-0.4C9.1,2.3,8.9,2.1,8.7,2.1z"/>
		</g>
	</g>
	<g>
		<g>
			<path d="M10.8,1H5.2C4.4,1,3.8,1.6,3.8,2.4v11.3c0,0.8,0.6,1.4,1.4,1.4h5.6c0.8,0,1.4-0.6,1.4-1.4V2.4C12.2,1.6,11.6,1,10.8,1z
				 M11.5,13.6c0,0.4-0.3,0.7-0.7,0.7H5.2c-0.4,0-0.7-0.3-0.7-0.7V2.4c0-0.4,0.3-0.7,0.7-0.7h5.6c0.4,0,0.7,0.3,0.7,0.7L11.5,13.6
				L11.5,13.6z"/>
		</g>
	</g>
	<g>
		<g>
			<circle cx="8" cy="13.2" r="0.7"/>
		</g>
	</g>
</g>
</svg>
