<?xml version="1.0" encoding="utf-8"?>
<!-- Generator: Adobe Illustrator 25.2.3, SVG Export Plug-In . SVG Version: 6.00 Build 0)  -->
<svg version="1.1" id="Layer_1" xmlns="http://www.w3.org/2000/svg" xmlns:xlink="http://www.w3.org/1999/xlink" x="0px" y="0px"
	 viewBox="0 0 16 16" style="enable-background:new 0 0 16 16;" xml:space="preserve">
<g>
	<g>
		<path d="M5.5,5.6l1.7,1.7c0.5,0.5,1.2,0.5,1.7,0l1.7-1.7c0.2-0.2,0.2-0.5,0-0.6C10.3,4.9,10,4.9,9.9,5L8.2,6.7
			c-0.2,0.1-0.3,0.1-0.4,0L6.2,5C6.1,4.9,6,4.9,5.9,4.9C5.7,4.9,5.7,4.9,5.6,5C5.4,5.2,5.4,5.4,5.5,5.6z"/>
		<path d="M5.5,8.4L7.2,10c0.5,0.5,1.2,0.5,1.7,0l1.7-1.7c0.2-0.2,0.2-0.5,0-0.6c-0.2-0.2-0.5-0.2-0.6,0L8.2,9.4
			c-0.2,0.1-0.3,0.1-0.4,0L6.2,7.8C6.1,7.7,6,7.6,5.9,7.6c-0.2,0-0.2,0.1-0.3,0.2C5.4,7.9,5.4,8.1,5.5,8.4z"/>
	</g>
	<g>
		<g>
			<path d="M8,14.1c-3.6,0-6.5-2.9-6.5-6.5S4.4,1.1,8,1.1s6.5,2.9,6.5,6.5S11.6,14.1,8,14.1z M8,2.1c-3,0-5.5,2.5-5.5,5.5
				S5,13.1,8,13.1s5.5-2.5,5.5-5.5S11,2.1,8,2.1z"/>
		</g>
	</g>
</g>
<g transform="translate(-5 -2.32258)">
	<path d="M19.4,13.8v1.5v0.1l0.1,0.6c0,0.2,0.2,0.3,0.4,0.3l0,0c0.2,0,0.4-0.2,0.4-0.3l0.1-0.6v-0.1v-1.5c0-0.2-0.2-0.4-0.4-0.4
		h-0.2C19.6,13.3,19.4,13.5,19.4,13.8z M19.4,17.1v0.2c0,0.2,0.2,0.4,0.4,0.4H20c0.2,0,0.4-0.2,0.4-0.4v-0.2c0-0.2-0.2-0.4-0.4-0.4
		h-0.2C19.6,16.7,19.4,16.9,19.4,17.1z"/>
</g>
</svg>
