<?xml version="1.0" encoding="utf-8"?>
<!-- Generator: Adobe Illustrator 25.2.3, SVG Export Plug-In . SVG Version: 6.00 Build 0)  -->
<svg version="1.1" id="Layer_1" xmlns="http://www.w3.org/2000/svg" xmlns:xlink="http://www.w3.org/1999/xlink" x="0px" y="0px"
	 viewBox="0 0 16 16" style="enable-background:new 0 0 16 16;" xml:space="preserve">
<g>
	<g>
		<path d="M5.5,5.4l1.7,1.7c0.5,0.5,1.2,0.5,1.7,0l1.7-1.7c0.2-0.2,0.2-0.5,0-0.6c-0.2-0.2-0.5-0.2-0.6,0L8.2,6.5
			c-0.2,0.1-0.3,0.1-0.4,0L6.2,4.8C6.1,4.7,6,4.7,5.9,4.7c-0.2,0-0.2,0.1-0.3,0.2C5.4,5,5.4,5.2,5.5,5.4z"/>
		<path d="M5.5,8.2l1.7,1.7c0.5,0.5,1.2,0.5,1.7,0l1.7-1.7c0.2-0.2,0.2-0.5,0-0.6c-0.2-0.2-0.5-0.2-0.6,0L8.2,9.2
			c-0.2,0.1-0.3,0.1-0.4,0L6.2,7.6C6.1,7.5,6,7.4,5.9,7.4c-0.2,0-0.2,0.1-0.3,0.2C5.4,7.7,5.4,7.9,5.5,8.2z"/>
	</g>
	<g>
		<g>
			<path d="M8,13.9c-3.6,0-6.5-2.9-6.5-6.5S4.4,0.9,8,0.9s6.5,2.9,6.5,6.5S11.6,13.9,8,13.9z M8,1.9c-3,0-5.5,2.5-5.5,5.5
				S5,12.9,8,12.9s5.5-2.5,5.5-5.5S11,1.9,8,1.9z"/>
		</g>
	</g>
</g>
</svg>
