<?xml version="1.0" encoding="UTF-8" standalone="no"?>
<!-- Generator: Adobe Illustrator 25.2.3, SVG Export Plug-In . SVG Version: 6.00 Build 0)  -->

<svg
   xmlns:dc="http://purl.org/dc/elements/1.1/"
   xmlns:cc="http://creativecommons.org/ns#"
   xmlns:rdf="http://www.w3.org/1999/02/22-rdf-syntax-ns#"
   xmlns:svg="http://www.w3.org/2000/svg"
   xmlns="http://www.w3.org/2000/svg"
   xmlns:sodipodi="http://sodipodi.sourceforge.net/DTD/sodipodi-0.dtd"
   xmlns:inkscape="http://www.inkscape.org/namespaces/inkscape"
   version="1.1"
   id="Layer_1"
   x="0px"
   y="0px"
   viewBox="0 0 16 16"
   xml:space="preserve"
   sodipodi:docname="timer-symbolic.svg"
   width="16"
   height="16"
   inkscape:version="0.92.4 (5da689c313, 2019-01-14)"><metadata
   id="metadata11"><rdf:RDF><cc:Work
       rdf:about=""><dc:format>image/svg+xml</dc:format><dc:type
         rdf:resource="http://purl.org/dc/dcmitype/StillImage" /><dc:title></dc:title></cc:Work></rdf:RDF></metadata><defs
   id="defs9"><filter
     inkscape:collect="always"
     style="color-interpolation-filters:sRGB"
     id="filter818"
     x="-0.014036402"
     width="1.0280728"
     y="-0.010479616"
     height="1.0209592"><feGaussianBlur
       inkscape:collect="always"
       stdDeviation="0.065497359"
       id="feGaussianBlur820" /></filter><filter
     inkscape:collect="always"
     style="color-interpolation-filters:sRGB"
     id="filter822"
     x="-0.02203382"
     width="1.0440676"
     y="-0.032763801"
     height="1.0655276"><feGaussianBlur
       inkscape:collect="always"
       stdDeviation="0.065497359"
       id="feGaussianBlur824" /></filter></defs><sodipodi:namedview
   pagecolor="#ffffff"
   bordercolor="#666666"
   borderopacity="1"
   objecttolerance="10"
   gridtolerance="10"
   guidetolerance="10"
   inkscape:pageopacity="0"
   inkscape:pageshadow="2"
   inkscape:window-width="1920"
   inkscape:window-height="1014"
   id="namedview7"
   showgrid="false"
   inkscape:zoom="20.85965"
   inkscape:cx="22.715665"
   inkscape:cy="12.837839"
   inkscape:window-x="0"
   inkscape:window-y="0"
   inkscape:window-maximized="1"
   inkscape:current-layer="Layer_1" />
<path
   d="m 2.4805705,13.551581 c 0.05338,0.186832 0.106761,0.373664 0.160142,0.533806 0.373664,0.774018 0.987541,1.227753 1.8416297,1.387895 0.02669,0 0.05338,0 0.08007,0.02669 h 0.02669 6.8327148 c 0.05338,-0.02669 0.133452,-0.02669 0.186832,-0.05338 0.133452,-0.02669 0.266903,-0.05338 0.400355,-0.106761 1.174373,-0.453735 1.788249,-1.601418 1.521347,-2.855862 -0.373665,-1.708179 -1.254444,-3.1761452 -2.588959,-4.3238272 -0.02669,-0.02669 -0.05338,-0.05338 -0.08007,-0.08007 -0.05338,-0.05338 -0.02669,-0.133452 0,-0.160142 l 0.02669,-0.02669 c 0.05338,-0.05338 0.106762,-0.08007 0.160142,-0.133452 1.334515,-1.201063 2.188604,-2.669029 2.508888,-4.403898 0.133451,-0.667257 -0.05338,-1.334515 -0.480425,-1.895011 -0.427045,-0.56049605 -1.094302,-0.90747005 -1.78825,-0.96085005 -0.08007,0 -0.133452,0 -0.213522,0 H 9.3666662 c -1.494657,0 -2.989313,0 -4.457279,0 -0.960851,0 -1.6814887,0.427044 -2.1886037,1.22775305 -0.160142,0.240213 -0.240213,0.533806 -0.293593,0.88078 0,0.02669 0,0.05338 -0.02669,0.08007 v 0.02669 0.427045 c 0.02669,0.133451 0.08007,0.293593 0.106761,0.427044 0.08007,0.320284 0.160142,0.640567 0.266903,0.960851 0.453735,1.281134 1.2010637,2.375436 2.2686747,3.282906 0.02669,0.02669 0.05338,0.05338 0.106761,0.08007 0.02669,0.02669 0.02669,0.05338 0.02669,0.08007 0,0.02669 0,0.05338 -0.02669,0.08007 l -0.106761,0.08007 c -0.106761,0.08007 -0.186832,0.160142 -0.293593,0.266903 C 3.5481835,9.5480338 2.7474745,10.96262 2.4271915,12.617418 l -0.02669,0.213522 0.02669,0.560496 c 0.02669,0.02669 0.02669,0.106761 0.05338,0.160142 z m 1.067612,-0.747328 c 0.186832,-1.120993 0.7206377,-2.161914 1.5480367,-3.0693842 0.293593,-0.320283 0.613877,-0.613877 0.93416,-0.90747 0.133452,-0.106761 0.240213,-0.213522 0.373664,-0.346974 0.160142,-0.133451 0.240213,-0.240212 0.240213,-0.400354 0.02669,-0.213522 -0.05338,-0.373664 -0.240213,-0.560496 -0.08007,-0.08007 -0.186832,-0.160142 -0.266903,-0.266903 -0.373664,-0.346974 -0.747328,-0.693948 -1.094302,-1.067612 -0.747328,-0.827399 -1.254443,-1.78825 -1.4679657,-2.829171 -0.133451,-0.613877 0,-1.040921 0.4003547,-1.387895 0.240212,-0.213523 0.507115,-0.320284 0.800708,-0.320284 0.480426,0 0.960851,0 1.414586,0 h 0.346974 0.90747 c 1.227753,0 2.428816,0 3.6565698,0 0.667257,0 1.201063,0.400355 1.334514,1.014231 0.08007,0.293594 0,0.613877 -0.05338,0.85409 -0.240213,1.094302 -0.827399,2.081843 -1.761559,3.042693 -0.213523,0.213523 -0.427045,0.427045 -0.6405668,0.613877 -0.106762,0.106761 -0.213523,0.186832 -0.320284,0.293593 l -0.05338,0.05338 c -0.05338,0.05338 -0.133451,0.106761 -0.160141,0.186832 -0.160142,0.213522 -0.106762,0.507115 0.05338,0.693947 0.106761,0.106762 0.240213,0.213523 0.346974,0.320284 0.08007,0.08007 0.1601418,0.133451 0.2669028,0.213522 0.987541,0.88078 1.628108,1.7615602 2.028462,2.7224102 0.186832,0.480425 0.320284,0.90747 0.346974,1.334515 0.02669,0.346974 -0.08007,0.693947 -0.320283,0.96085 -0.240213,0.266903 -0.587187,0.427045 -0.960851,0.427045 -0.427045,0 -0.854089,0 -1.2811338,0 -0.320284,0 -0.640567,0 -0.960851,0 h -4.110305 c -0.400354,0 -0.747328,-0.160142 -1.014231,-0.453735 C 3.6015625,13.604962 3.4948015,13.204607 3.5481825,12.804253 Z"
   id="path2"
   inkscape:connector-curvature="0"
   style="stroke-width:0.26690292;filter:url(#filter818)"
   transform="matrix(0.9337921,0,0,0.92710223,0.52966315,0.58318214)" />
<path
   d="m 7.9896523,10.38703 c -0.90747,0 -1.81494,0 -2.72241,0 -0.453735,0 -0.774018,-0.240212 -0.827399,-0.6672568 -0.02669,-0.160142 0.02669,-0.346974 0.106761,-0.507116 0.640567,-1.334514 1.574728,-2.428816 2.775791,-3.282906 0.213522,-0.160142 0.427044,-0.373664 0.720638,-0.320283 0.133451,0.02669 0.266903,0.05338 0.373664,0.133451 0.987541,0.720638 1.8950107,1.548037 2.5355777,2.588959 0.186832,0.320283 0.373664,0.640567 0.533806,0.96085 0.240212,0.480425 -0.08007,1.0409218 -0.613877,1.0943018 -0.293593,0.02669 -0.587187,0 -0.8807797,0 -0.693948,0 -1.361205,0 -2.001772,0 z"
   id="path4"
   inkscape:connector-curvature="0"
   style="stroke-width:0.26690292;filter:url(#filter822)"
   transform="matrix(0.9337921,0,0,0.92710223,0.52966315,0.58318214)" />
</svg>