<?xml version="1.0" encoding="utf-8"?>
<!-- Generator: Adobe Illustrator 25.2.3, SVG Export Plug-In . SVG Version: 6.00 Build 0)  -->
<svg version="1.1" id="Layer_1" xmlns="http://www.w3.org/2000/svg" xmlns:xlink="http://www.w3.org/1999/xlink" x="0px" y="0px"
	 viewBox="0 0 16 16" style="enable-background:new 0 0 16 16;" xml:space="preserve">
<path d="M11.9,1.9c-0.3-0.2-0.6-0.3-0.9-0.3c0,0-0.1,0-0.1,0c-1.9,0-3.8,0-5.8,0C5,1.6,4.9,1.6,4.7,1.7C3.5,2,2.8,3,2.7,4.2
	c0,2.4,0,1.8,0,4.3c0,1.2,0.7,2.1,1.8,2.5c0.3,0.1,0.6,0.1,0.8,0.1c1.7,0,3.5,0,5.2,0c1.3,0,2.4-0.9,2.6-2.1c0-0.2,0-0.4,0-0.5
	c0-2.4,0-1.8,0-4.2C13.3,3.3,12.8,2.5,11.9,1.9z M12.2,4.2C12.2,4.2,12.2,4.2,12.2,4.2c-1.2,0-2.4,0-3.7,0V2.6c0.7,0,1.5,0,2.2,0
	C11.5,2.6,12.2,3.4,12.2,4.2z M4.4,3c0.3-0.2,0.6-0.4,1-0.4c0.7,0,1.4,0,2.1,0v1.6c-1.2,0-2.4,0-3.7,0C3.8,3.7,4,3.3,4.4,3z
	 M12.2,8.5c0,0.8-0.5,1.5-1.4,1.6c-0.1,0-0.2,0-0.3,0c-1.7,0-3.5,0-5.2,0c-0.8,0-1.4-0.5-1.6-1.3c0-0.1,0-0.2,0-0.4c0-2,0-1.1,0-3.1
	c0,0,0-0.1,0-0.1c2.8,0,5.6,0,8.4,0c0,0,0,0.1,0,0.1C12.2,7.4,12.2,6.5,12.2,8.5z"/>
</svg>
