<?xml version="1.0" encoding="utf-8"?>
<!-- Generator: Adobe Illustrator 25.2.3, SVG Export Plug-In . SVG Version: 6.00 Build 0)  -->
<svg version="1.1"
	 id="svg72" inkscape:version="0.92.5 (6c0c36ef5a, 2020-05-15, custom)" sodipodi:docname="folder-video.svg" xmlns:cc="http://creativecommons.org/ns#" xmlns:dc="http://purl.org/dc/elements/1.1/" xmlns:inkscape="http://www.inkscape.org/namespaces/inkscape" xmlns:rdf="http://www.w3.org/1999/02/22-rdf-syntax-ns#" xmlns:sodipodi="http://sodipodi.sourceforge.net/DTD/sodipodi-0.dtd" xmlns:svg="http://www.w3.org/2000/svg"
	 xmlns="http://www.w3.org/2000/svg" xmlns:xlink="http://www.w3.org/1999/xlink" x="0px" y="0px" viewBox="0 0 200 200"
	 style="enable-background:new 0 0 200 200;" xml:space="preserve">
<style type="text/css">
	.st0{fill:url(#SVGID_1_);}
	.st1{fill:url(#SVGID_2_);}
	.st2{opacity:0.4;}
	.st3{fill:#283142;}
</style>
<g>
	<linearGradient id="SVGID_1_" gradientUnits="userSpaceOnUse" x1="162.2507" y1="-81.5411" x2="62.1355" y2="147.6383">
		<stop  offset="0" style="stop-color:#56CCF2"/>
		<stop  offset="1" style="stop-color:#2F80ED"/>
	</linearGradient>
	<path class="st0" d="M165.5,32.5h-135c-11.6,0-21,9.3-21.1,20.9c0,1,0.1,1.9,0.2,2.9c0.3,2.3,2.4,3.9,4.7,3.6
		c0.6-0.1,1.1-0.3,1.6-0.5c1.9-1.1,4-1.6,6.1-1.6h21.6c5.4,0,10.2,3.5,12,8.6l0.7,2.3c2.9,8.6,11,14.4,20,14.4h97.6
		c2.2,0,4.4,0.6,6.3,1.7c2,1.2,4.6,0.5,5.8-1.5c0.4-0.6,0.6-1.4,0.6-2.1V53.6C186.6,41.9,177.2,32.5,165.5,32.5z"/>
	<linearGradient id="SVGID_2_" gradientUnits="userSpaceOnUse" x1="94.437" y1="-34.0056" x2="105.07" y2="252.1995">
		<stop  offset="0" style="stop-color:#56CCF2"/>
		<stop  offset="1" style="stop-color:#2F80ED"/>
	</linearGradient>
	<path class="st1" d="M186.6,56.6c-3.2-1.9-6.9-2.9-10.6-2.9H78.5c-5.4,0-10.2-3.5-12-8.6l-0.7-2.3c-2.9-8.6-11-14.4-20-14.4H24.1
		c-3.6,0-7.2,0.9-10.3,2.7c-1.7,0.9-3.2,2.1-4.5,3.4C5.3,38.4,3,43.8,3,49.4v107.9c0,8,6.5,14.4,14.4,14.4h42.8h88h34.4
		c8,0,14.4-6.5,14.4-14.4V74.9C197.2,67.4,193.2,60.4,186.6,56.6z"/>
</g>
<sodipodi:namedview  bordercolor="#666666" borderopacity="1" gridtolerance="10" guidetolerance="10" id="namedview74" inkscape:current-layer="svg72" inkscape:cx="83.104287" inkscape:cy="44.588438" inkscape:pageopacity="0" inkscape:pageshadow="2" inkscape:window-height="949" inkscape:window-maximized="1" inkscape:window-width="1920" inkscape:window-x="0" inkscape:window-y="36" inkscape:zoom="0.59" objecttolerance="10" pagecolor="#ffffff" showgrid="false">
	</sodipodi:namedview>
<g class="st2">
	<g>
		<path class="st3" d="M82.7,150.2c-5.2,0-9.5-4.3-9.5-9.5V80.9c0-1.9,0.6-3.7,1.6-5.3c1.4-2.1,3.5-3.5,6-4s5,0,7.1,1.4l45,30
			c1,0.7,1.9,1.6,2.6,2.6c1.4,2.1,1.9,4.6,1.4,7.1s-1.9,4.6-4,6l-45,30C86.4,149.8,84.6,150.2,82.7,150.2L82.7,150.2z M82.7,75.4
			c-0.4,0-0.7,0-1.1,0.1c-1.4,0.3-2.7,1.1-3.5,2.3c-0.6,0.9-0.9,2-0.9,3v59.9c0,3,2.5,5.5,5.5,5.5l0,0c1.1,0,2.1-0.3,3-0.9l45-30
			c1.2-0.8,2.1-2.1,2.3-3.5c0.3-1.4,0-2.9-0.8-4.1c-0.4-0.6-0.9-1.1-1.5-1.5l-45-30C84.9,75.7,83.8,75.4,82.7,75.4z"/>
	</g>
</g>
<sodipodi:namedview  bordercolor="#666666" borderopacity="1" gridtolerance="10" guidetolerance="10" id="namedview40" inkscape:current-layer="svg38" inkscape:cx="100" inkscape:cy="100" inkscape:pageopacity="0" inkscape:pageshadow="2" inkscape:window-height="949" inkscape:window-maximized="1" inkscape:window-width="1920" inkscape:window-x="0" inkscape:window-y="36" inkscape:zoom="1.18" objecttolerance="10" pagecolor="#ffffff" showgrid="false">
	</sodipodi:namedview>
</svg>
