<?xml version="1.0" encoding="utf-8"?>
<!-- Generator: Adobe Illustrator 26.1.0, SVG Export Plug-In . SVG Version: 6.00 Build 0)  -->
<svg version="1.1" id="Layer_1" xmlns="http://www.w3.org/2000/svg" xmlns:xlink="http://www.w3.org/1999/xlink" x="0px" y="0px"
	 viewBox="0 0 64 64" style="enable-background:new 0 0 64 64;" xml:space="preserve">
<style type="text/css">
	.st0{fill:#6CB1EF;}
	.st1{fill:#3891F2;}
	.st2{opacity:0.6;fill:#FFFFFF;enable-background:new    ;}
</style>
<g>
	<path class="st0" d="M58,62.8H23.5c-2.6,0-4.7-2.1-4.7-4.7V18.7c0-2.6,2.1-4.7,4.7-4.7H58c2.6,0,4.7,2.1,4.7,4.7v39.4
		C62.6,60.7,60.5,62.8,58,62.8z"/>
	<path class="st1" d="M19.1,12.8H5.9c-3.3,0-5.9,2.7-5.9,5.9v39.4C0,61.4,2.7,64,5.9,64H58c3.3,0,5.9-2.7,5.9-5.9V38.6l0,0
		c0-1.5-0.8-2.9-2.1-3.8L33.8,17C29.4,14.3,24.3,12.8,19.1,12.8z"/>
</g>
<path class="st2" d="M25.6,27.8h-0.7c-2.3,0-4.2,1.9-4.2,4.2v21.1c0,2.3,1.9,4.2,4.2,4.2h14.3c2.3,0,4.2-1.9,4.2-4.2v-7.6
	C43.3,35.7,35.3,27.8,25.6,27.8z M42.1,53.1c0,1.6-1.3,2.9-2.9,2.9H24.9c-1.6,0-2.9-1.3-2.9-2.9V32c0-1.6,1.3-2.9,2.9-2.9h0.7
	c1.6,0,3,0.2,4.5,0.6v5.5c-0.2,1.6,0.9,3,2.4,3.2c0.1,0,0.3,0,0.4,0h7.6c1.1,2.2,1.6,4.6,1.6,7.1L42.1,53.1L42.1,53.1z"/>
</svg>
