<?xml version="1.0" encoding="utf-8"?>
<!-- Generator: Adobe Illustrator 25.4.1, SVG Export Plug-In . SVG Version: 6.00 Build 0)  -->
<svg version="1.1" id="Layer_1" xmlns="http://www.w3.org/2000/svg" xmlns:xlink="http://www.w3.org/1999/xlink" x="0px" y="0px"
	 viewBox="0 0 64 64" style="enable-background:new 0 0 64 64;" xml:space="preserve">
<style type="text/css">
	.st0{fill:url(#SVGID_1_);}
	.st1{fill:url(#SVGID_00000107568795808484400760000018239059943808999566_);}
	.st2{opacity:0.6;}
	.st3{fill:#FFFFFF;}
	.st4{opacity:0.6;fill:#FFFFFF;enable-background:new    ;}
</style>
<linearGradient id="SVGID_1_" gradientUnits="userSpaceOnUse" x1="46.7321" y1="-196.3799" x2="36.485" y2="-173.5795" gradientTransform="matrix(1 0 0 1 0 202)">
	<stop  offset="0" style="stop-color:#56CCF2"/>
	<stop  offset="1" style="stop-color:#2F80ED"/>
</linearGradient>
<path class="st0" d="M61.2,18.6L64,60.4c0,1.9-1.9,3.6-4.4,3.6H4.4C1.9,64,0,62.3,0,60.4v-44c0-1.9,1.9-3.6,4.4-3.6L56.9,15
	C59.2,15,61.2,16.6,61.2,18.6z"/>
<linearGradient id="SVGID_00000140715355673833625510000018008474972091158205_" gradientUnits="userSpaceOnUse" x1="20.7919" y1="-194.4981" x2="38.0475" y2="-126.0969" gradientTransform="matrix(1 0 0 1 0 202)">
	<stop  offset="0" style="stop-color:#56CCF2"/>
	<stop  offset="1" style="stop-color:#2F80ED"/>
</linearGradient>
<path style="fill:url(#SVGID_00000140715355673833625510000018008474972091158205_);" d="M63.9,44.8v15.6c0,1.9-1.9,3.6-4.4,3.6H4.4
	C1.9,64,0,62.3,0,60.4v-44c0-1.9,1.9-3.6,4.4-3.6h11.9c4.9,0,9.8,1.1,14.2,3.3L52,27.2C59.5,31.1,63.9,37.8,63.9,44.8z"/>
<g>
	<g class="st2">
		<path class="st3" d="M38.8,57.3H23.2c-2.6,0-4.7-2.1-4.7-4.7V32.4c0-2.6,2.1-4.7,4.7-4.7h15.6c2.6,0,4.7,2.1,4.7,4.7v20.1
			C43.5,55.2,41.4,57.3,38.8,57.3z M23.2,29.1c-1.9,0-3.4,1.5-3.4,3.4v20.1c0,1.9,1.5,3.4,3.4,3.4h15.6c1.9,0,3.4-1.5,3.4-3.4V32.5
			c0-1.9-1.5-3.4-3.4-3.4H23.2z"/>
	</g>
	<path class="st4" d="M38.4,37.9c-0.2,0-0.4,0.1-0.6,0.2L35,39.7v-0.2c0-1.9-1.6-3.5-3.5-3.5h-6c-1.9,0-3.5,1.6-3.5,3.5v6
		c0,1.9,1.6,3.5,3.5,3.5h6c1.9,0,3.5-1.6,3.5-3.5v-0.2l2.8,1.7c0.5,0.3,1.2,0.1,1.4-0.4c0.1-0.2,0.1-0.3,0.1-0.5V39
		C39.4,38.4,39,38,38.4,37.9z M33.7,45.5c0,1.2-1,2.2-2.2,2.2h-6c-1.2,0-2.2-1-2.2-2.2v-6c0-1.2,1-2.2,2.2-2.2h6
		c1.2,0,2.2,1,2.2,2.2V45.5z"/>
</g>
</svg>
