<?xml version="1.0" encoding="utf-8"?>
<!-- Generator: Adobe Illustrator 26.1.0, SVG Export Plug-In . SVG Version: 6.00 Build 0)  -->
<svg version="1.1" id="Layer_1" xmlns="http://www.w3.org/2000/svg" xmlns:xlink="http://www.w3.org/1999/xlink" x="0px" y="0px"
	 viewBox="0 0 64 64" style="enable-background:new 0 0 64 64;" xml:space="preserve">
<style type="text/css">
	.st0{fill:#6CB1EF;}
	.st1{fill:#3891F2;}
	.st2{opacity:0.6;fill:#FFFFFF;enable-background:new    ;}
</style>
<g>
	<g>
		<g>
			<g>
				<path class="st0" d="M58,62.8H23.5c-2.6,0-4.7-2.1-4.7-4.7V18.7c0-2.6,2.1-4.7,4.7-4.7H58c2.6,0,4.7,2.1,4.7,4.7v39.4
					C62.6,60.7,60.5,62.8,58,62.8z"/>
				<path class="st1" d="M19.1,12.8H5.9c-3.3,0-5.9,2.7-5.9,5.9v39.4C0,61.4,2.7,64,5.9,64H58c3.3,0,5.9-2.7,5.9-5.9V38.6l0,0
					c0-1.5-0.8-2.9-2.1-3.8L33.8,17C29.4,14.3,24.3,12.8,19.1,12.8z"/>
			</g>
		</g>
	</g>
</g>
<path class="st2" d="M39.8,27.8H24.2c-2.6,0-4.7,2.1-4.7,4.7v20.1c0,2.6,2.1,4.7,4.7,4.7h15.6c2.6,0,4.7-2.1,4.7-4.7V32.5
	C44.5,29.9,42.4,27.8,39.8,27.8z M43.2,52.6c0,1.9-1.5,3.4-3.4,3.4H24.2c-1.9,0-3.4-1.5-3.4-3.4V32.5c0-1.9,1.5-3.4,3.4-3.4H32v11.4
	c0,0.1,0.1,0.3,0.2,0.4c0.2,0.2,0.5,0.2,0.7,0l2.3-2.9l0.1-0.1c0.2-0.2,0.5-0.1,0.7,0.1l2.3,2.9c0.1,0.1,0.3,0.2,0.4,0.2
	c0.3,0,0.5-0.3,0.5-0.5V29.1h0.5c1.9,0,3.4,1.5,3.4,3.4L43.2,52.6L43.2,52.6z"/>
</svg>
