<?xml version="1.0" encoding="utf-8"?>
<!-- Generator: Adobe Illustrator 25.4.1, SVG Export Plug-In . SVG Version: 6.00 Build 0)  -->
<svg version="1.1" id="Layer_1" xmlns="http://www.w3.org/2000/svg" xmlns:xlink="http://www.w3.org/1999/xlink" x="0px" y="0px"
	 viewBox="0 0 64 64" style="enable-background:new 0 0 64 64;" xml:space="preserve">
<style type="text/css">
	.st0{fill:url(#SVGID_1_);}
	.st1{fill:url(#SVGID_00000150074048962756802570000013947752486638531256_);}
	.st2{opacity:0.6;fill:#FFFFFF;enable-background:new    ;}
</style>
<linearGradient id="SVGID_1_" gradientUnits="userSpaceOnUse" x1="46.7219" y1="-1076.3619" x2="36.4749" y2="-1053.5583" gradientTransform="matrix(1 0 0 1 0 1082)">
	<stop  offset="0" style="stop-color:#56CCF2"/>
	<stop  offset="1" style="stop-color:#2F80ED"/>
</linearGradient>
<path class="st0" d="M61.2,18.6L64,60.4c0,1.9-1.9,3.6-4.4,3.6H4.4C1.9,64,0,62.4,0,60.4v-44c0-1.9,1.9-3.6,4.4-3.6L56.9,15
	C59.2,15,61.2,16.7,61.2,18.6z"/>
<linearGradient id="SVGID_00000160182468781651452150000018308187470932551563_" gradientUnits="userSpaceOnUse" x1="20.7831" y1="-1074.4734" x2="38.0388" y2="-1006.0723" gradientTransform="matrix(1 0 0 1 0 1082)">
	<stop  offset="0" style="stop-color:#56CCF2"/>
	<stop  offset="1" style="stop-color:#2F80ED"/>
</linearGradient>
<path style="fill:url(#SVGID_00000160182468781651452150000018308187470932551563_);" d="M63.9,44.9v15.6c0,1.9-1.9,3.6-4.4,3.6H4.4
	C1.9,64,0,62.4,0,60.4v-44c0-1.9,1.9-3.6,4.4-3.6h11.9c4.9-0.1,9.8,1.1,14.2,3.3L52,27.2C59.5,31.1,63.9,37.9,63.9,44.9z"/>
<path class="st2" d="M24.7,27.8H24c-2.3,0-4.2,1.9-4.2,4.2v21.1c0,2.3,1.9,4.2,4.2,4.2h14.3c2.3,0,4.2-1.9,4.2-4.2v-7.6
	C42.5,35.7,34.5,27.8,24.7,27.8z M41.2,53.1c0,1.6-1.3,2.9-2.9,2.9H24c-1.6,0-2.9-1.3-2.9-2.9V32c0-1.6,1.3-2.9,2.9-2.9h0.7
	c1.6,0,3,0.2,4.5,0.6v5.5c-0.2,1.6,0.9,3,2.4,3.2c0.1,0,0.3,0,0.4,0h7.6c1.1,2.2,1.6,4.6,1.6,7.1V53.1L41.2,53.1z"/>
</svg>
