<?xml version="1.0" encoding="utf-8"?>
<!-- Generator: Adobe Illustrator 25.4.1, SVG Export Plug-In . SVG Version: 6.00 Build 0)  -->
<svg version="1.1" id="Layer_1" xmlns="http://www.w3.org/2000/svg" xmlns:xlink="http://www.w3.org/1999/xlink" x="0px" y="0px"
	 viewBox="0 0 64 64" style="enable-background:new 0 0 64 64;" xml:space="preserve">
<style type="text/css">
	.st0{fill:url(#SVGID_1_);}
	.st1{fill:url(#SVGID_00000021114038321975094160000010918458342288483209_);}
	.st2{opacity:0.6;fill:#FFFFFF;enable-background:new    ;}
</style>
<linearGradient id="SVGID_1_" gradientUnits="userSpaceOnUse" x1="46.7219" y1="-1076.3619" x2="36.4749" y2="-1053.5583" gradientTransform="matrix(1 0 0 1 0 1082)">
	<stop  offset="0" style="stop-color:#56CCF2"/>
	<stop  offset="1" style="stop-color:#2F80ED"/>
</linearGradient>
<path class="st0" d="M61.2,18.6L64,60.4c0,1.9-1.9,3.6-4.4,3.6H4.4C1.9,64,0,62.4,0,60.4v-44c0-1.9,1.9-3.6,4.4-3.6L56.9,15
	C59.2,15,61.2,16.7,61.2,18.6z"/>
<linearGradient id="SVGID_00000006694656719871895430000011050608584540549053_" gradientUnits="userSpaceOnUse" x1="20.7831" y1="-1074.4734" x2="38.0388" y2="-1006.0723" gradientTransform="matrix(1 0 0 1 0 1082)">
	<stop  offset="0" style="stop-color:#56CCF2"/>
	<stop  offset="1" style="stop-color:#2F80ED"/>
</linearGradient>
<path style="fill:url(#SVGID_00000006694656719871895430000011050608584540549053_);" d="M63.9,44.9v15.6c0,1.9-1.9,3.6-4.4,3.6H4.4
	C1.9,64,0,62.4,0,60.4v-44c0-1.9,1.9-3.6,4.4-3.6h11.9c4.9-0.1,9.8,1.1,14.2,3.3L52,27.2C59.5,31.1,63.9,37.9,63.9,44.9z"/>
<path class="st2" d="M38.8,27.8H23.2c-2.6,0-4.7,2.1-4.7,4.7v20.1c0,2.6,2.1,4.7,4.7,4.7h15.6c2.6,0,4.7-2.1,4.7-4.7V32.5
	C43.5,29.9,41.4,27.8,38.8,27.8z M42.2,52.6c0,1.9-1.5,3.4-3.4,3.4H23.2c-1.9,0-3.4-1.5-3.4-3.4V32.5c0-1.9,1.5-3.4,3.4-3.4H31v11.4
	c0,0.1,0.1,0.3,0.2,0.4c0.2,0.2,0.5,0.2,0.7,0l2.3-2.9l0.1-0.1c0.2-0.2,0.5-0.1,0.7,0.1l2.3,2.9c0.1,0.1,0.3,0.2,0.4,0.2
	c0.3,0,0.5-0.3,0.5-0.5V29.1h0.5c1.9,0,3.4,1.5,3.4,3.4L42.2,52.6L42.2,52.6z"/>
</svg>
