<?xml version="1.0" encoding="utf-8"?>
<!-- Generator: Adobe Illustrator 26.1.0, SVG Export Plug-In . SVG Version: 6.00 Build 0)  -->
<svg version="1.1" id="Layer_1" xmlns="http://www.w3.org/2000/svg" xmlns:xlink="http://www.w3.org/1999/xlink" x="0px" y="0px"
	 viewBox="0 0 64 64" style="enable-background:new 0 0 64 64;" xml:space="preserve">
<style type="text/css">
	.st0{fill:#6CB1EF;}
	.st1{fill:#3891F2;}
	.st2{opacity:0.6;}
	.st3{fill:#FFFFFF;}
	.st4{opacity:0.6;fill:#FFFFFF;enable-background:new    ;}
</style>
<g>
	<path class="st0" d="M58,62.8H23.5c-2.6,0-4.7-2.1-4.7-4.7V18.7c0-2.6,2.1-4.7,4.7-4.7H58c2.6,0,4.7,2.1,4.7,4.7v39.4
		C62.6,60.7,60.5,62.8,58,62.8z"/>
	<path class="st1" d="M19.1,12.8H5.9c-3.3,0-5.9,2.7-5.9,5.9v39.4C0,61.4,2.7,64,5.9,64H58c3.3,0,5.9-2.7,5.9-5.9V38.6l0,0
		c0-1.5-0.8-2.9-2.1-3.8L33.8,17C29.4,14.3,24.3,12.8,19.1,12.8z"/>
</g>
<g>
	<g class="st2">
		<circle class="st3" cx="29.6" cy="46.4" r="2.3"/>
	</g>
	<path class="st4" d="M39.1,35.2l-2.4-1.4c-0.2-0.1-0.4-0.2-0.5-0.2c-0.4-0.1-0.8,0.1-1.1,0.3c-0.3,0.3-0.5,0.6-0.6,1l-0.9,8.5
		c-0.9-1.2-2.4-2.1-4.1-2.1c-2.8,0-5,2.2-5,5s2.2,5,5,5s5-2.2,5-5l0,0l1.2-11.4c0-0.1,0.1-0.1,0.1-0.2c0,0,0.1-0.1,0.2,0h0.1
		l2.4,1.4c0.3,0.2,0.7,0.1,0.9-0.2C39.5,35.8,39.4,35.4,39.1,35.2z M29.6,50.2c-2.1,0-3.7-1.7-3.7-3.7s1.7-3.7,3.7-3.7
		s3.7,1.7,3.7,3.7S31.6,50.2,29.6,50.2z"/>
	<g class="st2">
		<path class="st3" d="M39.8,57.3H24.1c-2.6,0-4.7-2.1-4.7-4.7V32.5c0-2.6,2.1-4.7,4.7-4.7h15.6c2.6,0,4.7,2.1,4.7,4.7v20.1
			C44.5,55.2,42.4,57.3,39.8,57.3z M24.1,29.1c-1.9,0-3.4,1.5-3.4,3.4v20.1c0,1.9,1.5,3.4,3.4,3.4h15.6c1.9,0,3.4-1.5,3.4-3.4V32.5
			c0-1.9-1.5-3.4-3.4-3.4H24.1z"/>
	</g>
</g>
</svg>
