<?xml version="1.0" encoding="utf-8"?>
<!-- Generator: Adobe Illustrator 25.4.1, SVG Export Plug-In . SVG Version: 6.00 Build 0)  -->
<svg version="1.1" id="Layer_1" xmlns="http://www.w3.org/2000/svg" xmlns:xlink="http://www.w3.org/1999/xlink" x="0px" y="0px"
	 viewBox="0 0 64 64" style="enable-background:new 0 0 64 64;" xml:space="preserve">
<style type="text/css">
	.st0{fill:url(#SVGID_1_);}
	.st1{fill:url(#SVGID_00000016780907745360505540000012748119526813008054_);}
	.st2{opacity:0.6;fill:#FFFFFF;enable-background:new    ;}
	.st3{opacity:0.6;}
	.st4{fill:#FFFFFF;}
</style>
<linearGradient id="SVGID_1_" gradientUnits="userSpaceOnUse" x1="46.7272" y1="-636.3692" x2="36.4802" y2="-613.5688" gradientTransform="matrix(1 0 0 1 0 642)">
	<stop  offset="0" style="stop-color:#56CCF2"/>
	<stop  offset="1" style="stop-color:#2F80ED"/>
</linearGradient>
<path class="st0" d="M61.2,18.6L64,60.4c0,1.9-1.9,3.6-4.4,3.6H4.4C1.9,64,0,62.3,0,60.4v-44c0-1.9,1.9-3.6,4.4-3.6L56.9,15
	C59.2,15,61.2,16.7,61.2,18.6z"/>
<linearGradient id="SVGID_00000146462395666632192870000015024230074267165873_" gradientUnits="userSpaceOnUse" x1="20.7839" y1="-634.4833" x2="38.0395" y2="-566.0853" gradientTransform="matrix(1 0 0 1 0 642)">
	<stop  offset="0" style="stop-color:#56CCF2"/>
	<stop  offset="1" style="stop-color:#2F80ED"/>
</linearGradient>
<path style="fill:url(#SVGID_00000146462395666632192870000015024230074267165873_);" d="M63.9,44.9v15.5c0,1.9-1.9,3.6-4.4,3.6H4.4
	C1.9,64,0,62.3,0,60.4v-44c0-1.9,1.9-3.6,4.4-3.6h11.9c4.9-0.1,9.8,1.1,14.2,3.3L52,27.2C59.5,31.1,63.9,37.9,63.9,44.9z"/>
<g>
	<path class="st2" d="M43.5,38.2v-5.7c0-2.6-2.1-4.7-4.7-4.7H23.2c-2.6,0-4.7,2.1-4.7,4.7v20.1c0,2.6,2.1,4.7,4.7,4.7h15.6
		c2.6,0,4.7-2.1,4.7-4.7v-14C43.5,38.5,43.5,38.3,43.5,38.2z M23.2,29.1h15.6c1.9,0,3.4,1.5,3.4,3.4v5.7l-8.1,8.9
		c-0.1,0.1-0.2,0.2-0.3,0.3c-0.5,0.4-1.1,0.5-1.7,0.4c-0.6-0.1-1.2-0.4-1.5-0.9l-1.2-1.7c-1.2-1.6-3.4-1.9-5-0.8l-4.5,3.3V32.5
		C19.7,30.6,21.3,29.1,23.2,29.1z M38.8,56H23.2c-1.9,0-3.4-1.5-3.4-3.4v-3.3l5.3-3.8c0.5-0.4,1.1-0.5,1.7-0.4s1.1,0.4,1.5,0.9
		l1.2,1.7c0.6,0.8,1.4,1.3,2.4,1.4c1,0.1,1.9-0.1,2.7-0.7c0.2-0.1,0.4-0.3,0.5-0.4l7.2-7.9v12.5C42.2,54.5,40.7,56,38.8,56z"/>
	<g class="st3">
		<circle class="st4" cx="25.3" cy="34.3" r="4.1"/>
	</g>
</g>
</svg>
