<?xml version="1.0" encoding="utf-8"?>
<!-- Generator: Adobe Illustrator 26.1.0, SVG Export Plug-In . SVG Version: 6.00 Build 0)  -->
<svg version="1.1" id="Layer_1" xmlns="http://www.w3.org/2000/svg" xmlns:xlink="http://www.w3.org/1999/xlink" x="0px" y="0px"
	 viewBox="0 0 64 64" style="enable-background:new 0 0 64 64;" xml:space="preserve">
<style type="text/css">
	.st0{fill:#6CB1EF;}
	.st1{fill:#3891F2;}
	.st2{opacity:0.6;}
	.st3{fill:#FFFFFF;}
	.st4{opacity:0.6;fill:#FFFFFF;enable-background:new    ;}
</style>
<g>
	<g>
		<path class="st0" d="M58,62.8H23.5c-2.6,0-4.7-2.1-4.7-4.7V18.7c0-2.6,2.1-4.7,4.7-4.7H58c2.6,0,4.7,2.1,4.7,4.7v39.4
			C62.6,60.7,60.5,62.8,58,62.8z"/>
		<path class="st1" d="M19.1,12.8H5.9c-3.3,0-5.9,2.7-5.9,5.9v39.4C0,61.4,2.7,64,5.9,64H58c3.3,0,5.9-2.7,5.9-5.9V38.6l0,0
			c0-1.5-0.8-2.9-2.1-3.8L33.8,17C29.4,14.3,24.3,12.8,19.1,12.8z"/>
	</g>
</g>
<g>
	<g class="st2">
		<path class="st3" d="M39.8,57.3H24.1c-2.6,0-4.7-2.1-4.7-4.7V32.4c0-2.6,2.1-4.7,4.7-4.7h15.7c2.6,0,4.7,2.1,4.7,4.7v20.1
			C44.5,55.2,42.4,57.3,39.8,57.3z M24.1,29.1c-1.9,0-3.4,1.5-3.4,3.4v20.1c0,1.9,1.5,3.4,3.4,3.4h15.7c1.9,0,3.4-1.5,3.4-3.4V32.5
			c0-1.9-1.5-3.4-3.4-3.4H24.1z"/>
	</g>
	<g class="st2">
		<path class="st3" d="M24.5,48.8V49c0,1,0.8,1.9,1.9,1.9l0,0h11.1c1,0,1.9-0.8,1.9-1.9l0,0v-0.2c0-0.5-0.4-0.9-1-0.9H25.5
			C25,47.9,24.6,48.3,24.5,48.8z"/>
	</g>
	<path class="st4" d="M36.8,41.5c-0.3-0.3-0.6-0.3-0.9,0l-3.2,3.2V34.2c0-0.4-0.3-0.6-0.6-0.6c-0.3,0-0.6,0.3-0.6,0.6v10.5l-3.2-3.2
		c-0.3-0.3-0.6-0.3-0.9,0s-0.3,0.6,0,0.9l4.3,4.3l0.1,0.1l0,0c0,0,0,0,0.1,0c0,0,0,0,0.1,0c0,0,0,0,0.1,0c0.1,0,0.1,0,0.1,0h0.1
		c0,0,0,0,0.1,0s0,0,0.1,0c0,0,0,0,0.1,0l0,0l0.1-0.1l4.3-4.3C36.9,42.2,36.9,41.8,36.8,41.5z"/>
</g>
</svg>
