<?xml version="1.0" encoding="utf-8"?>
<!-- Generator: Adobe Illustrator 25.2.3, SVG Export Plug-In . SVG Version: 6.00 Build 0)  -->
<svg version="1.1"
	 id="svg62" inkscape:version="0.92.5 (6c0c36ef5a, 2020-05-15, custom)" sodipodi:docname="folder-templates.svg" xmlns:cc="http://creativecommons.org/ns#" xmlns:dc="http://purl.org/dc/elements/1.1/" xmlns:inkscape="http://www.inkscape.org/namespaces/inkscape" xmlns:rdf="http://www.w3.org/1999/02/22-rdf-syntax-ns#" xmlns:sodipodi="http://sodipodi.sourceforge.net/DTD/sodipodi-0.dtd" xmlns:svg="http://www.w3.org/2000/svg"
	 xmlns="http://www.w3.org/2000/svg" xmlns:xlink="http://www.w3.org/1999/xlink" x="0px" y="0px" viewBox="0 0 200 200"
	 style="enable-background:new 0 0 200 200;" xml:space="preserve">
<style type="text/css">
	.st0{fill:url(#SVGID_1_);}
	.st1{fill:url(#SVGID_2_);}
	.st2{opacity:0.4;}
	.st3{fill:#283142;}
</style>
<g>
	<linearGradient id="SVGID_1_" gradientUnits="userSpaceOnUse" x1="162.2507" y1="-81.5411" x2="62.1355" y2="147.6383">
		<stop  offset="0" style="stop-color:#56CCF2"/>
		<stop  offset="1" style="stop-color:#2F80ED"/>
	</linearGradient>
	<path class="st0" d="M165.5,32.5h-135c-11.6,0-21,9.3-21.1,20.9c0,1,0.1,1.9,0.2,2.9c0.3,2.3,2.4,3.9,4.7,3.6
		c0.6-0.1,1.1-0.3,1.6-0.5c1.9-1.1,4-1.6,6.1-1.6h21.6c5.4,0,10.2,3.5,12,8.6l0.7,2.3c2.9,8.6,11,14.4,20,14.4h97.6
		c2.2,0,4.4,0.6,6.3,1.7c2,1.2,4.6,0.5,5.8-1.5c0.4-0.6,0.6-1.4,0.6-2.1V53.6C186.6,41.9,177.2,32.5,165.5,32.5z"/>
	<linearGradient id="SVGID_2_" gradientUnits="userSpaceOnUse" x1="94.437" y1="-34.0056" x2="105.07" y2="252.1995">
		<stop  offset="0" style="stop-color:#56CCF2"/>
		<stop  offset="1" style="stop-color:#2F80ED"/>
	</linearGradient>
	<path class="st1" d="M186.6,56.6c-3.2-1.9-6.9-2.9-10.6-2.9H78.5c-5.4,0-10.2-3.5-12-8.6l-0.7-2.3c-2.9-8.6-11-14.4-20-14.4H24.1
		c-3.6,0-7.2,0.9-10.3,2.7c-1.7,0.9-3.2,2.1-4.5,3.4C5.3,38.4,3,43.8,3,49.4v107.9c0,8,6.5,14.4,14.4,14.4h42.8h88h34.4
		c8,0,14.4-6.5,14.4-14.4V74.9C197.2,67.4,193.2,60.4,186.6,56.6z"/>
</g>
<sodipodi:namedview  bordercolor="#666666" borderopacity="1" gridtolerance="10" guidetolerance="10" id="namedview64" inkscape:current-layer="svg62" inkscape:cx="21.0186" inkscape:cy="99.648972" inkscape:pageopacity="0" inkscape:pageshadow="2" inkscape:window-height="949" inkscape:window-maximized="1" inkscape:window-width="1920" inkscape:window-x="0" inkscape:window-y="36" inkscape:zoom="0.834386" objecttolerance="10" pagecolor="#ffffff" showgrid="false">
	</sodipodi:namedview>
<g>
	<g class="st2">
		<path class="st3" d="M70.3,117c-3.2,0-4.5-1.9-5-3.4l-0.1-0.3V84.1l0.1-0.3c0.5-1.5,1.9-3.4,5.1-3.3c5.2,0,10.4,0,15.7,0h5.8
			c3.1,0,5,1.8,5,4.9c0,2.5,0,5,0,7.5v19.3c0,1.6-0.5,2.8-1.5,3.7c-1.1,1-2.4,1.1-3.4,1.1l0,0h-3.8C82.2,117,76.3,117,70.3,117
			C70.4,117,70.4,117,70.3,117z M69.2,112.6c0.1,0.3,0.4,0.4,1.1,0.4c5.9,0,11.9,0,17.8,0h3.8l0,0c0.6,0,0.7-0.1,0.7-0.1
			c0.1-0.1,0.2-0.2,0.2-0.7V92.9c0-2.5,0-5,0-7.5c0-0.8,0-0.9-1-0.9H86c-5.2,0-10.5,0-15.7,0c-0.8,0-1,0.1-1.2,0.4L69.2,112.6
			L69.2,112.6z"/>
	</g>
	<g class="st2">
		<path class="st3" d="M129.8,148.6h-24.4l-0.4-0.1c-2.1-0.8-3.2-2.5-3.2-4.6v-7.6c0-6.5,0-13.1,0-19.6c0-0.9,0.3-1.9,0.8-2.7
			c0.8-1.3,2.2-2,4.1-2l0,0h1.7c6.5,0,13.2,0,19.9,0l0,0c3.2,0,4.5,1.9,5,3.4l0.1,0.3v29.2l-0.1,0.3c-0.5,1.6-1.7,2.7-3.3,3.3
			L129.8,148.6z M106.3,144.6h22.8c0.2-0.1,0.3-0.2,0.4-0.4v-27.8c-0.1-0.3-0.3-0.4-1.1-0.4l0,0c-6.6,0-13.4,0-19.9,0h-1.7
			c-0.5,0-0.7,0.1-0.7,0.1c-0.1,0.2-0.2,0.5-0.2,0.7c0,6.5,0,13,0,19.6v7.6C105.9,144.2,105.9,144.4,106.3,144.6z"/>
	</g>
	<g class="st2">
		<path class="st3" d="M128.4,107C128.4,107,128.3,107,128.4,107c-5.3,0-10.5,0-15.7,0h-5.8c-3.1,0-5-1.8-5-4.9c0-5.6,0-11.1,0-16.7
			c0-3.1,1.9-4.9,5-4.9h5.8c5.2,0,10.4,0,15.7,0l0,0c3.2,0,4.5,1.8,5,3.4l0.1,0.3v19.3l-0.1,0.3C132.9,105.2,131.6,107,128.4,107z
			 M118.2,103c3.4,0,6.7,0,10.1,0c0.8,0,1-0.1,1.2-0.4V84.8c-0.1-0.3-0.4-0.4-1.1-0.4l0,0c-5.2,0-10.5,0-15.7,0h-5.8
			c-0.9,0-1,0.1-1,0.9c0,5.6,0,11.1,0,16.7c0,0.8,0,0.9,1,0.9h5.8C114.5,103,116.4,103,118.2,103z"/>
	</g>
	<g class="st2">
		<path class="st3" d="M93.6,148.6H68.9l-0.3-0.1c-1.6-0.5-2.7-1.7-3.3-3.3l-0.1-0.3v-19.3l0.1-0.3c0.8-2.1,2.4-3.3,4.6-3.3l0,0
			c4.3,0,8.6,0,12.9,0H92c2.8,0,4.7,1.9,4.8,4.7c0,5.7,0,11.4,0,17.1c0,2.1-0.9,3.5-2.8,4.4L93.6,148.6z M93.8,148.3
			C93.8,148.3,93.8,148.4,93.8,148.3C93.8,148.4,93.8,148.3,93.8,148.3z M69.6,144.6h22.8c0.5-0.2,0.5-0.3,0.5-0.7
			c0-5.7,0-11.4,0-17.1c0-0.6-0.1-0.8-0.8-0.8h-9.2c-4.3,0-8.6,0-12.9,0c-0.3,0-0.5,0-0.7,0.4v17.8
			C69.3,144.4,69.4,144.5,69.6,144.6z"/>
	</g>
</g>
</svg>
