<?xml version="1.0" encoding="utf-8"?>
<!-- Generator: Adobe Illustrator 26.1.0, SVG Export Plug-In . SVG Version: 6.00 Build 0)  -->
<svg version="1.1" id="Layer_1" xmlns="http://www.w3.org/2000/svg" xmlns:xlink="http://www.w3.org/1999/xlink" x="0px" y="0px"
	 viewBox="0 0 64 64" style="enable-background:new 0 0 64 64;" xml:space="preserve">
<style type="text/css">
	.st0{fill:#6CB1EF;}
	.st1{fill:#3891F2;}
	.st2{opacity:0.6;}
	.st3{fill:#FFFFFF;}
	.st4{opacity:0.6;fill:#FFFFFF;enable-background:new    ;}
</style>
<g>
	<g>
		<path class="st0" d="M58,62.8H23.5c-2.6,0-4.7-2.1-4.7-4.7V18.7c0-2.6,2.1-4.7,4.7-4.7H58c2.6,0,4.7,2.1,4.7,4.7v39.4
			C62.6,60.7,60.5,62.8,58,62.8z"/>
		<path class="st1" d="M19.1,12.8H5.9c-3.3,0-5.9,2.7-5.9,5.9v39.4C0,61.4,2.7,64,5.9,64H58c3.3,0,5.9-2.7,5.9-5.9V38.6l0,0
			c0-1.5-0.8-2.9-2.1-3.8L33.8,17C29.4,14.3,24.3,12.8,19.1,12.8z"/>
	</g>
</g>
<g>
	<g class="st2">
		<path class="st3" d="M39.8,57.3H24.1c-2.6,0-4.7-2.1-4.7-4.7V32.4c0-2.6,2.1-4.7,4.7-4.7h15.7c2.6,0,4.7,2.1,4.7,4.7v20.1
			C44.5,55.2,42.4,57.3,39.8,57.3z M24.1,29.1c-1.9,0-3.4,1.5-3.4,3.4v20.1c0,1.9,1.5,3.4,3.4,3.4h15.7c1.9,0,3.4-1.5,3.4-3.4V32.5
			c0-1.9-1.5-3.4-3.4-3.4H24.1z"/>
	</g>
	<path class="st4" d="M36.2,45.3c-0.6,0-1.1,0.2-1.5,0.6L29.8,43c0-0.2,0.1-0.3,0.1-0.5s0-0.3-0.1-0.4l4.9-2.9
		c0.4,0.3,0.9,0.5,1.4,0.5c1.2,0,2.1-0.9,2.1-2.1s-0.9-2.1-2.1-2.1s-2.1,0.9-2.1,2.1c0,0.2,0,0.3,0.1,0.4l-4.9,3
		c-0.4-0.3-0.9-0.5-1.4-0.5c-1.2,0-2.1,0.9-2.1,2.1c0,1.2,0.9,2.1,2.1,2.1c0.5,0,1-0.2,1.4-0.5l4.9,2.9c0,0.1,0,0.2,0,0.4
		c0,1.2,0.9,2.1,2.1,2.1s2.1-0.9,2.1-2.1S37.3,45.3,36.2,45.3z"/>
</g>
</svg>
