<svg id="Layer_1" data-name="Layer 1" xmlns="http://www.w3.org/2000/svg" xmlns:xlink="http://www.w3.org/1999/xlink" viewBox="0 0 200 200"><defs><style>.cls-1{fill:url(#linear-gradient);}.cls-2{fill:url(#linear-gradient-2);}</style><linearGradient id="linear-gradient" x1="145.98" y1="-255.3" x2="113.99" y2="-326.48" gradientTransform="matrix(1, 0, 0, -1, 0, -238)" gradientUnits="userSpaceOnUse"><stop offset="0" stop-color="#56ccf2"/><stop offset="1" stop-color="#2f80ed"/></linearGradient><linearGradient id="linear-gradient-2" x1="64.93" y1="-261.2" x2="118.8" y2="-474.74" xlink:href="#linear-gradient"/></defs><path class="cls-1" d="M191.3,57.7l8.6,130.7c0,6-6,11.1-13.7,11.1H13.8C6.1,199.5.1,194.4.1,188.4V50.9c0-6.1,6-11.2,13.7-11.2l163.8,6.9C184.9,46.6,191.3,51.7,191.3,57.7Z"/><path class="cls-2" d="M199.5,139.8v48.6c0,6-6,11.1-13.8,11.1H13.8C6.1,199.5.1,194.4.1,188.4V50.9c0-6.1,6-11.2,13.7-11.2h37A96,96,0,0,1,95.1,50l67,34.8C185.7,96.8,199.5,117.9,199.5,139.8Z"/></svg>