<?xml version="1.0" encoding="utf-8"?>
<!-- Generator: Adobe Illustrator 26.1.0, SVG Export Plug-In . SVG Version: 6.00 Build 0)  -->
<svg version="1.1" id="Layer_1" xmlns="http://www.w3.org/2000/svg" xmlns:xlink="http://www.w3.org/1999/xlink" x="0px" y="0px"
	 viewBox="0 0 64 64" style="enable-background:new 0 0 64 64;" xml:space="preserve">
<style type="text/css">
	.st0{fill:#6CB1EF;}
	.st1{fill:#3891F2;}
	.st2{opacity:0.6;fill:#FFFFFF;enable-background:new    ;}
	.st3{opacity:0.6;}
	.st4{fill:#FFFFFF;}
</style>
<g>
	<g>
		<path class="st0" d="M58,62.8H23.5c-2.6,0-4.7-2.1-4.7-4.7V18.7c0-2.6,2.1-4.7,4.7-4.7H58c2.6,0,4.7,2.1,4.7,4.7v39.4
			C62.6,60.7,60.5,62.8,58,62.8z"/>
		<path class="st1" d="M19.1,12.8H5.9c-3.3,0-5.9,2.7-5.9,5.9v39.4C0,61.4,2.7,64,5.9,64H58c3.3,0,5.9-2.7,5.9-5.9V38.6l0,0
			c0-1.5-0.8-2.9-2.1-3.8L33.8,17C29.4,14.3,24.3,12.8,19.1,12.8z"/>
	</g>
</g>
<g>
	<path class="st2" d="M44.5,38.2v-5.7c0-2.6-2.1-4.7-4.7-4.7H24.2c-2.6,0-4.7,2.1-4.7,4.7v20.1c0,2.6,2.1,4.7,4.7,4.7h15.6
		c2.6,0,4.7-2.1,4.7-4.7v-14C44.5,38.5,44.5,38.3,44.5,38.2z M24.2,29.1h15.6c1.9,0,3.4,1.5,3.4,3.4v5.7l-8.1,8.9
		c-0.1,0.1-0.2,0.2-0.3,0.3c-0.5,0.4-1.1,0.5-1.7,0.4c-0.6-0.1-1.2-0.4-1.5-0.9l-1.2-1.7c-1.2-1.6-3.4-1.9-5-0.8l-4.5,3.3V32.5
		C20.7,30.6,22.3,29.1,24.2,29.1z M39.8,56H24.2c-1.9,0-3.4-1.5-3.4-3.4v-3.3l5.3-3.8c0.5-0.4,1.1-0.5,1.7-0.4s1.1,0.4,1.5,0.9
		l1.2,1.7c0.6,0.8,1.4,1.3,2.4,1.4c1,0.1,1.9-0.1,2.7-0.7c0.2-0.1,0.4-0.3,0.5-0.4l7.2-7.9v12.5C43.2,54.5,41.7,56,39.8,56z"/>
	<g class="st3">
		<circle class="st4" cx="26.3" cy="34.3" r="4.1"/>
	</g>
</g>
</svg>
