<?xml version="1.0" encoding="utf-8"?>
<!-- Generator: Adobe Illustrator 25.4.1, SVG Export Plug-In . SVG Version: 6.00 Build 0)  -->
<svg version="1.1" id="Layer_1" xmlns="http://www.w3.org/2000/svg" xmlns:xlink="http://www.w3.org/1999/xlink" x="0px" y="0px"
	 viewBox="0 0 64 64" style="enable-background:new 0 0 64 64;" xml:space="preserve">
<style type="text/css">
	.st0{fill:url(#SVGID_1_);}
	.st1{fill:url(#SVGID_00000162312560250294269280000013069126751296905888_);}
	.st2{opacity:0.6;}
	.st3{fill:#FFFFFF;}
	.st4{opacity:0.6;fill:#FFFFFF;enable-background:new    ;}
</style>
<linearGradient id="SVGID_1_" gradientUnits="userSpaceOnUse" x1="46.7272" y1="-636.3692" x2="36.4802" y2="-613.5688" gradientTransform="matrix(1 0 0 1 0 642)">
	<stop  offset="0" style="stop-color:#56CCF2"/>
	<stop  offset="1" style="stop-color:#2F80ED"/>
</linearGradient>
<path class="st0" d="M61.2,18.6L64,60.4c0,1.9-1.9,3.6-4.4,3.6H4.4C1.9,64,0,62.3,0,60.4v-44c0-1.9,1.9-3.6,4.4-3.6L56.9,15
	C59.2,15,61.2,16.7,61.2,18.6z"/>
<linearGradient id="SVGID_00000126282504240406881070000015317440646525198978_" gradientUnits="userSpaceOnUse" x1="20.7839" y1="-634.4833" x2="38.0395" y2="-566.0853" gradientTransform="matrix(1 0 0 1 0 642)">
	<stop  offset="0" style="stop-color:#56CCF2"/>
	<stop  offset="1" style="stop-color:#2F80ED"/>
</linearGradient>
<path style="fill:url(#SVGID_00000126282504240406881070000015317440646525198978_);" d="M63.9,44.9v15.5c0,1.9-1.9,3.6-4.4,3.6H4.4
	C1.9,64,0,62.3,0,60.4v-44c0-1.9,1.9-3.6,4.4-3.6h11.9c4.9-0.1,9.8,1.1,14.2,3.3L52,27.2C59.5,31.1,63.9,37.9,63.9,44.9z"/>
<g>
	<g class="st2">
		<path class="st3" d="M38.9,57.3H23.2c-2.6,0-4.7-2.1-4.7-4.7V32.4c0-2.6,2.1-4.7,4.7-4.7h15.7c2.6,0,4.7,2.1,4.7,4.7v20.1
			C43.6,55.2,41.5,57.3,38.9,57.3z M23.2,29.1c-1.9,0-3.4,1.5-3.4,3.4v20.1c0,1.9,1.5,3.4,3.4,3.4h15.7c1.9,0,3.4-1.5,3.4-3.4V32.5
			c0-1.9-1.5-3.4-3.4-3.4H23.2z"/>
	</g>
	<g class="st2">
		<path class="st3" d="M23.6,48.8V49c0,1,0.8,1.9,1.9,1.9l0,0h11.1c1,0,1.9-0.8,1.9-1.9l0,0v-0.2c0-0.5-0.4-0.9-1-0.9H24.6
			C24.1,47.9,23.7,48.3,23.6,48.8z"/>
	</g>
	<path class="st4" d="M35.8,41.5c-0.3-0.3-0.6-0.3-0.9,0l-3.2,3.2V34.2c0-0.4-0.3-0.6-0.6-0.6s-0.6,0.3-0.6,0.6v10.5l-3.2-3.2
		c-0.3-0.3-0.6-0.3-0.9,0s-0.3,0.6,0,0.9l4.3,4.3l0.1,0.1l0,0c0,0,0,0,0.1,0c0,0,0,0,0.1,0c0,0,0,0,0.1,0s0.1,0,0.1,0h0.1
		c0,0,0,0,0.1,0s0,0,0.1,0c0,0,0,0,0.1,0l0,0l0.1-0.1l4.3-4.3C36,42.2,36,41.8,35.8,41.5z"/>
</g>
</svg>
