<?xml version="1.0" encoding="utf-8"?>
<!-- Generator: Adobe Illustrator 26.1.0, SVG Export Plug-In . SVG Version: 6.00 Build 0)  -->
<svg version="1.1" id="Layer_1" xmlns="http://www.w3.org/2000/svg" xmlns:xlink="http://www.w3.org/1999/xlink" x="0px" y="0px"
	 viewBox="0 0 64 64" style="enable-background:new 0 0 64 64;" xml:space="preserve">
<style type="text/css">
	.st0{fill:#6CB1EF;}
	.st1{fill:#3891F2;}
	.st2{opacity:0.6;}
	.st3{fill:#FFFFFF;}
</style>
<g>
	<g>
		<g>
			<g>
				<path class="st0" d="M58,62.8H23.5c-2.6,0-4.7-2.1-4.7-4.7V18.7c0-2.6,2.1-4.7,4.7-4.7H58c2.6,0,4.7,2.1,4.7,4.7v39.4
					C62.6,60.7,60.5,62.8,58,62.8z"/>
				<path class="st1" d="M19.1,12.8H5.9c-3.3,0-5.9,2.7-5.9,5.9v39.4C0,61.4,2.7,64,5.9,64H58c3.3,0,5.9-2.7,5.9-5.9V38.6l0,0
					c0-1.5-0.8-2.9-2.1-3.8L33.8,17C29.4,14.3,24.3,12.8,19.1,12.8z"/>
			</g>
		</g>
	</g>
</g>
<g>
	<g class="st2">
		<path class="st3" d="M39.9,57.3H24.2c-2.6,0-4.7-2.1-4.7-4.7V32.5c0-2.6,2.1-4.7,4.7-4.7h15.6c2.6,0,4.7,2.1,4.7,4.7v20.1
			C44.5,55.2,42.4,57.3,39.9,57.3z M24.2,29.1c-1.9,0-3.4,1.5-3.4,3.4v20.1c0,1.9,1.5,3.4,3.4,3.4h15.6c1.9,0,3.4-1.5,3.4-3.4V32.5
			c0-1.9-1.5-3.4-3.4-3.4H24.2z"/>
	</g>
	<g class="st2">
		<path class="st3" d="M29.9,51.2h-3.7c-1.1,0-2-0.9-2-2V36.5c0-1.1,0.9-2,2-2h3.7c1.1,0,2,0.9,2,2v12.7
			C31.9,50.3,31,51.2,29.9,51.2z M26.2,35.8c-0.4,0-0.7,0.3-0.7,0.7v12.7c0,0.4,0.3,0.7,0.7,0.7h3.7c0.4,0,0.7-0.3,0.7-0.7V36.5
			c0-0.4-0.3-0.7-0.7-0.7H26.2z"/>
	</g>
	<g class="st2">
		<path class="st3" d="M37.6,51.2h-3.3c-0.9,0-1.6-0.7-1.6-1.6V44c0-0.9,0.7-1.6,1.6-1.6h3.3c0.9,0,1.6,0.7,1.6,1.6v5.6
			C39.2,50.5,38.5,51.2,37.6,51.2z M34.4,43.6c-0.2,0-0.4,0.2-0.4,0.4v5.6c0,0.2,0.2,0.4,0.4,0.4h3.3c0.2,0,0.4-0.2,0.4-0.4V44
			c0-0.2-0.2-0.4-0.4-0.4H34.4z"/>
	</g>
	<g class="st2">
		<path class="st3" d="M33.7,34.5h4.6c0.5,0,1,0.4,1,1v4.6c0,0.5-0.4,1-1,1h-4.6c-0.5,0-1-0.4-1-1v-4.6
			C32.7,34.9,33.1,34.5,33.7,34.5z"/>
	</g>
</g>
</svg>
