<?xml version="1.0" encoding="utf-8"?>
<!-- Generator: Adobe Illustrator 25.4.1, SVG Export Plug-In . SVG Version: 6.00 Build 0)  -->
<svg version="1.1" id="Layer_1" xmlns="http://www.w3.org/2000/svg" xmlns:xlink="http://www.w3.org/1999/xlink" x="0px" y="0px"
	 viewBox="0 0 64 64" style="enable-background:new 0 0 64 64;" xml:space="preserve">
<style type="text/css">
	.st0{fill:url(#SVGID_1_);}
	.st1{fill:url(#SVGID_00000110462996565786220510000002637985782082453943_);}
	.st2{opacity:0.6;}
	.st3{fill:#FFFFFF;}
</style>
<linearGradient id="SVGID_1_" gradientUnits="userSpaceOnUse" x1="46.7173" y1="243.6326" x2="36.4703" y2="266.433" gradientTransform="matrix(1 0 0 1 0 -238)">
	<stop  offset="0" style="stop-color:#56CCF2"/>
	<stop  offset="1" style="stop-color:#2F80ED"/>
</linearGradient>
<path class="st0" d="M61.2,18.6L64,60.4c0,1.9-1.9,3.6-4.4,3.6H4.4C1.9,64,0,62.4,0,60.4v-44c0-2,1.9-3.6,4.4-3.6L56.9,15
	C59.2,15,61.2,16.7,61.2,18.6z"/>
<linearGradient id="SVGID_00000023973919307096590660000009674604987004443790_" gradientUnits="userSpaceOnUse" x1="20.7823" y1="245.5235" x2="38.038" y2="313.9247" gradientTransform="matrix(1 0 0 1 0 -238)">
	<stop  offset="0" style="stop-color:#56CCF2"/>
	<stop  offset="1" style="stop-color:#2F80ED"/>
</linearGradient>
<path style="fill:url(#SVGID_00000023973919307096590660000009674604987004443790_);" d="M63.9,44.9v15.6c0,1.9-1.9,3.6-4.4,3.6H4.4
	C1.9,64,0,62.4,0,60.4v-44c0-2,1.9-3.6,4.4-3.6h11.9c4.9-0.1,9.8,1.1,14.2,3.3L52,27.2C59.5,31.1,63.9,37.9,63.9,44.9z"/>
<g>
	<g class="st2">
		<path class="st3" d="M38.7,57.3H23c-2.6,0-4.7-2.1-4.7-4.7V32.5c0-2.6,2.1-4.7,4.7-4.7h15.6c2.6,0,4.7,2.1,4.7,4.7v20.1
			C43.3,55.2,41.2,57.3,38.7,57.3z M23,29.1c-1.9,0-3.4,1.5-3.4,3.4v20.1c0,1.9,1.5,3.4,3.4,3.4h15.6c1.9,0,3.4-1.5,3.4-3.4V32.5
			c0-1.9-1.5-3.4-3.4-3.4H23z"/>
	</g>
	<g class="st2">
		<path class="st3" d="M28.7,51.2H25c-1.1,0-2-0.9-2-2V36.5c0-1.1,0.9-2,2-2h3.7c1.1,0,2,0.9,2,2v12.7
			C30.7,50.3,29.8,51.2,28.7,51.2z M25,35.8c-0.4,0-0.7,0.3-0.7,0.7v12.7c0,0.4,0.3,0.7,0.7,0.7h3.7c0.4,0,0.7-0.3,0.7-0.7V36.5
			c0-0.4-0.3-0.7-0.7-0.7H25z"/>
	</g>
	<g class="st2">
		<path class="st3" d="M36.4,51.2h-3.3c-0.9,0-1.6-0.7-1.6-1.6V44c0-0.9,0.7-1.6,1.6-1.6h3.3c0.9,0,1.6,0.7,1.6,1.6v5.6
			C38,50.5,37.3,51.2,36.4,51.2z M33.2,43.6c-0.2,0-0.4,0.2-0.4,0.4v5.6c0,0.2,0.2,0.4,0.4,0.4h3.3c0.2,0,0.4-0.2,0.4-0.4V44
			c0-0.2-0.2-0.4-0.4-0.4H33.2z"/>
	</g>
	<g class="st2">
		<path class="st3" d="M32.5,34.5h4.6c0.5,0,1,0.4,1,1v4.6c0,0.5-0.4,1-1,1h-4.6c-0.5,0-1-0.4-1-1v-4.6
			C31.5,34.9,31.9,34.5,32.5,34.5z"/>
	</g>
</g>
</svg>
