<?xml version="1.0" encoding="utf-8"?>
<!-- Generator: Adobe Illustrator 26.1.0, SVG Export Plug-In . SVG Version: 6.00 Build 0)  -->
<svg version="1.1" id="Layer_1" xmlns="http://www.w3.org/2000/svg" xmlns:xlink="http://www.w3.org/1999/xlink" x="0px" y="0px"
	 viewBox="0 0 64 64" style="enable-background:new 0 0 64 64;" xml:space="preserve">
<style type="text/css">
	.st0{fill:#6CB1EF;}
	.st1{fill:#3891F2;}
	.st2{opacity:0.6;fill:#FFFFFF;enable-background:new    ;}
</style>
<g>
	<g>
		<g>
			<g>
				<path class="st0" d="M58,62.8H23.5c-2.6,0-4.7-2.1-4.7-4.7V18.7c0-2.6,2.1-4.7,4.7-4.7H58c2.6,0,4.7,2.1,4.7,4.7v39.4
					C62.6,60.7,60.5,62.8,58,62.8z"/>
				<path class="st1" d="M19.1,12.8H5.9c-3.3,0-5.9,2.7-5.9,5.9v39.4C0,61.4,2.7,64,5.9,64H58c3.3,0,5.9-2.7,5.9-5.9V38.6l0,0
					c0-1.5-0.8-2.9-2.1-3.8L33.8,17C29.4,14.3,24.3,12.8,19.1,12.8z"/>
			</g>
		</g>
	</g>
</g>
<path class="st2" d="M46.4,36.9l-3.1-2.1c-0.1-0.2-0.3-0.3-0.5-0.4l-8.4-5.9c-1.4-1-3.4-1-4.8,0l-8.7,6c-0.1,0-0.2,0.1-0.2,0.2
	l-3.2,2.1c-0.6,0.4-0.7,1.2-0.3,1.8c0.3,0.4,0.7,0.6,1.1,0.6c0.3,0,0.5-0.1,0.7-0.2l1.2-0.8v12.1c0,3.9,3.3,7,7.1,7h9.4
	c3.9,0,7-3.2,7.1-7V38.2l1.2,0.8c0.6,0.4,1.4,0.3,1.8-0.3C47.2,38.1,47,37.3,46.4,36.9z M32,38.9c0.9,0,1.7,0.7,1.7,1.7
	c0,1-0.7,1.7-1.7,1.7c-0.9,0-1.7-0.7-1.7-1.7C30.2,39.7,30.9,38.9,32,38.9z M32,51.3c-2,0-3.7-1.6-3.7-3.7S29.9,44,32,44
	s3.7,1.6,3.7,3.7C35.6,49.7,33.9,51.3,32,51.3z"/>
</svg>
