<svg id="Layer_1" data-name="Layer 1" xmlns="http://www.w3.org/2000/svg" xmlns:xlink="http://www.w3.org/1999/xlink" viewBox="0 0 64 64"><defs><style>.cls-1,.cls-2{isolation:isolate;}.cls-1{opacity:0.92;fill:url(#linear-gradient);}.cls-2{opacity:0.54;fill:url(#linear-gradient-2);}</style><linearGradient id="linear-gradient" x1="4.15" y1="71" x2="44.08" y2="9.84" gradientUnits="userSpaceOnUse"><stop offset="0" stop-color="#d9dadd"/><stop offset="0.16" stop-color="#d8d9e3"/><stop offset="0.25" stop-color="#d6d8ea"/><stop offset="0.74" stop-color="#d6d3e3"/><stop offset="1" stop-color="#f7f7f8"/></linearGradient><linearGradient id="linear-gradient-2" x1="11.9" y1="13.5" x2="52.5" y2="13.5" gradientUnits="userSpaceOnUse"><stop offset="0" stop-color="#161515"/><stop offset="1" stop-color="#a5a0a0"/></linearGradient></defs><path class="cls-1" d="M52.4,14.8,52,18,47.6,51.4a8.3,8.3,0,0,1-8.3,7.3H24a8.5,8.5,0,0,1-8.5-7.5L11.6,14.7a8.2,8.2,0,0,1,.1-2.7A8.4,8.4,0,0,1,20,5.3H44A8.4,8.4,0,0,1,52.4,14.8Z"/><path class="cls-2" d="M52.4,14.8l-.3,2.7a3,3,0,0,1-.4,1c-1.6,2.4-4.5,3.7-8.1,3L17.3,15.9a8.5,8.5,0,0,1-4.8-2.7,2.3,2.3,0,0,1-.4-2.5A8.3,8.3,0,0,1,20,5.3H44A8.4,8.4,0,0,1,52.4,14.8Z"/></svg>