<?xml version="1.0" encoding="utf-8"?>
<!-- Generator: Adobe Illustrator 25.4.1, SVG Export Plug-In . SVG Version: 6.00 Build 0)  -->
<svg version="1.1" id="Layer_1" xmlns="http://www.w3.org/2000/svg" xmlns:xlink="http://www.w3.org/1999/xlink" x="0px" y="0px"
	 viewBox="0 0 64 64" style="enable-background:new 0 0 64 64;" xml:space="preserve">
<style type="text/css">
	.st0{fill:url(#SVGID_1_);}
	.st1{fill:url(#SVGID_00000084520650251094833650000006826998827395053696_);}
	.st2{opacity:0.6;}
	.st3{fill:#FFFFFF;}
</style>
<linearGradient id="SVGID_1_" gradientUnits="userSpaceOnUse" x1="46.7321" y1="-196.3799" x2="36.485" y2="-173.5795" gradientTransform="matrix(1 0 0 1 0 202)">
	<stop  offset="0" style="stop-color:#56CCF2"/>
	<stop  offset="1" style="stop-color:#2F80ED"/>
</linearGradient>
<path class="st0" d="M61.2,18.6L64,60.4c0,1.9-1.9,3.6-4.4,3.6H4.4C1.9,64,0,62.3,0,60.4v-44c0-1.9,1.9-3.6,4.4-3.6L56.9,15
	C59.2,15,61.2,16.6,61.2,18.6z"/>
<linearGradient id="SVGID_00000176007308563132385310000002850224134924058757_" gradientUnits="userSpaceOnUse" x1="20.7919" y1="-194.4981" x2="38.0475" y2="-126.0969" gradientTransform="matrix(1 0 0 1 0 202)">
	<stop  offset="0" style="stop-color:#56CCF2"/>
	<stop  offset="1" style="stop-color:#2F80ED"/>
</linearGradient>
<path style="fill:url(#SVGID_00000176007308563132385310000002850224134924058757_);" d="M63.9,44.8v15.6c0,1.9-1.9,3.6-4.4,3.6H4.4
	C1.9,64,0,62.3,0,60.4v-44c0-1.9,1.9-3.6,4.4-3.6h11.9c4.9,0,9.8,1.1,14.2,3.3L52,27.2C59.5,31.1,63.9,37.8,63.9,44.8z"/>
<g>
	<g class="st2">
		<path class="st3" d="M39,57.3H23.3c-2.6,0-4.7-2.1-4.7-4.7V32.4c0-2.6,2.1-4.7,4.7-4.7H39c2.6,0,4.7,2.1,4.7,4.7v20.1
			C43.8,55.2,41.6,57.3,39,57.3z M23.3,29.1c-1.9,0-3.4,1.5-3.4,3.4v20.1c0,1.9,1.5,3.4,3.4,3.4H39c1.9,0,3.4-1.5,3.4-3.4V32.5
			c0-1.9-1.5-3.4-3.4-3.4H23.3z"/>
	</g>
	<g class="st2">
		<path class="st3" d="M37.2,49.2h-12c-0.4,0-0.6-0.3-0.6-0.6S25,48,25.2,48h12c0.4,0,0.6,0.3,0.6,0.6S37.5,49.2,37.2,49.2z"/>
	</g>
	<g class="st2">
		<g>
			<path class="st3" d="M35,38h-7.6c-0.1,0-0.2,0.1-0.2,0.2v5.2c0,0.1,0.1,0.2,0.2,0.2H35c0.2,0,0.3-0.1,0.3-0.3v-5.2
				C35.2,38.1,35.1,38,35,38z"/>
		</g>
	</g>
	<g class="st2">
		<path class="st3" d="M35.6,45.8h-8.9c-1,0-1.8-0.8-1.8-1.8v-6.4c0-1,0.8-1.8,1.8-1.8h8.9c1,0,1.8,0.8,1.8,1.8V44
			C37.5,45,36.6,45.8,35.6,45.8z M26.8,37.1c-0.3,0-0.5,0.2-0.5,0.5V44c0,0.3,0.2,0.5,0.5,0.5h8.9c0.3,0,0.5-0.2,0.5-0.5v-6.4
			c0-0.3-0.2-0.5-0.5-0.5H26.8z"/>
	</g>
</g>
</svg>
