<?xml version="1.0" encoding="utf-8"?>
<!-- Generator: Adobe Illustrator 25.4.1, SVG Export Plug-In . SVG Version: 6.00 Build 0)  -->
<svg version="1.1" id="Layer_1" xmlns="http://www.w3.org/2000/svg" xmlns:xlink="http://www.w3.org/1999/xlink" x="0px" y="0px"
	 viewBox="0 0 64 64" style="enable-background:new 0 0 64 64;" xml:space="preserve">
<style type="text/css">
	.st0{fill:url(#SVGID_1_);}
	.st1{fill:url(#SVGID_00000124881573409551115700000007925539565178025094_);}
	.st2{opacity:0.6;fill:#FFFFFF;enable-background:new    ;}
</style>
<linearGradient id="SVGID_1_" gradientUnits="userSpaceOnUse" x1="46.7321" y1="-196.3799" x2="36.485" y2="-173.5795" gradientTransform="matrix(1 0 0 1 0 202)">
	<stop  offset="0" style="stop-color:#56CCF2"/>
	<stop  offset="1" style="stop-color:#2F80ED"/>
</linearGradient>
<path class="st0" d="M61.2,18.6L64,60.4c0,1.9-1.9,3.6-4.4,3.6H4.4C1.9,64,0,62.3,0,60.4v-44c0-1.9,1.9-3.6,4.4-3.6L56.9,15
	C59.2,15,61.2,16.6,61.2,18.6z"/>
<linearGradient id="SVGID_00000052105340412669924330000015899640762542538655_" gradientUnits="userSpaceOnUse" x1="20.7919" y1="-194.4981" x2="38.0475" y2="-126.0969" gradientTransform="matrix(1 0 0 1 0 202)">
	<stop  offset="0" style="stop-color:#56CCF2"/>
	<stop  offset="1" style="stop-color:#2F80ED"/>
</linearGradient>
<path style="fill:url(#SVGID_00000052105340412669924330000015899640762542538655_);" d="M63.9,44.8v15.6c0,1.9-1.9,3.6-4.4,3.6H4.4
	C1.9,64,0,62.3,0,60.4v-44c0-1.9,1.9-3.6,4.4-3.6h11.9c4.9,0,9.8,1.1,14.2,3.3L52,27.2C59.5,31.1,63.9,37.8,63.9,44.8z"/>
<path class="st2" d="M44.2,37l-3-2.1c-0.1-0.2-0.3-0.3-0.5-0.4l-8.3-5.8c-1.4-1-3.3-1-4.7,0l-8.6,5.9c-0.1,0-0.2,0.1-0.2,0.2
	l-3.1,2.1c-0.6,0.4-0.7,1.2-0.3,1.8c0.3,0.4,0.7,0.6,1.1,0.6c0.3,0,0.5-0.1,0.7-0.2l1.2-0.8v11.9c0,3.8,3.2,6.9,7,6.9h9.2
	c3.8,0,6.9-3.1,7-6.9V38.3l1.2,0.8c0.6,0.4,1.4,0.3,1.8-0.3C45,38.2,44.8,37.4,44.2,37z M30,39c0.9,0,1.7,0.7,1.7,1.7
	S31,42.4,30,42.4c-0.9,0-1.7-0.7-1.7-1.7S29,39,30,39z M30,51.2c-2,0-3.6-1.6-3.6-3.6S28,44,30,44s3.6,1.6,3.6,3.6
	S31.9,51.2,30,51.2z"/>
</svg>
