<?xml version="1.0" encoding="utf-8"?>
<!-- Generator: Adobe Illustrator 25.2.1, SVG Export Plug-In . SVG Version: 6.00 Build 0)  -->
<svg version="1.1" id="Layer_1" xmlns="http://www.w3.org/2000/svg" xmlns:xlink="http://www.w3.org/1999/xlink" x="0px" y="0px"
	 viewBox="0 0 64 64" style="enable-background:new 0 0 64 64;" xml:space="preserve">
<style type="text/css">
	.st0{fill:url(#SVGID_1_);}
	.st1{fill:url(#SVGID_2_);}
	.st2{fill:url(#SVGID_3_);}
</style>
<linearGradient id="SVGID_1_" gradientUnits="userSpaceOnUse" x1="31.7425" y1="7.6011" x2="32.4091" y2="52.9314">
	<stop  offset="0" style="stop-color:#EAE7EA"/>
	<stop  offset="1" style="stop-color:#D6D3E3"/>
</linearGradient>
<path class="st0" d="M41.7,7.4h-0.8h-3.8H26.6h-2.9H22c-4.7,0-8.5,3.8-8.5,8.5v31.6c0,4.7,3.8,8.5,8.5,8.5h15.7h1.7h2.8
	c4.7,0,8.5-3.8,8.5-8.5V16.4C50.7,11.4,46.7,7.4,41.7,7.4z M46.4,47.5c0,2.3-1.9,4.2-4.2,4.2h-2.8h-1.7H22c-2.3,0-4.2-1.9-4.2-4.2
	V15.8c0-2.3,1.9-4.2,4.2-4.2h1.7h2.9h10.5h3.8h1.3c2.3,0,4.2,1.9,4.2,4.2V47.5z"/>
<linearGradient id="SVGID_2_" gradientUnits="userSpaceOnUse" x1="38.5446" y1="35.7818" x2="38.0591" y2="48.403">
	<stop  offset="0" style="stop-color:#EAE7EA"/>
	<stop  offset="1" style="stop-color:#D6D3E3"/>
</linearGradient>
<path class="st1" d="M32.7,37.3h11.1c0.3,0,0.6,0.3,0.6,0.6V49c0,0.3-0.3,0.6-0.6,0.6H32.7c-0.3,0-0.6-0.3-0.6-0.6V38
	C32.1,37.6,32.4,37.3,32.7,37.3z"/>
<linearGradient id="SVGID_3_" gradientUnits="userSpaceOnUse" x1="26.5169" y1="790.6313" x2="25.7707" y2="798.7392" gradientTransform="matrix(1 0 0 1 0 -778)">
	<stop  offset="0" style="stop-color:#1379E6"/>
	<stop  offset="1" style="stop-color:#115CCC"/>
</linearGradient>
<path class="st2" d="M20.4,13.6h11c0.3,0,0.6,0.3,0.6,0.6v11c0,0.3-0.3,0.6-0.6,0.6h-11c-0.3,0-0.6-0.3-0.6-0.6v-11
	C19.7,13.8,20,13.6,20.4,13.6z"/>
</svg>
