<?xml version="1.0" encoding="UTF-8"?><svg id="a" xmlns="http://www.w3.org/2000/svg" viewBox="0 0 64 64"><defs><style>.b{fill:#f4f4f4;}.c{fill:#43e892;}.d{fill:none;stroke:#43e892;stroke-linecap:round;stroke-miterlimit:10;stroke-width:5px;}</style></defs><g><path class="b" d="M24,57.8252c-6.5752,0-11.9248-5.34961-11.9248-11.9248V18.1001c0-6.52441,5.30762-11.87402,11.83203-11.92529,2.7041,0,5.31738,.39062,7.83691,1.16211l.9668,.21729c8.57617,2.83984,15.31836,9.76367,17.95117,18.49805l.4082,1.22461c.57715,2.18896,.86914,4.50049,.85449,6.81689v11.80664c0,6.5752-5.34961,11.9248-11.9248,11.9248H24Z"/><path class="c" d="M23.97964,7.04989c2.54679,0,5.07288,.37799,7.50812,1.12347l.06562,.02009,.06699,.01488,.81266,.18059c8.35129,2.7905,14.84953,9.48219,17.39142,17.91609l.00733,.02431,.00803,.02409,.38224,1.14674c.56353,2.14983,.84209,4.36637,.82796,6.59986v11.8c0,6.09299-4.95701,11.05-11.05,11.05H24c-6.09299,0-11.05001-4.95701-11.05001-11.05V18.09994c-.00018-6.04574,4.91811-11.00275,10.95512-11.04995l.07453-.0001m0-1.75l-.07964,.00011c-7.03015,.05493-12.70022,5.76962-12.70001,12.8v27.8c0,7.06924,5.73077,12.8,12.80001,12.8h16c7.06924,0,12.8-5.73076,12.8-12.8v-11.8c.0152-2.39605-.28745-4.78352-.9-7.1l-.4-1.2c-2.71762-9.01694-9.65829-16.1442-18.6-19.1l-.9-.2c-2.59918-.79567-5.30241-1.20012-8.02036-1.20012h0Z"/></g><path class="c" d="M51.5,25.8h-13c-3.1089-.05455-5.60048-2.59062-5.6-5.7V6.7c8.9417,2.9558,15.88237,10.08305,18.6,19.1Z"/><g><line class="d" x1="36.24286" y1="41.10184" x2="39.58212" y2="41.10184"/><line class="d" x1="24.41843" y1="41.10184" x2="27.75769" y2="41.10184"/><line class="d" x1="36.24286" y1="49.52813" x2="39.58212" y2="49.52813"/><line class="d" x1="24.41843" y1="49.52813" x2="27.75769" y2="49.52813"/></g></svg>