<?xml version="1.0" encoding="utf-8"?>
<!-- Generator: Adobe Illustrator 26.1.0, SVG Export Plug-In . SVG Version: 6.00 Build 0)  -->
<svg version="1.1" id="Layer_1" xmlns="http://www.w3.org/2000/svg" xmlns:xlink="http://www.w3.org/1999/xlink" x="0px" y="0px"
	 viewBox="0 0 64 64" style="enable-background:new 0 0 64 64;" xml:space="preserve">
<style type="text/css">
	.st0{fill:#F4F4F4;}
	.st1{fill:#EA5A42;}
</style>
<path class="st0" d="M51.9,27l-0.4-1.2c-2.7-9-9.7-16.1-18.6-19.1L32,6.5c-2.6-0.8-5.4-1.2-8.1-1.2c-7,0.1-12.7,5.8-12.7,12.8v27.8
	c0,7.1,5.7,12.8,12.8,12.8h16c7.1,0,12.8-5.7,12.8-12.8V34.1C52.8,31.7,52.5,29.3,51.9,27z"/>
<path class="st1" d="M51.5,25.8h-13c-3.1-0.1-5.6-2.6-5.6-5.7V6.7C41.8,9.7,48.8,16.8,51.5,25.8z"/>
</svg>
