<svg id="Layer_1" data-name="Layer 1" xmlns="http://www.w3.org/2000/svg" viewBox="0 0 64 64"><defs><style>.cls-1{opacity:0.5;}.cls-2{fill:#b5b5b5;}</style></defs><path d="M50.9,51.9H13.1a7.4,7.4,0,0,1-7.4-7.3V13.3a5.5,5.5,0,0,1,5.5-5.5H52.7a5.5,5.5,0,0,1,5.5,5.5V44.6A7.3,7.3,0,0,1,50.9,51.9ZM11.2,11.6a1.7,1.7,0,0,0-1.7,1.7V44.6a3.6,3.6,0,0,0,3.6,3.6H50.9a3.6,3.6,0,0,0,3.6-3.6V13.3a1.7,1.7,0,0,0-1.8-1.7Z"/><path d="M24.1,64a1.9,1.9,0,0,1-1-.3,2,2,0,0,1-.6-2.7l6.7-10.8a2.3,2.3,0,0,1,3.8,0L39.8,61a2,2,0,0,1-.6,2.7,1.9,1.9,0,0,1-2.7-.6l-5.4-8.6-5.3,8.6A2,2,0,0,1,24.1,64Z"/><g class="cls-1"><rect class="cls-2" x="12.4" y="15" width="39.1" height="29.88" rx="2.4"/></g><path d="M60.7,11.6H3.3a1.9,1.9,0,1,1,0-3.8H60.7a1.9,1.9,0,0,1,0,3.8Z"/><path d="M20.3,37.4a2.1,2.1,0,0,1-1.3-.5,2,2,0,0,1,0-2.7l8.3-8.5a2,2,0,0,1,2.6-.1l5.3,4.6,7.1-7.3a1.9,1.9,0,0,1,2.6,0,1.9,1.9,0,0,1,.1,2.7l-8.4,8.5a1.8,1.8,0,0,1-2.5.1l-5.3-4.6-7.1,7.2A2,2,0,0,1,20.3,37.4Z"/></svg>