<?xml version="1.0" encoding="UTF-8"?><svg id="a" xmlns="http://www.w3.org/2000/svg" viewBox="0 0 64 64"><defs><style>.b{fill:#f4f4f4;}.c{fill:#ea5a42;}.d{fill:none;stroke:#ea5a42;stroke-linecap:round;stroke-miterlimit:10;stroke-width:5px;}</style></defs><g><path class="b" d="M24,57.8252c-6.5752,0-11.9248-5.34961-11.9248-11.9248V18.1001c0-6.52441,5.30762-11.87402,11.83203-11.92529,2.7041,0,5.31738,.39062,7.83691,1.16211l.9668,.21729c8.57617,2.83984,15.31836,9.76367,17.95117,18.49805l.4082,1.22461c.57715,2.18896,.86914,4.50049,.85449,6.81689v11.80664c0,6.5752-5.34961,11.9248-11.9248,11.9248H24Z"/><path class="c" d="M23.97963,7.04989c2.54681,0,5.07289,.37799,7.50813,1.12347l.06561,.02008,.067,.01489,.81264,.18059c8.35129,2.7905,14.84953,9.48219,17.39143,17.91609l.00732,.0243,.00803,.02409,.38222,1.14665c.56354,2.14981,.84212,4.36645,.82799,6.59996v11.8c0,6.09299-4.95702,11.05-11.05,11.05H24c-6.093,0-11.05-4.95701-11.05-11.05V18.09994c-.00018-6.04574,4.91809-11.00275,10.95511-11.04995l.07452-.0001m0-1.75l-.07964,.00011c-7.03015,.05493-12.70021,5.76962-12.7,12.8v27.8c0,7.06924,5.73076,12.8,12.8,12.8h16c7.06924,0,12.8-5.73076,12.8-12.8v-11.8c.0152-2.39605-.28745-4.78352-.90001-7.1l-.39999-1.2c-2.71762-9.01694-9.65829-16.1442-18.60001-19.1l-.89999-.2c-2.59918-.79567-5.30241-1.20012-8.02037-1.20012h0Z"/></g><path class="c" d="M51.5,25.8h-13c-3.1089-.05455-5.60048-2.59062-5.6-5.7V6.7c8.9417,2.9558,15.88237,10.08305,18.6,19.1Z"/><line class="d" x1="34.30776" y1="41.14355" x2="39.12949" y2="41.14355"/><line class="d" x1="34.30776" y1="49.50322" x2="43.58316" y2="49.50322"/><circle class="c" cx="23.22236" cy="45.38519" r="6.69911"/></svg>