<svg id="Layer_1" data-name="Layer 1" xmlns="http://www.w3.org/2000/svg" viewBox="0 0 64 64"><defs><style>.cls-1{fill:#929495;}.cls-2{fill:#2e3436;}</style></defs><rect class="cls-1" x="12.4" y="24.5" width="30.6" height="21.47" rx="1.4"/><path class="cls-1" d="M53.1,13.8V32.4a1.5,1.5,0,0,1-1.5,1.4H46.7V22.4a1.3,1.3,0,0,0-1.3-1.3h-23V13.8a1.5,1.5,0,0,1,1.5-1.5H51.6A1.5,1.5,0,0,1,53.1,13.8Z"/><path class="cls-2" d="M55.6,5H20.3A5.1,5.1,0,0,0,16,7.3a5,5,0,0,0-.9,2.9v6.9h-5a5.2,5.2,0,0,0-5.2,5.3V48.1a5.2,5.2,0,0,0,5.2,5.2H45.4a5.2,5.2,0,0,0,5.2-5.2V41.2h5a5.4,5.4,0,0,0,5.2-5.3V10.2A5.2,5.2,0,0,0,55.6,5ZM46.7,48.1a1.3,1.3,0,0,1-1.3,1.3H10.1a1.3,1.3,0,0,1-1.3-1.3V22.4a1.3,1.3,0,0,1,1.3-1.3H45.4a1.3,1.3,0,0,1,1.3,1.3ZM56.9,35.9a1.1,1.1,0,0,1-.3.8,1.2,1.2,0,0,1-1,.5h-5V22.4a5.2,5.2,0,0,0-5.2-5.3H19V10.2a1.1,1.1,0,0,1,.3-.7,1.1,1.1,0,0,1,1-.6H55.6a1.3,1.3,0,0,1,1.3,1.3Z"/><path class="cls-2" d="M37.4,54.8H18.1a2,2,0,0,0-2,2,1.9,1.9,0,0,0,2,1.9H37.4a1.8,1.8,0,0,0,1.9-1.9A1.9,1.9,0,0,0,37.4,54.8Z"/></svg>