<svg id="Layer_1" data-name="Layer 1" xmlns="http://www.w3.org/2000/svg" viewBox="0 0 64 64"><defs><style>.cls-1{fill:#929495;}.cls-2{fill:#2e3436;}</style></defs><path class="cls-1" d="M54.7,5H19.5a4.9,4.9,0,0,0-4.3,2.3,4.5,4.5,0,0,0-1,2.9v6.9H9.3A5.3,5.3,0,0,0,4,22.4V48.1a5.2,5.2,0,0,0,5.3,5.2H44.5a5.2,5.2,0,0,0,5.3-5.2V41.2h4.9a5.5,5.5,0,0,0,4.2-2A5.7,5.7,0,0,0,60,35.9V10.2A5.2,5.2,0,0,0,54.7,5ZM44.5,17.1H18.2V10.2a1,1,0,0,1,.2-.7,1.4,1.4,0,0,1,1.1-.6H54.7A1.3,1.3,0,0,1,56,10.2V35.9a1.9,1.9,0,0,1-.2.8,1.6,1.6,0,0,1-1.1.5H49.8V22.4A5.3,5.3,0,0,0,44.5,17.1Zm1.3,31a1.3,1.3,0,0,1-1.3,1.3H9.3A1.3,1.3,0,0,1,8,48.1V22.4a1.3,1.3,0,0,1,1.3-1.3H44.5a1.3,1.3,0,0,1,1.3,1.3Z"/><path class="cls-1" d="M36.5,54.8H17.2a2,2,0,0,0-1.9,2,1.9,1.9,0,0,0,1.9,1.9H36.5a1.9,1.9,0,0,0,2-1.9A2,2,0,0,0,36.5,54.8Z"/><path class="cls-2" d="M51.3,56.7a2.4,2.4,0,0,1-1.4-.5L2.9,10.7A2,2,0,0,1,5.7,7.8l47,45.5a1.9,1.9,0,0,1,0,2.8A2,2,0,0,1,51.3,56.7Z"/></svg>