<svg id="Layer_1" data-name="Layer 1" xmlns="http://www.w3.org/2000/svg" viewBox="0 0 64 64"><defs><style>.cls-1{fill:#929495;}.cls-2{fill:#2e3436;}</style></defs><path class="cls-1" d="M45.5,30.4c-.2,0-.4-.2-.6-.3l-.6-.2-3.5-1.2-.6-.2a25.3,25.3,0,0,0-3.8-.7h-.3L32,27.5l-4.2.2h-.2a21.8,21.8,0,0,0-4,.8h-.4l-3.5,1.2-.6.2-.6.3L32,48.2Z"/><path class="cls-2" d="M63.6,18.5A2,2,0,0,0,64,17a2.2,2.2,0,0,0-.8-1.3,51.6,51.6,0,0,0-62.4,0A2.2,2.2,0,0,0,0,17a2,2,0,0,0,.4,1.5L30.4,58a2.1,2.1,0,0,0,1.6.8,2.4,2.4,0,0,0,1.6-.7ZM32,53.6h-.1L4.8,17.7l.8-.5a47.1,47.1,0,0,1,52.8,0l.8.5h-.1Z"/></svg>