<?xml version="1.0" encoding="utf-8"?>
<!-- Generator: Adobe Illustrator 25.4.1, SVG Export Plug-In . SVG Version: 6.00 Build 0)  -->
<svg version="1.1" id="Layer_1" xmlns="http://www.w3.org/2000/svg" xmlns:xlink="http://www.w3.org/1999/xlink" x="0px" y="0px"
	 viewBox="0 0 64 64" style="enable-background:new 0 0 64 64;" xml:space="preserve">
<style type="text/css">
	.st0{fill:#929495;}
	.st1{fill:#2E3436;}
</style>
<path class="st0" d="M53.6,24.9c0.7,2.2,1.1,4.6,1.1,7.1c0,1.9-0.2,3.8-0.7,5.5l3.7,1.9c0.7-2.4,1.1-4.9,1.1-7.4
	c0-2.9-0.5-5.7-1.3-8.3L53.6,24.9z"/>
<path class="st1" d="M9.2,32c0-11.2,8.1-20.5,18.7-22.4V5.5C15.1,7.4,5.2,18.6,5.2,32S15.1,56.6,28,58.5v-4.1
	C17.3,52.5,9.2,43.2,9.2,32z"/>
<path class="st0" d="M36.1,5.5v4.1c5.5,1,10.2,3.9,13.6,8.1l4.1-1.3C49.6,10.6,43.3,6.6,36.1,5.5z"/>
</svg>
