<svg id="Layer_1" data-name="Layer 1" xmlns="http://www.w3.org/2000/svg" viewBox="0 0 64 64"><defs><style>.cls-1{fill:#929495;}.cls-2{fill:#2e3436;}</style></defs><path class="cls-1" d="M48.6,25.9l-.4-.2A29.9,29.9,0,0,0,32,21.1a29.9,29.9,0,0,0-16.2,4.6l-.4.2L32,47.8Z"/><path class="cls-2" d="M63.6,18.5A2,2,0,0,0,64,17a2.2,2.2,0,0,0-.8-1.3,51.6,51.6,0,0,0-62.4,0A2.2,2.2,0,0,0,0,17a2,2,0,0,0,.4,1.5L30.4,58a2.1,2.1,0,0,0,1.6.8,2.4,2.4,0,0,0,1.6-.7ZM32,53.6h-.1L4.8,17.7l.8-.5a47.1,47.1,0,0,1,52.8,0l.8.5h-.1Z"/></svg>