<svg id="Layer_1" data-name="Layer 1" xmlns="http://www.w3.org/2000/svg" viewBox="0 0 64 64"><defs><style>.cls-1{fill:#2e3436;}.cls-2{fill:#929495;}</style></defs><path class="cls-1" d="M63.6,18.5A2,2,0,0,0,64,17a2.2,2.2,0,0,0-.8-1.3,51.6,51.6,0,0,0-62.4,0A2.2,2.2,0,0,0,0,17a2,2,0,0,0,.4,1.5L30.4,58a2.1,2.1,0,0,0,1.6.8,2.4,2.4,0,0,0,1.6-.7ZM32,53.6h-.1L4.8,17.7l.8-.5a47.1,47.1,0,0,1,52.8,0l.8.5h-.1Z"/><path class="cls-2" d="M38.9,38.8A23.7,23.7,0,0,0,32,37.7a23.7,23.7,0,0,0-6.9,1.1L32,47.9Z"/></svg>