<?xml version="1.0" encoding="utf-8"?>
<!-- Generator: Adobe Illustrator 25.4.1, SVG Export Plug-In . SVG Version: 6.00 Build 0)  -->
<svg version="1.1" id="Layer_1" xmlns="http://www.w3.org/2000/svg" xmlns:xlink="http://www.w3.org/1999/xlink" x="0px" y="0px"
	 viewBox="0 0 16 16" style="enable-background:new 0 0 16 16;" xml:space="preserve">
<style type="text/css">
	.st0{fill:#2E3436;}
	.st1{fill:none;stroke:#2E3436;stroke-width:1.1391;stroke-linecap:round;stroke-linejoin:round;stroke-miterlimit:10;}
	.st2{fill:none;stroke:#2E3436;stroke-width:1.2;stroke-miterlimit:10;}
	.st3{fill:none;stroke:#2E3436;stroke-width:1.2;stroke-linecap:round;stroke-linejoin:round;stroke-miterlimit:10;}
	.st4{fill:none;stroke:#2E3436;stroke-width:1.1416;stroke-linecap:round;stroke-linejoin:round;stroke-miterlimit:10;}
	.st5{fill:none;stroke:#2E3436;stroke-width:1.1391;stroke-miterlimit:10;}
	.st6{fill:none;stroke:#2E3436;stroke-width:1.1361;stroke-miterlimit:10;}
</style>
<path class="st0" d="M10.5,1.8h-5C4,1.8,2.7,3.1,2.7,4.6v6.8c0,1.5,1.2,2.8,2.8,2.8h5c1.5,0,2.8-1.2,2.8-2.8V4.6
	C13.3,3.1,12,1.8,10.5,1.8z M5.5,3h5c0.9,0,1.6,0.7,1.6,1.6V6L9.2,8.9C8.8,9.4,8.1,9.4,7.5,9.1L7.3,8.9c-0.8-0.5-1.9-0.5-2.7,0
	L3.9,9.3V4.6C3.9,3.7,4.6,3,5.5,3z M10.5,13h-5c-0.9,0-1.6-0.7-1.6-1.6v-0.7l1.3-0.8c0.4-0.3,1-0.3,1.5,0l0.3,0.2
	c1,0.6,2.3,0.5,3.1-0.4l2.1-2.1v3.8C12.1,12.3,11.4,13,10.5,13z"/>
<g>
	<circle class="st0" cx="6.1" cy="5.1" r="1.5"/>
</g>
</svg>
