<?xml version="1.0" encoding="utf-8"?>
<!-- Generator: Adobe Illustrator 25.4.1, SVG Export Plug-In . SVG Version: 6.00 Build 0)  -->
<svg version="1.1" id="Layer_1" xmlns="http://www.w3.org/2000/svg" xmlns:xlink="http://www.w3.org/1999/xlink" x="0px" y="0px"
	 viewBox="0 0 16 16" style="enable-background:new 0 0 16 16;" xml:space="preserve">
<style type="text/css">
	.st0{fill:#2E3436;}
	.st1{fill:none;stroke:#2E3436;stroke-width:1.1391;stroke-linecap:round;stroke-linejoin:round;stroke-miterlimit:10;}
	.st2{fill:none;stroke:#2E3436;stroke-width:1.2;stroke-miterlimit:10;}
	.st3{fill:none;stroke:#2E3436;stroke-width:1.2;stroke-linecap:round;stroke-linejoin:round;stroke-miterlimit:10;}
	.st4{fill:none;stroke:#2E3436;stroke-width:1.1416;stroke-linecap:round;stroke-linejoin:round;stroke-miterlimit:10;}
	.st5{fill:none;stroke:#2E3436;stroke-width:1.1391;stroke-miterlimit:10;}
	.st6{fill:none;stroke:#2E3436;stroke-width:1.1361;stroke-miterlimit:10;}
</style>
<path class="st0" d="M11.1,9.9c-0.5,0-0.9,0.2-1.2,0.5l-3.4-2c0-0.1,0-0.2,0-0.3c0-0.1,0-0.2,0-0.4l3.5-2.1c0.3,0.3,0.8,0.5,1.2,0.5
	c0.9,0,1.7-0.8,1.7-1.7s-0.8-1.7-1.7-1.7c-0.9,0-1.7,0.8-1.7,1.7c0,0,0,0.1,0,0.1L5.9,6.7C5.6,6.5,5.2,6.4,4.8,6.4
	c-0.9,0-1.7,0.8-1.7,1.7s0.8,1.7,1.7,1.7c0.4,0,0.8-0.2,1.1-0.4l3.5,2c0,0.1,0,0.1,0,0.2c0,0.9,0.8,1.7,1.7,1.7s1.7-0.8,1.7-1.7
	C12.8,10.6,12.1,9.9,11.1,9.9z"/>
</svg>
