<?xml version="1.0" encoding="utf-8"?>
<!-- Generator: Adobe Illustrator 25.4.1, SVG Export Plug-In . SVG Version: 6.00 Build 0)  -->
<svg version="1.1" id="Layer_1" xmlns="http://www.w3.org/2000/svg" xmlns:xlink="http://www.w3.org/1999/xlink" x="0px" y="0px"
	 viewBox="0 0 16 16" style="enable-background:new 0 0 16 16;" xml:space="preserve">
<style type="text/css">
	.st0{fill:#2E3436;}
	.st1{fill:none;stroke:#2E3436;stroke-width:1.1391;stroke-linecap:round;stroke-linejoin:round;stroke-miterlimit:10;}
	.st2{fill:none;stroke:#2E3436;stroke-width:1.2;stroke-miterlimit:10;}
	.st3{fill:none;stroke:#2E3436;stroke-width:1.2;stroke-linecap:round;stroke-linejoin:round;stroke-miterlimit:10;}
	.st4{fill:none;stroke:#2E3436;stroke-width:1.1416;stroke-linecap:round;stroke-linejoin:round;stroke-miterlimit:10;}
	.st5{fill:none;stroke:#2E3436;stroke-width:1.1391;stroke-miterlimit:10;}
	.st6{fill:none;stroke:#2E3436;stroke-width:1.1361;stroke-miterlimit:10;}
</style>
<path class="st0" d="M13.6,11.1V9c0-0.4-0.1-0.8-0.2-1.1l-0.2-3c0-0.6-0.6-1.1-1.2-1.1c0,0,0,0,0,0L6.7,3.5C6.3,3.5,5.9,3.4,5.5,3.4
	H3.7C3,3.4,2.4,3.9,2.4,4.5v6.9c0,0.6,0.6,1.1,1.3,1.1h8.6h0c0.7,0,1.3-0.5,1.3-1.2L13.6,11.1z M12,4.9l0.1,1.3
	c-0.2-0.2-0.5-0.3-0.7-0.5L9.6,4.8l2.3,0.1C12,4.9,12,4.9,12,4.9z M3.7,11.4c-0.1,0-0.1,0-0.1,0c0,0,0,0,0,0l0-6.8c0,0,0,0,0.1,0
	c0,0,0,0,0,0l2.9,0.1C6.9,4.8,7.2,4.9,7.5,5l3.4,1.8c0.7,0.3,1.1,0.9,1.4,1.4l0.2,2.9l0,0.3c0,0-0.1,0-0.1,0H3.7z"/>
</svg>
