<?xml version="1.0" encoding="utf-8"?>
<!-- Generator: Adobe Illustrator 25.4.1, SVG Export Plug-In . SVG Version: 6.00 Build 0)  -->
<svg version="1.1" id="Layer_1" xmlns="http://www.w3.org/2000/svg" xmlns:xlink="http://www.w3.org/1999/xlink" x="0px" y="0px"
	 viewBox="0 0 16 16" style="enable-background:new 0 0 16 16;" xml:space="preserve">
<style type="text/css">
	.st0{fill:#2E3436;}
	.st1{fill:none;stroke:#2E3436;stroke-width:1.1391;stroke-linecap:round;stroke-linejoin:round;stroke-miterlimit:10;}
	.st2{fill:none;stroke:#2E3436;stroke-width:1.2;stroke-miterlimit:10;}
	.st3{fill:none;stroke:#2E3436;stroke-width:1.2;stroke-linecap:round;stroke-linejoin:round;stroke-miterlimit:10;}
	.st4{fill:none;stroke:#2E3436;stroke-width:1.1416;stroke-linecap:round;stroke-linejoin:round;stroke-miterlimit:10;}
	.st5{fill:none;stroke:#2E3436;stroke-width:1.1391;stroke-miterlimit:10;}
	.st6{fill:none;stroke:#2E3436;stroke-width:1.1361;stroke-miterlimit:10;}
</style>
<g>
	<path class="st0" d="M9.8,14.2H6.2c-1.8,0-3.3-1.5-3.3-3.2V7.3C2.6,7.4,2.1,7.2,1.9,6.9C1.7,6.6,1.6,6.3,1.7,6
		c0-0.3,0.2-0.5,0.5-0.7l4.6-3.2c0.7-0.5,1.7-0.5,2.5,0l4.6,3.2c0,0,0,0,0,0c0.2,0.2,0.4,0.4,0.5,0.7c0,0.3,0,0.6-0.2,0.8
		c-0.3,0.3-0.7,0.5-1.1,0.4V11C13,12.8,11.6,14.2,9.8,14.2z M3.5,5.8c0.1,0,0.2,0,0.3,0.1C4,5.9,4.1,6.1,4.1,6.3V11
		c0,1.2,1,2.1,2.1,2.1h3.6c1.2,0,2.1-1,2.1-2.1V6.3c0-0.2,0.1-0.4,0.3-0.5c0.1,0,0.1-0.1,0.2-0.1L8.6,3.1c-0.3-0.2-0.8-0.2-1.2,0
		L3.5,5.8z"/>
</g>
</svg>
