<?xml version="1.0" encoding="utf-8"?>
<!-- Generator: Adobe Illustrator 25.4.1, SVG Export Plug-In . SVG Version: 6.00 Build 0)  -->
<svg version="1.1" id="Layer_1" xmlns="http://www.w3.org/2000/svg" xmlns:xlink="http://www.w3.org/1999/xlink" x="0px" y="0px"
	 viewBox="0 0 16 16" style="enable-background:new 0 0 16 16;" xml:space="preserve">
<style type="text/css">
	.st0{fill:#2E3436;}
	.st1{fill:none;stroke:#2E3436;stroke-width:1.1391;stroke-linecap:round;stroke-linejoin:round;stroke-miterlimit:10;}
	.st2{fill:none;stroke:#2E3436;stroke-width:1.2;stroke-miterlimit:10;}
	.st3{fill:none;stroke:#2E3436;stroke-width:1.2;stroke-linecap:round;stroke-linejoin:round;stroke-miterlimit:10;}
	.st4{fill:none;stroke:#2E3436;stroke-width:1.1416;stroke-linecap:round;stroke-linejoin:round;stroke-miterlimit:10;}
	.st5{fill:none;stroke:#2E3436;stroke-width:1.1391;stroke-miterlimit:10;}
	.st6{fill:none;stroke:#2E3436;stroke-width:1.1361;stroke-miterlimit:10;}
</style>
<g>
	<path class="st0" d="M9.1,14.2H6.9c-1.7,0-3-1.3-3-3V4.8c0-0.6,0.5-1.1,1.1-1.1h6c0.6,0,1.1,0.5,1.1,1.1v6.4
		C12.1,12.8,10.8,14.2,9.1,14.2z M5.1,4.8v6.3c0,1,0.8,1.8,1.8,1.8h2.2c1,0,1.8-0.8,1.8-1.8V4.8H5.1z"/>
</g>
<g>
	<g>
		<path class="st0" d="M6.7,11.9c-0.3,0-0.6-0.3-0.6-0.6V6.6C6.1,6.2,6.4,6,6.7,6s0.6,0.3,0.6,0.6v4.7C7.3,11.6,7,11.9,6.7,11.9z"/>
	</g>
	<g>
		<path class="st0" d="M9.3,11.9c-0.3,0-0.6-0.3-0.6-0.6V6.6C8.7,6.2,9,6,9.3,6s0.6,0.3,0.6,0.6v4.7C9.9,11.6,9.6,11.9,9.3,11.9z"/>
	</g>
</g>
<path class="st0" d="M11.4,2.2H9.3C9.2,2,9,1.8,8.8,1.8H7.2C7,1.8,6.8,2,6.7,2.2H4.6C4.3,2.2,4,2.5,4,2.8s0.3,0.6,0.6,0.6h6.7
	c0.3,0,0.6-0.3,0.6-0.6S11.7,2.2,11.4,2.2z"/>
</svg>
