<?xml version="1.0" encoding="UTF-8" standalone="no"?>
<svg
   xmlns:dc="http://purl.org/dc/elements/1.1/"
   xmlns:cc="http://creativecommons.org/ns#"
   xmlns:rdf="http://www.w3.org/1999/02/22-rdf-syntax-ns#"
   xmlns:svg="http://www.w3.org/2000/svg"
   xmlns="http://www.w3.org/2000/svg"
   xmlns:sodipodi="http://sodipodi.sourceforge.net/DTD/sodipodi-0.dtd"
   xmlns:inkscape="http://www.inkscape.org/namespaces/inkscape"
   version="1.1"
   id="Layer_1"
   x="0px"
   y="0px"
   viewBox="0 0 64 64"
   style="enable-background:new 0 0 64 64;"
   xml:space="preserve"
   sodipodi:docname="iso-c.svg"
   inkscape:version="1.0.2 (e86c870879, 2021-01-15)"><metadata
   id="metadata23"><rdf:RDF><cc:Work
       rdf:about=""><dc:format>image/svg+xml</dc:format><dc:type
         rdf:resource="http://purl.org/dc/dcmitype/StillImage" /></cc:Work></rdf:RDF></metadata><defs
   id="defs21" /><sodipodi:namedview
   pagecolor="#ffffff"
   bordercolor="#666666"
   borderopacity="1"
   objecttolerance="10"
   gridtolerance="10"
   guidetolerance="10"
   inkscape:pageopacity="0"
   inkscape:pageshadow="2"
   inkscape:window-width="1522"
   inkscape:window-height="1065"
   id="namedview19"
   showgrid="false"
   inkscape:zoom="5.7421875"
   inkscape:cx="68.276305"
   inkscape:cy="13.999022"
   inkscape:window-x="114"
   inkscape:window-y="19"
   inkscape:window-maximized="0"
   inkscape:current-layer="Layer_1" />
<style
   type="text/css"
   id="style2">
	.st0{fill:#F4F4F4;}
	.st1{fill:#4F59D3;}
	.st2{fill:#FFFFFF;}
</style>
<g
   id="g8">
	<path
   class="st0"
   d="M6.250001,18.1410885C6.250001,11.5460329,11.5500002,6.25,18.1499977,6.25h27.7000046   C52.4500008,6.25,57.75,11.5460329,57.75,18.1410885v27.7178211C57.75,52.4539642,52.4500008,57.75,45.8500023,57.75H18.0499992   c-6.499999,0-11.7999983-5.2960358-11.7999983-11.8910904V18.1410885z"
   id="path4" />
	<path
   class="st1"
   d="M45.8496094,58.5H18.0498047C11.1298828,58.5,5.5,52.8291016,5.5,45.859375V18.1411133   C5.5,11.1708984,11.1748047,5.5,18.1499023,5.5h27.699707C52.8251953,5.5,58.5,11.1708984,58.5,18.1411133V45.859375   C58.5,52.8291016,52.8251953,58.5,45.8496094,58.5z M18.1499023,7C12.0019531,7,7,11.9980469,7,18.1411133V45.859375   C7,52.0019531,11.9570312,57,18.0498047,57h27.7998047C51.9980469,57,57,52.0019531,57,45.859375V18.1411133   C57,11.9980469,51.9980469,7,45.8496094,7H18.1499023z"
   id="path6" />
</g>
<g
   id="g12"
   transform="matrix(1.6671149,0,0,1.6671149,-21.347677,-21.347677)">
	<path
   class="st1"
   d="m 32,21.221039 c -5.953054,0 -10.778961,4.825907 -10.778961,10.778961 0,5.953054 4.825907,10.778961 10.778961,10.778961 5.953054,0 10.778961,-4.825905 10.778961,-10.778961 0,-5.953056 -4.825905,-10.778961 -10.778961,-10.778961 z m 0,13.495239 c -1.500149,0 -2.716276,-1.216129 -2.716276,-2.716278 0,-1.500149 1.216127,-2.716276 2.716276,-2.716276 1.500149,0 2.716278,1.216127 2.716278,2.716276 0,1.500149 -1.216129,2.716278 -2.716278,2.716278 z"
   id="path10" />
</g>
<g
   id="g16"
   transform="matrix(1.6671149,0,0,1.6671149,-21.347677,-21.347677)"
   style="stroke:#ffffff;stroke-opacity:1;fill:#ffffff;fill-opacity:1;stroke-width:0.59983868;stroke-miterlimit:4;stroke-dasharray:none">
	<path
   class="st2"
   d="M 32,36.53418 C 29.5,36.53418 27.46582,34.5 27.46582,32 27.46582,29.5 29.5,27.46582 32,27.46582 c 2.5,0 4.53418,2.03418 4.53418,4.53418 0,2.5 -2.03418,4.53418 -4.53418,4.53418 z m 0,-8.666016 c -2.27832,0 -4.131836,1.853516 -4.131836,4.131836 0,2.27832 1.853516,4.131836 4.131836,4.131836 2.27832,0 4.131836,-1.853516 4.131836,-4.131836 0,-2.27832 -1.853516,-4.131836 -4.131836,-4.131836 z"
   id="path14"
   style="stroke:#ffffff;stroke-opacity:1;fill:#ffffff;fill-opacity:1;stroke-width:0.59983868;stroke-miterlimit:4;stroke-dasharray:none" />
</g>
</svg>
