<?xml version="1.0" encoding="utf-8"?>
<!-- Generator: Adobe Illustrator 26.1.0, SVG Export Plug-In . SVG Version: 6.00 Build 0)  -->
<svg version="1.1" id="Layer_1" xmlns="http://www.w3.org/2000/svg" xmlns:xlink="http://www.w3.org/1999/xlink" x="0px" y="0px"
	 viewBox="0 0 64 64" style="enable-background:new 0 0 64 64;" xml:space="preserve">
<style type="text/css">
	.st0{fill:#F4F4F4;}
	.st1{fill:#E04848;}
	.st2{fill:#7F7F7F;}
</style>
<g>
	<path class="st0" d="M24.0501423,57.775135c-6.5751991,0-11.9248085-5.3496094-11.9248085-11.9248047V18.150135
		c0-6.5756826,5.3496094-11.925292,11.9248085-11.925292h15.8994122c6.5761719,0,11.9257812,5.3496094,11.9257812,11.925292
		v27.7998047c0,6.5205078-5.3496094,11.8251953-11.9257812,11.8251953H24.0501423z"/>
</g>
<g>
	<path class="st1" d="M39.9503326,7.0999422c6.0929871,0,11.0500031,4.9570122,11.0500031,11.0499983v27.8000031
		c0,6.0378532-4.957016,10.9500008-11.0500031,10.9500008h-15.899992c-6.0929909,0-11.0500069-4.9570122-11.0500069-11.0500031
		V18.1499405c0-6.0929861,4.957016-11.0499983,11.0500069-11.0499983H39.9503326 M39.9503326,5.3499422h-15.899992
		c-7.1000099,0-12.8000069,5.7000008-12.8000069,12.7999983v27.7000008c0,7.1000023,5.6999969,12.8000031,12.8000069,12.8000031
		h15.899992c7.1000061,0,12.8000031-5.7000008,12.8000031-12.7000008V18.1499405
		C52.7503357,11.049943,47.0503387,5.3499422,39.9503326,5.3499422L39.9503326,5.3499422z"/>
</g>
<g>
	<path class="st2" d="M29.1233826,47.7253304c0.0078125,0.40625-0.0351562,0.7773438-0.1289062,1.1132812
		c-0.09375,0.3349609-0.2353516,0.6220703-0.4238281,0.8662109s-0.4248047,0.4345703-0.7089844,0.5742188
		c-0.2841797,0.1376953-0.6132812,0.2109375-0.9863281,0.2177734c-0.2070312,0.0039062-0.4003906-0.0126953-0.5810547-0.0488281
		c-0.1806641-0.0371094-0.3554688-0.0898438-0.5224609-0.1601562l0.0361328,1.9794922l-1.4892578,0.0273438l-0.1289062-6.9287109
		c0.1318359-0.0419922,0.2841797-0.0830078,0.4570312-0.1240234c0.1728516-0.0390625,0.3544922-0.0742188,0.5439453-0.1044922
		s0.3818359-0.0546875,0.578125-0.0761719c0.1962891-0.0195312,0.3837891-0.03125,0.5644531-0.0351562
		c0.4326172-0.0078125,0.8212891,0.0488281,1.1630859,0.1738281c0.3427734,0.1240234,0.6328125,0.3017578,0.8710938,0.5341797
		c0.2373047,0.2314453,0.4208984,0.5166016,0.5498047,0.8544922C29.0472107,46.9265022,29.1155701,47.3054085,29.1233826,47.7253304
		z M27.6048279,47.7936897c-0.0087891-0.4599609-0.1181641-0.8261719-0.3300781-1.0996094
		c-0.2119141-0.2724609-0.5214844-0.4052734-0.9277344-0.3984375c-0.1337891,0.0029297-0.2568359,0.0097656-0.3701172,0.0224609
		s-0.2060547,0.0253906-0.2783203,0.0410156l0.0498047,2.6894531c0.09375,0.0585938,0.2167969,0.1064453,0.3671875,0.1435547
		c0.1513672,0.0371094,0.3027344,0.0537109,0.4560547,0.0507812C27.278656,49.2302132,27.622406,48.7468147,27.6048279,47.7936897z"
		/>
	<path class="st2" d="M34.9593201,50.0759163c-0.1318359,0.0429688-0.2861328,0.0839844-0.4589844,0.1240234
		c-0.1708984,0.0390625-0.3515625,0.0751953-0.5429688,0.1054688c-0.1884766,0.0292969-0.3818359,0.0546875-0.578125,0.0761719
		c-0.1962891,0.0185547-0.3847656,0.03125-0.5644531,0.0341797c-0.4335938,0.0087891-0.8212891-0.0478516-1.1640625-0.1669922
		c-0.3408203-0.1210938-0.6308594-0.2978516-0.8691406-0.5302734c-0.2373047-0.2324219-0.4208984-0.5136719-0.5507812-0.8486328
		s-0.1982422-0.7109375-0.2060547-1.1308594c-0.0078125-0.4267578,0.0380859-0.8125,0.1376953-1.1582031
		c0.1005859-0.3457031,0.2490234-0.6396484,0.4443359-0.8837891s0.4375-0.4326172,0.7246094-0.5634766
		c0.2871094-0.1328125,0.6181641-0.2021484,0.9912109-0.2089844c0.2060547-0.0039062,0.3925781,0.0126953,0.5556641,0.0498047
		c0.1640625,0.0371094,0.3300781,0.0908203,0.4990234,0.1611328l-0.0449219-2.3789062l1.4853516-0.2685547L34.9593201,50.0759163z
		 M31.5433044,47.6403694c0.0078125,0.4599609,0.1181641,0.828125,0.3300781,1.1044922
		c0.2119141,0.2753906,0.5214844,0.4101562,0.9277344,0.4023438c0.1337891-0.0019531,0.2568359-0.0097656,0.3701172-0.0224609
		c0.1123047-0.0117188,0.2050781-0.0253906,0.2792969-0.0400391l-0.0507812-2.7099609
		c-0.0947266-0.0576172-0.2167969-0.1054688-0.3681641-0.1425781c-0.1503906-0.0371094-0.3027344-0.0546875-0.4560547-0.0527344
		C31.8694763,46.1931038,31.5247498,46.6804085,31.5433044,47.6403694z"/>
	<path class="st2" d="M38.4964294,42.4196663c0.2792969-0.0048828,0.5371094,0.0185547,0.7714844,0.0703125
		c0.234375,0.0527344,0.4150391,0.1044922,0.5429688,0.1552734l-0.2685547,1.1943359
		c-0.1347656-0.0576172-0.2792969-0.0996094-0.4365234-0.1269531c-0.1582031-0.0273438-0.3027344-0.0390625-0.4365234-0.0371094
		c-0.1796875,0.0039062-0.3310547,0.0322266-0.453125,0.0839844s-0.2167969,0.1220703-0.2861328,0.2109375
		c-0.0673828,0.0878906-0.1162109,0.1914062-0.1435547,0.3115234c-0.0273438,0.1210938-0.0400391,0.2509766-0.0371094,0.3916016
		l0.0048828,0.2597656l1.8388672-0.0341797l0.0224609,1.2402344l-1.8388672,0.0341797l0.0751953,4.0185547l-1.4902344,0.0283203
		l-0.1035156-5.5390625c-0.0126953-0.6796875,0.1689453-1.2226562,0.5449219-1.6298828S37.7434998,42.4343147,38.4964294,42.4196663
		z"/>
</g>
<g>
	<path class="st1" d="M51.2879181,25.3776989H38.6973648c-3.0109787-0.0528336-5.4240799-2.5090256-5.4236145-5.5204735V6.8792744
		C41.9338226,9.7419834,48.6558914,16.6447525,51.2879181,25.3776989z"/>
</g>
</svg>
