<?xml version="1.0" encoding="UTF-8" standalone="no"?>
<!-- Generator: Adobe Illustrator 25.2.1, SVG Export Plug-In . SVG Version: 6.00 Build 0)  -->

<svg
   xmlns:dc="http://purl.org/dc/elements/1.1/"
   xmlns:cc="http://creativecommons.org/ns#"
   xmlns:rdf="http://www.w3.org/1999/02/22-rdf-syntax-ns#"
   xmlns:svg="http://www.w3.org/2000/svg"
   xmlns="http://www.w3.org/2000/svg"
   xmlns:sodipodi="http://sodipodi.sourceforge.net/DTD/sodipodi-0.dtd"
   xmlns:inkscape="http://www.inkscape.org/namespaces/inkscape"
   version="1.1"
   id="Layer_1"
   x="0px"
   y="0px"
   viewBox="0 0 64 64"
   style="enable-background:new 0 0 64 64;"
   xml:space="preserve"
   sodipodi:docname="document-open-recent.svg"
   inkscape:version="0.92.4 (5da689c313, 2019-01-14)"><metadata
   id="metadata25"><rdf:RDF><cc:Work
       rdf:about=""><dc:format>image/svg+xml</dc:format><dc:type
         rdf:resource="http://purl.org/dc/dcmitype/StillImage" /></cc:Work></rdf:RDF></metadata><defs
   id="defs23" /><sodipodi:namedview
   pagecolor="#ffffff"
   bordercolor="#666666"
   borderopacity="1"
   objecttolerance="10"
   gridtolerance="10"
   guidetolerance="10"
   inkscape:pageopacity="0"
   inkscape:pageshadow="2"
   inkscape:window-width="1920"
   inkscape:window-height="1014"
   id="namedview21"
   showgrid="false"
   inkscape:zoom="3.6875"
   inkscape:cx="-19.389831"
   inkscape:cy="32"
   inkscape:window-x="0"
   inkscape:window-y="0"
   inkscape:window-maximized="1"
   inkscape:current-layer="Layer_1" />
<style
   type="text/css"
   id="style2">
	.st0{fill:url(#SVGID_1_);}
	.st1{fill:url(#SVGID_2_);}
</style>
<g
   id="g18"
   transform="matrix(0.828125,0,0,0.828125,5.5,5.5)">
	<linearGradient
   id="SVGID_1_"
   gradientUnits="userSpaceOnUse"
   x1="33.150398"
   y1="-4.4974999"
   x2="31.683001"
   y2="42.0569">
		<stop
   offset="0"
   style="stop-color:#3F6D8E"
   id="stop4" />
		<stop
   offset="1"
   style="stop-color:#294B64"
   id="stop6" />
	</linearGradient>
	<path
   class="st0"
   d="M 32,0 C 14.4,0 0,14.4 0,32 0,49.6 14.4,64 32,64 49.6,64 64,49.6 64,32 64,14.4 49.6,0 32,0 Z"
   id="path9"
   style="fill:url(#SVGID_1_)"
   inkscape:connector-curvature="0" />
	<linearGradient
   id="SVGID_2_"
   gradientUnits="userSpaceOnUse"
   x1="35.0467"
   y1="7.4155998"
   x2="35.5802"
   y2="37.695999">
		<stop
   offset="0"
   style="stop-color:#FFD845"
   id="stop11" />
		<stop
   offset="1"
   style="stop-color:#FF9D21"
   id="stop13" />
	</linearGradient>
	<path
   class="st1"
   d="M 35.9,28.7 C 35.5,28.2 35.2,27.6 35.2,27 V 14.4 c 0,-1.6 -1.2,-3.2 -3.2,-3.2 -1.6,0 -3.2,1.2 -3.2,3.2 v 14.4 c 0,0.2 0,0.4 0.1,0.5 0.3,1.1 0.9,2.1 1.7,2.9 l 7.8,7.8 c 0.5,0.5 1.1,0.7 1.8,0.8 1.6,0.1 2.9,-1.4 2.8,-3 0,-0.7 -0.2,-1.4 -0.6,-1.7 z m 1.3,13.7 c -0.2,0 -0.5,-0.1 -0.7,-0.3 l -8.2,-7.9 c -0.4,-0.4 -0.4,-1 0,-1.4 0.4,-0.4 1,-0.4 1.4,0 l 8.2,7.9 c 0.4,0.4 0.4,1 0,1.4 -0.2,0.2 -0.4,0.3 -0.7,0.3 z"
   id="path16"
   style="fill:url(#SVGID_2_)"
   inkscape:connector-curvature="0" />
</g>
</svg>