<svg id="Layer_1" data-name="Layer 1" xmlns="http://www.w3.org/2000/svg" viewBox="0 0 64 64"><defs><style>.cls-1{opacity:0.5;}.cls-2{fill:#b5b5b5;}</style></defs><g class="cls-1"><path class="cls-2" d="M48.9,12.7h-34a2.7,2.7,0,0,0-2.7,2.7V48.6a2.8,2.8,0,0,0,2.7,2.8h34a3.1,3.1,0,0,0,3-3V15.6A3,3,0,0,0,48.9,12.7Z"/></g><path d="M51.5,58.6h-39A7.6,7.6,0,0,1,4.9,51V41.8a2,2,0,0,1,1.9-2,2,2,0,0,1,2,2V51a3.8,3.8,0,0,0,3.7,3.7h39A3.8,3.8,0,0,0,55.2,51V13a3.8,3.8,0,0,0-3.7-3.7h-39A3.8,3.8,0,0,0,8.8,13V27.1a2.9,2.9,0,0,0,3,3H41.3a1.9,1.9,0,0,1,1.9,2A1.8,1.8,0,0,1,41.3,34H11.8a6.9,6.9,0,0,1-6.9-6.9V13a7.6,7.6,0,0,1,7.6-7.6h39A7.6,7.6,0,0,1,59.1,13V51A7.6,7.6,0,0,1,51.5,58.6Z"/><path d="M28.2,47.2a2,2,0,0,1-1.4-.6,1.9,1.9,0,0,1,0-2.8L38.7,31.9,26.9,20a1.9,1.9,0,0,1,0-2.8,2,2,0,0,1,2.7,0L42.9,30.5a1.9,1.9,0,0,1,0,2.8L29.6,46.6A2,2,0,0,1,28.2,47.2Z"/></svg>