<?xml version="1.0" encoding="utf-8"?>
<!-- Generator: Adobe Illustrator 25.2.1, SVG Export Plug-In . SVG Version: 6.00 Build 0)  -->
<svg version="1.1" id="Layer_1" xmlns="http://www.w3.org/2000/svg" xmlns:xlink="http://www.w3.org/1999/xlink" x="0px" y="0px"
	 viewBox="0 0 64 64" style="enable-background:new 0 0 64 64;" xml:space="preserve">
<style type="text/css">
	.st0{fill:url(#SVGID_1_);}
</style>
<linearGradient id="SVGID_1_" gradientUnits="userSpaceOnUse" x1="32" y1="4.3699" x2="32" y2="50.9199">
	<stop  offset="0" style="stop-color:#5EB571"/>
	<stop  offset="1" style="stop-color:#2DAF8B"/>
</linearGradient>
<path class="st0" d="M27.5,53.2v2c0,0.6-0.5,1.1-1.1,1.1h-4.5c-4.7,0-8.5-3.8-8.5-8.5V16.2c0-4.7,3.8-8.5,8.5-8.5h5.6v4.2h-5.6
	c-2.3,0-4.2,1.9-4.2,4.2v31.7c0,2.3,1.9,4.2,4.2,4.2h4.5C27.1,52.1,27.5,52.6,27.5,53.2z M49,35.8l-4.7,4.7c-0.4,0.4-1,0.6-1.5,0.6
	s-1.1-0.2-1.5-0.6c-0.8-0.8-0.8-2.2,0-3l3.4-3.4H23c-1.2,0-2.1-0.9-2.1-2.1s0.9-2.1,2.1-2.1h21.7l-3.4-3.4c-0.8-0.8-0.8-2.2,0-3
	s2.2-0.8,3,0l4.7,4.7C51.1,30.3,51.1,33.7,49,35.8z"/>
</svg>
