<?xml version="1.0" encoding="utf-8"?>
<!-- Generator: Adobe Illustrator 25.2.1, SVG Export Plug-In . SVG Version: 6.00 Build 0)  -->
<svg version="1.1" id="Layer_1" xmlns="http://www.w3.org/2000/svg" xmlns:xlink="http://www.w3.org/1999/xlink" x="0px" y="0px"
	 viewBox="0 0 64 64" style="enable-background:new 0 0 64 64;" xml:space="preserve">
<style type="text/css">
	.st0{fill:url(#SVGID_1_);}
</style>
<linearGradient id="SVGID_1_" gradientUnits="userSpaceOnUse" x1="29.7581" y1="58.0256" x2="32.9028" y2="13.1013" gradientTransform="matrix(1 0 0 -1 0 64)">
	<stop  offset="0" style="stop-color:#1379E6"/>
	<stop  offset="1" style="stop-color:#115CCC"/>
</linearGradient>
<path class="st0" d="M44.6,22.5v-5.8c0-5-4-9-9-9H31l0,0l0,0h-3c-4.7,0-8.5,3.8-8.5,8.5v6.1c-3.5,1.1-6,4.3-6,8.1v17.3
	c0,4.7,3.8,8.5,8.5,8.5h15.7h1.7h2.8c4.7,0,8.5-3.8,8.5-8.5V31C50.6,27,48.1,23.7,44.6,22.5z M27.9,11.9h3l0,0l0,0H36
	c2.3,0,4.2,1.9,4.2,4.2V22H37l0,0l0,0H23.7v-5.9C23.7,13.8,25.6,11.9,27.9,11.9z M46.3,47.8c0,2.3-1.9,4.2-4.2,4.2h-2.8h-1.7H21.9
	c-2.3,0-4.2-1.9-4.2-4.2V30.4c0-2.3,1.9-4.2,4.2-4.2h15l0,0l0,0H42c2.3,0,4.2,1.9,4.2,4.2L46.3,47.8L46.3,47.8z"/>
</svg>
