<?xml version="1.0" encoding="UTF-8" standalone="no"?>
<!-- Generator: Adobe Illustrator 25.2.1, SVG Export Plug-In . SVG Version: 6.00 Build 0)  -->

<svg
   xmlns:dc="http://purl.org/dc/elements/1.1/"
   xmlns:cc="http://creativecommons.org/ns#"
   xmlns:rdf="http://www.w3.org/1999/02/22-rdf-syntax-ns#"
   xmlns:svg="http://www.w3.org/2000/svg"
   xmlns="http://www.w3.org/2000/svg"
   xmlns:sodipodi="http://sodipodi.sourceforge.net/DTD/sodipodi-0.dtd"
   xmlns:inkscape="http://www.inkscape.org/namespaces/inkscape"
   version="1.1"
   id="Layer_1"
   x="0px"
   y="0px"
   viewBox="0 0 64 64"
   style="enable-background:new 0 0 64 64;"
   xml:space="preserve"
   sodipodi:docname="applications-internet.svg"
   inkscape:version="0.92.4 (5da689c313, 2019-01-14)"><metadata
   id="metadata31"><rdf:RDF><cc:Work
       rdf:about=""><dc:format>image/svg+xml</dc:format><dc:type
         rdf:resource="http://purl.org/dc/dcmitype/StillImage" /></cc:Work></rdf:RDF></metadata><defs
   id="defs29" /><sodipodi:namedview
   pagecolor="#ffffff"
   bordercolor="#666666"
   borderopacity="1"
   objecttolerance="10"
   gridtolerance="10"
   guidetolerance="10"
   inkscape:pageopacity="0"
   inkscape:pageshadow="2"
   inkscape:window-width="1920"
   inkscape:window-height="1014"
   id="namedview27"
   showgrid="false"
   inkscape:zoom="3.6875"
   inkscape:cx="32"
   inkscape:cy="32"
   inkscape:window-x="0"
   inkscape:window-y="0"
   inkscape:window-maximized="1"
   inkscape:current-layer="Layer_1" />
<style
   type="text/css"
   id="style2">
	.st0{fill:url(#SVGID_1_);}
	.st1{fill:url(#SVGID_2_);}
</style>
<g
   id="g13"
   transform="matrix(0.71875,0,0,0.71875,9,9)">
	<g
   id="g11">
		
			<linearGradient
   id="SVGID_1_"
   gradientUnits="userSpaceOnUse"
   x1="0"
   y1="31.889999"
   x2="64"
   y2="31.889999"
   gradientTransform="matrix(1,0,0,-1,0,63.89)">
			<stop
   offset="0"
   style="stop-color:#EAE7EA"
   id="stop4" />
			<stop
   offset="1"
   style="stop-color:#D6D3E3"
   id="stop6" />
		</linearGradient>
		<path
   class="st0"
   d="M 0,32 C 0,49.6 14.4,64 32,64 49.6,64 64,49.6 64,32 64,14.4 49.6,0 32,0 14.4,0 0,14.4 0,32 Z m 58.4,0 C 58.4,46.6 46.5,58.4 32,58.4 17.5,58.4 5.6,46.6 5.6,32 5.6,17.4 17.4,5.6 32,5.6 46.6,5.6 58.4,17.4 58.4,32 Z"
   id="path9"
   style="fill:url(#SVGID_1_)"
   inkscape:connector-curvature="0" />
	</g>
</g>
<g
   id="g24"
   transform="matrix(0.71875,0,0,0.71875,9,9)">
	<g
   id="g22">
		
			<linearGradient
   id="SVGID_2_"
   gradientUnits="userSpaceOnUse"
   x1="16.700001"
   y1="31.940001"
   x2="47.309898"
   y2="31.940001"
   gradientTransform="matrix(1,0,0,-1,0,63.89)">
			<stop
   offset="0"
   style="stop-color:#1379E6"
   id="stop15" />
			<stop
   offset="1"
   style="stop-color:#115CCC"
   id="stop17" />
		</linearGradient>
		<path
   class="st1"
   d="m 17.1,17.1 c -0.4,0.4 -0.5,1 -0.3,1.5 l 8.3,19.5 c 0.1,0.3 0.4,0.6 0.7,0.7 l 19.5,8.3 c 0.5,0.2 1.1,0.1 1.5,-0.3 0.3,-0.3 0.4,-0.6 0.4,-1 0,-0.2 0,-0.4 -0.1,-0.5 L 38.8,25.8 C 38.7,25.5 38.4,25.2 38.1,25.1 L 18.6,16.8 c -0.5,-0.2 -1.1,-0.1 -1.5,0.3 z M 34.8,32 c 0,1.5 -1.2,2.8 -2.8,2.8 -1.5,0 -2.8,-1.2 -2.8,-2.8 0,-1.5 1.2,-2.8 2.8,-2.8 1.5,0 2.8,1.3 2.8,2.8 z"
   id="path20"
   style="fill:url(#SVGID_2_)"
   inkscape:connector-curvature="0" />
	</g>
</g>
</svg>