<?xml version="1.0" encoding="UTF-8" standalone="no"?>
<!-- Generator: Adobe Illustrator 25.2.1, SVG Export Plug-In . SVG Version: 6.00 Build 0)  -->

<svg
   xmlns:dc="http://purl.org/dc/elements/1.1/"
   xmlns:cc="http://creativecommons.org/ns#"
   xmlns:rdf="http://www.w3.org/1999/02/22-rdf-syntax-ns#"
   xmlns:svg="http://www.w3.org/2000/svg"
   xmlns="http://www.w3.org/2000/svg"
   xmlns:sodipodi="http://sodipodi.sourceforge.net/DTD/sodipodi-0.dtd"
   xmlns:inkscape="http://www.inkscape.org/namespaces/inkscape"
   version="1.1"
   id="Layer_1"
   x="0px"
   y="0px"
   viewBox="0 0 64 64"
   style="enable-background:new 0 0 64 64;"
   xml:space="preserve"
   sodipodi:docname="applications-science.svg"
   inkscape:version="0.92.4 (5da689c313, 2019-01-14)"><metadata
   id="metadata76"><rdf:RDF><cc:Work
       rdf:about=""><dc:format>image/svg+xml</dc:format><dc:type
         rdf:resource="http://purl.org/dc/dcmitype/StillImage" /></cc:Work></rdf:RDF></metadata><defs
   id="defs74" /><sodipodi:namedview
   pagecolor="#ffffff"
   bordercolor="#666666"
   borderopacity="1"
   objecttolerance="10"
   gridtolerance="10"
   guidetolerance="10"
   inkscape:pageopacity="0"
   inkscape:pageshadow="2"
   inkscape:window-width="1920"
   inkscape:window-height="1014"
   id="namedview72"
   showgrid="false"
   inkscape:zoom="3.6875"
   inkscape:cx="32"
   inkscape:cy="32"
   inkscape:window-x="0"
   inkscape:window-y="0"
   inkscape:window-maximized="1"
   inkscape:current-layer="Layer_1" />
<style
   type="text/css"
   id="style2">
	.st0{fill:url(#SVGID_1_);}
	.st1{fill:url(#SVGID_2_);}
	.st2{fill:url(#SVGID_3_);}
	.st3{fill:url(#SVGID_4_);}
	.st4{fill:url(#SVGID_5_);}
	.st5{fill:url(#SVGID_6_);}
	.st6{fill:url(#SVGID_7_);}
	.st7{fill:url(#SVGID_8_);}
	.st8{fill:url(#SVGID_9_);}
</style>
<linearGradient
   id="SVGID_1_"
   gradientUnits="userSpaceOnUse"
   x1="19.1563"
   y1="36.1293"
   x2="35.6909"
   y2="36.1293"
   gradientTransform="matrix(0.78492936,0,0,0.78492936,6.85,6.85)">
	<stop
   offset="0"
   style="stop-color:#2ADE7A"
   id="stop4" />
	<stop
   offset="1"
   style="stop-color:#20B48D"
   id="stop6" />
</linearGradient>
<path
   class="st0"
   d="m 34.087049,41.700863 c -0.156986,0 -0.392465,-0.07849 -0.549451,-0.235478 L 22.07763,30.005416 c -0.313972,-0.313972 -0.313972,-0.784929 0,-1.098901 0.313971,-0.313972 0.784929,-0.313972 1.098901,0 l 11.459968,11.459969 c 0.313972,0.313971 0.313972,0.784929 0,1.098901 -0.156986,0.156985 -0.313972,0.235478 -0.54945,0.235478 z"
   id="path9"
   style="fill:url(#SVGID_1_);stroke-width:0.78492934"
   inkscape:connector-curvature="0" />
<linearGradient
   id="SVGID_2_"
   gradientUnits="userSpaceOnUse"
   x1="21.6736"
   y1="31.7955"
   x2="41.9172"
   y2="31.7955"
   gradientTransform="matrix(0.78492936,0,0,0.78492936,6.85,6.85)">
	<stop
   offset="0"
   style="stop-color:#E53030"
   id="stop11" />
	<stop
   offset="0.835"
   style="stop-color:#FF4C4C"
   id="stop13" />
</linearGradient>
<path
   class="st1"
   d="m 39.032104,39.73854 c -0.156986,0 -0.392465,-0.07849 -0.549451,-0.235479 L 24.118446,25.138854 c -0.313972,-0.313972 -0.313972,-0.784929 0,-1.098901 0.313972,-0.313972 0.784929,-0.313972 1.098901,0 L 39.581554,38.40416 c 0.313972,0.313972 0.313972,0.784929 0,1.098901 -0.235479,0.156986 -0.392465,0.235479 -0.54945,0.235479 z"
   id="path16"
   style="fill:url(#SVGID_2_);stroke-width:0.78492934"
   inkscape:connector-curvature="0" />
<linearGradient
   id="SVGID_3_"
   gradientUnits="userSpaceOnUse"
   x1="27.8619"
   y1="27.4235"
   x2="44.3969"
   y2="27.4235"
   gradientTransform="matrix(0.78492936,0,0,0.78492936,6.85,6.85)">
	<stop
   offset="0"
   style="stop-color:#2ADE7A"
   id="stop18" />
	<stop
   offset="1"
   style="stop-color:#20B48D"
   id="stop20" />
</linearGradient>
<path
   class="st2"
   d="m 40.915934,34.871978 c -0.156986,0 -0.392465,-0.07849 -0.54945,-0.235479 L 28.906515,23.176531 c -0.313972,-0.313972 -0.313972,-0.78493 0,-1.098901 0.313972,-0.313972 0.784929,-0.313972 1.098901,0 l 11.459969,11.459968 c 0.313971,0.313972 0.313971,0.784929 0,1.098901 -0.156986,0.156986 -0.313972,0.235479 -0.549451,0.235479 z"
   id="path23"
   style="fill:url(#SVGID_3_);stroke-width:0.78492934"
   inkscape:connector-curvature="0" />
<linearGradient
   id="SVGID_4_"
   gradientUnits="userSpaceOnUse"
   x1="43.2249"
   y1="12.5532"
   x2="59.0627"
   y2="12.5532"
   gradientTransform="matrix(0.78492936,0,0,0.78492936,6.85,6.85)">
	<stop
   offset="0"
   style="stop-color:#E53030"
   id="stop25" />
	<stop
   offset="0.835"
   style="stop-color:#FF4C4C"
   id="stop27" />
</linearGradient>
<path
   class="st3"
   d="m 52.454396,22.941052 c -0.156986,0 -0.392465,-0.07849 -0.549451,-0.235479 L 40.994427,11.795055 c -0.313972,-0.313972 -0.313972,-0.784929 0,-1.098901 0.313972,-0.313972 0.784929,-0.313972 1.098901,0 l 10.910518,10.910518 c 0.313972,0.313972 0.313972,0.784929 0,1.098901 -0.156986,0.156986 -0.392465,0.235479 -0.54945,0.235479 z"
   id="path30"
   style="fill:url(#SVGID_4_);stroke-width:0.78492934"
   inkscape:connector-curvature="0" />
<linearGradient
   id="SVGID_5_"
   gradientUnits="userSpaceOnUse"
   x1="4.6343"
   y1="51.1437"
   x2="20.4722"
   y2="51.1437"
   gradientTransform="matrix(0.78492936,0,0,0.78492936,6.85,6.85)">
	<stop
   offset="0"
   style="stop-color:#E53030"
   id="stop32" />
	<stop
   offset="0.835"
   style="stop-color:#FF4C4C"
   id="stop34" />
</linearGradient>
<path
   class="st4"
   d="m 22.156122,53.239325 c -0.156985,0 -0.392464,-0.07849 -0.54945,-0.235479 L 10.696154,42.093328 c -0.313972,-0.313972 -0.313972,-0.784929 0,-1.098901 0.313972,-0.313972 0.784929,-0.313972 1.098901,0 l 10.910518,10.910518 c 0.313972,0.313972 0.313972,0.784929 0,1.098901 -0.156986,0.156986 -0.313972,0.235479 -0.549451,0.235479 z"
   id="path37"
   style="fill:url(#SVGID_5_);stroke-width:0.78492934"
   inkscape:connector-curvature="0" />
<g
   id="g53"
   transform="matrix(0.78492936,0,0,0.78492936,6.85,6.85)">
	<linearGradient
   id="SVGID_6_"
   gradientUnits="userSpaceOnUse"
   x1="-1.34869e-08"
   y1="43.732201"
   x2="18.7402"
   y2="43.732201">
		<stop
   offset="0"
   style="stop-color:#1379E6"
   id="stop39" />
		<stop
   offset="1"
   style="stop-color:#115CCC"
   id="stop41" />
	</linearGradient>
	<path
   class="st5"
   d="M 17.7,40.4 C 16.9,40.2 16,40.1 15.2,40 c 0,0 -0.1,0 -0.1,0 0,0 0,0 0,0 C 10,39.3 4.9,39.8 0.6,44.1 c -0.8,0.8 -0.8,2.2 0,3 0.8,0.8 2.2,0.8 3,0 3.5,-3.5 7.7,-3.5 12.6,-2.7 0.8,0.1 1.7,0.3 2.6,0.5 -0.4,-1.5 -0.8,-3 -1.1,-4.5 z"
   id="path44"
   style="fill:url(#SVGID_6_)"
   inkscape:connector-curvature="0" />
	<linearGradient
   id="SVGID_7_"
   gradientUnits="userSpaceOnUse"
   x1="22.2841"
   y1="23.568501"
   x2="47.710999"
   y2="23.568501">
		<stop
   offset="0"
   style="stop-color:#1379E6"
   id="stop46" />
		<stop
   offset="1"
   style="stop-color:#115CCC"
   id="stop48" />
	</linearGradient>
	<path
   class="st6"
   d="m 47.1,3.6 c 0.8,-0.8 0.8,-2.2 0,-3 -0.8,-0.8 -2.2,-0.8 -3,0 -11.8,11.8 5.4,29.5 -4.3,39.2 -4.1,4.1 -9.3,3.4 -15.3,2.1 -0.7,-0.2 -1.4,-0.3 -2.2,-0.5 0,0 0,0 0,0 0,0 0,0 0,0 0,0 0,0 0,0 0.4,1.5 0.7,3.1 1,4.6 0.8,0.2 1.5,0.3 2.3,0.5 0,0 0.1,0 0.1,0 0,0 0,0 0,0 5.9,1.1 12.1,1.3 17.1,-3.7 C 54.7,30.9 37.4,13.3 47.1,3.6 Z"
   id="path51"
   style="fill:url(#SVGID_7_)"
   inkscape:connector-curvature="0" />
</g>
<g
   id="g69"
   transform="matrix(0.78492936,0,0,0.78492936,6.85,6.85)">
	<linearGradient
   id="SVGID_8_"
   gradientUnits="userSpaceOnUse"
   x1="15.972"
   y1="40.114201"
   x2="41.398399"
   y2="40.114201">
		<stop
   offset="0"
   style="stop-color:#1379E6"
   id="stop55" />
		<stop
   offset="1"
   style="stop-color:#115CCC"
   id="stop57" />
	</linearGradient>
	<path
   class="st7"
   d="m 40.4,17.7 c -0.8,-0.2 -1.6,-0.3 -2.4,-0.5 0,0 0,0 -0.1,0 0,0 0,0 0,0 C 32,16.1 25.8,15.9 20.8,20.9 9,32.7 26.1,50.5 16.5,60.1 c -0.8,0.8 -0.8,2.2 0,3 0.8,0.8 2.2,0.8 3,0 11.9,-11.9 -5.4,-29.5 4.3,-39.2 4,-4 9.2,-3.4 15.1,-2.1 0.8,0.2 1.6,0.4 2.4,0.5 -0.3,-1.5 -0.6,-3.1 -0.9,-4.6 z"
   id="path60"
   style="fill:url(#SVGID_8_)"
   inkscape:connector-curvature="0" />
	<linearGradient
   id="SVGID_9_"
   gradientUnits="userSpaceOnUse"
   x1="44.942299"
   y1="19.9487"
   x2="63.6828"
   y2="19.9487">
		<stop
   offset="0"
   style="stop-color:#1379E6"
   id="stop62" />
		<stop
   offset="1"
   style="stop-color:#115CCC"
   id="stop64" />
	</linearGradient>
	<path
   class="st8"
   d="m 63.1,16.6 c -0.8,-0.8 -2.2,-0.8 -3,0 -3.5,3.5 -7.9,3.5 -12.8,2.6 -0.8,-0.1 -1.5,-0.3 -2.3,-0.5 0.3,1.5 0.7,3 1,4.5 0.7,0.1 1.4,0.2 2.1,0.3 0.1,0 0.1,0 0.2,0 0,0 0,0 0,0 5.6,0.7 10.6,0.1 14.8,-4.1 0.8,-0.6 0.8,-2 0,-2.8 z"
   id="path67"
   style="fill:url(#SVGID_9_)"
   inkscape:connector-curvature="0" />
</g>
</svg>