<?xml version="1.0" encoding="utf-8"?>
<!-- Generator: Adobe Illustrator 25.1.0, SVG Export Plug-In . SVG Version: 6.00 Build 0)  -->
<svg version="1.1" id="Layer_1" xmlns="http://www.w3.org/2000/svg" xmlns:xlink="http://www.w3.org/1999/xlink" x="0px" y="0px"
	 viewBox="0 0 64 64" style="enable-background:new 0 0 64 64;" xml:space="preserve">
<style type="text/css">
	.st0{fill:url(#SVGID_1_);}
	.st1{fill:url(#SVGID_2_);}
	.st2{fill:url(#SVGID_3_);}
</style>
<g>
	<linearGradient id="SVGID_1_" gradientUnits="userSpaceOnUse" x1="31.8968" y1="10.9458" x2="31.9611" y2="15.7317">
		<stop  offset="0" style="stop-color:#4B558A"/>
		<stop  offset="1" style="stop-color:#3C477C"/>
	</linearGradient>
	<path class="st0" d="M36.2,13.4c0-2.3-1.9-4.2-4.2-4.2s-4.2,1.9-4.2,4.2v3.2h-0.2v0h0.1h0.6h0.6h0.6h0.6h0.6h0.6H32h0.6h0.6h0.6
		h0.6h1.9v0h-0.2V13.4z"/>
	<linearGradient id="SVGID_2_" gradientUnits="userSpaceOnUse" x1="31.8631" y1="23.0009" x2="32.0275" y2="52.5242">
		<stop  offset="0" style="stop-color:#DCDAEA"/>
		<stop  offset="1" style="stop-color:#D5D3EA"/>
	</linearGradient>
	<path class="st1" d="M43.4,47.4L43.4,47.4c0,0.2,0,0.3,0,0.5l-1.7,6.2c-0.1,0.4-0.4,0.6-0.8,0.7c-0.4,0.1-0.7-0.1-1-0.4l-4-5.1
		c-0.1-0.1-0.2-0.3-0.2-0.4l-3.8-19l-3.7,18.6c-0.1,0.4-0.3,0.9-0.6,1.2L24,54.4c-0.2,0.3-0.6,0.4-1,0.4c-0.4-0.1-0.7-0.3-0.8-0.7
		l-1.6-5.8c-0.1-0.4-0.1-0.9,0-1.4l4.4-22.1l0,0h13.7L43.4,47.4z"/>
	<linearGradient id="SVGID_3_" gradientUnits="userSpaceOnUse" x1="31.8172" y1="15.2637" x2="32.0363" y2="23.9728">
		<stop  offset="0" style="stop-color:#8E529E"/>
		<stop  offset="1" style="stop-color:#904299"/>
	</linearGradient>
	<path class="st2" d="M36.9,16.1H27c-1.2,0-2.1,0.9-2.1,2.1v0.2v0.3v0.3v0.3v0.3v0.3v0.3v0.3v0.3v0.3v0.3v0.3v0.3v0.3v0.3v0.3v0.3
		v0.3v0.3v0.3v0.3v0.3v0.3v0.3v0.3v0.3v0.1h0.2h0.3h0.3H26h0.3h0.3H27h0.3h0.3h0.3h0.3h0.3h0.3h0.3h0.3h0.3H30h0.3h0.3h0.3h0.3h0.3
		h0.3h0.3h0h0.3h0.3h0.3h0.3H39v-6.6C39,17,38.1,16.1,36.9,16.1z"/>
</g>
</svg>
