<?xml version="1.0" encoding="utf-8"?>
<!-- Generator: Adobe Illustrator 26.0.3, SVG Export Plug-In . SVG Version: 6.00 Build 0)  -->
<svg version="1.1" id="Layer_1" xmlns="http://www.w3.org/2000/svg" xmlns:xlink="http://www.w3.org/1999/xlink" x="0px" y="0px"
	 viewBox="0 0 64 64" style="enable-background:new 0 0 64 64;" xml:space="preserve">
<style type="text/css">
	.st0{fill:#F4F4F4;}
	.st1{fill:#E5458E;}
</style>
<path class="st0" d="M40,58.7H24.1c-7.1,0-12.8-5.7-12.8-12.8V18.2c0-7.1,5.7-12.8,12.8-12.8H40c7.1,0,12.8,5.7,12.8,12.8v27.8
	C52.8,53,47.1,58.7,40,58.7z"/>
<g>
	<path class="st1" d="M23.6,37.4c-1.4,0-2.5-1.1-2.5-2.5v-5.6c0-1.4,1.1-2.5,2.5-2.5s2.5,1.1,2.5,2.5v5.6
		C26.1,36.3,25,37.4,23.6,37.4z"/>
	<path class="st1" d="M40.5,37.4c-1.4,0-2.5-1.1-2.5-2.5v-5.6c0-1.4,1.1-2.5,2.5-2.5s2.5,1.1,2.5,2.5v5.6
		C43,36.3,41.8,37.4,40.5,37.4z"/>
	<path class="st1" d="M32.2,41.1c-1.4,0-2.5-1.1-2.5-2.5V25.5c0-1.4,1.1-2.5,2.5-2.5c1.4,0,2.5,1.1,2.5,2.5v13.1
		C34.8,40,33.6,41.1,32.2,41.1z"/>
</g>
</svg>
